<svg width="683" height="496" viewBox="0 0 683 496" fill="none" xmlns="http://www.w3.org/2000/svg">
<path d="M397.846 87.5455C410.647 87.5455 421.024 77.1911 421.024 64.4183C421.024 51.6454 410.647 41.291 397.846 41.291C385.046 41.291 374.669 51.6454 374.669 64.4183C374.669 77.1911 385.046 87.5455 397.846 87.5455Z" fill="#F2F2F2"/>
<path d="M577.642 430.783C612.093 404.599 628.548 360.601 618.247 318.63C617.991 317.587 617.72 316.546 617.436 315.508C610.607 290.594 593.711 266.916 569.086 258.955C548.409 252.271 525.84 257.411 504.269 254.753C461.924 249.535 429.095 215.348 405.996 179.553C382.896 143.758 365.144 103.691 334.45 74.1199C283.855 25.3761 201.324 14.8816 138.594 46.6101C75.8646 78.3387 35.9066 148.731 37.6107 218.886C39.3148 289.041 81.0534 356.114 141.668 391.701C163.936 404.774 189.69 414.035 215.321 410.794C237.56 407.982 257.768 396.059 279.903 392.519C314.704 386.953 349.283 402.653 379.384 420.949C409.484 439.245 438.559 460.931 472.764 469.413C505.977 477.649 547.124 453.977 577.642 430.783Z" fill="#F2F2F2"/>
<path d="M528.145 48.0823C527.39 47.5799 526.626 47.1035 525.87 46.6184C504.04 32.6868 480.641 21.369 456.157 12.8986L450.48 91.044H414.491V1.49125C412.225 1.02352 409.942 0.581775 407.659 0.166016V91.044H364.89C341.346 91.044 318.765 81.7113 302.117 65.0988C285.468 48.4863 276.115 25.955 276.115 2.46145C273.823 2.95517 271.549 3.48345 269.275 4.04646V91.0441H234.44L229.032 16.5279C203.871 26.1564 179.984 38.8184 157.904 54.232C157.522 54.4919 157.14 54.7604 156.766 55.0202C154.848 56.3628 152.956 57.7314 151.072 59.1172V357.242H253.736L251.922 332.167L241.94 194.49H442.972L432.989 332.167L431.175 357.242H532.702V51.0965C531.192 50.0745 529.673 49.0697 528.145 48.0823ZM269.275 171.753H240.29L234.934 97.8694H269.275V171.753ZM407.659 171.753H358.979V170.289C358.979 169.586 358.84 168.889 358.57 168.239C358.3 167.589 357.904 166.998 357.405 166.501C356.906 166.004 356.313 165.61 355.661 165.341C355.01 165.073 354.311 164.935 353.606 164.937H332.443C331.738 164.936 331.04 165.075 330.389 165.343C329.738 165.612 329.147 166.007 328.649 166.504C328.151 167.001 327.755 167.591 327.486 168.241C327.216 168.89 327.078 169.586 327.078 170.289V171.753H276.115V97.8694H407.659V171.753ZM414.491 171.753V97.8694H449.986L444.63 171.753H414.491Z" fill="#3F3D56"/>
<path d="M-0.00012207 376.334C7.54086 385.25 15.6973 393.629 24.4095 401.409L658.59 402.276C667.302 394.495 675.459 386.116 683 377.2L-0.00012207 376.334Z" fill="#3F3D56"/>
<path d="M430.059 296.04V370.274C430.059 371.22 430.436 372.127 431.107 372.796C431.777 373.465 432.686 373.841 433.634 373.842H543.881C544.829 373.841 545.738 373.465 546.408 372.796C547.078 372.127 547.455 371.22 547.456 370.274V296.04C547.454 295.095 547.076 294.189 546.406 293.521C545.736 292.853 544.828 292.478 543.881 292.477H433.634C432.687 292.478 431.779 292.854 431.109 293.521C430.438 294.189 430.061 295.095 430.059 296.04Z" fill="#3F3D56"/>
<path d="M432.645 296.963V369.358C432.646 369.863 432.847 370.348 433.206 370.705C433.564 371.063 434.049 371.264 434.556 371.265H542.963C543.469 371.264 543.955 371.063 544.313 370.705C544.671 370.348 544.873 369.863 544.874 369.358V296.963C544.874 296.457 544.672 295.972 544.314 295.614C543.956 295.256 543.47 295.054 542.963 295.053H434.556C434.049 295.054 433.563 295.256 433.204 295.614C432.846 295.972 432.645 296.457 432.645 296.963Z" fill="#6C63FF"/>
<path d="M427.753 384.751C427.955 385.003 428.212 385.207 428.504 385.347C428.796 385.486 429.116 385.558 429.44 385.556H547.488C547.811 385.556 548.129 385.483 548.421 385.345C548.712 385.206 548.969 385.004 549.172 384.754C549.376 384.504 549.52 384.211 549.596 383.898C549.672 383.585 549.677 383.259 549.611 382.944L547.779 374.259C547.703 373.905 547.539 373.575 547.303 373.3C547.067 373.025 546.765 372.813 546.426 372.684C546.181 372.588 545.919 372.539 545.655 372.539H431.265C431.001 372.539 430.74 372.588 430.494 372.684C430.155 372.813 429.854 373.025 429.617 373.3C429.381 373.575 429.218 373.905 429.142 374.259L427.309 382.944C427.244 383.259 427.25 383.585 427.327 383.897C427.403 384.21 427.549 384.501 427.753 384.751Z" fill="#2F2E41"/>
<path d="M541.605 376.281H544.393C544.627 376.281 544.817 376.092 544.817 375.858V374.527C544.817 374.294 544.627 374.105 544.393 374.105H541.605C541.371 374.105 541.181 374.294 541.181 374.527V375.858C541.181 376.092 541.371 376.281 541.605 376.281Z" fill="#3F3D56"/>
<path d="M534.333 376.281H537.122C537.356 376.281 537.545 376.092 537.545 375.858V374.527C537.545 374.294 537.356 374.105 537.122 374.105H534.333C534.099 374.105 533.91 374.294 533.91 374.527V375.858C533.91 376.092 534.099 376.281 534.333 376.281Z" fill="#3F3D56"/>
<path d="M527.061 376.281H529.85C530.084 376.281 530.273 376.092 530.273 375.858V374.527C530.273 374.294 530.084 374.105 529.85 374.105H527.061C526.827 374.105 526.638 374.294 526.638 374.527V375.858C526.638 376.092 526.827 376.281 527.061 376.281Z" fill="#3F3D56"/>
<path d="M519.79 376.281H522.578C522.812 376.281 523.002 376.092 523.002 375.858V374.527C523.002 374.294 522.812 374.105 522.578 374.105H519.79C519.556 374.105 519.366 374.294 519.366 374.527V375.858C519.366 376.092 519.556 376.281 519.79 376.281Z" fill="#3F3D56"/>
<path d="M512.518 376.281H515.306C515.541 376.281 515.73 376.092 515.73 375.858V374.527C515.73 374.294 515.541 374.105 515.306 374.105H512.518C512.284 374.105 512.094 374.294 512.094 374.527V375.858C512.094 376.092 512.284 376.281 512.518 376.281Z" fill="#3F3D56"/>
<path d="M505.247 376.281H508.035C508.269 376.281 508.459 376.092 508.459 375.858V374.527C508.459 374.294 508.269 374.105 508.035 374.105H505.247C505.013 374.105 504.823 374.294 504.823 374.527V375.858C504.823 376.092 505.013 376.281 505.247 376.281Z" fill="#3F3D56"/>
<path d="M497.975 376.281H500.763C500.997 376.281 501.187 376.092 501.187 375.858V374.527C501.187 374.294 500.997 374.105 500.763 374.105H497.975C497.741 374.105 497.551 374.294 497.551 374.527V375.858C497.551 376.092 497.741 376.281 497.975 376.281Z" fill="#3F3D56"/>
<path d="M490.703 376.281H493.492C493.726 376.281 493.915 376.092 493.915 375.858V374.527C493.915 374.294 493.726 374.105 493.492 374.105H490.703C490.469 374.105 490.28 374.294 490.28 374.527V375.858C490.28 376.092 490.469 376.281 490.703 376.281Z" fill="#3F3D56"/>
<path d="M483.432 376.281H486.22C486.454 376.281 486.644 376.092 486.644 375.858V374.527C486.644 374.294 486.454 374.105 486.22 374.105H483.432C483.197 374.105 483.008 374.294 483.008 374.527V375.858C483.008 376.092 483.197 376.281 483.432 376.281Z" fill="#3F3D56"/>
<path d="M476.16 376.281H478.948C479.182 376.281 479.372 376.092 479.372 375.858V374.527C479.372 374.294 479.182 374.105 478.948 374.105H476.16C475.926 374.105 475.736 374.294 475.736 374.527V375.858C475.736 376.092 475.926 376.281 476.16 376.281Z" fill="#3F3D56"/>
<path d="M468.888 376.281H471.676C471.91 376.281 472.1 376.092 472.1 375.858V374.527C472.1 374.294 471.91 374.105 471.676 374.105H468.888C468.654 374.105 468.464 374.294 468.464 374.527V375.858C468.464 376.092 468.654 376.281 468.888 376.281Z" fill="#3F3D56"/>
<path d="M461.617 376.281H464.405C464.639 376.281 464.829 376.092 464.829 375.858V374.527C464.829 374.294 464.639 374.105 464.405 374.105H461.617C461.383 374.105 461.193 374.294 461.193 374.527V375.858C461.193 376.092 461.383 376.281 461.617 376.281Z" fill="#3F3D56"/>
<path d="M454.345 376.281H457.133C457.367 376.281 457.557 376.092 457.557 375.858V374.527C457.557 374.294 457.367 374.105 457.133 374.105H454.345C454.111 374.105 453.921 374.294 453.921 374.527V375.858C453.921 376.092 454.111 376.281 454.345 376.281Z" fill="#3F3D56"/>
<path d="M447.073 376.281H449.862C450.096 376.281 450.286 376.092 450.286 375.858V374.527C450.286 374.294 450.096 374.105 449.862 374.105H447.073C446.839 374.105 446.65 374.294 446.65 374.527V375.858C446.65 376.092 446.839 376.281 447.073 376.281Z" fill="#3F3D56"/>
<path d="M439.802 376.281H442.59C442.824 376.281 443.014 376.092 443.014 375.858V374.527C443.014 374.294 442.824 374.105 442.59 374.105H439.802C439.568 374.105 439.378 374.294 439.378 374.527V375.858C439.378 376.092 439.568 376.281 439.802 376.281Z" fill="#3F3D56"/>
<path d="M432.53 376.281H435.318C435.552 376.281 435.742 376.092 435.742 375.858V374.527C435.742 374.294 435.552 374.105 435.318 374.105H432.53C432.296 374.105 432.106 374.294 432.106 374.527V375.858C432.106 376.092 432.296 376.281 432.53 376.281Z" fill="#3F3D56"/>
<path d="M541.691 379.908H544.479C544.713 379.908 544.903 379.719 544.903 379.485V378.154C544.903 377.921 544.713 377.731 544.479 377.731H541.691C541.456 377.731 541.267 377.921 541.267 378.154V379.485C541.267 379.719 541.456 379.908 541.691 379.908Z" fill="#3F3D56"/>
<path d="M534.419 379.908H537.207C537.441 379.908 537.631 379.719 537.631 379.485V378.154C537.631 377.921 537.441 377.731 537.207 377.731H534.419C534.185 377.731 533.995 377.921 533.995 378.154V379.485C533.995 379.719 534.185 379.908 534.419 379.908Z" fill="#3F3D56"/>
<path d="M527.147 379.908H529.936C530.17 379.908 530.359 379.719 530.359 379.485V378.154C530.359 377.921 530.17 377.731 529.936 377.731H527.147C526.913 377.731 526.724 377.921 526.724 378.154V379.485C526.724 379.719 526.913 379.908 527.147 379.908Z" fill="#3F3D56"/>
<path d="M519.876 379.908H522.664C522.898 379.908 523.088 379.719 523.088 379.485V378.154C523.088 377.921 522.898 377.731 522.664 377.731H519.876C519.642 377.731 519.452 377.921 519.452 378.154V379.485C519.452 379.719 519.642 379.908 519.876 379.908Z" fill="#3F3D56"/>
<path d="M512.604 379.908H515.392C515.626 379.908 515.816 379.719 515.816 379.485V378.154C515.816 377.921 515.626 377.731 515.392 377.731H512.604C512.37 377.731 512.18 377.921 512.18 378.154V379.485C512.18 379.719 512.37 379.908 512.604 379.908Z" fill="#3F3D56"/>
<path d="M505.333 379.908H508.121C508.355 379.908 508.545 379.719 508.545 379.485V378.154C508.545 377.921 508.355 377.731 508.121 377.731H505.333C505.099 377.731 504.909 377.921 504.909 378.154V379.485C504.909 379.719 505.099 379.908 505.333 379.908Z" fill="#3F3D56"/>
<path d="M498.061 379.908H500.849C501.083 379.908 501.273 379.719 501.273 379.485V378.154C501.273 377.921 501.083 377.731 500.849 377.731H498.061C497.827 377.731 497.637 377.921 497.637 378.154V379.485C497.637 379.719 497.827 379.908 498.061 379.908Z" fill="#3F3D56"/>
<path d="M490.789 379.908H493.577C493.811 379.908 494.001 379.719 494.001 379.485V378.154C494.001 377.921 493.811 377.731 493.577 377.731H490.789C490.555 377.731 490.365 377.921 490.365 378.154V379.485C490.365 379.719 490.555 379.908 490.789 379.908Z" fill="#3F3D56"/>
<path d="M483.517 379.908H486.306C486.54 379.908 486.729 379.719 486.729 379.485V378.154C486.729 377.921 486.54 377.731 486.306 377.731H483.517C483.283 377.731 483.094 377.921 483.094 378.154V379.485C483.094 379.719 483.283 379.908 483.517 379.908Z" fill="#3F3D56"/>
<path d="M476.246 379.908H479.034C479.268 379.908 479.458 379.719 479.458 379.485V378.154C479.458 377.921 479.268 377.731 479.034 377.731H476.246C476.012 377.731 475.822 377.921 475.822 378.154V379.485C475.822 379.719 476.012 379.908 476.246 379.908Z" fill="#3F3D56"/>
<path d="M468.974 379.908H471.762C471.996 379.908 472.186 379.719 472.186 379.485V378.154C472.186 377.921 471.996 377.731 471.762 377.731H468.974C468.74 377.731 468.55 377.921 468.55 378.154V379.485C468.55 379.719 468.74 379.908 468.974 379.908Z" fill="#3F3D56"/>
<path d="M461.703 379.908H464.491C464.725 379.908 464.915 379.719 464.915 379.485V378.154C464.915 377.921 464.725 377.731 464.491 377.731H461.703C461.469 377.731 461.279 377.921 461.279 378.154V379.485C461.279 379.719 461.469 379.908 461.703 379.908Z" fill="#3F3D56"/>
<path d="M454.431 379.908H457.219C457.453 379.908 457.643 379.719 457.643 379.485V378.154C457.643 377.921 457.453 377.731 457.219 377.731H454.431C454.197 377.731 454.007 377.921 454.007 378.154V379.485C454.007 379.719 454.197 379.908 454.431 379.908Z" fill="#3F3D56"/>
<path d="M447.159 379.908H449.948C450.182 379.908 450.371 379.719 450.371 379.485V378.154C450.371 377.921 450.182 377.731 449.948 377.731H447.159C446.925 377.731 446.736 377.921 446.736 378.154V379.485C446.736 379.719 446.925 379.908 447.159 379.908Z" fill="#3F3D56"/>
<path d="M439.888 379.908H442.676C442.91 379.908 443.1 379.719 443.1 379.485V378.154C443.1 377.921 442.91 377.731 442.676 377.731H439.888C439.654 377.731 439.464 377.921 439.464 378.154V379.485C439.464 379.719 439.654 379.908 439.888 379.908Z" fill="#3F3D56"/>
<path d="M432.616 379.908H435.404C435.638 379.908 435.828 379.719 435.828 379.485V378.154C435.828 377.921 435.638 377.731 435.404 377.731H432.616C432.382 377.731 432.192 377.921 432.192 378.154V379.485C432.192 379.719 432.382 379.908 432.616 379.908Z" fill="#3F3D56"/>
<path d="M481.336 384.262H509.575C509.809 384.262 509.999 384.072 509.999 383.839V382.508C509.999 382.274 509.809 382.085 509.575 382.085H481.336C481.102 382.085 480.912 382.274 480.912 382.508V383.839C480.912 384.072 481.102 384.262 481.336 384.262Z" fill="#3F3D56"/>
<path d="M451.417 310.893H448.949C448.2 310.893 447.594 311.498 447.594 312.245C447.594 312.992 448.2 313.597 448.949 313.597H451.417C452.166 313.597 452.772 312.992 452.772 312.245C452.772 311.498 452.166 310.893 451.417 310.893Z" fill="white"/>
<path d="M479.65 310.893H477.181C476.433 310.893 475.826 311.498 475.826 312.245C475.826 312.992 476.433 313.597 477.181 313.597H479.65C480.398 313.597 481.005 312.992 481.005 312.245C481.005 311.498 480.398 310.893 479.65 310.893Z" fill="white"/>
<path d="M487.648 310.893H485.18C484.431 310.893 483.825 311.498 483.825 312.245C483.825 312.992 484.431 313.597 485.18 313.597H487.648C488.397 313.597 489.003 312.992 489.003 312.245C489.003 311.498 488.397 310.893 487.648 310.893Z" fill="white"/>
<path d="M471.97 310.666H456.628C455.88 310.666 455.273 311.271 455.273 312.018C455.273 312.765 455.88 313.37 456.628 313.37H471.97C472.719 313.37 473.325 312.765 473.325 312.018C473.325 311.271 472.719 310.666 471.97 310.666Z" fill="white"/>
<path d="M509.612 310.666H494.271C493.522 310.666 492.915 311.271 492.915 312.018C492.915 312.765 493.522 313.37 494.271 313.37H509.612C510.361 313.37 510.968 312.765 510.968 312.018C510.968 311.271 510.361 310.666 509.612 310.666Z" fill="white"/>
<path d="M458.946 316.996H456.477C455.729 316.996 455.122 317.601 455.122 318.348C455.122 319.095 455.729 319.7 456.477 319.7H458.946C459.694 319.7 460.301 319.095 460.301 318.348C460.301 317.601 459.694 316.996 458.946 316.996Z" fill="white"/>
<path d="M487.178 316.996H484.709C483.961 316.996 483.354 317.601 483.354 318.348C483.354 319.095 483.961 319.7 484.709 319.7H487.178C487.926 319.7 488.533 319.095 488.533 318.348C488.533 317.601 487.926 316.996 487.178 316.996Z" fill="white"/>
<path d="M495.177 316.996H492.708C491.96 316.996 491.353 317.601 491.353 318.348C491.353 319.095 491.96 319.7 492.708 319.7H495.177C495.925 319.7 496.532 319.095 496.532 318.348C496.532 317.601 495.925 316.996 495.177 316.996Z" fill="white"/>
<path d="M479.499 316.771H464.157C463.408 316.771 462.802 317.377 462.802 318.124C462.802 318.87 463.408 319.476 464.157 319.476H479.499C480.247 319.476 480.854 318.87 480.854 318.124C480.854 317.377 480.247 316.771 479.499 316.771Z" fill="white"/>
<path d="M517.141 316.771H501.799C501.051 316.771 500.444 317.377 500.444 318.124C500.444 318.87 501.051 319.476 501.799 319.476H517.141C517.889 319.476 518.496 318.87 518.496 318.124C518.496 317.377 517.889 316.771 517.141 316.771Z" fill="white"/>
<path d="M466.475 323.102H464.006C463.258 323.102 462.651 323.707 462.651 324.454C462.651 325.2 463.258 325.806 464.006 325.806H466.475C467.223 325.806 467.83 325.2 467.83 324.454C467.83 323.707 467.223 323.102 466.475 323.102Z" fill="white"/>
<path d="M494.706 323.102H492.237C491.489 323.102 490.882 323.707 490.882 324.454C490.882 325.2 491.489 325.806 492.237 325.806H494.706C495.454 325.806 496.061 325.2 496.061 324.454C496.061 323.707 495.454 323.102 494.706 323.102Z" fill="white"/>
<path d="M502.705 323.102H500.237C499.488 323.102 498.881 323.707 498.881 324.454C498.881 325.2 499.488 325.806 500.237 325.806H502.705C503.453 325.806 504.06 325.2 504.06 324.454C504.06 323.707 503.453 323.102 502.705 323.102Z" fill="white"/>
<path d="M487.027 322.873H471.685C470.937 322.873 470.33 323.478 470.33 324.225C470.33 324.972 470.937 325.577 471.685 325.577H487.027C487.775 325.577 488.382 324.972 488.382 324.225C488.382 323.478 487.775 322.873 487.027 322.873Z" fill="white"/>
<path d="M524.669 322.873H509.327C508.579 322.873 507.972 323.478 507.972 324.225C507.972 324.972 508.579 325.577 509.327 325.577H524.669C525.418 325.577 526.024 324.972 526.024 324.225C526.024 323.478 525.418 322.873 524.669 322.873Z" fill="white"/>
<path d="M474.003 329.201H471.535C470.786 329.201 470.179 329.807 470.179 330.553C470.179 331.3 470.786 331.905 471.535 331.905H474.003C474.751 331.905 475.358 331.3 475.358 330.553C475.358 329.807 474.751 329.201 474.003 329.201Z" fill="white"/>
<path d="M502.235 329.201H499.766C499.018 329.201 498.411 329.807 498.411 330.553C498.411 331.3 499.018 331.905 499.766 331.905H502.235C502.983 331.905 503.59 331.3 503.59 330.553C503.59 329.807 502.983 329.201 502.235 329.201Z" fill="white"/>
<path d="M510.234 329.201H507.765C507.017 329.201 506.41 329.807 506.41 330.553C506.41 331.3 507.017 331.905 507.765 331.905H510.234C510.982 331.905 511.589 331.3 511.589 330.553C511.589 329.807 510.982 329.201 510.234 329.201Z" fill="white"/>
<path d="M494.555 328.977H479.213C478.465 328.977 477.858 329.582 477.858 330.329C477.858 331.075 478.465 331.681 479.213 331.681H494.555C495.304 331.681 495.91 331.075 495.91 330.329C495.91 329.582 495.304 328.977 494.555 328.977Z" fill="white"/>
<path d="M479.65 353.471H477.181C476.433 353.471 475.826 354.076 475.826 354.823C475.826 355.57 476.433 356.175 477.181 356.175H479.65C480.398 356.175 481.005 355.57 481.005 354.823C481.005 354.076 480.398 353.471 479.65 353.471Z" fill="white"/>
<path d="M487.648 353.471H485.18C484.431 353.471 483.825 354.076 483.825 354.823C483.825 355.57 484.431 356.175 485.18 356.175H487.648C488.397 356.175 489.003 355.57 489.003 354.823C489.003 354.076 488.397 353.471 487.648 353.471Z" fill="white"/>
<path d="M509.612 353.697H494.271C493.522 353.697 492.915 354.303 492.915 355.049C492.915 355.796 493.522 356.402 494.271 356.402H509.612C510.361 356.402 510.968 355.796 510.968 355.049C510.968 354.303 510.361 353.697 509.612 353.697Z" fill="white"/>
<path d="M451.417 353.471H448.949C448.2 353.471 447.594 354.076 447.594 354.823C447.594 355.57 448.2 356.175 448.949 356.175H451.417C452.166 356.175 452.772 355.57 452.772 354.823C452.772 354.076 452.166 353.471 451.417 353.471Z" fill="white"/>
<path d="M471.97 353.697H456.628C455.88 353.697 455.273 354.303 455.273 355.049C455.273 355.796 455.88 356.402 456.628 356.402H471.97C472.719 356.402 473.325 355.796 473.325 355.049C473.325 354.303 472.719 353.697 471.97 353.697Z" fill="white"/>
<path d="M458.946 347.369H456.477C455.729 347.369 455.122 347.975 455.122 348.721C455.122 349.468 455.729 350.073 456.477 350.073H458.946C459.694 350.073 460.301 349.468 460.301 348.721C460.301 347.975 459.694 347.369 458.946 347.369Z" fill="white"/>
<path d="M487.178 347.369H484.709C483.961 347.369 483.354 347.975 483.354 348.721C483.354 349.468 483.961 350.073 484.709 350.073H487.178C487.926 350.073 488.533 349.468 488.533 348.721C488.533 347.975 487.926 347.369 487.178 347.369Z" fill="white"/>
<path d="M495.177 347.369H492.708C491.96 347.369 491.353 347.975 491.353 348.721C491.353 349.468 491.96 350.073 492.708 350.073H495.177C495.925 350.073 496.532 349.468 496.532 348.721C496.532 347.975 495.925 347.369 495.177 347.369Z" fill="white"/>
<path d="M479.499 347.596H464.157C463.408 347.596 462.802 348.201 462.802 348.948C462.802 349.695 463.408 350.3 464.157 350.3H479.499C480.247 350.3 480.854 349.695 480.854 348.948C480.854 348.201 480.247 347.596 479.499 347.596Z" fill="white"/>
<path d="M466.475 341.268H464.006C463.258 341.268 462.651 341.873 462.651 342.62C462.651 343.367 463.258 343.972 464.006 343.972H466.475C467.223 343.972 467.83 343.367 467.83 342.62C467.83 341.873 467.223 341.268 466.475 341.268Z" fill="white"/>
<path d="M494.706 341.268H492.237C491.489 341.268 490.882 341.873 490.882 342.62C490.882 343.367 491.489 343.972 492.237 343.972H494.706C495.454 343.972 496.061 343.367 496.061 342.62C496.061 341.873 495.454 341.268 494.706 341.268Z" fill="white"/>
<path d="M502.705 341.268H500.237C499.488 341.268 498.881 341.873 498.881 342.62C498.881 343.367 499.488 343.972 500.237 343.972H502.705C503.453 343.972 504.06 343.367 504.06 342.62C504.06 341.873 503.453 341.268 502.705 341.268Z" fill="white"/>
<path d="M487.027 341.49H471.685C470.937 341.49 470.33 342.096 470.33 342.842C470.33 343.589 470.937 344.195 471.685 344.195H487.027C487.775 344.195 488.382 343.589 488.382 342.842C488.382 342.096 487.775 341.49 487.027 341.49Z" fill="white"/>
<path d="M474.003 335.162H471.535C470.786 335.162 470.179 335.768 470.179 336.514C470.179 337.261 470.786 337.866 471.535 337.866H474.003C474.751 337.866 475.358 337.261 475.358 336.514C475.358 335.768 474.751 335.162 474.003 335.162Z" fill="white"/>
<path d="M502.235 335.162H499.766C499.018 335.162 498.411 335.768 498.411 336.514C498.411 337.261 499.018 337.866 499.766 337.866H502.235C502.983 337.866 503.59 337.261 503.59 336.514C503.59 335.768 502.983 335.162 502.235 335.162Z" fill="white"/>
<path d="M510.234 335.162H507.765C507.017 335.162 506.41 335.768 506.41 336.514C506.41 337.261 507.017 337.866 507.765 337.866H510.234C510.982 337.866 511.589 337.261 511.589 336.514C511.589 335.768 510.982 335.162 510.234 335.162Z" fill="white"/>
<path d="M494.555 335.387H479.213C478.465 335.387 477.858 335.992 477.858 336.739C477.858 337.486 478.465 338.091 479.213 338.091H494.555C495.304 338.091 495.91 337.486 495.91 336.739C495.91 335.992 495.304 335.387 494.555 335.387Z" fill="white"/>
<path d="M438.294 425.005L426.706 406.728L463.079 377.796L478.092 361.199C480.043 359.043 482.526 357.435 485.295 356.537C488.063 355.638 491.019 355.48 493.867 356.079C496.716 356.678 499.357 358.012 501.527 359.948C503.697 361.884 505.32 364.355 506.233 367.113C507.586 371.2 507.295 375.652 505.421 379.529C503.547 383.406 500.237 386.405 496.189 387.893L472.449 396.62L438.294 425.005Z" fill="#FFB6B6"/>
<path d="M166.397 292.481V381.315H228.766V292.481C228.767 291.843 228.563 291.22 228.183 290.706C227.803 290.191 227.268 289.812 226.657 289.623C226.368 289.528 226.066 289.481 225.763 289.485H169.409C169.014 289.484 168.622 289.561 168.257 289.711C167.892 289.861 167.56 290.082 167.28 290.36C167 290.638 166.778 290.969 166.627 291.333C166.475 291.697 166.397 292.087 166.397 292.481ZM190.737 323.005C190.753 321.254 191.462 319.58 192.709 318.347C193.955 317.114 195.64 316.423 197.395 316.423C199.15 316.423 200.834 317.114 202.081 318.347C203.328 319.58 204.036 321.254 204.053 323.005V333.312C204.044 335.069 203.338 336.75 202.091 337.988C200.843 339.227 199.155 339.922 197.395 339.922C195.635 339.922 193.946 339.227 192.699 337.988C191.451 336.75 190.746 335.069 190.737 333.312V323.005Z" fill="#2F2E41"/>
<path d="M166.206 378.471V387.037C166.207 387.481 166.384 387.906 166.698 388.221C167.011 388.535 167.436 388.714 167.881 388.717H227.282C227.727 388.715 228.153 388.537 228.467 388.222C228.781 387.907 228.957 387.481 228.957 387.037V378.471H166.206Z" fill="#3F3D56"/>
<path d="M68.2806 158.642V320.84C68.2823 322.907 69.1059 324.889 70.5707 326.351C72.0354 327.812 74.0216 328.634 76.0931 328.636H316.977C319.049 328.634 321.035 327.812 322.5 326.351C323.965 324.889 324.788 322.907 324.79 320.84V158.642C324.785 156.577 323.96 154.598 322.496 153.139C321.031 151.679 319.047 150.858 316.977 150.855H76.0931C74.0234 150.858 72.0391 151.679 70.5748 153.139C69.1105 154.598 68.2856 156.577 68.2806 158.642Z" fill="#3F3D56"/>
<path d="M73.9316 160.657V318.836C73.9336 319.941 74.374 320.999 75.1567 321.78C75.9393 322.561 77.0002 323.001 78.107 323.003H314.972C316.079 323.001 317.14 322.561 317.922 321.78C318.705 320.999 319.146 319.941 319.147 318.836V160.657C319.147 159.552 318.708 158.491 317.925 157.708C317.142 156.926 316.08 156.485 314.972 156.482H78.107C76.9988 156.485 75.9369 156.926 75.1542 157.708C74.3714 158.491 73.9318 159.552 73.9316 160.657Z" fill="white"/>
<path d="M117.89 388.14C118.131 388.442 118.438 388.685 118.786 388.851C119.135 389.018 119.517 389.103 119.904 389.101H260.823C261.209 389.101 261.589 389.015 261.937 388.849C262.285 388.684 262.591 388.443 262.834 388.144C263.077 387.845 263.25 387.496 263.34 387.123C263.431 386.749 263.437 386.36 263.358 385.983L261.171 375.615C261.08 375.192 260.885 374.799 260.603 374.471C260.321 374.142 259.961 373.89 259.556 373.736C259.263 373.621 258.951 373.562 258.636 373.563H122.083C121.768 373.562 121.456 373.621 121.163 373.736C120.758 373.89 120.398 374.142 120.116 374.471C119.834 374.799 119.639 375.192 119.548 375.615L117.361 385.983C117.283 386.359 117.29 386.748 117.381 387.121C117.473 387.494 117.647 387.842 117.89 388.14Z" fill="#2F2E41"/>
<path d="M307.285 178.271H85.6516C85.4212 178.266 85.202 178.171 85.0409 178.006C84.8798 177.842 84.7896 177.621 84.7896 177.391C84.7896 177.161 84.8798 176.94 85.0409 176.776C85.202 176.612 85.4212 176.517 85.6516 176.512H307.285C307.516 176.517 307.735 176.612 307.896 176.776C308.057 176.94 308.147 177.161 308.147 177.391C308.147 177.621 308.057 177.842 307.896 178.006C307.735 178.171 307.516 178.266 307.285 178.271Z" fill="#3F3D56"/>
<path d="M100.739 172.024C103.591 172.024 105.904 169.665 105.904 166.755C105.904 163.845 103.591 161.486 100.739 161.486C97.8858 161.486 95.5732 163.845 95.5732 166.755C95.5732 169.665 97.8858 172.024 100.739 172.024Z" fill="#3F3D56"/>
<path d="M118.582 172.024C121.435 172.024 123.747 169.665 123.747 166.755C123.747 163.845 121.435 161.486 118.582 161.486C115.729 161.486 113.417 163.845 113.417 166.755C113.417 169.665 115.729 172.024 118.582 172.024Z" fill="#3F3D56"/>
<path d="M136.426 172.024C139.278 172.024 141.591 169.665 141.591 166.755C141.591 163.845 139.278 161.486 136.426 161.486C133.573 161.486 131.26 163.845 131.26 166.755C131.26 169.665 133.573 172.024 136.426 172.024Z" fill="#3F3D56"/>
<path d="M296.54 162.789H283.867C283.616 162.795 283.378 162.898 283.203 163.077C283.027 163.256 282.929 163.496 282.929 163.746C282.929 163.996 283.027 164.236 283.203 164.415C283.378 164.594 283.616 164.697 283.867 164.703H296.54C296.792 164.7 297.033 164.597 297.21 164.418C297.387 164.239 297.486 163.998 297.486 163.746C297.486 163.495 297.387 163.253 297.21 163.074C297.033 162.895 296.792 162.793 296.54 162.789Z" fill="#3F3D56"/>
<path d="M296.54 166.385H283.867C283.616 166.39 283.377 166.494 283.202 166.672C283.027 166.851 282.928 167.092 282.928 167.342C282.928 167.592 283.027 167.832 283.202 168.011C283.377 168.19 283.616 168.293 283.867 168.299H296.54C296.793 168.296 297.034 168.194 297.211 168.015C297.388 167.835 297.488 167.594 297.488 167.342C297.488 167.09 297.388 166.848 297.211 166.669C297.034 166.49 296.793 166.388 296.54 166.385Z" fill="#3F3D56"/>
<path d="M296.54 169.977H283.867C283.616 169.982 283.378 170.086 283.203 170.265C283.027 170.444 282.929 170.684 282.929 170.934C282.929 171.184 283.027 171.424 283.203 171.603C283.378 171.782 283.616 171.885 283.867 171.891H296.54C296.792 171.887 297.033 171.785 297.21 171.606C297.387 171.427 297.486 171.185 297.486 170.934C297.486 170.682 297.387 170.441 297.21 170.262C297.033 170.083 296.792 169.98 296.54 169.977Z" fill="#3F3D56"/>
<path d="M602.076 382.232C602.459 383.343 603.184 384.304 604.148 384.978C605.113 385.652 606.266 386.004 607.444 385.983L630.44 385.393C631.626 385.369 632.772 384.964 633.708 384.237C634.644 383.51 635.318 382.5 635.632 381.359L638.886 346.637C640.04 347.159 641.297 347.416 642.564 347.391C643.665 347.363 644.75 347.12 645.757 346.674C646.763 346.228 647.672 345.589 648.431 344.792C649.19 343.996 649.784 343.058 650.18 342.033C650.576 341.007 650.766 339.914 650.738 338.815C650.71 337.717 650.466 336.634 650.019 335.63C649.572 334.625 648.932 333.719 648.133 332.961C647.335 332.204 646.396 331.611 645.368 331.216C644.34 330.821 643.245 330.632 642.144 330.66C641.637 330.658 641.132 330.71 640.636 330.816C640.098 330.234 639.443 329.772 638.714 329.458C637.986 329.144 637.199 328.986 636.406 328.994L601.032 329.906C600.739 329.917 600.447 329.953 600.159 330.014C599.384 330.158 598.648 330.467 598.002 330.919C597.355 331.37 596.814 331.955 596.413 332.633C596.012 333.312 595.761 334.068 595.678 334.851C595.595 335.634 595.68 336.425 595.929 337.173L602.076 382.232ZM639.553 344.279L641.869 336.005C642.132 335.049 642.138 334.041 641.886 333.082C641.999 333.082 642.098 333.028 642.21 333.028C643.798 332.995 645.334 333.592 646.481 334.688C647.629 335.783 648.294 337.288 648.331 338.872C648.368 340.457 647.774 341.991 646.68 343.139C645.585 344.287 644.079 344.955 642.491 344.996C641.465 345.028 640.449 344.78 639.553 344.279Z" fill="#2F2E41"/>
<path d="M600.16 330.015C600.913 334.315 609.386 337.337 619.574 336.812C628.943 336.381 636.603 333.099 638.007 329.208C637.487 329.055 636.947 328.983 636.406 328.995L601.032 329.907C600.739 329.918 600.447 329.954 600.16 330.015Z" fill="#3F3D56"/>
<path d="M621.441 363.152C621.488 363.141 621.532 363.121 621.572 363.095L626.566 359.833C626.627 359.794 626.676 359.74 626.711 359.677C626.745 359.614 626.763 359.543 626.763 359.471C626.763 359.399 626.745 359.328 626.711 359.265C626.677 359.202 626.627 359.148 626.567 359.109L621.376 355.716C621.328 355.685 621.275 355.663 621.219 355.652C621.163 355.642 621.105 355.642 621.049 355.653C620.993 355.665 620.94 355.687 620.893 355.719C620.846 355.751 620.805 355.792 620.774 355.84C620.743 355.888 620.721 355.941 620.71 355.997C620.7 356.053 620.7 356.111 620.712 356.166C620.724 356.222 620.747 356.275 620.779 356.322C620.811 356.369 620.852 356.409 620.9 356.44L625.537 359.47L621.097 362.37C621.011 362.426 620.948 362.511 620.919 362.609C620.89 362.707 620.896 362.813 620.937 362.907C620.979 363.001 621.052 363.077 621.144 363.122C621.237 363.167 621.342 363.178 621.441 363.152Z" fill="#6C63FF"/>
<path d="M613.554 363.515C613.638 363.493 613.713 363.448 613.771 363.383C613.828 363.319 613.865 363.239 613.877 363.154C613.889 363.068 613.875 362.981 613.837 362.904C613.799 362.826 613.738 362.762 613.663 362.719L609.06 360.086L613.509 356.788C613.555 356.754 613.593 356.712 613.623 356.663C613.652 356.614 613.671 356.56 613.68 356.504C613.688 356.447 613.685 356.39 613.671 356.335C613.657 356.28 613.633 356.228 613.599 356.182C613.565 356.137 613.522 356.098 613.473 356.069C613.424 356.04 613.37 356.021 613.314 356.012C613.257 356.004 613.2 356.007 613.145 356.021C613.089 356.035 613.037 356.059 612.992 356.093L608.01 359.785C607.952 359.828 607.906 359.885 607.876 359.95C607.845 360.015 607.831 360.087 607.836 360.158C607.84 360.23 607.862 360.3 607.9 360.361C607.938 360.422 607.991 360.473 608.053 360.508L613.231 363.47C613.329 363.526 613.445 363.542 613.554 363.515Z" fill="#6C63FF"/>
<path d="M620.945 366.009C620.987 365.999 621.027 365.982 621.064 365.959C621.112 365.93 621.155 365.891 621.189 365.845C621.222 365.799 621.247 365.747 621.26 365.692C621.274 365.636 621.276 365.579 621.267 365.523C621.259 365.467 621.239 365.413 621.209 365.364L614.13 353.75C614.07 353.652 613.973 353.582 613.861 353.555C613.75 353.528 613.632 353.547 613.533 353.606C613.435 353.666 613.365 353.762 613.337 353.874C613.31 353.985 613.328 354.103 613.388 354.201L620.467 365.815C620.516 365.894 620.588 365.955 620.674 365.99C620.76 366.025 620.855 366.032 620.945 366.009Z" fill="#6C63FF"/>
<path d="M222.95 226.086H184.59C183.025 226.086 181.756 227.352 181.756 228.913V232.653C181.756 234.214 183.025 235.48 184.59 235.48H222.95C224.515 235.48 225.783 234.214 225.783 232.653V228.913C225.783 227.352 224.515 226.086 222.95 226.086Z" fill="#6C63FF"/>
<path d="M245.309 244.875H162.23C160.665 244.875 159.397 246.141 159.397 247.702V251.442C159.397 253.003 160.665 254.269 162.23 254.269H245.309C246.874 254.269 248.143 253.003 248.143 251.442V247.702C248.143 246.141 246.874 244.875 245.309 244.875Z" fill="#E6E6E6"/>
<path d="M245.309 263.66H162.23C160.665 263.66 159.397 264.926 159.397 266.487V270.227C159.397 271.789 160.665 273.054 162.23 273.054H245.309C246.874 273.054 248.143 271.789 248.143 270.227V266.487C248.143 264.926 246.874 263.66 245.309 263.66Z" fill="#E6E6E6"/>
<path d="M252.352 326.577L252.54 327.17L252.55 327.19L258.214 344.373L264.73 364.174L276.989 401.386L277.108 407.166V407.186L278.019 453.685L275.494 459.989L278.336 470.325C278.336 470.325 277.029 454.702 270.018 463.674C266.047 468.772 261.403 473.989 257.59 478.88C263.146 481.123 268.79 483.152 274.524 484.967C275.761 485.362 277.009 485.738 278.257 486.113C278.524 486.192 278.792 486.271 279.059 486.35C298.065 491.959 317.713 495.11 337.523 495.727C338.553 495.757 339.563 495.777 340.543 495.797C340.89 495.806 341.226 495.816 341.563 495.816C342.672 495.826 343.771 495.836 344.88 495.836C347.118 495.836 349.346 495.803 351.565 495.737C367.982 495.276 384.304 493.073 400.255 489.166C400.146 482.596 399.849 474.918 399.423 466.717C399.225 462.696 394.779 458.338 394.511 454.129C394.323 450.967 398.314 447.993 398.106 444.781C396.759 425.01 395.076 432.599 393.828 418.598C393.699 417.225 393.581 415.911 393.472 414.656C392.67 405.664 392.115 400.042 392.115 400.042L397.443 366.536L405.81 313.93L405.166 312.872L404.444 312.517L360.308 290.719L357.912 284.593C357.214 282.828 356.002 281.312 354.434 280.24C352.865 279.167 351.01 278.588 349.109 278.576L320.035 278.457C318.526 278.45 317.038 278.803 315.693 279.485C314.348 280.167 313.185 281.16 312.301 282.38L304.429 293.259L252.352 326.577Z" fill="white"/>
<path d="M283.693 393.103L277.108 407.163L272.612 416.767L264.879 457.171L261.007 461.271L257.689 446.755L222.969 454.447C221.83 448.133 222.664 454.661 221.961 447.734C222.159 447.537 222.367 447.339 222.575 447.141C223.13 446.628 223.595 446.143 223.585 445.679C223.189 421.787 224.378 381.127 234.3 356.494C235.854 352.472 237.903 348.658 240.4 345.141C240.598 344.874 240.786 344.607 240.974 344.34C245.549 337.947 248.44 331.653 252.54 327.177V327.167C252.566 327.147 252.589 327.124 252.609 327.098C252.624 327.091 252.638 327.081 252.649 327.068L280.811 312.168L282.02 346.04L282.881 370.386L283.693 393.103Z" fill="#F5F5F5"/>
<path d="M385.242 397.099L393.468 414.66L396.339 420.776L404.071 461.175L407.93 465.266L411.255 450.753L412.817 450.433L440.993 444.611L449.205 470.636C451.056 467.558 451.785 463.938 451.269 460.386C450.753 456.834 449.024 453.569 446.374 451.142C445.813 450.636 445.346 450.143 445.359 449.676C445.827 421.575 444.104 370.263 428.547 349.144C423.607 342.442 420.642 335.767 416.329 331.103C416.316 331.09 416.316 331.076 416.302 331.076L405.806 313.928L405.165 312.875L404.444 312.516L385.242 397.099Z" fill="#F5F5F5"/>
<path d="M335.412 270.203C356.774 270.203 374.091 252.924 374.091 231.608C374.091 210.293 356.774 193.014 335.412 193.014C314.05 193.014 296.733 210.293 296.733 231.608C296.733 252.924 314.05 270.203 335.412 270.203Z" fill="#FFB6B6"/>
<path d="M387.691 204.649C387.391 204.329 387.03 204.073 386.629 203.896C386.227 203.719 385.795 203.624 385.356 203.618L385.938 202.007C386.127 201.499 386.179 200.951 386.086 200.417C385.993 199.883 385.76 199.384 385.41 198.969C385.061 198.555 384.607 198.241 384.095 198.06C383.584 197.878 383.033 197.835 382.5 197.936L380.382 198.343L380.582 196.931C380.658 196.405 380.596 195.869 380.402 195.374C380.208 194.879 379.888 194.443 379.473 194.11C379.059 193.776 378.565 193.555 378.039 193.47C377.514 193.384 376.975 193.437 376.476 193.622C376.022 193.801 375.534 193.875 375.047 193.841C374.56 193.806 374.087 193.664 373.663 193.423C373.237 193.19 372.868 192.867 372.58 192.476C372.292 192.086 372.093 191.637 371.997 191.162L371.259 187.611L371.181 187.421C367.587 181.444 360.677 177.096 352.222 175.502C344.696 174.073 336.979 174.801 329.54 175.485C326.589 175.762 323.256 176.074 320.478 177.771C318.117 179.227 316.12 182.137 316.528 185.073C309.193 182.83 301.329 187.308 297.431 192.955C292.813 199.677 292.058 208.096 291.936 214.679C291.606 230.252 294.827 242.994 301.485 252.556C301.971 253.249 302.092 254.696 303.056 255.181L302.856 254.86C303.933 255.397 305.026 256.263 304.618 257.19C303.447 259.858 311.233 265.756 316.719 267.705C326.728 271.265 340.035 270.962 349.393 269.68L349.722 267.471C353.099 267.012 355.478 266.138 356.146 264.769C357.327 263.764 358.334 262.863 359.21 262.032L359.219 262.023C359.236 262.006 359.271 261.98 359.288 261.963C363.516 257.918 364.497 255.614 364.939 252.106C365.365 248.667 364.61 245.176 363.837 242.032C380.104 244.544 357.431 224.744 372.587 220.915C372.761 220.862 372.938 220.818 373.116 220.785C373.559 220.681 374.002 220.577 374.427 220.456C376.477 219.901 378.441 219.064 380.26 217.97C384.497 215.398 385.894 211.985 388.082 208.139C388.397 207.592 388.53 206.958 388.459 206.33C388.389 205.702 388.12 205.113 387.691 204.649Z" fill="#2F2E41"/>
<path d="M472.213 399.845C472.204 401.361 472.187 403.483 472.118 406.107C472.109 406.471 472.1 406.844 472.092 407.225C471.979 412.049 471.866 416.094 471.684 420.59C471.675 420.901 471.666 421.205 471.649 421.516C471.406 427.787 471.024 435.089 470.364 446.653C469.14 468.012 467.005 449.589 464.861 457.081C464.757 457.454 464.644 457.895 464.54 458.415C464.215 460.301 463.667 462.141 462.908 463.898C461.77 464.574 460.599 465.223 459.444 465.873C456.154 467.7 452.812 469.459 449.444 471.13C447.552 472.066 445.651 472.984 443.741 473.867C443.437 474.006 443.142 474.145 442.847 474.275C433.068 478.788 422.989 482.626 412.682 485.76C410.668 486.366 408.663 486.955 406.632 487.501C404.514 488.09 402.396 488.644 400.252 489.164C384.302 493.071 367.98 495.275 351.563 495.738C349.349 495.807 347.118 495.833 344.879 495.833C343.768 495.833 342.674 495.825 341.563 495.816C341.224 495.816 340.886 495.807 340.547 495.799C339.566 495.773 338.551 495.755 337.526 495.729C317.717 495.113 298.068 491.96 279.063 486.349L278.256 486.115C277.006 485.734 275.765 485.361 274.523 484.963C268.794 483.153 263.149 481.126 257.588 478.883C253.343 477.176 249.147 475.346 245.001 473.391C244.963 473.381 244.928 473.363 244.897 473.339C244.029 472.941 243.152 472.525 242.284 472.1C242.171 472.04 242.049 471.979 241.928 471.919C238.69 470.342 235.487 468.691 232.319 466.964C229.654 460.858 225.904 459.688 223.577 454.318C222.9 452.723 222.411 451.054 222.119 449.346C222.119 449.329 222.11 449.312 222.11 449.286C222.353 452.508 221.077 443.569 222.102 449.251C222.093 449.147 222.084 449.035 222.076 448.905C222.05 448.593 222.015 448.212 221.963 447.735C218.985 418.727 219.176 385.553 217.883 358.217C217.796 356.45 217.706 354.758 217.614 353.141C217.588 352.604 217.553 352.076 217.518 351.556C217.579 351.4 217.649 351.236 217.727 351.08C217.743 351.035 217.764 350.992 217.787 350.95C217.813 350.896 217.842 350.844 217.874 350.794C217.892 350.768 217.918 350.733 217.935 350.707C217.948 350.678 217.962 350.649 217.978 350.621C218.057 350.5 218.143 350.37 218.239 350.248C218.282 350.196 218.317 350.153 218.36 350.11C218.39 350.066 218.425 350.025 218.464 349.989C218.491 349.947 218.523 349.909 218.56 349.876C218.595 349.841 218.629 349.798 218.673 349.755C218.691 349.728 218.715 349.704 218.742 349.685C218.811 349.607 218.886 349.534 218.968 349.469C219.278 349.185 219.608 348.924 219.958 348.689C220.079 348.611 220.209 348.533 220.331 348.447C221.206 347.925 222.127 347.484 223.083 347.13C223.412 347.009 223.742 346.896 224.098 346.775C224.228 346.741 224.35 346.697 224.48 346.654C224.671 346.593 224.862 346.533 225.062 346.489C226.051 346.195 227.119 345.944 228.273 345.71C228.412 345.684 228.56 345.658 228.707 345.623C228.916 345.58 229.133 345.545 229.35 345.511C229.645 345.459 229.949 345.407 230.253 345.355C232.831 344.948 235.756 344.644 238.985 344.445C239.289 344.428 239.593 344.411 239.897 344.393C240.253 344.376 240.608 344.359 240.973 344.341C241.277 344.324 241.589 344.315 241.902 344.307C242.206 344.289 242.518 344.281 242.839 344.272C243.716 344.246 244.619 344.22 245.539 344.203C248.161 344.151 250.921 344.168 253.82 344.229C255.166 344.263 256.537 344.298 257.943 344.359C258.039 344.359 258.126 344.367 258.213 344.367C259.437 344.411 260.669 344.462 261.936 344.532C262.822 344.575 263.716 344.618 264.61 344.67C265.452 344.722 266.303 344.774 267.162 344.835C267.831 344.87 268.499 344.922 269.176 344.965C269.749 345.008 270.322 345.051 270.895 345.086L271.676 345.138C272.101 345.173 272.527 345.199 272.961 345.242C273.916 345.32 274.87 345.398 275.843 345.476C276.806 345.563 277.787 345.649 278.768 345.736C279.749 345.822 280.738 345.918 281.728 346.013C281.832 346.022 281.928 346.03 282.023 346.039C282.926 346.134 283.829 346.221 284.74 346.316C284.949 346.333 285.166 346.351 285.374 346.377C286.243 346.464 287.129 346.566 288.006 346.659C288.275 346.688 288.543 346.716 288.813 346.745C289.5 346.82 290.177 346.885 290.869 346.966C291.78 347.07 292.709 347.165 293.612 347.286C294.315 347.364 295.018 347.442 295.721 347.529C296.823 347.659 297.943 347.797 299.063 347.944C299.488 347.996 299.914 348.048 300.339 348.109C303.533 348.507 306.763 348.949 310.044 349.408C315.018 350.11 320.07 350.872 325.157 351.695C330.252 352.518 335.376 353.387 340.53 354.302C341.832 354.536 343.134 354.77 344.445 355.012C345.035 355.125 345.625 355.237 346.215 355.35C347.222 355.532 348.229 355.723 349.236 355.913C350.243 356.104 351.25 356.294 352.257 356.493C353.455 356.727 354.662 356.961 355.859 357.195C363.75 358.754 371.597 360.417 379.253 362.158C380.512 362.444 381.771 362.739 383.021 363.024C385.521 363.605 387.998 364.194 390.451 364.791C391.128 364.947 391.797 365.112 392.465 365.276C394.132 365.692 395.799 366.108 397.439 366.532L397.726 366.61C398.932 366.905 400.113 367.208 401.293 367.52C404.08 368.247 406.82 368.984 409.514 369.728C411.302 370.222 413.07 370.722 414.818 371.227C417.43 371.98 419.991 372.743 422.482 373.514C423.099 373.704 423.715 373.895 424.323 374.077C426.146 374.64 427.942 375.211 429.687 375.783C431.076 376.233 432.43 376.692 433.767 377.152C435.104 377.611 436.415 378.07 437.699 378.529C438.524 378.823 439.34 379.135 440.156 379.43C441.328 379.863 442.482 380.296 443.611 380.729C443.958 380.859 444.297 380.997 444.635 381.127C444.852 381.222 445.06 381.3 445.269 381.387C445.677 381.552 446.093 381.708 446.493 381.872C446.901 382.028 447.3 382.193 447.699 382.366C448.09 382.522 448.489 382.686 448.871 382.851C449.262 383.007 449.644 383.171 450.026 383.345C450.347 383.474 450.659 383.613 450.963 383.752C451.579 384.02 452.196 384.289 452.795 384.566C453.09 384.704 453.385 384.834 453.68 384.973L454.357 385.285C454.453 385.337 454.548 385.38 454.644 385.423C454.861 385.527 455.086 385.64 455.303 385.744C455.807 385.978 456.302 386.229 456.788 386.463C457.439 386.792 458.073 387.121 458.68 387.442C459.296 387.771 459.895 388.1 460.468 388.42C460.564 388.472 460.651 388.524 460.746 388.576C460.876 388.645 461.007 388.723 461.137 388.793C461.579 389.044 462.005 389.304 462.43 389.555C463.263 390.066 464.053 390.568 464.791 391.071C464.956 391.183 465.112 391.296 465.277 391.4C465.824 391.79 466.345 392.171 466.831 392.561C466.831 392.569 466.831 392.569 466.84 392.569C467.005 392.69 467.161 392.82 467.317 392.942C467.448 393.063 467.586 393.167 467.717 393.288C468.168 393.678 468.585 394.05 468.967 394.431C469.095 394.549 469.216 394.673 469.331 394.804C469.382 394.846 469.428 394.892 469.47 394.942C469.644 395.116 469.8 395.289 469.947 395.462C469.97 395.486 469.991 395.512 470.008 395.54C470.217 395.783 470.408 396.025 470.59 396.268C470.677 396.389 470.772 396.51 470.85 396.632C470.954 396.779 471.059 396.935 471.145 397.082C471.224 397.203 471.293 397.333 471.362 397.454C471.547 397.767 471.703 398.094 471.831 398.433C471.929 398.663 472.007 398.901 472.066 399.143C472.131 399.373 472.181 399.608 472.213 399.845Z" fill="#2F2E41"/>
<path opacity="0.2" d="M472.213 399.846C472.204 401.362 472.187 403.484 472.118 406.109C472.109 406.472 472.092 406.845 472.083 407.226C471.996 410.907 471.866 415.454 471.684 420.591C471.675 420.903 471.666 421.206 471.649 421.518C471.406 427.789 471.024 435.09 470.364 446.654C469.14 468.013 467.005 449.59 464.861 457.082C458.906 453.427 452.378 449.599 445.399 445.666C444.14 444.956 442.87 444.243 441.588 443.527C427.63 435.757 412.04 427.615 395.764 419.551C395.122 419.231 394.47 418.91 393.828 418.599C356.545 400.21 315.851 382.324 282.882 370.388C276.52 368.084 270.443 366.005 264.732 364.178C252.7 360.34 242.301 357.655 234.298 356.495C225.964 355.282 220.209 355.715 217.883 358.218C217.796 356.451 217.706 354.759 217.614 353.143C217.579 352.606 217.544 352.077 217.51 351.557C217.563 351.415 217.633 351.279 217.7 351.142C217.71 351.122 217.717 351.101 217.727 351.081C217.743 351.036 217.763 350.993 217.787 350.951C217.813 350.897 217.842 350.845 217.874 350.795C217.902 350.734 217.937 350.676 217.978 350.622C218.056 350.501 218.143 350.371 218.239 350.25C218.309 350.159 218.384 350.072 218.464 349.99C218.491 349.948 218.523 349.91 218.56 349.877C218.595 349.842 218.629 349.799 218.673 349.756C218.691 349.729 218.715 349.705 218.742 349.687C218.811 349.608 218.886 349.535 218.968 349.47C219.278 349.186 219.608 348.925 219.957 348.69C220.079 348.613 220.209 348.535 220.331 348.448C221.205 347.926 222.127 347.485 223.082 347.131C223.412 347.01 223.742 346.897 224.098 346.776C224.228 346.742 224.35 346.698 224.48 346.655C224.671 346.594 224.862 346.534 225.062 346.49C226.051 346.196 227.119 345.945 228.273 345.711C228.621 345.642 228.985 345.572 229.35 345.512C229.645 345.46 229.949 345.408 230.253 345.356C232.831 344.949 235.756 344.645 238.985 344.446C239.289 344.429 239.593 344.412 239.897 344.394C240.252 344.377 240.608 344.36 240.973 344.342C241.277 344.325 241.589 344.316 241.902 344.308C242.206 344.29 242.518 344.282 242.839 344.273C243.716 344.247 244.619 344.221 245.539 344.204C248.16 344.16 250.921 344.178 253.82 344.238C255.166 344.264 256.537 344.308 257.943 344.368C258.03 344.368 258.126 344.377 258.212 344.377C259.436 344.412 260.678 344.472 261.936 344.533C262.822 344.576 263.716 344.619 264.61 344.671C265.452 344.723 266.303 344.775 267.162 344.836C267.83 344.871 268.499 344.923 269.176 344.966C269.749 345.009 270.322 345.053 270.895 345.087C271.58 345.139 272.266 345.191 272.961 345.243C273.915 345.321 274.87 345.399 275.843 345.477C276.806 345.564 277.787 345.65 278.768 345.737C279.749 345.823 280.738 345.919 281.728 346.014C281.832 346.023 281.928 346.031 282.023 346.04C282.926 346.135 283.829 346.222 284.74 346.317C289.792 346.828 294.992 347.426 300.339 348.11C303.533 348.517 306.768 348.953 310.044 349.418C315.018 350.12 320.07 350.882 325.157 351.696C330.252 352.519 335.376 353.388 340.53 354.303C341.832 354.537 343.134 354.771 344.445 355.013C346.042 355.308 347.639 355.608 349.236 355.914C350.243 356.105 351.25 356.295 352.257 356.495C353.455 356.728 354.662 356.962 355.86 357.196C363.75 358.755 371.597 360.418 379.254 362.159C380.512 362.445 381.771 362.74 383.021 363.025C385.521 363.606 387.998 364.195 390.451 364.792C391.128 364.957 391.797 365.122 392.465 365.286C394.141 365.702 395.799 366.118 397.439 366.533V366.542C397.535 366.559 397.63 366.585 397.726 366.611C398.924 366.915 400.113 367.218 401.293 367.53C404.08 368.257 406.82 368.99 409.514 369.73C411.302 370.232 413.073 370.726 414.818 371.228C417.43 371.99 419.991 372.753 422.482 373.515C423.099 373.705 423.715 373.896 424.323 374.078C426.146 374.649 427.934 375.218 429.687 375.784C431.076 376.234 432.43 376.694 433.767 377.153C435.104 377.612 436.415 378.071 437.699 378.53C438.533 378.824 439.349 379.127 440.156 379.422C441.337 379.855 442.482 380.288 443.611 380.73C443.958 380.86 444.297 380.998 444.635 381.128C445.269 381.371 445.885 381.622 446.493 381.873C446.901 382.029 447.3 382.194 447.699 382.367C448.09 382.523 448.489 382.687 448.871 382.852C449.262 383.008 449.644 383.173 450.026 383.346C450.347 383.476 450.659 383.614 450.963 383.753C451.58 384.021 452.196 384.29 452.795 384.567C453.09 384.706 453.385 384.836 453.68 384.974L454.357 385.286C454.453 385.338 454.548 385.381 454.644 385.425C455.382 385.771 456.093 386.117 456.788 386.464C457.439 386.793 458.073 387.122 458.68 387.443C459.401 387.824 460.086 388.196 460.746 388.577C460.876 388.647 461.007 388.725 461.137 388.794C461.579 389.045 462.005 389.305 462.43 389.556C463.263 390.067 464.053 390.569 464.791 391.072C465.52 391.574 466.197 392.068 466.831 392.562C466.831 392.57 466.831 392.57 466.84 392.57C467.144 392.813 467.439 393.055 467.717 393.289C468.168 393.679 468.585 394.051 468.967 394.433C469.095 394.55 469.216 394.675 469.331 394.805C469.382 394.847 469.428 394.893 469.47 394.944C469.652 395.143 469.835 395.342 470.008 395.541C470.217 395.784 470.408 396.026 470.59 396.269C470.677 396.39 470.772 396.511 470.85 396.633C470.954 396.78 471.059 396.936 471.145 397.083C471.224 397.204 471.293 397.334 471.362 397.456C471.547 397.768 471.704 398.095 471.831 398.434C471.926 398.665 472.005 398.903 472.066 399.145C472.131 399.375 472.181 399.609 472.213 399.846Z" fill="black"/>
</svg>
