<svg width="1920" height="1080" viewBox="0 0 1920 1080" fill="none" xmlns="http://www.w3.org/2000/svg">
<g clip-path="url(#clip0_404_1786)">
<rect width="1920" height="1080" rx="20" fill="url(#paint0_linear_404_1786)"/>
<g filter="url(#filter0_f_404_1786)">
<circle cx="390" cy="892" r="541" fill="url(#paint1_linear_404_1786)"/>
</g>
<circle cx="150" cy="657" r="31" fill="url(#paint2_linear_404_1786)"/>
<circle cx="260" cy="824" r="98" fill="url(#paint3_linear_404_1786)"/>
<path fill-rule="evenodd" clip-rule="evenodd" d="M1314.96 1008.92L1334.17 1024.6L1325.17 1001.63L1348.83 975.953L1317.14 990.611L1298.04 975L1307.07 998.095L1286 1021.73L1314.96 1008.92Z" fill="url(#paint4_linear_404_1786)"/>
<path fill-rule="evenodd" clip-rule="evenodd" d="M881.955 677.917L901.174 693.596L892.166 670.626L915.83 644.953L884.139 659.611L865.038 644L874.071 667.095L853 690.731L881.955 677.917Z" fill="white"/>
<mask id="path-7-inside-1_404_1786" fill="white">
<path fill-rule="evenodd" clip-rule="evenodd" d="M1018.18 230.982C1018.52 231.134 1018.92 231.08 1019.21 230.842L1029.55 222.412C1030.34 221.761 1031.49 222.594 1031.11 223.552L1026.28 235.869C1026.14 236.226 1026.22 236.631 1026.48 236.912L1039.59 251.145C1040.34 251.949 1039.43 253.189 1038.44 252.73L1020.87 244.604C1020.52 244.443 1020.11 244.495 1019.82 244.737L1009.58 253.108C1008.78 253.759 1007.64 252.928 1008.01 251.97L1012.87 239.553C1013.01 239.202 1012.93 238.804 1012.68 238.523L1001.08 225.503C1000.36 224.7 1001.24 223.488 1002.23 223.923L1018.18 230.982Z"/>
</mask>
<path d="M1002.23 223.923L1001.82 224.838L1002.23 223.923ZM1012.87 239.553L1013.8 239.917L1012.87 239.553ZM1012.68 238.523L1013.43 237.858L1012.68 238.523ZM1038.44 252.73L1038.02 253.638L1038.44 252.73ZM1026.28 235.869L1027.21 236.234L1026.28 235.869ZM1026.48 236.912L1025.74 237.59L1026.48 236.912ZM1019.21 230.842L1019.85 231.617L1019.21 230.842ZM1018.18 230.982L1017.77 231.896L1018.18 230.982ZM1029.55 222.412L1028.92 221.637L1029.55 222.412ZM1031.11 223.552L1032.04 223.917L1031.11 223.552ZM1030.18 223.187L1019.85 231.617L1018.58 230.067L1028.92 221.637L1030.18 223.187ZM1025.35 235.504L1030.18 223.187L1032.04 223.917L1027.21 236.234L1025.35 235.504ZM1038.86 251.822L1025.74 237.59L1027.21 236.234L1040.33 250.467L1038.86 251.822ZM1021.29 243.697L1038.86 251.822L1038.02 253.638L1020.45 245.512L1021.29 243.697ZM1008.94 252.334L1019.19 243.963L1020.45 245.512L1010.21 253.883L1008.94 252.334ZM1013.8 239.917L1008.94 252.334L1007.08 251.605L1011.94 239.189L1013.8 239.917ZM1001.82 224.838L1013.43 237.858L1011.94 239.189L1000.33 226.169L1001.82 224.838ZM1017.77 231.896L1001.82 224.838L1002.63 223.009L1018.58 230.067L1017.77 231.896ZM1000.33 226.169C998.898 224.563 1000.66 222.138 1002.63 223.009L1001.82 224.838C1001.81 224.834 1001.81 224.832 1001.81 224.832C1001.8 224.831 1001.8 224.831 1001.81 224.832C1001.81 224.832 1001.81 224.832 1001.82 224.831C1001.82 224.831 1001.82 224.83 1001.83 224.829C1001.83 224.827 1001.84 224.826 1001.83 224.827C1001.83 224.829 1001.83 224.832 1001.82 224.838C1001.82 224.844 1001.82 224.849 1001.82 224.851C1001.81 224.853 1001.82 224.851 1001.82 224.845C1001.82 224.842 1001.82 224.838 1001.81 224.834C1001.81 224.83 1001.81 224.827 1001.81 224.825C1001.81 224.822 1001.81 224.822 1001.81 224.824C1001.81 224.825 1001.82 224.83 1001.82 224.838L1000.33 226.169ZM1011.94 239.189L1011.94 239.189L1013.43 237.858C1013.93 238.42 1014.07 239.216 1013.8 239.917L1011.94 239.189ZM1010.21 253.883C1008.62 255.185 1006.33 253.522 1007.08 251.605L1008.94 252.334L1008.94 252.334L1010.21 253.883ZM1020.45 245.512V245.512L1019.19 243.963C1019.78 243.479 1020.6 243.375 1021.29 243.697L1020.45 245.512ZM1040.33 250.467C1041.81 252.076 1040.01 254.556 1038.02 253.638L1038.86 251.822C1038.87 251.827 1038.87 251.829 1038.88 251.829C1038.88 251.83 1038.88 251.83 1038.88 251.829C1038.87 251.829 1038.87 251.829 1038.87 251.83C1038.86 251.83 1038.86 251.831 1038.85 251.832C1038.85 251.834 1038.85 251.836 1038.85 251.834C1038.85 251.832 1038.85 251.829 1038.86 251.822C1038.86 251.816 1038.87 251.811 1038.87 251.808C1038.87 251.806 1038.87 251.808 1038.87 251.815C1038.87 251.818 1038.87 251.822 1038.87 251.826C1038.87 251.83 1038.87 251.834 1038.87 251.836C1038.87 251.839 1038.87 251.839 1038.87 251.837C1038.87 251.836 1038.87 251.83 1038.86 251.822L1040.33 250.467ZM1027.21 236.234L1025.74 237.59C1025.22 237.027 1025.07 236.217 1025.35 235.504L1027.21 236.234ZM1019.85 231.617C1019.26 232.093 1018.46 232.201 1017.77 231.896L1018.58 230.067H1018.58L1019.85 231.617ZM1028.92 221.637C1030.51 220.336 1032.79 222.001 1032.04 223.917L1030.18 223.187L1028.92 221.637Z" fill="#9B9B9B" mask="url(#path-7-inside-1_404_1786)"/>
<path fill-rule="evenodd" clip-rule="evenodd" d="M237.183 358.213L224.03 368.943L230.195 353.223L214 335.652L235.689 345.684L248.761 335L242.579 350.806L257 366.982L237.183 358.213Z" fill="white"/>
</g>
<defs>
<filter id="filter0_f_404_1786" x="-281" y="221" width="1342" height="1342" filterUnits="userSpaceOnUse" color-interpolation-filters="sRGB">
<feFlood flood-opacity="0" result="BackgroundImageFix"/>
<feBlend mode="normal" in="SourceGraphic" in2="BackgroundImageFix" result="shape"/>
<feGaussianBlur stdDeviation="65" result="effect1_foregroundBlur_404_1786"/>
</filter>
<linearGradient id="paint0_linear_404_1786" x1="0" y1="540" x2="1920" y2="540" gradientUnits="userSpaceOnUse">
<stop stop-color="#BDD3FF"/>
<stop offset="1" stop-color="#EEECF3"/>
</linearGradient>
<linearGradient id="paint1_linear_404_1786" x1="78.9359" y1="420.848" x2="346.182" y2="866.403" gradientUnits="userSpaceOnUse">
<stop stop-color="#D1DBF4"/>
<stop offset="1" stop-color="#E4D4E7"/>
</linearGradient>
<linearGradient id="paint2_linear_404_1786" x1="160.333" y1="626" x2="138.727" y2="684.242" gradientUnits="userSpaceOnUse">
<stop stop-color="white"/>
<stop offset="1" stop-color="#F2F2F2"/>
</linearGradient>
<linearGradient id="paint3_linear_404_1786" x1="292.667" y1="726" x2="224.364" y2="910.121" gradientUnits="userSpaceOnUse">
<stop stop-color="white"/>
<stop offset="1" stop-color="#F2F2F2"/>
</linearGradient>
<linearGradient id="paint4_linear_404_1786" x1="1317.41" y1="975" x2="1317.41" y2="1041" gradientUnits="userSpaceOnUse">
<stop stop-color="white"/>
<stop offset="1" stop-color="#E8E8E8"/>
</linearGradient>
<clipPath id="clip0_404_1786">
<rect width="1920" height="1080" rx="20" fill="white"/>
</clipPath>
</defs>
</svg>
