<svg width="377" height="85" viewBox="0 0 377 85" fill="none" xmlns="http://www.w3.org/2000/svg">
<path d="M23.7998 45.1876H33.9783V69.3616H23.7998V45.1876ZM29.0388 63.5239C25.2967 63.5239 21.804 62.8753 18.5609 61.578C15.3177 60.2807 12.4487 58.4596 9.95401 56.1145C7.50916 53.7196 5.58822 50.9005 4.19116 47.6574C2.79411 44.3643 2.09558 40.7469 2.09558 36.8052C2.09558 32.8636 2.79411 29.2711 4.19116 26.028C5.58822 22.7349 7.50916 19.9159 9.95401 17.5708C12.4487 15.1759 15.3177 13.3297 18.5609 12.0325C21.804 10.7352 25.2967 10.0866 29.0388 10.0866C32.7809 10.0866 36.2735 10.7352 39.5167 12.0325C42.8097 13.3297 45.6787 15.1759 48.1235 17.5708C50.5684 19.9159 52.4893 22.7349 53.8864 26.028C55.2834 29.2711 55.9819 32.8636 55.9819 36.8052C55.9819 40.7469 55.2834 44.3643 53.8864 47.6574C52.4893 50.9005 50.5434 53.7196 48.0487 56.1145C45.6038 58.4596 42.7598 60.2807 39.5167 61.578C36.2735 62.8753 32.7809 63.5239 29.0388 63.5239ZM29.0388 52.3724C31.783 52.3724 34.1779 51.6988 36.2236 50.3517C38.2693 49.0045 39.8659 47.1584 41.0135 44.8134C42.1611 42.4683 42.7349 39.7989 42.7349 36.8052C42.7349 33.7617 42.1611 31.0923 41.0135 28.7971C39.8659 26.4521 38.2693 24.606 36.2236 23.2588C34.1779 21.9116 31.783 21.2381 29.0388 21.2381C26.2447 21.2381 23.8248 21.9116 21.7791 23.2588C19.7334 24.606 18.1368 26.4521 16.9892 28.7971C15.8915 31.0923 15.3426 33.7617 15.3426 36.8052C15.3426 39.7989 15.8915 42.4683 16.9892 44.8134C18.1368 47.1584 19.7334 49.0045 21.7791 50.3517C23.8248 51.6988 26.2447 52.3724 29.0388 52.3724ZM74.5284 12.6499V42.7739C74.5284 45.7863 75.2695 48.1054 76.7518 49.7311C78.2341 51.3568 80.4097 52.1697 83.2787 52.1697C86.1476 52.1697 88.3472 51.3568 89.8773 49.7311C91.4074 48.1054 92.1724 45.7863 92.1724 42.7739V12.6499H104.437V42.7022C104.437 47.1969 103.481 50.9982 101.568 54.1063C99.6556 57.2143 97.0736 59.5573 93.8221 61.1352C90.6184 62.7131 87.0322 63.5021 83.0635 63.5021C79.0948 63.5021 75.5325 62.737 72.3767 61.2069C69.2686 59.629 66.8061 57.286 64.9891 54.178C63.1721 51.0221 62.2636 47.1969 62.2636 42.7022V12.6499H74.5284ZM143.532 37.1794C146.449 37.801 148.792 39.2594 150.561 41.5546C152.33 43.8019 153.215 46.384 153.215 49.3008C153.215 53.5086 151.733 56.8557 148.768 59.3421C145.851 61.7807 141.763 63 136.503 63H113.05V12.6499H135.714C140.831 12.6499 144.823 13.8214 147.692 16.1644C150.609 18.5073 152.067 21.6871 152.067 25.7036C152.067 28.6682 151.278 31.1307 149.701 33.0912C148.17 35.0516 146.114 36.4144 143.532 37.1794ZM125.314 33.0195H133.347C135.356 33.0195 136.886 32.5891 137.938 31.7284C139.038 30.8199 139.587 29.505 139.587 27.7836C139.587 26.0623 139.038 24.7473 137.938 23.8388C136.886 22.9303 135.356 22.4761 133.347 22.4761H125.314V33.0195ZM134.352 53.1021C136.408 53.1021 137.986 52.6479 139.085 51.7394C140.233 50.783 140.807 49.4203 140.807 47.6511C140.807 45.8819 140.209 44.4953 139.014 43.4911C137.866 42.487 136.264 41.9849 134.208 41.9849H125.314V53.1021H134.352ZM172.593 22.4761V32.6608H189.018V42.1284H172.593V53.1738H191.17V63H160.329V12.6499H191.17V22.4761H172.593Z" fill="url(#paint0_linear_373_988)"/>
<path d="M239.05 63H235.823L206.272 17.9575V63H203.045V12.7216H206.272L235.823 57.6207V12.7216H239.05V63ZM261.284 15.3754V36.3905H281.367V39.116H261.284V60.2745H283.518V63H258.056V12.6499H283.518V15.3754H261.284ZM315.809 37.825L330.943 63H327.285L313.729 40.407L300.747 63H297.161L312.08 37.6098L297.089 12.6499H300.747L314.16 35.0277L327.357 12.6499H331.015L315.809 37.825ZM374.405 12.6499V15.3754H360.06V63H356.833V15.3754H342.488V12.6499H374.405Z" fill="#1E293B"/>
<path d="M92.6125 79.1655H96.3304V80.0098H91.5756V69.6558H92.6125V79.1655ZM105.72 75.5512C105.72 75.9067 105.71 76.1783 105.69 76.3659H98.9804C99.01 76.9781 99.1581 77.5015 99.4248 77.936C99.6914 78.3705 100.042 78.7013 100.476 78.9285C100.911 79.1457 101.385 79.2543 101.898 79.2543C102.57 79.2543 103.133 79.0914 103.587 78.7655C104.051 78.4396 104.357 78.0002 104.505 77.4472H105.602C105.404 78.2372 104.979 78.884 104.328 79.3876C103.686 79.8814 102.876 80.1283 101.898 80.1283C101.138 80.1283 100.457 79.9604 99.8543 79.6246C99.2519 79.279 98.7779 78.7951 98.4323 78.173C98.0966 77.541 97.9287 76.8053 97.9287 75.9659C97.9287 75.1266 98.0966 74.3909 98.4323 73.7589C98.7681 73.1269 99.2371 72.643 99.8395 72.3073C100.442 71.9715 101.128 71.8036 101.898 71.8036C102.669 71.8036 103.34 71.9715 103.913 72.3073C104.496 72.643 104.94 73.0973 105.246 73.67C105.562 74.2329 105.72 74.8599 105.72 75.5512ZM104.668 75.5216C104.678 74.9192 104.555 74.4057 104.298 73.9811C104.051 73.5564 103.711 73.2355 103.276 73.0183C102.842 72.801 102.368 72.6924 101.854 72.6924C101.084 72.6924 100.427 72.9393 99.8839 73.433C99.3408 73.9268 99.0396 74.6229 98.9804 75.5216H104.668ZM109.558 72.7961V77.8175C109.558 78.3113 109.651 78.652 109.839 78.8396C110.027 79.0272 110.357 79.121 110.831 79.121H111.779V80.0098H110.668C109.938 80.0098 109.395 79.8419 109.039 79.5061C108.684 79.1605 108.506 78.5976 108.506 77.8175V72.7961H107.38V71.9221H108.506V69.8928H109.558V71.9221H111.779V72.7961H109.558ZM114.215 69.6558H115.415L114.112 72.8553H113.356L114.215 69.6558ZM120.381 80.1283C119.453 80.1283 118.693 79.916 118.1 79.4913C117.517 79.0568 117.192 78.4693 117.122 77.7286H118.189C118.238 78.1829 118.451 78.5532 118.826 78.8396C119.211 79.1161 119.725 79.2543 120.366 79.2543C120.929 79.2543 121.369 79.121 121.685 78.8544C122.011 78.5878 122.174 78.257 122.174 77.862C122.174 77.5854 122.085 77.3583 121.907 77.1806C121.729 77.0028 121.502 76.8646 121.226 76.7658C120.959 76.6572 120.594 76.5436 120.129 76.4251C119.527 76.2671 119.038 76.1091 118.663 75.9511C118.288 75.7931 117.967 75.5611 117.7 75.2549C117.443 74.9389 117.315 74.5193 117.315 73.9959C117.315 73.6009 117.434 73.2355 117.671 72.8998C117.908 72.564 118.243 72.2974 118.678 72.0999C119.112 71.9024 119.606 71.8036 120.159 71.8036C121.028 71.8036 121.729 72.0258 122.262 72.4702C122.796 72.9047 123.082 73.5071 123.122 74.2773H122.085C122.055 73.8033 121.867 73.4231 121.522 73.1368C121.186 72.8405 120.722 72.6924 120.129 72.6924C119.606 72.6924 119.181 72.8158 118.856 73.0627C118.53 73.3096 118.367 73.6157 118.367 73.9811C118.367 74.2971 118.461 74.5588 118.648 74.7661C118.846 74.9636 119.088 75.1216 119.374 75.2401C119.66 75.3488 120.045 75.4722 120.529 75.6104C121.112 75.7684 121.576 75.9215 121.922 76.0696C122.267 76.2178 122.564 76.435 122.81 76.7214C123.057 77.0078 123.186 77.3879 123.196 77.862C123.196 78.2965 123.077 78.6865 122.84 79.0321C122.603 79.3679 122.272 79.6345 121.848 79.832C121.423 80.0295 120.934 80.1283 120.381 80.1283ZM131.419 73.7144C131.686 73.1516 132.096 72.6924 132.649 72.3369C133.212 71.9814 133.873 71.8036 134.634 71.8036C135.374 71.8036 136.036 71.9764 136.618 72.3221C137.201 72.6578 137.655 73.1417 137.981 73.7737C138.317 74.3958 138.485 75.1216 138.485 75.9511C138.485 76.7806 138.317 77.5114 137.981 78.1434C137.655 78.7754 137.196 79.2642 136.604 79.6098C136.021 79.9555 135.364 80.1283 134.634 80.1283C133.863 80.1283 133.197 79.9555 132.634 79.6098C132.081 79.2543 131.676 78.7951 131.419 78.2323V80.0098H130.397V69.0485H131.419V73.7144ZM137.433 75.9511C137.433 75.2796 137.3 74.7019 137.033 74.2181C136.776 73.7243 136.421 73.3491 135.967 73.0923C135.512 72.8356 134.999 72.7072 134.426 72.7072C133.873 72.7072 133.365 72.8405 132.9 73.1071C132.446 73.3738 132.086 73.7539 131.819 74.2477C131.553 74.7414 131.419 75.3142 131.419 75.9659C131.419 76.6177 131.553 77.1904 131.819 77.6842C132.086 78.178 132.446 78.5581 132.9 78.8248C133.365 79.0914 133.873 79.2247 134.426 79.2247C134.999 79.2247 135.512 79.0963 135.967 78.8396C136.421 78.573 136.776 78.1928 137.033 77.699C137.3 77.1954 137.433 76.6128 137.433 75.9511ZM147.992 71.9221V80.0098H146.955V78.5878C146.718 79.0914 146.352 79.4765 145.859 79.7431C145.365 80.0098 144.812 80.1431 144.2 80.1431C143.232 80.1431 142.442 79.8468 141.83 79.2543C141.217 78.652 140.911 77.783 140.911 76.6473V71.9221H141.933V76.5288C141.933 77.4077 142.15 78.0792 142.585 78.5433C143.029 79.0075 143.632 79.2395 144.392 79.2395C145.172 79.2395 145.794 78.9926 146.258 78.4989C146.723 78.0051 146.955 77.2793 146.955 76.3214V71.9221H147.992ZM151.47 70.3964C151.262 70.3964 151.085 70.3224 150.936 70.1743C150.788 70.0261 150.714 69.8434 150.714 69.6262C150.714 69.4089 150.788 69.2312 150.936 69.0929C151.085 68.9448 151.262 68.8708 151.47 68.8708C151.677 68.8708 151.855 68.9448 152.003 69.0929C152.151 69.2312 152.225 69.4089 152.225 69.6262C152.225 69.8434 152.151 70.0261 152.003 70.1743C151.855 70.3224 151.677 70.3964 151.47 70.3964ZM151.988 71.9221V80.0098H150.951V71.9221H151.988ZM155.966 69.0485V80.0098H154.929V69.0485H155.966ZM158.432 75.9511C158.432 75.1216 158.6 74.3958 158.936 73.7737C159.271 73.1417 159.731 72.6578 160.313 72.3221C160.906 71.9764 161.572 71.8036 162.313 71.8036C163.024 71.8036 163.666 71.9764 164.239 72.3221C164.811 72.6677 165.231 73.117 165.498 73.67V69.0485H166.534V80.0098H165.498V78.2026C165.251 78.7655 164.846 79.2296 164.283 79.595C163.72 79.9505 163.058 80.1283 162.298 80.1283C161.557 80.1283 160.891 79.9555 160.298 79.6098C159.716 79.2642 159.257 78.7754 158.921 78.1434C158.595 77.5114 158.432 76.7806 158.432 75.9511ZM165.498 75.9659C165.498 75.3142 165.364 74.7414 165.098 74.2477C164.831 73.7539 164.466 73.3738 164.002 73.1071C163.547 72.8405 163.044 72.7072 162.491 72.7072C161.918 72.7072 161.404 72.8356 160.95 73.0923C160.496 73.3491 160.135 73.7243 159.869 74.2181C159.612 74.7019 159.484 75.2796 159.484 75.9511C159.484 76.6128 159.612 77.1954 159.869 77.699C160.135 78.1928 160.496 78.573 160.95 78.8396C161.404 79.0963 161.918 79.2247 162.491 79.2247C163.044 79.2247 163.547 79.0914 164.002 78.8248C164.466 78.5581 164.831 78.178 165.098 77.6842C165.364 77.1904 165.498 76.6177 165.498 75.9659ZM175.499 72.7961V77.8175C175.499 78.3113 175.593 78.652 175.781 78.8396C175.968 79.0272 176.299 79.121 176.773 79.121H177.721V80.0098H176.61C175.879 80.0098 175.336 79.8419 174.981 79.5061C174.625 79.1605 174.448 78.5976 174.448 77.8175V72.7961H173.322V71.9221H174.448V69.8928H175.499V71.9221H177.721V72.7961H175.499ZM183.564 80.1283C182.804 80.1283 182.117 79.9604 181.505 79.6246C180.903 79.279 180.424 78.7951 180.068 78.173C179.723 77.541 179.55 76.8053 179.55 75.9659C179.55 75.1266 179.727 74.3958 180.083 73.7737C180.438 73.1417 180.922 72.6578 181.535 72.3221C182.147 71.9764 182.833 71.8036 183.594 71.8036C184.354 71.8036 185.04 71.9764 185.652 72.3221C186.275 72.6578 186.758 73.1417 187.104 73.7737C187.46 74.3958 187.637 75.1266 187.637 75.9659C187.637 76.7954 187.46 77.5262 187.104 78.1582C186.749 78.7902 186.26 79.279 185.638 79.6246C185.016 79.9604 184.324 80.1283 183.564 80.1283ZM183.564 79.2247C184.097 79.2247 184.591 79.1062 185.045 78.8692C185.499 78.6223 185.865 78.257 186.141 77.7731C186.428 77.2793 186.571 76.6769 186.571 75.9659C186.571 75.2549 186.433 74.6575 186.156 74.1736C185.88 73.6799 185.514 73.3145 185.06 73.0775C184.606 72.8306 184.112 72.7072 183.579 72.7072C183.045 72.7072 182.552 72.8306 182.097 73.0775C181.643 73.3145 181.278 73.6799 181.001 74.1736C180.735 74.6575 180.601 75.2549 180.601 75.9659C180.601 76.6769 180.735 77.2793 181.001 77.7731C181.278 78.257 181.638 78.6223 182.083 78.8692C182.537 79.1062 183.031 79.2247 183.564 79.2247ZM193.512 71.8036C194.272 71.8036 194.934 71.9814 195.497 72.3369C196.06 72.6924 196.465 73.1417 196.712 73.6848V71.9221H197.748V80.2171C197.748 80.9578 197.585 81.6145 197.26 82.1872C196.944 82.76 196.499 83.1994 195.926 83.5055C195.354 83.8215 194.702 83.9795 193.971 83.9795C192.934 83.9795 192.07 83.7326 191.379 83.2389C190.698 82.7451 190.273 82.0736 190.105 81.2244H191.127C191.305 81.7873 191.641 82.2366 192.134 82.5723C192.638 82.9081 193.25 83.076 193.971 83.076C194.495 83.076 194.964 82.9624 195.378 82.7353C195.793 82.518 196.119 82.1921 196.356 81.7576C196.593 81.3231 196.712 80.8096 196.712 80.2171V78.2175C196.455 78.7705 196.045 79.2296 195.482 79.595C194.929 79.9505 194.272 80.1283 193.512 80.1283C192.771 80.1283 192.105 79.9555 191.512 79.6098C190.93 79.2642 190.471 78.7754 190.135 78.1434C189.809 77.5114 189.646 76.7806 189.646 75.9511C189.646 75.1216 189.809 74.3958 190.135 73.7737C190.471 73.1417 190.93 72.6578 191.512 72.3221C192.105 71.9764 192.771 71.8036 193.512 71.8036ZM196.712 75.9659C196.712 75.3142 196.578 74.7414 196.312 74.2477C196.045 73.7539 195.68 73.3738 195.215 73.1071C194.761 72.8405 194.258 72.7072 193.705 72.7072C193.132 72.7072 192.618 72.8356 192.164 73.0923C191.71 73.3491 191.349 73.7243 191.083 74.2181C190.826 74.7019 190.698 75.2796 190.698 75.9511C190.698 76.6128 190.826 77.1954 191.083 77.699C191.349 78.1928 191.71 78.573 192.164 78.8396C192.618 79.0963 193.132 79.2247 193.705 79.2247C194.258 79.2247 194.761 79.0914 195.215 78.8248C195.68 78.5581 196.045 78.178 196.312 77.6842C196.578 77.1904 196.712 76.6177 196.712 75.9659ZM208.025 75.5512C208.025 75.9067 208.016 76.1783 207.996 76.3659H201.286C201.315 76.9781 201.463 77.5015 201.73 77.936C201.997 78.3705 202.347 78.7013 202.782 78.9285C203.216 79.1457 203.69 79.2543 204.204 79.2543C204.875 79.2543 205.438 79.0914 205.892 78.7655C206.357 78.4396 206.663 78.0002 206.811 77.4472H207.907C207.709 78.2372 207.285 78.884 206.633 79.3876C205.991 79.8814 205.181 80.1283 204.204 80.1283C203.443 80.1283 202.762 79.9604 202.16 79.6246C201.557 79.279 201.083 78.7951 200.738 78.173C200.402 77.541 200.234 76.8053 200.234 75.9659C200.234 75.1266 200.402 74.3909 200.738 73.7589C201.073 73.1269 201.542 72.643 202.145 72.3073C202.747 71.9715 203.434 71.8036 204.204 71.8036C204.974 71.8036 205.646 71.9715 206.218 72.3073C206.801 72.643 207.245 73.0973 207.551 73.67C207.867 74.2329 208.025 74.8599 208.025 75.5512ZM206.974 75.5216C206.984 74.9192 206.86 74.4057 206.603 73.9811C206.357 73.5564 206.016 73.2355 205.581 73.0183C205.147 72.801 204.673 72.6924 204.159 72.6924C203.389 72.6924 202.732 72.9393 202.189 73.433C201.646 73.9268 201.345 74.6229 201.286 75.5216H206.974ZM211.863 72.7961V77.8175C211.863 78.3113 211.957 78.652 212.144 78.8396C212.332 79.0272 212.663 79.121 213.137 79.121H214.085V80.0098H212.974C212.243 80.0098 211.7 79.8419 211.344 79.5061C210.989 79.1605 210.811 78.5976 210.811 77.8175V72.7961H209.685V71.9221H210.811V69.8928H211.863V71.9221H214.085V72.7961H211.863ZM220.239 71.774C220.851 71.774 221.399 71.9024 221.883 72.1591C222.376 72.4159 222.762 72.8109 223.038 73.3441C223.324 73.8675 223.468 74.5094 223.468 75.2698V80.0098H222.446V75.3883C222.446 74.5094 222.223 73.8379 221.779 73.3738C221.345 72.9096 220.747 72.6776 219.987 72.6776C219.207 72.6776 218.584 72.9244 218.12 73.4182C217.656 73.9119 217.424 74.6378 217.424 75.5956V80.0098H216.387V69.0485H217.424V73.2997C217.681 72.8158 218.056 72.4406 218.55 72.1739C219.054 71.9073 219.616 71.774 220.239 71.774ZM233.671 75.5512C233.671 75.9067 233.661 76.1783 233.641 76.3659H226.931C226.961 76.9781 227.109 77.5015 227.375 77.936C227.642 78.3705 227.993 78.7013 228.427 78.9285C228.862 79.1457 229.336 79.2543 229.849 79.2543C230.521 79.2543 231.083 79.0914 231.538 78.7655C232.002 78.4396 232.308 78.0002 232.456 77.4472H233.552C233.355 78.2372 232.93 78.884 232.278 79.3876C231.636 79.8814 230.827 80.1283 229.849 80.1283C229.089 80.1283 228.407 79.9604 227.805 79.6246C227.203 79.279 226.729 78.7951 226.383 78.173C226.047 77.541 225.879 76.8053 225.879 75.9659C225.879 75.1266 226.047 74.3909 226.383 73.7589C226.719 73.1269 227.188 72.643 227.79 72.3073C228.393 71.9715 229.079 71.8036 229.849 71.8036C230.619 71.8036 231.291 71.9715 231.864 72.3073C232.446 72.643 232.891 73.0973 233.197 73.67C233.513 74.2329 233.671 74.8599 233.671 75.5512ZM232.619 75.5216C232.629 74.9192 232.505 74.4057 232.249 73.9811C232.002 73.5564 231.661 73.2355 231.227 73.0183C230.792 72.801 230.318 72.6924 229.805 72.6924C229.034 72.6924 228.378 72.9393 227.835 73.433C227.291 73.9268 226.99 74.6229 226.931 75.5216H232.619ZM237.197 73.3589C237.424 72.8553 237.77 72.4653 238.234 72.1888C238.708 71.9123 239.286 71.774 239.967 71.774V72.8553H239.686C238.935 72.8553 238.333 73.0578 237.879 73.4626C237.424 73.8675 237.197 74.5439 237.197 75.4919V80.0098H236.16V71.9221H237.197V73.3589ZM246.303 75.9511C246.303 75.1216 246.466 74.3958 246.792 73.7737C247.127 73.1417 247.586 72.6578 248.169 72.3221C248.762 71.9764 249.428 71.8036 250.169 71.8036C250.939 71.8036 251.601 71.9814 252.154 72.3369C252.717 72.6924 253.121 73.1466 253.368 73.6996V71.9221H254.405V80.0098H253.368V78.2175C253.112 78.7705 252.702 79.2296 252.139 79.595C251.586 79.9505 250.924 80.1283 250.154 80.1283C249.423 80.1283 248.762 79.9555 248.169 79.6098C247.586 79.2642 247.127 78.7754 246.792 78.1434C246.466 77.5114 246.303 76.7806 246.303 75.9511ZM253.368 75.9659C253.368 75.3142 253.235 74.7414 252.968 74.2477C252.702 73.7539 252.336 73.3738 251.872 73.1071C251.418 72.8405 250.914 72.7072 250.361 72.7072C249.789 72.7072 249.275 72.8356 248.821 73.0923C248.367 73.3491 248.006 73.7243 247.74 74.2181C247.483 74.7019 247.354 75.2796 247.354 75.9511C247.354 76.6128 247.483 77.1954 247.74 77.699C248.006 78.1928 248.367 78.573 248.821 78.8396C249.275 79.0963 249.789 79.2247 250.361 79.2247C250.914 79.2247 251.418 79.0914 251.872 78.8248C252.336 78.5581 252.702 78.178 252.968 77.6842C253.235 77.1904 253.368 76.6177 253.368 75.9659ZM258.713 72.7961V77.8175C258.713 78.3113 258.807 78.652 258.994 78.8396C259.182 79.0272 259.513 79.121 259.987 79.121H260.935V80.0098H259.824C259.093 80.0098 258.55 79.8419 258.194 79.5061C257.839 79.1605 257.661 78.5976 257.661 77.8175V72.7961H256.535V71.9221H257.661V69.8928H258.713V71.9221H260.935V72.7961H258.713ZM269.242 72.7961V77.8175C269.242 78.3113 269.336 78.652 269.524 78.8396C269.711 79.0272 270.042 79.121 270.516 79.121H271.464V80.0098H270.353C269.622 80.0098 269.079 79.8419 268.724 79.5061C268.368 79.1605 268.191 78.5976 268.191 77.8175V72.7961H267.065V71.9221H268.191V69.8928H269.242V71.9221H271.464V72.7961H269.242ZM277.618 71.774C278.23 71.774 278.778 71.9024 279.262 72.1591C279.756 72.4159 280.141 72.8109 280.418 73.3441C280.704 73.8675 280.847 74.5094 280.847 75.2698V80.0098H279.825V75.3883C279.825 74.5094 279.603 73.8379 279.158 73.3738C278.724 72.9096 278.127 72.6776 277.366 72.6776C276.586 72.6776 275.964 72.9244 275.5 73.4182C275.036 73.9119 274.804 74.6378 274.804 75.5956V80.0098H273.767V69.0485H274.804V73.2997C275.06 72.8158 275.436 72.4406 275.929 72.1739C276.433 71.9073 276.996 71.774 277.618 71.774ZM291.05 75.5512C291.05 75.9067 291.04 76.1783 291.021 76.3659H284.31C284.34 76.9781 284.488 77.5015 284.755 77.936C285.021 78.3705 285.372 78.7013 285.807 78.9285C286.241 79.1457 286.715 79.2543 287.229 79.2543C287.9 79.2543 288.463 79.0914 288.917 78.7655C289.381 78.4396 289.687 78.0002 289.836 77.4472H290.932C290.734 78.2372 290.31 78.884 289.658 79.3876C289.016 79.8814 288.206 80.1283 287.229 80.1283C286.468 80.1283 285.787 79.9604 285.184 79.6246C284.582 79.279 284.108 78.7951 283.762 78.173C283.427 77.541 283.259 76.8053 283.259 75.9659C283.259 75.1266 283.427 74.3909 283.762 73.7589C284.098 73.1269 284.567 72.643 285.17 72.3073C285.772 71.9715 286.458 71.8036 287.229 71.8036C287.999 71.8036 288.67 71.9715 289.243 72.3073C289.826 72.643 290.27 73.0973 290.576 73.67C290.892 74.2329 291.05 74.8599 291.05 75.5512ZM289.998 75.5216C290.008 74.9192 289.885 74.4057 289.628 73.9811C289.381 73.5564 289.041 73.2355 288.606 73.0183C288.172 72.801 287.698 72.6924 287.184 72.6924C286.414 72.6924 285.757 72.9393 285.214 73.433C284.671 73.9268 284.37 74.6229 284.31 75.5216H289.998ZM338.938 69.0485V80.0098H337.901V69.0485H338.938ZM349.196 75.5512C349.196 75.9067 349.186 76.1783 349.167 76.3659H342.457C342.486 76.9781 342.634 77.5015 342.901 77.936C343.168 78.3705 343.518 78.7013 343.953 78.9285C344.387 79.1457 344.861 79.2543 345.375 79.2543C346.046 79.2543 346.609 79.0914 347.063 78.7655C347.527 78.4396 347.833 78.0002 347.982 77.4472H349.078C348.88 78.2372 348.456 78.884 347.804 79.3876C347.162 79.8814 346.352 80.1283 345.375 80.1283C344.614 80.1283 343.933 79.9604 343.33 79.6246C342.728 79.279 342.254 78.7951 341.908 78.173C341.573 77.541 341.405 76.8053 341.405 75.9659C341.405 75.1266 341.573 74.3909 341.908 73.7589C342.244 73.1269 342.713 72.643 343.316 72.3073C343.918 71.9715 344.604 71.8036 345.375 71.8036C346.145 71.8036 346.816 71.9715 347.389 72.3073C347.972 72.643 348.416 73.0973 348.722 73.67C349.038 74.2329 349.196 74.8599 349.196 75.5512ZM348.145 75.5216C348.154 74.9192 348.031 74.4057 347.774 73.9811C347.527 73.5564 347.187 73.2355 346.752 73.0183C346.318 72.801 345.844 72.6924 345.33 72.6924C344.56 72.6924 343.903 72.9393 343.36 73.433C342.817 73.9268 342.516 74.6229 342.457 75.5216H348.145ZM354.559 79.0025L357.285 71.9221H358.381L355.137 80.0098H353.967L350.723 71.9221H351.834L354.559 79.0025ZM367.696 75.5512C367.696 75.9067 367.686 76.1783 367.667 76.3659H360.957C360.986 76.9781 361.134 77.5015 361.401 77.936C361.668 78.3705 362.018 78.7013 362.453 78.9285C362.887 79.1457 363.361 79.2543 363.875 79.2543C364.546 79.2543 365.109 79.0914 365.563 78.7655C366.027 78.4396 366.334 78.0002 366.482 77.4472H367.578C367.38 78.2372 366.956 78.884 366.304 79.3876C365.662 79.8814 364.852 80.1283 363.875 80.1283C363.114 80.1283 362.433 79.9604 361.831 79.6246C361.228 79.279 360.754 78.7951 360.409 78.173C360.073 77.541 359.905 76.8053 359.905 75.9659C359.905 75.1266 360.073 74.3909 360.409 73.7589C360.744 73.1269 361.213 72.643 361.816 72.3073C362.418 71.9715 363.104 71.8036 363.875 71.8036C364.645 71.8036 365.316 71.9715 365.889 72.3073C366.472 72.643 366.916 73.0973 367.222 73.67C367.538 74.2329 367.696 74.8599 367.696 75.5512ZM366.645 75.5216C366.654 74.9192 366.531 74.4057 366.274 73.9811C366.027 73.5564 365.687 73.2355 365.252 73.0183C364.818 72.801 364.344 72.6924 363.83 72.6924C363.06 72.6924 362.403 72.9393 361.86 73.433C361.317 73.9268 361.016 74.6229 360.957 75.5216H366.645ZM371.223 69.0485V80.0098H370.186V69.0485H371.223Z" fill="#1E293B"/>
<path d="M302.581 71.6851C303.559 71.6851 304.349 71.9962 304.951 72.6183C305.554 73.2306 305.855 74.0897 305.855 75.1957V80.0098H303.781V75.4771C303.781 74.8254 303.618 74.3267 303.292 73.9811C302.967 73.6256 302.522 73.4478 301.959 73.4478C301.387 73.4478 300.932 73.6256 300.597 73.9811C300.271 74.3267 300.108 74.8254 300.108 75.4771V80.0098H298.034V71.8036H300.108V72.8257C300.384 72.4702 300.735 72.1937 301.159 71.9962C301.594 71.7888 302.068 71.6851 302.581 71.6851ZM316.048 75.7289C316.048 76.0252 316.028 76.2918 315.989 76.5288H309.99C310.039 77.1213 310.246 77.5854 310.612 77.9212C310.977 78.257 311.426 78.4248 311.96 78.4248C312.73 78.4248 313.278 78.094 313.604 77.4324H315.841C315.604 78.2224 315.149 78.8741 314.478 79.3876C313.806 79.8913 312.982 80.1431 312.004 80.1431C311.214 80.1431 310.503 79.9703 309.871 79.6246C309.249 79.2691 308.76 78.7705 308.405 78.1286C308.059 77.4867 307.886 76.7461 307.886 75.9067C307.886 75.0574 308.059 74.3119 308.405 73.67C308.75 73.0281 309.234 72.5344 309.856 72.1888C310.478 71.8431 311.194 71.6703 312.004 71.6703C312.784 71.6703 313.48 71.8382 314.093 72.1739C314.715 72.5097 315.194 72.9886 315.53 73.6108C315.875 74.223 316.048 74.9291 316.048 75.7289ZM313.9 75.1364C313.89 74.6032 313.698 74.1786 313.322 73.8626C312.947 73.5367 312.488 73.3738 311.945 73.3738C311.431 73.3738 310.997 73.5318 310.641 73.8478C310.296 74.1539 310.083 74.5834 310.004 75.1364H313.9ZM322.687 80.0098L320.998 77.462L319.502 80.0098H317.28L319.961 75.8919L317.251 71.8036H319.591L321.265 74.3366L322.776 71.8036H324.998L322.302 75.8919L325.027 80.0098H322.687ZM329.16 73.5071V77.4768C329.16 77.7533 329.225 77.9558 329.353 78.0841C329.491 78.2026 329.718 78.2619 330.034 78.2619H330.997V80.0098H329.694C327.946 80.0098 327.072 79.1605 327.072 77.462V73.5071H326.094V71.8036H327.072V69.7743H329.16V71.8036H330.997V73.5071H329.16Z" fill="url(#paint1_linear_373_988)"/>
<defs>
<linearGradient id="paint0_linear_373_988" x1="188.5" y1="0" x2="188.5" y2="75" gradientUnits="userSpaceOnUse">
<stop offset="0.510417" stop-color="#2563EB"/>
<stop offset="1" stop-color="#1E40AF"/>
</linearGradient>
<linearGradient id="paint1_linear_373_988" x1="231.391" y1="66.0098" x2="231.391" y2="84.0098" gradientUnits="userSpaceOnUse">
<stop offset="0.494792" stop-color="#2563EB"/>
<stop offset="1" stop-color="#1E40AF"/>
</linearGradient>
</defs>
</svg>
