<svg width="635" height="537" viewBox="0 0 635 537" fill="none" xmlns="http://www.w3.org/2000/svg">
<g clip-path="url(#clip0_331_1956)">
<path d="M39.7407 227.115C33.705 227.122 27.9185 229.522 23.6506 233.788C19.3827 238.053 16.9821 243.837 16.9753 249.87V346.37C16.9821 352.403 19.3827 358.187 23.6506 362.453C27.9185 366.719 33.705 369.118 39.7407 369.125H189.562C195.598 369.118 201.385 366.719 205.653 362.453C209.92 358.187 212.321 352.403 212.328 346.37V249.87C212.321 243.837 209.92 238.053 205.653 233.788C201.385 229.522 195.598 227.122 189.562 227.115H39.7407Z" fill="white"/>
<path d="M189.562 370.014H39.7407C33.4696 370.007 27.4573 367.513 23.023 363.081C18.5886 358.649 16.0943 352.639 16.0873 346.371V249.871C16.0943 243.603 18.5886 237.593 23.023 233.161C27.4573 228.729 33.4696 226.236 39.7407 226.229H189.562C195.834 226.236 201.846 228.729 206.28 233.161C210.714 237.593 213.209 243.603 213.216 249.871V346.371C213.209 352.639 210.714 358.649 206.28 363.081C201.846 367.513 195.834 370.007 189.562 370.014ZM39.7407 228.004C33.9404 228.01 28.3796 230.316 24.2782 234.416C20.1768 238.515 17.8698 244.073 17.8632 249.871V346.371C17.8698 352.169 20.1768 357.727 24.2782 361.826C28.3796 365.926 33.9404 368.232 39.7407 368.238H189.562C195.363 368.232 200.923 365.926 205.025 361.826C209.126 357.727 211.433 352.169 211.44 346.371V249.871C211.433 244.073 209.126 238.515 205.025 234.416C200.923 230.316 195.363 228.01 189.562 228.004H39.7407Z" fill="#1E293B"/>
<path d="M101.483 273.666C99.0181 276.233 96.6568 278.903 94.4333 281.677C89.5382 287.569 84.7121 293.513 79.8688 299.439C76.8524 303.126 73.8361 306.813 70.8543 310.5C69.9073 309.892 69.0084 309.212 68.1655 308.467C63.4027 304.335 60.4486 298.503 59.9361 292.22C59.4236 285.937 61.3935 279.704 65.4238 274.856C69.454 270.007 75.2238 266.929 81.4969 266.282C87.7701 265.634 94.0474 267.469 98.9837 271.392C99.8733 272.085 100.709 272.846 101.483 273.666Z" fill="#2563EB"/>
<path d="M191.073 270.867V274.443L189.475 273.858L166.983 265.639C151.4 276.734 145.397 271.505 144.784 257.988C144.473 251.146 131.215 256.195 124.68 258.245C122.342 263.247 118.977 268.15 109.016 267.964C106.296 267.913 105.083 271.701 103.209 273.662C102.596 274.31 101.984 274.958 101.38 275.606C99.5683 277.577 96.0311 279.015 96.1585 281.677C96.5571 290.006 95.0097 297.464 81.5959 299.437C76.8759 300.131 71.7819 305.824 72.5741 310.496C75.7128 329.01 57.9989 337.445 42.8627 347.126C41.5368 347.111 40.217 346.944 38.9291 346.629C48.972 334.159 59.0622 321.721 69.1998 309.316C69.4307 309.032 69.6616 308.748 69.8925 308.464C71.0823 306.981 72.2989 305.49 73.5065 304.008C78.559 297.822 83.6145 291.641 88.6729 285.467C92.3491 280.976 95.9987 276.467 99.959 272.207C100.199 271.932 100.447 271.665 100.705 271.39C101.087 270.982 101.469 270.583 101.859 270.165C110.464 261.281 121.199 253.426 134.057 253.213C141.622 253.098 148.93 255.494 155.963 258.024C163.537 260.766 171.085 263.553 178.651 266.322L191.073 270.867Z" fill="#1E293B"/>
<path d="M184.801 293.341V296.125L183.557 295.669L166.053 289.273C153.926 297.908 149.255 293.838 148.777 283.319C148.536 277.994 138.218 281.924 133.132 283.519C131.313 287.411 128.695 291.227 120.943 291.082C118.826 291.043 117.881 293.99 116.423 295.517C115.946 296.021 115.47 296.525 115 297.03C113.59 298.563 110.837 299.682 110.936 301.754C111.247 308.236 110.042 314.04 99.6036 315.575C95.9304 316.116 91.9662 320.545 92.5827 324.182C95.0253 338.589 81.24 345.154 69.4607 352.688C68.4289 352.676 67.4017 352.546 66.3994 352.301C74.215 342.596 82.0674 332.917 89.9567 323.263C90.1364 323.042 90.3161 322.821 90.4957 322.6C91.4217 321.446 92.3685 320.286 93.3082 319.133C97.2402 314.318 101.174 309.509 105.111 304.703C107.972 301.208 110.812 297.7 113.894 294.384C114.081 294.17 114.274 293.963 114.475 293.749C114.772 293.431 115.069 293.12 115.373 292.795C122.069 285.881 130.424 279.769 140.43 279.603C146.317 279.513 152.005 281.378 157.478 283.346C163.372 285.481 169.246 287.65 175.133 289.805L184.801 293.341Z" fill="#1E293B"/>
<path d="M179.473 314.928V316.918L178.584 316.592L166.068 312.019C157.397 318.193 154.057 315.283 153.716 307.762C153.543 303.955 146.166 306.764 142.529 307.905C141.228 310.688 139.356 313.416 133.814 313.313C132.3 313.285 131.625 315.392 130.582 316.484C130.241 316.844 129.9 317.205 129.564 317.565C128.556 318.662 126.588 319.462 126.659 320.943C126.881 325.578 126.02 329.728 118.556 330.826C115.929 331.212 113.095 334.379 113.536 336.979C115.282 347.281 105.426 351.975 97.0032 357.361C96.2654 357.353 95.531 357.26 94.8144 357.085C100.403 350.146 106.017 343.225 111.658 336.322L112.044 335.848C112.706 335.024 113.383 334.194 114.055 333.369C116.866 329.927 119.679 326.488 122.494 323.052C124.539 320.553 126.57 318.044 128.774 315.674C128.907 315.521 129.046 315.372 129.189 315.219C129.401 314.992 129.614 314.77 129.831 314.538C134.619 309.594 140.593 305.223 147.747 305.105C151.957 305.041 156.023 306.374 159.937 307.782C164.151 309.308 168.351 310.858 172.561 312.399L179.473 314.928Z" fill="#1E293B"/>
<path d="M333.323 174.157L346.091 193.826L336.02 202.029L323.251 180.796C322.515 180.537 321.819 180.175 321.184 179.721C320.325 179.171 319.586 178.452 319.014 177.608C318.441 176.764 318.046 175.812 317.853 174.81C317.66 173.809 317.673 172.779 317.891 171.782C318.109 170.786 318.527 169.844 319.121 169.015C319.714 168.185 320.47 167.485 321.343 166.956C322.216 166.428 323.187 166.082 324.197 165.941C325.208 165.799 326.237 165.865 327.221 166.133C328.205 166.402 329.125 166.867 329.923 167.502C330.989 168.251 331.856 169.249 332.449 170.408C333.041 171.568 333.341 172.855 333.323 174.157Z" fill="#FFB6B6"/>
<path d="M510.358 512.786L502.56 517.854L479.293 490.203L490.801 482.724L510.358 512.786Z" fill="#FFB6B6"/>
<path d="M515.922 520.738L491.943 536.323L491.746 536.02C490.137 533.546 489.577 530.534 490.189 527.647C490.801 524.76 492.535 522.234 495.01 520.625L497.23 514.457L507.563 512.467L509.656 511.106L515.922 520.738Z" fill="#1E293B"/>
<path d="M376.728 526.066L367.427 526.065L363.003 490.206L376.73 490.207L376.728 526.066Z" fill="#FFB6B6"/>
<path d="M377.055 535.764L348.454 535.763V535.401C348.454 532.45 349.627 529.62 351.714 527.533C353.802 525.447 356.634 524.274 359.586 524.274L364.811 520.312L374.559 524.275L377.056 524.275L377.055 535.764Z" fill="#1E293B"/>
<path d="M473.001 304.793L389.596 306.626L381.329 316.955C381.329 316.955 371.578 322.039 370.942 326.039C370.306 330.039 364.68 401.065 367.722 403.74C370.764 406.415 361.955 424.882 361.308 426.008C360.661 427.135 353.687 482.723 361.308 487.294L364.17 506.697H377.49C377.49 506.697 390.833 491.263 388.148 488.465C385.462 485.667 393.142 476.364 393.436 471.375C393.73 466.386 396.534 443.758 394.361 440.13C392.188 436.502 389.251 422.886 394.763 417.608C400.274 412.329 425.979 347.464 425.979 347.464C425.979 347.464 433.449 423.508 433.432 429.479C433.409 437.245 438.51 433.401 438.51 440.218C438.51 441.596 455.122 476.994 466.286 488.059L489.373 505.81L500.029 497.822V486.283C500.029 486.283 490.154 464.875 486.71 461.432C483.265 457.989 470.546 447.449 470.546 442.629C470.546 437.808 464.558 436.129 468.585 429.738C472.613 423.347 471.235 420.593 469.857 417.838C468.479 415.084 484.325 328.318 484.325 328.318L473.001 304.793Z" fill="#1E293B"/>
<path d="M457.209 147.347L421.021 145.609L411.761 160.794C411.761 160.794 384.713 163.508 388.581 173.676C392.449 183.844 395.807 244.22 390.339 252.939C384.871 261.658 376.479 254.431 383.775 271.473C391.071 288.515 374.835 318.499 374.835 318.499L422.073 328.455C422.073 328.455 459.965 317.437 466.854 310.551C473.743 303.664 479.944 298.155 475.81 296.089C471.676 294.024 459.965 292.646 466.165 283.006C472.365 273.365 473.123 273.811 473.089 267.39C473.054 260.97 469.431 245.06 469.431 245.06C469.431 245.06 493.21 177.645 486.047 175.1C478.883 172.554 458.885 160.794 458.885 160.794L457.209 147.347Z" fill="white"/>
<path d="M410.38 168.027C410.38 168.027 389.625 158.168 386.564 171.698C383.502 185.229 371.684 219.171 371.684 219.171C371.684 219.171 358.592 211.595 360.661 207.464C362.73 203.334 351.527 202.706 355.149 195.758C358.771 188.81 342.059 181.985 342.059 181.985L322.08 190.249C322.08 190.249 329.816 201.838 334.956 206.948C340.096 212.058 332.417 212.97 338.615 219.171C344.812 225.372 357.29 248.568 357.29 248.568L373.538 255.339L419.171 227.475L410.38 168.027Z" fill="#F7F7F7"/>
<path d="M438.223 137.448C452.142 137.448 463.426 126.169 463.426 112.256C463.426 98.3431 452.142 87.0645 438.223 87.0645C424.303 87.0645 413.02 98.3431 413.02 112.256C413.02 126.169 424.303 137.448 438.223 137.448Z" fill="#FFB6B6"/>
<path d="M454.641 118.729C455.838 118.12 457.363 119.183 457.65 120.495C457.733 121.162 457.679 121.839 457.491 122.484C457.303 123.13 456.985 123.73 456.557 124.249C455.696 125.279 454.925 126.38 454.251 127.541C453.923 128.128 453.769 128.797 453.808 129.469C453.846 130.141 454.076 130.788 454.47 131.333C454.9 131.751 455.439 132.038 456.025 132.162C456.612 132.285 457.221 132.24 457.783 132.032C458.901 131.595 459.89 130.881 460.656 129.957C465.474 124.732 470.5 116.057 468.037 109.391C467.832 108.679 467.751 107.937 467.797 107.197C467.75 106.349 467.592 105.071 468.392 104.782C470.622 103.978 464.364 90.946 454.704 88.1109C455.175 83.6614 431.936 77.261 433.205 82.8472C433.432 83.8503 431.188 83.3051 430.161 83.3607C422.276 83.7872 413.372 85.7676 414.09 94.9018C414.368 98.439 412.904 97.623 411.729 100.971C413.56 102.062 414.16 104.455 415.572 102.858C416.983 101.261 418.189 99.2617 420.212 98.5911C422.367 97.877 424.704 98.9452 426.541 100.277C428.379 101.609 430.065 103.263 432.224 103.961C434.647 104.743 437.288 104.199 439.813 104.516C443.404 104.966 446.592 107.159 448.965 109.89C451.227 112.718 453.136 115.811 454.65 119.101" fill="#1E293B"/>
<path d="M549.458 536.727L269.431 537C269.152 536.998 268.885 536.886 268.688 536.688C268.491 536.49 268.38 536.222 268.38 535.943C268.38 535.664 268.491 535.396 268.688 535.198C268.885 535 269.152 534.888 269.431 534.886L549.458 534.613C549.738 534.615 550.005 534.727 550.202 534.925C550.4 535.123 550.51 535.391 550.51 535.67C550.51 535.949 550.4 536.217 550.202 536.415C550.005 536.613 549.738 536.725 549.458 536.727Z" fill="#CACACA"/>
<path d="M461.525 315.872C455.489 315.879 449.703 318.278 445.435 322.544C441.167 326.81 438.766 332.594 438.759 338.627V435.127C438.766 441.16 441.167 446.944 445.435 451.21C449.703 455.476 455.489 457.875 461.525 457.882H611.347C617.382 457.875 623.169 455.476 627.437 451.21C631.705 446.944 634.105 441.16 634.112 435.127V338.627C634.105 332.594 631.705 326.81 627.437 322.544C623.169 318.278 617.382 315.879 611.347 315.872H461.525Z" fill="white"/>
<path d="M611.347 458.769H461.525C455.254 458.762 449.241 456.269 444.807 451.837C440.373 447.405 437.878 441.395 437.871 435.127V338.627C437.878 332.359 440.373 326.349 444.807 321.917C449.241 317.485 455.254 314.991 461.525 314.984H611.347C617.618 314.991 623.63 317.485 628.064 321.917C632.499 326.349 634.993 332.359 635 338.627V435.127C634.993 441.395 632.499 447.405 628.064 451.837C623.63 456.269 617.618 458.762 611.347 458.769ZM461.525 316.759C455.725 316.766 450.164 319.072 446.062 323.172C441.961 327.271 439.654 332.829 439.647 338.627V435.127C439.654 440.924 441.961 446.483 446.062 450.582C450.164 454.682 455.725 456.988 461.525 456.994H611.347C617.147 456.988 622.708 454.682 626.809 450.582C630.91 446.483 633.217 440.924 633.224 435.127V338.627C633.217 332.829 630.91 327.271 626.809 323.172C622.708 319.072 617.147 316.766 611.347 316.759H461.525Z" fill="#1E293B"/>
<path d="M527.7 412.551C528.071 410.001 525.399 407.501 521.732 406.968C518.065 406.434 514.791 408.069 514.42 410.619C514.049 413.169 516.721 415.669 520.388 416.202C524.055 416.735 527.329 415.101 527.7 412.551Z" fill="#E6E6E6"/>
<path d="M571.363 408.293C571.734 405.743 569.062 403.243 565.395 402.71C561.728 402.177 558.454 403.811 558.083 406.361C557.711 408.911 560.383 411.411 564.051 411.944C567.718 412.478 570.992 410.843 571.363 408.293Z" fill="#1E293B"/>
<path d="M515.744 377.219C516.115 374.669 513.443 372.169 509.776 371.636C506.109 371.102 502.835 372.737 502.464 375.287C502.093 377.837 504.765 380.337 508.432 380.87C512.099 381.403 515.373 379.768 515.744 377.219Z" fill="#FF6584"/>
<path d="M496.772 362.746C496.789 360.405 495.483 358.498 493.854 358.485C492.224 358.473 490.889 360.361 490.872 362.702C490.854 365.043 492.16 366.95 493.79 366.963C495.419 366.975 496.754 365.087 496.772 362.746Z" fill="#E6E6E6"/>
<path d="M490.338 335.789C490.355 333.448 489.049 331.541 487.42 331.528C485.79 331.516 484.455 333.404 484.438 335.745C484.42 338.086 485.726 339.993 487.355 340.006C488.985 340.018 490.32 338.13 490.338 335.789Z" fill="#1E293B"/>
<path d="M540.37 383.232C540.388 380.891 539.082 378.983 537.452 378.971C535.823 378.958 534.488 380.846 534.47 383.187C534.452 385.528 535.759 387.436 537.388 387.448C539.017 387.46 540.352 385.573 540.37 383.232Z" fill="#E6E6E6"/>
<path d="M519.271 393.761C519.288 391.42 517.982 389.512 516.353 389.5C514.723 389.488 513.388 391.375 513.371 393.716C513.353 396.057 514.659 397.965 516.288 397.977C517.918 397.99 519.253 396.102 519.271 393.761Z" fill="#FF6584"/>
<path d="M548.642 413.224C548.66 410.883 547.353 408.975 545.724 408.963C544.095 408.951 542.76 410.838 542.742 413.179C542.724 415.52 544.031 417.428 545.66 417.44C547.289 417.453 548.624 415.565 548.642 413.224Z" fill="#1E293B"/>
<path d="M558.444 401.842C561.022 401.842 563.112 398.839 563.112 395.135C563.112 391.431 561.022 388.428 558.444 388.428C555.866 388.428 553.776 391.431 553.776 395.135C553.776 398.839 555.866 401.842 558.444 401.842Z" fill="#E6E6E6"/>
<path d="M547.941 359.267C550.519 359.267 552.609 356.264 552.609 352.56C552.609 348.855 550.519 345.853 547.941 345.853C545.363 345.853 543.274 348.855 543.274 352.56C543.274 356.264 545.363 359.267 547.941 359.267Z" fill="#1E293B"/>
<path d="M525.185 418.755C527.763 418.755 529.853 415.752 529.853 412.048C529.853 408.344 527.763 405.341 525.185 405.341C522.607 405.341 520.518 408.344 520.518 412.048C520.518 415.752 522.607 418.755 525.185 418.755Z" fill="#FF6584"/>
<path d="M514.394 432.033C516.714 431.714 518.415 430.147 518.193 428.534C517.97 426.92 515.909 425.871 513.589 426.191C511.269 426.51 509.568 428.077 509.79 429.691C510.013 431.304 512.074 432.353 514.394 432.033Z" fill="#E6E6E6"/>
<path d="M488.633 442.278C490.953 441.959 492.653 440.392 492.431 438.779C492.209 437.165 490.147 436.117 487.827 436.436C485.507 436.756 483.807 438.323 484.029 439.936C484.251 441.549 486.312 442.598 488.633 442.278Z" fill="#1E293B"/>
<path d="M528.398 385.959C530.718 385.639 532.419 384.073 532.196 382.459C531.974 380.846 529.913 379.797 527.593 380.117C525.272 380.436 523.572 382.003 523.794 383.616C524.017 385.23 526.078 386.279 528.398 385.959Z" fill="#E6E6E6"/>
<path d="M541.861 405.314C544.181 404.994 545.882 403.427 545.659 401.814C545.437 400.2 543.376 399.152 541.056 399.471C538.735 399.791 537.035 401.358 537.257 402.971C537.48 404.584 539.541 405.633 541.861 405.314Z" fill="#FF6584"/>
<path d="M556.9 373.459C559.22 373.139 560.921 371.573 560.699 369.959C560.476 368.346 558.415 367.297 556.095 367.617C553.775 367.936 552.074 369.503 552.296 371.116C552.519 372.73 554.58 373.779 556.9 373.459Z" fill="#1E293B"/>
<path d="M169.384 32.7393C163.348 32.7461 157.562 35.1457 153.294 39.4116C149.026 43.6775 146.625 49.4614 146.618 55.4943V151.994C146.625 158.027 149.026 163.811 153.294 168.077C157.562 172.343 163.348 174.742 169.384 174.749H319.206C325.241 174.742 331.028 172.343 335.296 168.077C339.563 163.811 341.964 158.027 341.971 151.994V55.4943C341.964 49.4614 339.563 43.6775 335.296 39.4116C331.028 35.1457 325.241 32.7461 319.206 32.7393H169.384Z" fill="white"/>
<path d="M319.206 175.637H169.384C163.113 175.629 157.101 173.136 152.666 168.704C148.232 164.272 145.738 158.262 145.73 151.994V55.4942C145.738 49.2259 148.232 43.2165 152.666 38.7842C157.101 34.3519 163.113 31.8587 169.384 31.8516H319.206C325.477 31.8587 331.489 34.3519 335.923 38.7842C340.358 43.2165 342.852 49.2259 342.859 55.4942V151.994C342.852 158.262 340.358 164.272 335.923 168.704C331.489 173.136 325.477 175.629 319.206 175.637ZM169.384 33.6267C163.584 33.6332 158.023 35.9392 153.921 40.0387C149.82 44.1382 147.513 49.6965 147.506 55.4942V151.994C147.513 157.792 149.82 163.35 153.921 167.449C158.023 171.549 163.584 173.855 169.384 173.861H319.206C325.006 173.855 330.567 171.549 334.668 167.449C338.77 163.35 341.077 157.792 341.083 151.994V55.4942C341.077 49.6965 338.77 44.1382 334.668 40.0387C330.567 35.9392 325.006 33.6332 319.206 33.6267H169.384Z" fill="#1E293B"/>
<path d="M229.036 129.047C227.18 127.191 224.971 125.724 222.54 124.733C220.109 123.741 217.504 123.244 214.879 123.271L214.669 123.271C211.088 123.273 207.571 122.324 204.478 120.521L204.156 120.333L204.415 120.066C205.819 118.615 206.991 116.956 207.89 115.148C207.251 115.744 206.49 116.191 205.659 116.46C204.828 116.728 203.948 116.81 203.081 116.701C202.167 116.592 201.288 116.278 200.513 115.781C199.737 115.284 199.084 114.619 198.602 113.834C196.702 110.752 194.437 106.38 194.437 103.049C194.44 100.233 195.03 97.449 196.169 94.8739C197.308 92.2988 198.971 89.9892 201.053 88.0922C202.371 86.9045 203.423 85.4526 204.142 83.831C204.861 82.2095 205.229 80.4547 205.224 78.6812L205.223 78.4288C205.223 76.0938 205.508 73.7675 206.073 71.5018L206.131 71.273L206.366 71.2812C207.885 71.3329 209.404 71.2056 210.893 70.9021C209.497 70.7309 208.13 70.3677 206.833 69.8228L206.58 69.7203L206.666 69.4608C212.593 65.7927 225.972 67.6922 233.737 49.9332C240.034 35.5331 262.251 62.7162 262.251 78.4288C262.251 80.032 260.664 82.1507 261.852 83.2104C274.698 94.6657 265.835 102.022 263.04 109.423C262.377 111.18 263.815 113.107 263.815 115.007C263.815 115.33 263.807 115.663 263.79 115.996L263.766 116.51L263.337 116.225C262.49 115.67 261.705 115.026 260.994 114.304C261.731 115.999 262.078 117.837 262.01 119.683C261.943 121.529 261.461 123.337 260.602 124.973C259.642 126.989 258.331 128.818 256.731 130.377C252.816 133.726 247.768 135.454 242.62 135.207C237.472 134.96 232.613 132.756 229.036 129.047Z" fill="#2563EB"/>
<path d="M250.543 167.256C250.631 167.255 250.716 167.224 250.782 167.166C250.848 167.109 250.891 167.03 250.903 166.943C251.855 158.462 251.912 149.905 251.073 141.413C249.817 128.016 245.784 108.719 233.703 92.8707C233.674 92.8326 233.638 92.8005 233.596 92.7763C233.555 92.7522 233.509 92.7364 233.462 92.7299C233.415 92.7234 233.366 92.7264 233.32 92.7386C233.274 92.7508 233.23 92.772 233.192 92.801C233.154 92.83 233.122 92.8662 233.098 92.9076C233.074 92.949 233.058 92.9947 233.052 93.0421C233.046 93.0896 233.049 93.1378 233.061 93.184C233.073 93.2303 233.095 93.2736 233.124 93.3116C245.101 109.023 249.101 128.178 250.348 141.481C251.182 149.916 251.127 158.416 250.183 166.841C250.175 166.892 250.179 166.945 250.194 166.995C250.209 167.045 250.234 167.091 250.268 167.13C250.303 167.17 250.345 167.201 250.392 167.223C250.44 167.244 250.491 167.256 250.543 167.256Z" fill="#1E293B"/>
<path d="M240.684 115.225C240.761 115.225 240.836 115.201 240.898 115.156C240.961 115.111 241.007 115.047 241.031 114.974C241.054 114.901 241.054 114.822 241.031 114.749C241.007 114.676 240.961 114.612 240.899 114.567C237.456 112.238 233.737 110.346 229.828 108.934C223.72 106.699 214.432 104.673 204.87 107.714C204.778 107.744 204.701 107.808 204.657 107.894C204.612 107.98 204.604 108.079 204.633 108.171C204.662 108.263 204.727 108.34 204.813 108.384C204.898 108.428 204.998 108.437 205.09 108.407C214.456 105.428 223.576 107.421 229.577 109.617C233.424 111.005 237.083 112.865 240.471 115.155C240.533 115.201 240.608 115.225 240.684 115.225Z" fill="#1E293B"/>
<path d="M257.337 73.7681C257.343 73.6915 257.324 73.6151 257.283 73.5498C257.243 73.4845 257.183 73.4338 257.112 73.4048C257.04 73.3758 256.962 73.3701 256.887 73.3885C256.813 73.4069 256.746 73.4485 256.696 73.5072C254.124 76.7714 251.968 80.3426 250.278 84.1386C247.608 90.067 244.917 99.1809 247.263 108.933C247.275 108.979 247.295 109.023 247.323 109.062C247.351 109.1 247.386 109.133 247.427 109.158C247.468 109.183 247.513 109.199 247.56 109.207C247.608 109.214 247.656 109.212 247.702 109.201C247.749 109.19 247.792 109.17 247.831 109.142C247.87 109.114 247.903 109.078 247.927 109.038C247.952 108.997 247.969 108.952 247.977 108.904C247.984 108.857 247.982 108.809 247.971 108.763C245.672 99.2106 248.318 90.2622 250.941 84.4373C252.603 80.7022 254.723 77.1882 257.252 73.9761C257.302 73.9175 257.332 73.8447 257.337 73.7681Z" fill="#1E293B"/>
<path d="M291.407 60.7043C286.831 41.4922 287.594 22.5695 295.43 4.03013C295.513 2.88313 296.047 1.81579 296.916 1.06223C297.786 0.308675 298.918 -0.0695418 300.066 0.0105544L342.887 3.0476C344.034 3.13029 345.102 3.66458 345.856 4.53324C346.61 5.4019 346.988 6.534 346.908 7.68117L342.885 64.3553C342.802 65.5023 342.268 66.5696 341.399 67.3232C340.53 68.0768 339.397 68.455 338.249 68.3749L295.428 65.3378C294.281 65.2551 293.213 64.7209 292.459 63.8522C291.705 62.9835 291.327 61.8514 291.407 60.7043Z" fill="#F2F2F2"/>
<path d="M295.907 43.82C292.244 34.3527 294.586 21.332 298.493 7.3847C298.571 6.3105 299.071 5.31088 299.885 4.60515C300.699 3.89942 301.76 3.54521 302.835 3.62024L339.636 6.23034C340.711 6.30775 341.711 6.8081 342.417 7.62164C343.123 8.43517 343.477 9.49545 343.402 10.5698L339.822 61.0021C339.745 62.0763 339.244 63.0759 338.43 63.7817C337.616 64.4874 336.555 64.8416 335.48 64.7665L312.683 63.1496C307.896 62.8047 303.441 60.5759 300.296 56.9522C297.151 53.3284 295.573 48.6056 295.907 43.82Z" fill="white"/>
<path d="M313.927 53.0058C316.023 53.0058 317.722 51.3075 317.722 49.2124C317.722 47.1173 316.023 45.4189 313.927 45.4189C311.831 45.4189 310.132 47.1173 310.132 49.2124C310.132 51.3075 311.831 53.0058 313.927 53.0058Z" fill="#2563EB"/>
<path d="M328.671 16.0252C327.766 13.9647 325.129 13.4544 322.89 13.2198C320.594 12.8767 318.262 12.8408 315.957 13.1133C314.803 13.2556 313.69 13.6248 312.68 14.1995C311.67 14.7742 310.784 15.543 310.073 16.4617C308.446 18.7992 308.517 21.8937 308.87 24.7194C309.551 30.1552 311.031 35.4609 313.261 40.465L314.752 41.7887C318.481 39.169 321.649 35.8299 324.068 31.9682C326.486 28.1064 328.108 23.7999 328.836 19.3023C329.092 18.2162 329.035 17.08 328.671 16.0252Z" fill="#2563EB"/>
<path d="M2.81779 386.44C-1.75859 367.228 -0.995411 348.305 6.84102 329.765C6.92375 328.618 7.45827 327.551 8.32734 326.798C9.1964 326.044 10.329 325.666 11.4767 325.746L54.2978 328.783C55.4453 328.866 56.5132 329.4 57.267 330.269C58.0209 331.137 58.3993 332.269 58.3192 333.417L54.296 390.091C54.2132 391.238 53.6787 392.305 52.8097 393.059C51.9406 393.812 50.808 394.19 49.6603 394.11L6.83923 391.073C5.69171 390.991 4.62386 390.456 3.86996 389.588C3.11605 388.719 2.73765 387.587 2.81779 386.44Z" fill="#F2F2F2"/>
<path d="M7.31762 369.555C3.65519 360.088 5.99689 347.067 9.90411 333.12C9.98157 332.046 10.4822 331.046 11.2961 330.341C12.11 329.635 13.1707 329.281 14.2456 329.356L51.0467 331.966C52.1214 332.043 53.1215 332.543 53.8276 333.357C54.5337 334.171 54.8881 335.231 54.8131 336.305L51.2329 386.737C51.1554 387.812 50.6548 388.811 49.8409 389.517C49.0269 390.223 47.9662 390.577 46.8913 390.502L24.0937 388.885C19.3067 388.54 14.852 386.311 11.707 382.688C8.56191 379.064 6.98336 374.341 7.31762 369.555Z" fill="white"/>
<path d="M46.0379 346.254C37.3907 350.51 30.5583 354.453 26.9666 363.352C24.6527 358.022 22.3389 356.242 20.0251 350.912C19.3445 349.344 17.0488 350.698 17.7249 352.256C20.4637 358.565 23.2026 364.875 25.9415 371.184C26.4247 372.297 28.0742 371.862 28.376 370.866C29.8581 366.05 32.3082 361.586 35.5764 357.75C38.8445 353.913 42.8619 350.783 47.3824 348.553C48.9203 347.796 47.572 345.499 46.0379 346.254Z" fill="#2563EB"/>
<path d="M452.129 378.452C447.552 359.24 448.316 340.318 456.152 321.778C456.235 320.631 456.769 319.564 457.638 318.81C458.507 318.057 459.64 317.679 460.788 317.759L503.609 320.796C504.756 320.878 505.824 321.413 506.578 322.281C507.332 323.15 507.71 324.282 507.63 325.429L503.607 382.103C503.524 383.25 502.99 384.318 502.121 385.071C501.252 385.825 500.119 386.203 498.971 386.123L456.15 383.086C455.003 383.003 453.935 382.469 453.181 381.6C452.427 380.732 452.049 379.6 452.129 378.452Z" fill="#F2F2F2"/>
<path d="M456.629 361.567C452.966 352.1 455.308 339.079 459.215 325.132C459.293 324.058 459.793 323.058 460.607 322.352C461.421 321.646 462.482 321.292 463.557 321.367L500.358 323.977C501.433 324.055 502.433 324.555 503.139 325.369C503.845 326.182 504.199 327.243 504.124 328.317L500.544 378.749C500.467 379.823 499.966 380.823 499.152 381.529C498.338 382.234 497.277 382.589 496.202 382.514L473.405 380.897C468.618 380.552 464.163 378.323 461.018 374.699C457.873 371.075 456.294 366.353 456.629 361.567Z" fill="white"/>
<path d="M495.349 338.266C486.702 342.522 479.869 346.466 476.278 355.365C473.964 350.035 471.65 348.255 469.336 342.924C468.655 341.357 466.36 342.711 467.036 344.268C469.775 350.578 472.514 356.887 475.253 363.197C475.736 364.31 477.385 363.875 477.687 362.879C479.169 358.062 481.619 353.599 484.887 349.762C488.156 345.926 492.173 342.796 496.693 340.566C498.231 339.809 496.883 337.511 495.349 338.266Z" fill="#2563EB"/>
<path d="M466.533 312.371L478.279 293.185L490.18 298.362L477.04 318.205C477.235 319.592 477.04 321.006 476.476 322.289C475.912 323.571 475.001 324.67 473.846 325.463C472.69 326.257 471.337 326.712 469.937 326.778C468.537 326.845 467.147 326.519 465.922 325.839C464.697 325.159 463.686 324.15 463.003 322.927C462.319 321.704 461.991 320.315 462.055 318.916C462.118 317.516 462.571 316.162 463.362 315.006C464.153 313.85 465.251 312.937 466.533 312.371Z" fill="#FFB6B6"/>
<path d="M467.673 178.104C467.673 178.104 484.077 172.138 486.144 176.27C488.211 180.402 499.31 255.798 497.894 259.761C496.478 263.725 487.522 252.707 496.478 263.725C505.434 274.743 504.056 271.988 501.99 274.054C499.923 276.12 491.398 305.048 491.398 305.048L467.673 301.924L475.81 256.839L465.33 200.521L467.673 178.104Z" fill="#F7F7F7"/>
</g>
<defs>
<clipPath id="clip0_331_1956">
<rect width="635" height="537" fill="white"/>
</clipPath>
</defs>
</svg>
