<svg width="649" height="466" viewBox="0 0 649 466" fill="none" xmlns="http://www.w3.org/2000/svg">
<g clip-path="url(#clip0_331_1015)">
<path d="M476.161 0.269531H0.203125V304.974H476.161V0.269531Z" fill="white"/>
<path d="M462.551 38.4863H13.813V286.947H462.551V38.4863Z" fill="#E4E6F2"/>
<path d="M475.958 0H0V20.2123H475.958V0Z" fill="#2563EB"/>
<path d="M15.0268 14.081C17.0968 14.081 18.7748 12.4036 18.7748 10.3344C18.7748 8.26527 17.0968 6.58789 15.0268 6.58789C12.9569 6.58789 11.2788 8.26527 11.2788 10.3344C11.2788 12.4036 12.9569 14.081 15.0268 14.081Z" fill="white"/>
<path d="M29.2517 14.081C31.3216 14.081 32.9997 12.4036 32.9997 10.3344C32.9997 8.26527 31.3216 6.58789 29.2517 6.58789C27.1817 6.58789 25.5037 8.26527 25.5037 10.3344C25.5037 12.4036 27.1817 14.081 29.2517 14.081Z" fill="white"/>
<path d="M43.4768 14.081C45.5467 14.081 47.2248 12.4036 47.2248 10.3344C47.2248 8.26527 45.5467 6.58789 43.4768 6.58789C41.4068 6.58789 39.7288 8.26527 39.7288 10.3344C39.7288 12.4036 41.4068 14.081 43.4768 14.081Z" fill="white"/>
<path d="M156.791 58.9229H69.0249V154.104H156.791V58.9229Z" fill="white"/>
<path d="M282.065 58.9229H194.298V154.104H282.065V58.9229Z" fill="white"/>
<path d="M407.337 58.9229H319.57V154.104H407.337V58.9229Z" fill="white"/>
<path d="M156.791 171.333H69.0249V266.514H156.791V171.333Z" fill="white"/>
<path d="M282.065 171.333H194.298V266.514H282.065V171.333Z" fill="white"/>
<path d="M407.337 171.333H319.57V266.514H407.337V171.333Z" fill="white"/>
<path d="M215.511 195.795L231.547 189.457L233.412 221.144C233.412 221.144 236.768 230.836 235.65 234.564C235.65 234.564 236.395 240.901 234.53 241.274C232.666 241.647 227.443 242.393 227.074 242.019C226.705 241.646 226.701 240.528 226.701 240.528C226.701 240.528 222.972 243.137 222.599 246.119C222.599 246.119 206.936 250.965 206.563 246.492C206.19 242.019 214.394 238.29 214.394 238.29L220.734 228.598L215.511 195.795Z" fill="#1E293B"/>
<path d="M249.449 195.795L265.483 189.457L267.348 221.144C267.348 221.144 270.704 230.836 269.585 234.564C269.585 234.564 270.331 240.901 268.466 241.274C266.601 241.647 261.379 242.393 261.01 242.019C260.641 241.646 260.637 240.528 260.637 240.528C260.637 240.528 256.908 243.137 256.535 246.119C256.535 246.119 240.872 250.965 240.499 246.492C240.126 242.019 248.33 238.29 248.33 238.29L254.67 228.598L249.449 195.795Z" fill="#1E293B"/>
<path d="M251.016 73.4331C251.016 73.4331 247.601 82.9703 251.558 87.271L248.259 98.6007C248.259 98.6007 259.978 133.743 256.63 138.652C256.63 138.652 244.13 144.899 219.128 136.42L229.284 97.0384L227.833 80.4155L229.842 72.6059L234.306 72.1631C234.306 72.1631 231.627 82.2036 236.538 83.7658C241.449 85.328 246.239 72.414 246.239 72.414L251.016 73.4331Z" fill="#1E293B"/>
<path d="M93.3284 134.997L97.6374 136.759L118.203 109.741L124.666 141.458L128.975 140.675C131.739 113.33 133.995 85.4395 131.228 72.2481L115.265 71.5625L108.018 94.6682L104.493 110.331L93.3284 134.997Z" fill="#1E293B"/>
<path d="M354.853 72.0322C354.853 72.0322 348.972 80.2042 349.259 83.5021C349.546 86.8 353.275 140.565 353.275 140.565L362.025 140.995L359.441 102.284L361.592 91.818L366.899 140.565L377.657 140.852L368.047 77.6244L366.182 72.033L354.853 72.0322Z" fill="#1E293B"/>
<path d="M388.09 203.686C386.528 201.813 383.844 200.801 381.267 200.253C381.341 200.019 373.428 198.385 373.294 198.721L370.311 196.346L361.144 201.103L355.994 197.598L353.601 198.447C353.698 198.025 346.174 199.328 346.174 199.328C344.736 199.379 342.9 199.469 340.845 199.627C333.648 200.181 333.094 218.814 333.094 218.814C336.405 217.46 339.936 216.721 343.512 216.633L345.457 238.919C355.463 238.062 365.956 239.059 376.832 241.502L381.933 223.983L393.81 219.366C393.81 219.366 391.781 208.113 388.09 203.686Z" fill="#1E293B"/>
<path d="M133.208 193.074C131.921 191.531 129.71 190.696 127.586 190.245C127.649 190.052 121.127 188.706 121.016 188.983L118.557 187.026L111.006 190.946L106.762 188.059L104.791 188.758C104.871 188.411 98.6708 189.484 98.6708 189.484C97.4896 189.527 95.9733 189.6 94.2805 189.731C88.3503 190.187 87.894 205.538 87.894 205.538C90.6226 204.423 93.5318 203.814 96.479 203.742L98.0817 248.693C106.326 247.986 114.972 248.808 123.931 250.821L128.133 209.799L137.92 205.994C137.92 205.994 136.248 196.723 133.208 193.074Z" fill="#1E293B"/>
<path d="M553.27 205.039H595.349V182.531C595.349 176.954 593.132 171.604 589.186 167.66C585.241 163.716 579.889 161.5 574.309 161.5C568.729 161.5 563.378 163.716 559.432 167.66C555.486 171.604 553.27 176.954 553.27 182.531V205.039Z" fill="#1E293B"/>
<path d="M534.485 455.455H525.435L521.129 420.557H534.487L534.485 455.455Z" fill="#FFB6B6"/>
<path d="M536.793 452.501H518.969C515.957 452.501 513.068 453.697 510.938 455.826C508.808 457.956 507.611 460.843 507.61 463.854V464.223H536.793V452.501Z" fill="#1E293B"/>
<path d="M642.676 443.382L634.795 447.83L613.882 419.558L625.515 412.994L642.676 443.382Z" fill="#FFB6B6"/>
<path d="M643.234 439.675L627.712 448.431C625.089 449.912 623.162 452.373 622.354 455.274C621.546 458.176 621.924 461.278 623.405 463.901L623.587 464.222L649 449.881L643.234 439.675Z" fill="#1E293B"/>
<path d="M584.833 298.516L585.531 302.006C585.531 302.006 587.626 304.1 586.579 305.148C585.531 306.195 585.88 311.082 585.88 311.082C586.466 319.994 598.115 370.07 600.198 379.85C600.198 379.85 616.262 390.323 628.834 410.918C641.405 431.513 641.753 436.75 641.753 436.75L627.787 442.685L592.868 400.446C592.868 400.446 583.09 394.512 579.598 389.276C576.105 384.04 554.451 329.932 554.451 329.932L542.226 386.483C542.226 386.483 542.924 407.078 539.781 420.344C537.849 428.715 536.68 437.244 536.289 445.826L519.876 444.081C519.876 444.081 520.924 394.512 522.67 389.275C522.67 389.275 515.336 328.885 530.003 304.799L541.824 273.298L553.401 268.844L584.833 298.516Z" fill="#1E293B"/>
<path d="M574.526 167.002C552.492 167.378 552.496 200.141 574.526 200.513C596.559 200.137 596.556 167.375 574.526 167.002Z" fill="#FFB8B8"/>
<path d="M557.568 182.888H561.313L562.333 180.339L561.823 182.888H582.305L581.641 177.555L586.619 182.888H591.585V179.998C591.587 177.766 591.149 175.555 590.295 173.491C589.442 171.428 588.191 169.553 586.613 167.973C585.034 166.393 583.16 165.14 581.098 164.284C579.035 163.428 576.824 162.987 574.59 162.985C572.357 162.984 570.145 163.422 568.081 164.275C566.017 165.128 564.141 166.379 562.56 167.956C560.98 169.534 559.726 171.407 558.87 173.469C558.014 175.531 557.572 177.742 557.571 179.974V179.998L557.568 182.888Z" fill="#1E293B"/>
<path d="M551.805 210.297L593.441 210.634L584.644 299.864C584.644 299.864 535.951 297.295 535.921 282.438L540.482 269.236L551.805 210.297Z" fill="#1E293B"/>
<path d="M595.231 308.49C594.591 307.707 594.13 306.792 593.882 305.812C593.634 304.831 593.604 303.808 593.794 302.814C593.984 301.821 594.389 300.881 594.982 300.061C595.575 299.241 596.34 298.561 597.224 298.069L595.414 282.36L604.696 278.933L606.94 301.153C607.664 302.692 607.799 304.443 607.32 306.074C606.841 307.706 605.78 309.106 604.339 310.009C602.897 310.913 601.175 311.257 599.496 310.977C597.818 310.697 596.301 309.812 595.231 308.49Z" fill="#FFB6B6"/>
<path d="M587.966 218.321L593.445 210.667C593.445 210.667 597.194 209.835 601.624 215C606.053 220.166 608.637 284.736 608.637 284.736L592.396 288.426L582.799 242.673L587.966 218.321Z" fill="#1E293B"/>
<path d="M496.193 288.343L497.401 345.709L534.552 365.335L602.21 353.257L603.872 293.627L560.981 278.53L496.193 288.343Z" fill="white"/>
<path d="M534.455 365.954L496.815 346.07L495.588 287.835L561.039 277.922L561.178 277.971L604.477 293.211L602.79 353.756L534.455 365.954ZM497.986 345.347L534.649 364.714L601.631 352.758L603.266 294.043L560.924 279.139L496.797 288.851L497.986 345.347Z" fill="#CACACA"/>
<path d="M533.723 303.897L533.578 303.839L495.974 288.894L496.411 287.792L533.871 302.679L603.79 293.04L603.953 294.214L533.723 303.897Z" fill="#CACACA"/>
<path d="M534.391 303.281L533.204 303.296L533.959 365.342L535.146 365.327L534.391 303.281Z" fill="#CACACA"/>
<path d="M528.971 300.927L515.416 295.434L580.672 285.04L594.227 290.533L528.971 300.927Z" fill="#CACACA"/>
<path d="M496.427 304.984L495.958 306.073L511.68 312.84L512.149 311.75L496.427 304.984Z" fill="#CACACA"/>
<path d="M503.546 324.554L503.077 325.644L518.799 332.41L519.268 331.321L503.546 324.554Z" fill="#2563EB"/>
<path d="M289.487 368.042L290.695 425.407L327.847 445.033L395.504 432.956L397.166 373.325L354.275 358.229L289.487 368.042Z" fill="white"/>
<path d="M327.75 445.652L290.109 425.768L288.883 367.533L354.333 357.62L354.473 357.669L397.771 372.909L396.084 433.454L327.75 445.652ZM291.281 425.046L327.943 444.413L394.925 432.456L396.561 373.741L354.218 358.837L290.091 368.549L291.281 425.046Z" fill="#CACACA"/>
<path d="M327.018 383.595L326.872 383.538L289.268 368.592L289.706 367.49L327.165 382.378L397.085 372.738L397.247 373.913L327.018 383.595Z" fill="#CACACA"/>
<path d="M327.685 382.979L326.499 382.993L327.254 445.039L328.44 445.025L327.685 382.979Z" fill="#CACACA"/>
<path d="M318.982 379.275L308.71 375.132L373.966 364.738L384.237 368.881L318.982 379.275Z" fill="#CACACA"/>
<path d="M289.722 384.682L289.252 385.771L304.974 392.538L305.443 391.448L289.722 384.682Z" fill="#CACACA"/>
<path d="M296.841 404.252L296.372 405.342L312.093 412.108L312.563 411.019L296.841 404.252Z" fill="#2563EB"/>
<path d="M354.03 375.907L355.432 442.499L398.559 465.281L477.099 451.262L479.028 382.04L429.239 364.516L354.03 375.907Z" fill="#2563EB"/>
<path d="M398.446 466L354.752 442.919L353.328 375.317L429.305 363.81L429.467 363.866L479.73 381.558L477.772 451.841L398.446 466ZM356.112 442.08L398.671 464.562L476.426 450.682L478.325 382.523L429.172 365.222L354.731 376.497L356.112 442.08Z" fill="#1E293B"/>
<path d="M397.596 393.962L397.428 393.895L353.775 376.546L354.284 375.267L397.768 392.548L478.933 381.358L479.121 382.722L397.596 393.962Z" fill="#1E293B"/>
<path d="M398.371 393.247L396.994 393.264L397.87 465.289L399.248 465.272L398.371 393.247Z" fill="#1E293B"/>
<path d="M388.967 388.979L376.344 384.138L452.096 372.072L464.719 376.912L388.967 388.979Z" fill="#1E293B"/>
<path d="M354.302 395.224L353.757 396.488L372.008 404.343L372.552 403.078L354.302 395.224Z" fill="#1E293B"/>
<path d="M362.566 417.942L362.021 419.207L380.272 427.062L380.817 425.797L362.566 417.942Z" fill="white"/>
<path d="M517.257 297.829C518.173 297.399 518.984 296.774 519.632 295.997C520.28 295.22 520.75 294.311 521.008 293.333C521.267 292.355 521.307 291.333 521.128 290.337C520.948 289.342 520.553 288.398 519.969 287.572L528.401 274.193L521.517 267.088L509.875 286.148C508.552 287.221 507.669 288.742 507.393 290.423C507.117 292.103 507.467 293.826 508.377 295.266C509.286 296.706 510.693 297.762 512.329 298.234C513.966 298.707 515.719 298.563 517.257 297.83V297.829Z" fill="#FFB6B6"/>
<path d="M558.203 213.814L552.162 209.835C552.162 209.835 547.5 210.88 542.542 220.413C537.584 229.945 517.59 272.565 517.59 272.565L525.809 280.903L547.734 247.468L558.203 213.814Z" fill="#1E293B"/>
</g>
<defs>
<clipPath id="clip0_331_1015">
<rect width="649" height="466" fill="white"/>
</clipPath>
</defs>
</svg>
