<svg width="634" height="526" viewBox="0 0 634 526" fill="none" xmlns="http://www.w3.org/2000/svg">
<g clip-path="url(#clip0_331_1187)">
<path d="M417.083 0H232.853C204.2 0 180.972 23.1926 180.972 51.8021V472.143C180.972 500.753 204.2 523.945 232.853 523.945H417.083C445.737 523.945 468.965 500.753 468.965 472.143V51.8021C468.965 23.1926 445.737 0 417.083 0Z" fill="white"/>
<path d="M464.107 51.8057V472.144C464.092 484.592 459.133 496.526 450.318 505.328C441.502 514.131 429.55 519.082 417.082 519.096H232.855C220.388 519.082 208.436 514.131 199.62 505.328C190.804 496.526 185.845 484.592 185.831 472.144V51.8057C185.845 39.3577 190.804 27.4236 199.62 18.6214C208.436 9.8193 220.388 4.86793 232.855 4.85352H256.946V13.1626C256.946 16.9242 258.443 20.5317 261.107 23.1916C263.771 25.8515 267.384 27.3459 271.151 27.3461H378.786C382.554 27.3459 386.167 25.8515 388.831 23.1916C391.495 20.5317 392.992 16.9242 392.992 13.1626V4.85352H417.082C429.55 4.86793 441.502 9.8193 450.318 18.6214C459.133 27.4236 464.092 39.3577 464.107 51.8057Z" fill="#E4E6F2"/>
<path d="M179.646 106.289C178.71 106.288 177.811 105.916 177.149 105.254C176.487 104.593 176.114 103.696 176.113 102.761V95.704C176.113 94.7683 176.485 93.8709 177.148 93.2092C177.81 92.5475 178.709 92.1758 179.646 92.1758C180.584 92.1758 181.482 92.5475 182.145 93.2092C182.808 93.8709 183.18 94.7683 183.18 95.704V102.761C183.179 103.696 182.806 104.593 182.144 105.254C181.481 105.916 180.583 106.288 179.646 106.289Z" fill="white"/>
<path d="M179.646 142.472C178.71 142.471 177.811 142.099 177.149 141.437C176.487 140.776 176.114 139.879 176.113 138.944V119.519C176.113 118.584 176.485 117.686 177.148 117.025C177.81 116.363 178.709 115.991 179.646 115.991C180.584 115.991 181.482 116.363 182.145 117.025C182.808 117.686 183.18 118.584 183.18 119.519V138.944C183.179 139.879 182.806 140.776 182.144 141.437C181.481 142.099 180.583 142.471 179.646 142.472Z" fill="white"/>
<path d="M179.646 171.561C178.71 171.56 177.811 171.188 177.149 170.526C176.487 169.865 176.114 168.968 176.113 168.033V148.608C176.113 147.673 176.485 146.775 177.148 146.113C177.81 145.452 178.709 145.08 179.646 145.08C180.584 145.08 181.482 145.452 182.145 146.113C182.808 146.775 183.18 147.673 183.18 148.608V168.033C183.179 168.968 182.806 169.865 182.144 170.526C181.481 171.188 180.583 171.56 179.646 171.561Z" fill="white"/>
<path d="M469.406 155.684C468.469 155.683 467.571 155.311 466.909 154.65C466.246 153.988 465.874 153.091 465.873 152.156V104.76C465.873 103.824 466.245 102.927 466.908 102.265C467.57 101.603 468.469 101.231 469.406 101.231C470.343 101.231 471.242 101.603 471.905 102.265C472.568 102.927 472.94 103.824 472.94 104.76V152.156C472.939 153.091 472.566 153.988 471.904 154.65C471.241 155.311 470.343 155.683 469.406 155.684Z" fill="white"/>
<path d="M332.559 16.1818H305.173C304.587 16.1818 304.025 15.9495 303.611 15.5359C303.197 15.1224 302.964 14.5615 302.964 13.9766C302.964 13.3918 303.197 12.8309 303.611 12.4174C304.025 12.0038 304.587 11.7715 305.173 11.7715H332.559C333.144 11.7715 333.706 12.0038 334.12 12.4174C334.535 12.8309 334.767 13.3918 334.767 13.9766C334.767 14.5615 334.535 15.1224 334.12 15.5359C333.706 15.9495 333.144 16.1818 332.559 16.1818Z" fill="white"/>
<path d="M346.694 15.7411C347.669 15.7411 348.46 14.9513 348.46 13.977C348.46 13.0027 347.669 12.2129 346.694 12.2129C345.718 12.2129 344.927 13.0027 344.927 13.977C344.927 14.9513 345.718 15.7411 346.694 15.7411Z" fill="white"/>
<path d="M558.982 501.91C559.627 501.933 560.264 501.758 560.806 501.408C561.348 501.058 561.769 500.55 562.013 499.953C562.256 499.356 562.31 498.699 562.166 498.07C562.023 497.442 561.69 496.873 561.212 496.44C561.129 496.125 561.07 495.9 560.988 495.585C561.59 494.014 562.648 492.658 564.027 491.692C565.406 490.725 567.043 490.192 568.727 490.16C570.412 490.128 572.067 490.599 573.482 491.513C574.897 492.427 576.006 493.741 576.667 495.289C580.481 503.973 585.396 512.955 583.086 522.582C598.629 488.863 592.836 447.159 569.119 418.675C562.605 415.172 557.293 408.89 555.855 401.55C559.073 402.605 563.046 399.962 560.603 396.612C559.546 395.333 558.478 394.064 557.421 392.785C569.479 379.715 584.189 399.936 570.946 417.548C575.385 422.997 579.241 428.895 582.452 435.145C581.661 428.484 582.465 421.73 584.798 415.439C587.167 409.574 591.666 404.611 595.621 399.523C600.429 393.323 610.474 396.067 611.203 403.869C606.726 405.386 606.204 411.87 611.35 412.708C610.143 427.247 600.765 440.688 587.735 447.183C592.699 460.681 594.724 475.08 593.676 489.421C595.827 472.652 613.792 468.417 626.313 461.641C627.109 461.12 628.04 460.842 628.991 460.841C629.943 460.84 630.874 461.115 631.672 461.633C632.469 462.151 633.099 462.889 633.483 463.759C633.867 464.628 633.99 465.59 633.836 466.527C632.106 467.249 630.452 468.14 628.898 469.189C628.171 469.687 627.615 470.399 627.308 471.225C627.001 472.052 626.957 472.953 627.183 473.805C627.409 474.657 627.893 475.418 628.569 475.985C629.246 476.552 630.081 476.895 630.961 476.969C624.767 492.705 608.468 503.387 591.624 503.488C590.072 510.526 587.792 517.384 584.82 523.952L559.821 524.19C559.729 523.913 559.645 523.628 559.562 523.351C561.877 523.475 564.199 523.314 566.475 522.874C560.284 515.695 555.515 512.047 558.982 501.91Z" fill="#F2F2F2"/>
<path d="M75.0873 501.91C74.4422 501.933 73.8054 501.758 73.2633 501.408C72.7212 501.058 72.2999 500.55 72.0566 499.953C71.8132 499.356 71.7596 498.699 71.9028 498.07C72.0461 497.442 72.3794 496.873 72.8576 496.44C72.94 496.125 72.9991 495.9 73.0815 495.585C72.4793 494.014 71.4209 492.658 70.042 491.692C68.6631 490.725 67.0265 490.192 65.342 490.16C63.6575 490.128 62.0018 490.599 60.5872 491.513C59.1726 492.427 58.0635 493.741 57.4022 495.289C53.5878 503.973 48.6728 512.955 50.9827 522.582C35.4399 488.863 41.2328 447.159 64.9498 418.675C71.4637 415.172 76.7763 408.89 78.2138 401.55C74.9964 402.605 71.0228 399.962 73.4662 396.612C74.5237 395.333 75.5912 394.064 76.6486 392.785C64.5898 379.715 49.8806 399.936 63.1231 417.548C58.6842 422.997 54.8281 428.895 51.6175 435.145C52.4087 428.484 51.6046 421.73 49.2714 415.439C46.9019 409.574 42.4032 404.611 38.4482 399.523C33.6398 393.323 23.5953 396.067 22.866 403.869C27.3437 405.386 27.8654 411.87 22.7189 412.708C23.9261 427.247 33.3037 440.688 46.3341 447.183C41.3705 460.681 39.3453 475.08 40.3933 489.421C38.2423 472.652 20.2768 468.417 7.75615 461.641C6.96011 461.12 6.02957 460.842 5.07804 460.841C4.12652 460.84 3.19514 461.115 2.39753 461.633C1.59991 462.151 0.97054 462.889 0.586186 463.759C0.201832 464.628 0.0791075 465.59 0.232988 466.527C1.96313 467.249 3.61719 468.14 5.17081 469.189C5.89873 469.687 6.45433 470.399 6.76146 471.225C7.06859 472.052 7.11221 472.953 6.88634 473.805C6.66047 474.657 6.17616 475.418 5.49981 475.985C4.82347 476.552 3.98818 476.895 3.10845 476.969C9.30217 492.705 25.6016 503.387 42.4456 503.488C43.9973 510.526 46.2773 517.384 49.2491 523.952L74.2483 524.19C74.3406 523.913 74.424 523.628 74.5073 523.351C72.1919 523.475 69.8702 523.314 67.5938 522.874C73.7849 515.695 78.5548 512.048 75.0881 501.91L75.0873 501.91Z" fill="#F2F2F2"/>
<path d="M246.42 25.6439H222.568C221.396 25.6439 220.273 25.1792 219.445 24.3521C218.616 23.525 218.151 22.4032 218.151 21.2336C218.151 20.0639 218.616 18.9421 219.445 18.115C220.273 17.2879 221.396 16.8232 222.568 16.8232H246.42C247.592 16.8232 248.715 17.2879 249.543 18.115C250.372 18.9421 250.837 20.0639 250.837 21.2336C250.837 22.4032 250.372 23.525 249.543 24.3521C248.715 25.1792 247.592 25.6439 246.42 25.6439Z" fill="#E6E6E6"/>
<path d="M402.784 25.2032C404.98 25.2032 406.76 23.4261 406.76 21.2339C406.76 19.0418 404.98 17.2646 402.784 17.2646C400.589 17.2646 398.809 19.0418 398.809 21.2339C398.809 23.4261 400.589 25.2032 402.784 25.2032Z" fill="#E6E6E6"/>
<path d="M415.152 25.2032C417.348 25.2032 419.127 23.4261 419.127 21.2339C419.127 19.0418 417.348 17.2646 415.152 17.2646C412.957 17.2646 411.177 19.0418 411.177 21.2339C411.177 23.4261 412.957 25.2032 415.152 25.2032Z" fill="#E6E6E6"/>
<path d="M427.52 25.2032C429.716 25.2032 431.496 23.4261 431.496 21.2339C431.496 19.0418 429.716 17.2646 427.52 17.2646C425.325 17.2646 423.545 19.0418 423.545 21.2339C423.545 23.4261 425.325 25.2032 427.52 25.2032Z" fill="#E6E6E6"/>
<path d="M400.005 87.2861H250.09C247.186 87.2901 244.402 88.4438 242.348 90.4941C240.295 92.5444 239.139 95.3241 239.135 98.2237V195.524C239.139 198.424 240.295 201.203 242.348 203.254C244.402 205.304 247.186 206.458 250.09 206.462H400.005C402.91 206.459 405.694 205.306 407.748 203.255C409.802 201.205 410.957 198.424 410.959 195.524V98.2237C410.957 95.3237 409.802 92.5431 407.748 90.4924C405.694 88.4418 402.91 87.2886 400.005 87.2861Z" fill="white"/>
<path d="M353.072 128.824C339.524 152.741 324.573 175.838 308.299 197.995H284.789C300.188 179.264 315.598 160.533 331.02 141.802C335.444 136.409 340.245 130.759 346.881 128.567L353.072 128.824Z" fill="#1E293B"/>
<path d="M321.829 124.989C319.376 127.54 317.027 130.194 314.815 132.951C309.945 138.806 305.144 144.713 300.325 150.603C297.324 154.267 294.324 157.931 291.357 161.595C290.415 160.991 289.521 160.316 288.682 159.575C283.944 155.469 281.005 149.673 280.495 143.429C279.985 137.185 281.945 130.99 285.954 126.172C289.964 121.353 295.704 118.295 301.945 117.651C308.186 117.008 314.431 118.831 319.342 122.729C320.227 123.418 321.058 124.174 321.829 124.989Z" fill="#2563EB"/>
<path d="M410.959 122.207V125.762L409.369 125.18L386.992 117.012C379.704 114.357 372.434 111.323 364.907 109.409C358.359 107.538 351.405 107.627 344.906 109.664C339.114 111.804 333.814 115.089 329.323 119.323C327.335 121.158 325.41 123.037 323.546 124.986C322.936 125.63 322.326 126.274 321.726 126.918C319.924 128.876 318.183 130.878 316.531 132.951C311.664 138.808 306.858 144.718 302.043 150.601C299.04 154.27 296.036 157.931 293.068 161.592C283.156 173.702 273.303 185.836 263.509 197.994C262.19 197.979 260.877 197.814 259.595 197.5C269.587 185.107 279.625 172.747 289.711 160.418C289.94 160.136 290.17 159.854 290.4 159.572C291.584 158.099 292.794 156.617 293.995 155.144C299.022 148.996 304.052 142.854 309.084 136.717C312.741 132.254 316.372 127.773 320.312 123.539C320.551 123.266 320.798 123.001 321.054 122.728C321.434 122.322 321.814 121.925 322.203 121.511C330.763 112.681 341.444 104.875 354.235 104.663C361.762 104.548 369.033 106.93 376.029 109.444C383.565 112.17 391.074 114.939 398.6 117.691L410.959 122.207Z" fill="#1E293B"/>
<path d="M414.484 421.289H235.453C232.549 421.286 229.764 420.133 227.711 418.082C225.657 416.032 224.502 413.252 224.499 410.353V386.261C224.502 383.361 225.657 380.582 227.711 378.531C229.764 376.481 232.549 375.328 235.453 375.324H414.484C417.388 375.328 420.172 376.481 422.226 378.531C424.279 380.582 425.434 383.361 425.438 386.261V410.353C425.434 413.252 424.279 416.032 422.226 418.082C420.172 420.133 417.388 421.286 414.484 421.289Z" fill="white"/>
<path d="M414.484 297.8H235.453C232.549 297.797 229.764 296.644 227.711 294.593C225.657 292.543 224.502 289.763 224.499 286.863V262.772C224.502 259.872 225.657 257.092 227.711 255.042C229.764 252.992 232.549 251.838 235.453 251.835H414.484C417.388 251.838 420.172 252.992 422.226 255.042C424.279 257.092 425.434 259.872 425.438 262.772V286.863C425.434 289.763 424.279 292.543 422.226 294.593C420.172 296.644 417.388 297.797 414.484 297.8Z" fill="#F2F2F2"/>
<path d="M414.484 359.545H235.453C232.549 359.542 229.764 358.389 227.711 356.338C225.657 354.288 224.502 351.508 224.499 348.608V324.517C224.502 321.617 225.657 318.837 227.711 316.787C229.764 314.737 232.549 313.583 235.453 313.58H414.484C417.388 313.583 420.172 314.737 422.226 316.787C424.279 318.837 425.434 321.617 425.438 324.517V348.608C425.434 351.508 424.279 354.288 422.226 356.338C420.172 358.389 417.388 359.542 414.484 359.545Z" fill="#F2F2F2"/>
<path d="M346.719 394.184H293.969C293.343 394.184 292.743 393.936 292.301 393.494C291.858 393.052 291.609 392.453 291.609 391.828C291.609 391.203 291.858 390.604 292.301 390.162C292.743 389.72 293.343 389.472 293.969 389.472H346.719C347.345 389.472 347.945 389.72 348.388 390.162C348.83 390.604 349.079 391.203 349.079 391.828C349.079 392.453 348.83 393.052 348.388 393.494C347.945 393.936 347.345 394.184 346.719 394.184Z" fill="#D1D1D1"/>
<path d="M397.454 407.142H293.379C292.753 407.142 292.153 406.894 291.711 406.452C291.268 406.01 291.02 405.411 291.02 404.786C291.02 404.161 291.268 403.562 291.711 403.12C292.153 402.678 292.753 402.43 293.379 402.43H397.454C398.08 402.43 398.68 402.678 399.123 403.12C399.565 403.562 399.814 404.161 399.814 404.786C399.814 405.411 399.565 406.01 399.123 406.452C398.68 406.894 398.08 407.142 397.454 407.142Z" fill="#D1D1D1"/>
<path d="M265.945 414.104C274.683 414.104 281.766 407.032 281.766 398.307C281.766 389.582 274.683 382.51 265.945 382.51C257.207 382.51 250.124 389.582 250.124 398.307C250.124 407.032 257.207 414.104 265.945 414.104Z" fill="#D1D1D1"/>
<path d="M262.419 419.645C260.805 418.892 258.96 418.797 257.276 419.382C255.593 419.966 254.205 421.183 253.406 422.774C253.249 423.1 253.119 423.438 253.018 423.786L229.193 425.207L225.662 437.532L258.089 432.061C259.563 432.369 261.099 432.18 262.455 431.525C263.812 430.87 264.913 429.785 265.586 428.439C265.962 427.67 266.183 426.834 266.235 425.98C266.288 425.125 266.171 424.269 265.892 423.459C265.613 422.65 265.177 421.903 264.609 421.262C264.041 420.62 263.352 420.097 262.582 419.722C262.528 419.695 262.474 419.67 262.419 419.645Z" fill="#FFB6B6"/>
<path d="M209.831 358.853C208.261 358.212 206.571 357.915 204.876 357.984C203.181 358.053 201.521 358.486 200.008 359.253C198.496 360.02 197.166 361.103 196.111 362.428C195.055 363.754 194.297 365.291 193.89 366.935L187.339 393.347L188.571 439.552C188.571 439.552 222.761 446.103 228.501 441.892C234.241 437.682 233.702 434.547 234.241 437.682C234.78 440.816 237.243 442.131 237.277 440.884C237.312 439.637 237.59 439.85 239.02 439.475C240.451 439.099 246.764 436.776 246.764 436.776L247.046 423.602C247.046 423.602 236.61 419.652 234.078 420.831C231.546 422.009 234.617 423.965 231.546 422.009C228.475 420.053 228.14 413.88 227.615 419.444C227.09 425.007 225.552 426.043 223.25 423.569C220.948 421.095 210.281 422.676 210.281 422.676L217.069 371.313C217.41 368.73 216.885 366.106 215.576 363.852C214.266 361.598 212.246 359.84 209.831 358.853Z" fill="#F7F7F7"/>
<path d="M440.079 495.877L440.439 486.148L403.024 480.133L402.494 494.492L440.079 495.877Z" fill="#FFB6B6"/>
<path d="M433.287 498.806L432.933 483.228L439.602 483.473L450.37 469.072C450.902 468.361 451.648 467.838 452.498 467.58C453.349 467.321 454.26 467.341 455.098 467.636C455.936 467.932 456.658 468.487 457.158 469.221C457.658 469.954 457.91 470.829 457.877 471.716L457.194 490.221L450.478 493.168L457.03 494.656L456.772 501.633L433.287 498.806Z" fill="#2F2E41"/>
<path d="M229.509 518.188L348.013 504.429C348.013 504.429 399.187 507.38 411.193 499.581L423.855 497.985L424.541 479.415C424.541 479.415 416.799 479.472 412.347 477.401C407.896 475.33 410.989 472.796 406.745 475.288C402.501 477.78 402.949 478.079 399.668 476.934C396.387 475.789 245.91 469.647 245.91 469.647L229.509 518.188Z" fill="#2F2E41"/>
<path d="M385.666 510.13L392.556 503.241L369.226 473.425L359.056 483.591L385.666 510.13Z" fill="#FFB6B6"/>
<path d="M378.692 507.665L389.043 496.004L393.765 500.713L411.469 497.468C412.343 497.308 413.246 497.431 414.045 497.819C414.845 498.207 415.499 498.84 415.913 499.626C416.326 500.412 416.477 501.309 416.344 502.187C416.211 503.064 415.8 503.876 415.172 504.504L402.065 517.606L395.135 515.206L398.924 520.746L393.982 525.686L378.692 507.665Z" fill="#2F2E41"/>
<path d="M182.756 453.387L183.934 480.73C185.321 512.92 220.825 532.402 248.355 515.595C248.863 515.285 249.372 514.965 249.883 514.633C249.883 514.633 260.32 511.834 260.003 507.402C259.686 502.97 262.236 500.813 264.492 502.022C266.748 503.23 296.291 461.367 296.291 461.367C296.291 461.367 357.672 491.938 371.214 499.135L385.501 495.248C385.501 495.248 390.879 497.784 388.942 494.116C387.005 490.449 386.657 492.205 386.062 488.209C385.467 484.214 383.945 479.259 383.022 479.468C382.099 479.676 307.086 427.254 307.086 427.254C307.086 427.254 294.866 414.905 279.707 423.059C279.391 424.256 279.661 424.298 279.661 424.298L229.585 465.039L222.51 451.623L182.756 453.387Z" fill="#2F2E41"/>
<path d="M216.413 352.917L194.942 342.87L188.515 354.038C188.515 354.038 171.251 378.635 171.001 396.381C170.75 414.126 173.814 419.403 173.814 419.403C173.814 419.403 166.371 424.96 170.092 428.356C173.814 431.752 182.053 433.218 175.725 434.69C169.397 436.162 171.001 451.069 178.068 453.715C185.135 456.361 223.09 456.338 223.09 456.338C222.749 455.182 222.724 453.956 223.018 452.788C223.311 451.619 223.913 450.55 224.76 449.692C227.702 446.747 230.353 448.86 227.702 444.276C225.052 439.691 220.635 442.337 224.169 436.162C227.702 429.988 227.701 428.143 227.701 428.143C227.701 428.143 234.905 414.454 224.054 399.604C223.393 398.699 223.949 398.664 223.949 398.664L215.187 369.348L216.413 352.917Z" fill="white"/>
<path d="M181.812 310.672C181.994 315.2 179.136 321.616 177.728 325.484C176.224 329.62 182.745 335.11 186.92 336.312C187.137 334.88 187.853 333.569 188.942 332.611C188.641 333.976 188.615 335.388 188.865 336.764L224.155 344.785C230.504 337.444 236.888 326.891 235.495 314.163C235.829 311.746 235.44 309.285 234.377 307.088C233.314 304.891 231.626 303.056 229.522 301.814L211.681 291.291C204.093 289.566 194.536 288.524 189.055 293.213C186.606 295.388 184.682 298.089 183.428 301.113C182.173 304.137 181.621 307.405 181.812 310.672Z" fill="#2F2E41"/>
<path d="M213.357 340.907C224.578 340.907 233.675 331.824 233.675 320.619C233.675 309.415 224.578 300.332 213.357 300.332C202.135 300.332 193.038 309.415 193.038 320.619C193.038 331.824 202.135 340.907 213.357 340.907Z" fill="#FFB6B6"/>
<path d="M189.554 309.782L188.573 314.082L205.715 317.978C205.73 317.108 205.925 316.251 206.288 315.46C206.65 314.67 207.173 313.962 207.823 313.382C207.453 315.069 207.495 316.819 207.946 318.485C217.19 323.665 225.522 325.5 232.994 324.179C234.006 324.409 235.068 324.228 235.947 323.676C236.826 323.124 237.449 322.246 237.679 321.236C240.685 308.051 232.81 294.576 219.67 291.303C216.476 290.506 213.154 290.353 209.901 290.854C206.647 291.355 203.526 292.5 200.721 294.221C197.916 295.942 195.483 298.205 193.566 300.877C191.648 303.549 190.284 306.576 189.554 309.782Z" fill="#2F2E41"/>
<path d="M199.576 281.41C201.836 280.92 204.228 281.038 206.271 279.51L204.931 282.582C208.647 281.565 212.608 281.96 216.049 283.69C217.072 284.148 217.945 284.886 218.566 285.818C218.9 286.381 219.103 287.011 219.161 287.663C219.218 288.315 219.128 288.971 218.897 289.584C218.678 290.109 218.351 290.583 217.937 290.975C217.524 291.367 217.033 291.669 216.496 291.861C215.545 292.146 214.548 292.25 213.558 292.168C209.387 292.071 205.215 291.974 201.043 291.876C199.454 291.975 197.865 291.667 196.428 290.981C195.664 290.51 195.054 289.826 194.674 289.014C194.294 288.202 194.159 287.296 194.287 286.409C194.684 283.617 197.315 281.9 199.576 281.41Z" fill="#2F2E41"/>
<path d="M309.794 440.41C309.746 440.352 309.69 440.301 309.628 440.257C309.476 440.081 309.291 439.937 309.084 439.832L307.597 439.037L297.726 428.096C297.155 427.798 296.49 427.735 295.873 427.919L295.847 427.926L291.619 429.232L287.982 430.359L282.903 431.931L248.303 442.628L225.559 449.659C224.944 449.853 224.431 450.281 224.128 450.85C223.826 451.419 223.76 452.083 223.943 452.7C224.05 453.04 224.227 453.354 224.462 453.622L225.186 454.426L226.704 456.114L230.221 463.392L231.197 464.479C231.508 464.825 231.911 465.076 232.36 465.202C232.808 465.327 233.283 465.323 233.729 465.189L308.655 444.385C309.044 444.259 309.397 444.04 309.681 443.746C309.965 443.452 310.173 443.093 310.285 442.701C310.398 442.308 310.412 441.894 310.326 441.494C310.241 441.095 310.058 440.722 309.794 440.41Z" fill="#F1F1F1"/>
<path d="M305.346 332.177L303.895 332.412C303.497 332.477 303.142 332.698 302.906 333.024L302.267 333.917L296.501 348.314C296.266 348.643 296.172 349.052 296.239 349.45L296.914 353.552L294.361 426.768C294.425 427.147 294.629 427.488 294.932 427.724L306.127 442.677L306.389 442.885L306.953 443.326C307.242 443.549 307.601 443.662 307.966 443.647L308.917 443.602C309.133 443.591 309.345 443.535 309.537 443.437C309.73 443.339 309.9 443.201 310.035 443.033C310.172 442.866 310.271 442.672 310.325 442.463C310.38 442.255 310.39 442.037 310.353 441.824L307.105 333.429C307.039 333.031 306.818 332.675 306.489 332.44C306.161 332.205 305.752 332.11 305.354 332.176L305.346 332.177Z" fill="#F1F1F1"/>
<path d="M302.917 337.865L297.809 353.401L295.833 415.458L303.783 422.514L302.917 337.865Z" fill="#2563EB"/>
<path d="M263.416 432.525C261.802 431.772 259.956 431.677 258.273 432.262C256.59 432.846 255.201 434.063 254.403 435.654C254.246 435.98 254.116 436.318 254.015 436.666L230.19 438.087L226.659 450.412L259.085 444.941C260.56 445.249 262.095 445.06 263.452 444.405C264.808 443.75 265.909 442.665 266.583 441.319C267.342 439.765 267.452 437.974 266.889 436.339C266.325 434.704 265.135 433.36 263.578 432.602C263.525 432.575 263.47 432.55 263.416 432.525Z" fill="#FFB6B6"/>
<path d="M210.827 371.734C209.257 371.093 207.567 370.796 205.872 370.865C204.178 370.934 202.517 371.367 201.005 372.134C199.492 372.9 198.163 373.983 197.107 375.309C196.051 376.635 195.294 378.172 194.886 379.816L188.336 406.227L189.568 452.433C189.568 452.433 223.758 458.984 229.498 454.773C235.237 450.562 234.698 447.428 235.237 450.562C235.776 453.697 238.24 455.012 238.274 453.765C238.308 452.518 238.587 452.731 240.017 452.356C241.447 451.98 247.76 449.657 247.76 449.657L248.043 436.483C248.043 436.483 237.607 432.533 235.075 433.711C232.543 434.89 235.614 436.846 232.543 434.89C229.472 432.934 229.136 426.761 228.611 432.325C228.086 437.888 226.549 438.924 224.247 436.45C221.944 433.976 211.278 435.556 211.278 435.556L218.065 384.194C218.407 381.61 217.882 378.987 216.572 376.733C215.263 374.479 213.243 372.721 210.827 371.734Z" fill="#F7F7F7"/>
<path d="M4.65295e-06 524.95C-0.000407079 525.088 0.0265103 525.225 0.0791987 525.352C0.131887 525.48 0.209315 525.596 0.307021 525.693C0.404728 525.791 0.520782 525.868 0.648519 525.921C0.776257 525.973 0.91315 526 1.05132 526H632.949C633.228 526 633.495 525.889 633.692 525.692C633.889 525.495 634 525.228 634 524.95C634 524.672 633.889 524.405 633.692 524.208C633.495 524.011 633.228 523.9 632.949 523.9H1.05127C0.913102 523.9 0.776221 523.927 0.648492 523.979C0.520764 524.032 0.404708 524.109 0.307008 524.207C0.209308 524.304 0.131885 524.42 0.0791987 524.548C0.0265119 524.675 -0.000402356 524.812 4.65295e-06 524.95Z" fill="#CCCCCC"/>
<path d="M557.597 297.8H378.566C375.662 297.797 372.878 296.644 370.824 294.593C368.771 292.543 367.616 289.763 367.612 286.863V262.772C367.616 259.872 368.771 257.092 370.824 255.042C372.878 252.992 375.662 251.838 378.566 251.835H557.597C560.501 251.838 563.286 252.992 565.339 255.042C567.393 257.092 568.548 259.872 568.551 262.772V286.863C568.548 289.763 567.393 292.543 565.339 294.593C563.286 296.644 560.501 297.797 557.597 297.8Z" fill="white"/>
<path d="M489.833 270.695H437.082C436.457 270.695 435.856 270.446 435.414 270.005C434.971 269.563 434.723 268.963 434.723 268.339C434.723 267.714 434.971 267.114 435.414 266.673C435.856 266.231 436.457 265.982 437.082 265.982H489.833C490.458 265.982 491.059 266.231 491.501 266.673C491.944 267.114 492.192 267.714 492.192 268.339C492.192 268.963 491.944 269.563 491.501 270.005C491.059 270.446 490.458 270.695 489.833 270.695Z" fill="#D1D1D1"/>
<path d="M540.567 283.654H436.493C435.867 283.654 435.266 283.405 434.824 282.964C434.381 282.522 434.133 281.922 434.133 281.298C434.133 280.673 434.381 280.073 434.824 279.632C435.266 279.19 435.867 278.941 436.493 278.941H540.567C541.193 278.941 541.793 279.19 542.236 279.632C542.678 280.073 542.927 280.673 542.927 281.298C542.927 281.922 542.678 282.522 542.236 282.964C541.793 283.405 541.193 283.654 540.567 283.654Z" fill="#D1D1D1"/>
<path d="M409.058 290.615C417.796 290.615 424.879 283.542 424.879 274.818C424.879 266.093 417.796 259.021 409.058 259.021C400.32 259.021 393.236 266.093 393.236 274.818C393.236 283.542 400.32 290.615 409.058 290.615Z" fill="#D1D1D1"/>
<path d="M500.176 359.545H321.144C318.24 359.542 315.456 358.389 313.402 356.338C311.349 354.288 310.194 351.508 310.19 348.608V324.517C310.194 321.617 311.349 318.837 313.402 316.787C315.456 314.737 318.24 313.583 321.144 313.58H500.176C503.08 313.583 505.864 314.737 507.917 316.787C509.971 318.837 511.126 321.617 511.129 324.517V348.608C511.126 351.508 509.971 354.288 507.917 356.338C505.864 358.389 503.08 359.542 500.176 359.545Z" fill="white"/>
<path d="M432.411 332.439H379.661C379.035 332.439 378.434 332.191 377.992 331.749C377.549 331.307 377.301 330.708 377.301 330.083C377.301 329.458 377.549 328.859 377.992 328.417C378.434 327.975 379.035 327.727 379.661 327.727H432.411C433.036 327.727 433.637 327.975 434.079 328.417C434.522 328.859 434.77 329.458 434.77 330.083C434.77 330.708 434.522 331.307 434.079 331.749C433.637 332.191 433.036 332.439 432.411 332.439Z" fill="#D1D1D1"/>
<path d="M483.145 345.398H379.071C378.445 345.398 377.845 345.15 377.402 344.708C376.96 344.266 376.711 343.667 376.711 343.042C376.711 342.417 376.96 341.818 377.402 341.376C377.845 340.934 378.445 340.686 379.071 340.686H483.145C483.771 340.686 484.371 340.934 484.814 341.376C485.257 341.818 485.505 342.417 485.505 343.042C485.505 343.667 485.257 344.266 484.814 344.708C484.371 345.15 483.771 345.398 483.145 345.398Z" fill="#D1D1D1"/>
<path d="M351.636 352.359C360.374 352.359 367.457 345.287 367.457 336.562C367.457 327.837 360.374 320.765 351.636 320.765C342.898 320.765 335.814 327.837 335.814 336.562C335.814 345.287 342.898 352.359 351.636 352.359Z" fill="#D1D1D1"/>
</g>
<defs>
<clipPath id="clip0_331_1187">
<rect width="634" height="526" fill="white"/>
</clipPath>
</defs>
</svg>
