<svg width="712" height="424" viewBox="0 0 712 424" fill="none" xmlns="http://www.w3.org/2000/svg">
<g clip-path="url(#clip0_331_805)">
<path d="M41.9533 325.275C20.9966 317.664 2.80482 299.455 0.49707 277.309C20.8415 290.487 45.1988 296.056 69.2594 293.029C78.5344 291.829 88.7251 289.529 96.662 294.469C101.601 297.542 104.667 302.999 106.073 308.637C107.48 314.276 107.416 320.162 107.344 325.972L107.997 327.268C86.1053 331.511 62.91 332.887 41.9533 325.275Z" fill="#F0F0F0"/>
<path d="M0.95161 277.198C11.6311 292.23 26.7829 303.519 44.2546 309.464C47.9932 310.81 51.9209 311.56 55.8931 311.685C59.7666 311.682 63.5686 310.643 66.9042 308.677C70.0511 306.906 73.0647 304.731 76.588 303.755C78.3989 303.282 80.2895 303.196 82.1358 303.504C83.9822 303.812 85.7425 304.506 87.3014 305.54C91.2528 308.017 94.0772 311.764 96.7116 315.524C99.6367 319.699 102.609 324.082 107.175 326.616C107.728 326.923 107.218 327.763 106.666 327.456C98.7218 323.046 95.7803 313.693 89.0183 308.007C85.8631 305.354 81.8878 303.634 77.718 304.491C74.0716 305.241 70.962 307.481 67.7912 309.302C64.5654 311.268 60.9067 312.415 57.1345 312.643C53.1687 312.721 49.2186 312.123 45.4534 310.877C36.932 308.207 28.8841 304.216 21.6045 299.049C13.2635 293.199 5.98639 285.967 0.0878878 277.666C-0.276977 277.152 0.589129 276.687 0.95161 277.198Z" fill="white"/>
<path d="M38.5161 307.88C37.1193 310.672 34.7741 312.877 31.8995 314.101C29.0249 315.326 25.8079 315.49 22.8231 314.565C22.2198 314.376 22.486 313.431 23.0901 313.62C25.868 314.487 28.8646 314.333 31.5391 313.188C34.2136 312.042 36.3899 309.98 37.6752 307.372C37.9551 306.806 38.7944 307.317 38.5161 307.88Z" fill="white"/>
<path d="M65.4271 309.786C63.4593 303.717 59.2728 298.612 53.7025 295.488C53.1503 295.179 53.6597 294.339 54.2112 294.648C60.0017 297.91 64.3476 303.231 66.3815 309.551C66.5749 310.153 65.6195 310.385 65.4271 309.786Z" fill="white"/>
<path d="M14.3747 292.52C15.1406 291.552 15.6538 290.409 15.8682 289.195C16.0826 287.98 15.9914 286.731 15.603 285.561C15.402 284.961 16.3577 284.73 16.5574 285.326C16.9805 286.622 17.0794 288.001 16.8455 289.343C16.6117 290.686 16.0521 291.951 15.2157 293.027C15.1453 293.136 15.0364 293.213 14.9111 293.244C14.7857 293.274 14.6533 293.256 14.5408 293.193C14.4298 293.125 14.3501 293.017 14.319 292.89C14.2879 292.764 14.3079 292.631 14.3747 292.52Z" fill="white"/>
<path d="M53.3889 223.509C53.5251 223.88 53.6612 224.251 53.8054 224.624C55.662 229.601 57.9205 234.42 60.5587 239.032C60.757 239.392 60.9634 239.754 61.1716 240.107C67.6463 251.151 76.1182 260.9 86.1569 268.856C90.1544 272.018 94.3871 274.872 98.8183 277.394C104.938 280.875 111.851 284.164 116.33 289.309C116.803 289.841 117.243 290.401 117.647 290.987L109.53 326.372C109.471 326.443 109.42 326.517 109.361 326.588L109.101 328.016C108.864 327.902 108.62 327.778 108.382 327.664C108.244 327.599 108.108 327.525 107.97 327.459C107.878 327.413 107.787 327.367 107.701 327.33C107.671 327.315 107.64 327.299 107.618 327.286C107.533 327.249 107.457 327.206 107.38 327.172C106.014 326.486 104.651 325.789 103.29 325.081C103.282 325.079 103.282 325.079 103.276 325.069C92.8541 319.775 83.0981 313.266 74.2124 305.677C73.9503 305.447 73.68 305.216 73.4216 304.969C69.513 301.503 65.8947 297.722 62.6028 293.667C60.8075 291.44 59.1262 289.125 57.5653 286.729C53.5443 280.529 50.5249 273.737 48.6178 266.601C44.8181 252.375 45.6175 237.094 52.8285 224.468C53.0132 224.145 53.1961 223.83 53.3889 223.509Z" fill="#F0F0F0"/>
<path d="M53.8204 223.691C53.2832 242.113 58.5732 260.236 68.939 275.485C71.1122 278.808 73.7962 281.767 76.8924 284.255C79.9869 286.581 83.6488 288.038 87.4977 288.473C91.0782 288.951 94.7962 289.025 98.198 290.364C99.9291 291.075 101.49 292.143 102.779 293.499C104.067 294.854 105.055 296.466 105.675 298.23C107.337 302.583 107.332 307.272 107.169 311.858C106.987 316.95 106.717 322.236 108.834 327.005C109.091 327.582 108.178 327.946 107.922 327.369C104.238 319.073 107.529 309.836 105.559 301.231C104.639 297.216 102.502 293.453 98.6561 291.631C95.2926 290.038 91.4588 289.957 87.8293 289.505C84.0683 289.135 80.4553 287.852 77.3056 285.767C74.0926 283.444 71.2988 280.593 69.0439 277.334C63.8502 270.08 59.8312 262.055 57.1342 253.554C54.0022 243.868 52.5526 233.72 52.8481 223.546C52.8667 222.917 53.8388 223.066 53.8204 223.691Z" fill="white"/>
<path d="M65.3119 270.771C62.5134 272.16 59.3114 272.511 56.2779 271.76C53.2443 271.01 50.5767 269.207 48.7514 266.674C48.3838 266.16 49.1662 265.566 49.5342 266.08C51.2296 268.442 53.7147 270.121 56.541 270.814C59.3673 271.507 62.3486 271.169 64.9468 269.86C65.5118 269.576 65.8737 270.489 65.3119 270.771Z" fill="white"/>
<path d="M85.6503 288.469C87.7385 282.441 87.4743 275.848 84.9103 270.005C84.6558 269.427 85.5686 269.063 85.8228 269.641C88.4796 275.726 88.7406 282.587 86.5537 288.856C86.3449 289.453 85.4426 289.063 85.6503 288.469Z" fill="white"/>
<path d="M55.2994 243.993C56.4944 243.681 57.593 243.077 58.4966 242.236C59.4001 241.396 60.0804 240.344 60.4762 239.175C60.6774 238.576 61.5795 238.966 61.3797 239.562C60.9363 240.851 60.1836 242.011 59.1874 242.943C58.1911 243.874 56.9816 244.547 55.6645 244.904C55.5431 244.948 55.4096 244.945 55.2909 244.894C55.1723 244.843 55.0774 244.749 55.0256 244.631C54.9779 244.51 54.9799 244.375 55.0311 244.256C55.0824 244.137 55.1788 244.042 55.2994 243.993Z" fill="white"/>
<path d="M676.254 324.544C696.115 314.418 711.927 294.115 711.491 271.854C692.923 287.429 669.436 295.945 645.185 295.894C635.833 295.841 625.436 294.809 618.168 300.686C613.645 304.342 611.274 310.134 610.572 315.902C609.871 321.67 610.658 327.504 611.445 333.261L610.957 334.627C633.205 336.151 656.393 334.67 676.254 324.544Z" fill="#F0F0F0"/>
<path d="M711.026 271.799C702.278 288.028 688.631 301.092 672.024 309.135C668.479 310.93 664.674 312.156 660.747 312.768C656.902 313.24 653.001 312.676 649.449 311.134C646.108 309.763 642.849 307.974 639.233 307.438C637.377 307.19 635.49 307.338 633.696 307.87C631.901 308.402 630.24 309.306 628.82 310.524C625.204 313.468 622.862 317.533 620.71 321.588C618.322 326.09 615.912 330.804 611.692 333.88C611.181 334.253 611.79 335.023 612.3 334.651C619.642 329.299 621.409 319.656 627.42 313.183C630.225 310.163 633.958 307.968 638.202 308.307C641.913 308.604 645.275 310.446 648.646 311.863C652.089 313.418 655.861 314.108 659.633 313.871C663.578 313.461 667.425 312.384 671.008 310.685C679.136 306.989 686.631 302.04 693.22 296.02C700.777 289.19 707.109 281.12 711.941 272.158C712.24 271.604 711.323 271.248 711.026 271.799Z" fill="white"/>
<path d="M677.524 306.86C679.254 309.459 681.852 311.359 684.856 312.221C687.86 313.084 691.072 312.852 693.921 311.567C694.496 311.305 694.116 310.4 693.539 310.663C690.889 311.864 687.897 312.079 685.101 311.27C682.306 310.462 679.892 308.682 678.296 306.252C677.948 305.725 677.178 306.335 677.524 306.86Z" fill="white"/>
<path d="M651.051 312.053C652.257 305.788 655.783 300.208 660.927 296.424C661.437 296.05 660.828 295.28 660.319 295.654C654.973 299.601 651.316 305.416 650.075 311.937C649.957 312.559 650.934 312.671 651.051 312.053Z" fill="white"/>
<path d="M699.591 288.651C698.712 287.785 698.062 286.714 697.699 285.535C697.337 284.356 697.274 283.106 697.515 281.896C697.641 281.276 696.664 281.165 696.539 281.781C696.279 283.118 696.35 284.499 696.748 285.803C697.145 287.106 697.856 288.293 698.819 289.259C698.902 289.357 699.019 289.421 699.148 289.436C699.276 289.451 699.405 289.417 699.509 289.34C699.611 289.26 699.676 289.142 699.692 289.013C699.707 288.884 699.671 288.754 699.591 288.651Z" fill="white"/>
<path d="M652.377 224.953C652.287 225.338 652.198 225.723 652.101 226.111C650.871 231.278 649.223 236.338 647.172 241.239C647.02 241.62 646.86 242.005 646.697 242.381C641.631 254.136 634.423 264.85 625.44 273.978C621.862 277.607 618.013 280.959 613.926 284.005C608.281 288.211 601.825 292.323 598.014 297.979C597.609 298.565 597.242 299.175 596.913 299.806L609.325 333.926C609.392 333.99 609.452 334.056 609.519 334.12L609.952 335.505C610.174 335.363 610.401 335.21 610.623 335.068C610.752 334.986 610.878 334.896 611.007 334.814C611.092 334.757 611.177 334.7 611.257 334.653C611.286 334.634 611.314 334.615 611.335 334.599C611.415 334.552 611.484 334.5 611.557 334.456C612.828 333.608 614.095 332.749 615.358 331.879C615.366 331.876 615.366 331.876 615.371 331.866C625.062 325.333 633.943 317.676 641.827 309.054C642.059 308.794 642.298 308.531 642.524 308.255C645.977 304.334 649.102 300.139 651.87 295.71C653.377 293.28 654.761 290.776 656.015 288.206C659.242 281.56 661.403 274.449 662.417 267.133C664.436 252.549 661.762 237.481 653.051 225.836C652.828 225.539 652.608 225.248 652.377 224.953Z" fill="#F0F0F0"/>
<path d="M651.971 225.187C654.772 243.404 651.753 262.038 643.343 278.444C641.596 282.008 639.296 285.274 636.53 288.123C633.745 290.812 630.29 292.706 626.524 293.611C623.03 294.524 619.349 295.055 616.138 296.8C614.507 297.718 613.09 298.97 611.978 300.474C610.866 301.977 610.085 303.698 609.686 305.524C608.573 310.048 609.154 314.702 609.881 319.233C610.689 324.264 611.607 329.476 610.093 334.469C609.909 335.074 610.86 335.322 611.043 334.719C613.678 326.033 609.275 317.271 610.171 308.489C610.589 304.391 612.246 300.395 615.839 298.114C618.981 296.12 622.776 295.57 626.322 294.675C630.009 293.847 633.437 292.13 636.306 289.674C639.209 286.975 641.63 283.802 643.467 280.292C647.728 272.455 650.729 263.997 652.359 255.23C654.275 245.234 654.464 234.984 652.918 224.924C652.822 224.301 651.876 224.569 651.971 225.187Z" fill="white"/>
<path d="M646.363 273.32C649.311 274.355 652.532 274.31 655.45 273.193C658.368 272.076 660.794 269.96 662.293 267.222C662.595 266.667 661.745 266.173 661.443 266.729C660.052 269.281 657.792 271.252 655.073 272.287C652.353 273.322 649.353 273.352 646.613 272.371C646.017 272.159 645.771 273.109 646.363 273.32Z" fill="white"/>
<path d="M628.357 293.381C625.543 287.654 624.993 281.079 626.818 274.966C627 274.36 626.049 274.111 625.868 274.716C623.98 281.081 624.566 287.922 627.508 293.875C627.789 294.442 628.636 293.945 628.357 293.381Z" fill="white"/>
<path d="M653.003 245.517C651.778 245.354 650.614 244.89 649.613 244.166C648.613 243.443 647.809 242.482 647.272 241.371C646.999 240.801 646.151 241.299 646.423 241.866C647.022 243.09 647.911 244.15 649.015 244.952C650.118 245.754 651.401 246.274 652.753 246.466C652.878 246.495 653.01 246.475 653.122 246.41C653.233 246.345 653.316 246.24 653.353 246.117C653.385 245.991 653.367 245.857 653.301 245.745C653.236 245.633 653.128 245.551 653.003 245.517Z" fill="white"/>
<path d="M620.203 14.5742H480.277V23.5618C480.275 24.022 480.433 24.4686 480.725 24.8249C480.443 31.8499 480.277 40.818 480.277 50.5634V290.848C480.277 313.37 481.182 331.695 482.291 331.695H618.188C619.298 331.695 620.203 313.37 620.203 290.848V50.5634C620.203 40.818 620.037 31.8499 619.755 24.8249C620.047 24.4686 620.205 24.022 620.203 23.5618L620.203 14.5742Z" fill="white"/>
<path d="M618.188 332.667H482.291C481.232 332.667 480.532 332.667 479.896 319.766C479.514 312.023 479.303 301.753 479.303 290.848V50.5641C479.303 41.1453 479.463 31.9907 479.752 24.7865C479.933 20.4611 480.141 16.9964 480.369 14.4871C480.816 9.57489 481.241 8.74512 482.291 8.74512H618.188C619.239 8.74512 619.664 9.57489 620.111 14.4871C620.339 17.0059 620.547 20.4706 620.727 24.7846L620.727 24.7865C621.017 31.9831 621.176 41.1377 621.176 50.5641V290.848C621.176 301.754 620.966 312.024 620.583 319.766C619.947 332.667 619.248 332.667 618.188 332.667ZM482.844 330.724H617.636C618.34 328.069 619.23 313.652 619.23 290.848V50.5641C619.23 41.1633 619.071 32.0372 618.783 24.8662C618.604 20.5831 618.398 17.1501 618.173 14.6627C618.086 13.3266 617.903 11.9984 617.626 10.6884H482.853C482.576 11.9984 482.394 13.3266 482.307 14.6627C482.082 17.1406 481.877 20.5736 481.697 24.8662C481.409 32.0434 481.25 41.1704 481.25 50.5641V290.848C481.25 313.652 482.14 328.069 482.844 330.724Z" fill="#E4E4E4"/>
<path d="M618.188 9.71582H482.291C481.757 9.71685 481.246 9.92907 480.868 10.306C480.49 10.683 480.278 11.194 480.277 11.7271V23.5616C480.275 24.0218 480.433 24.4684 480.725 24.8247C480.914 25.0577 481.153 25.2457 481.424 25.3751C481.695 25.5045 481.991 25.572 482.291 25.5728H618.188C618.489 25.572 618.785 25.5044 619.056 25.375C619.327 25.2456 619.566 25.0576 619.755 24.8247C620.047 24.4683 620.205 24.0217 620.203 23.5616V11.7271C620.202 11.194 619.989 10.683 619.612 10.3061C619.234 9.9291 618.722 9.71686 618.188 9.71582Z" fill="#CACACA"/>
<path d="M491.973 19.9234C493.553 19.9234 494.834 18.6446 494.834 17.0672C494.834 15.4897 493.553 14.2109 491.973 14.2109C490.394 14.2109 489.113 15.4897 489.113 17.0672C489.113 18.6446 490.394 19.9234 491.973 19.9234Z" fill="white"/>
<path d="M502.831 19.9234C504.411 19.9234 505.692 18.6446 505.692 17.0672C505.692 15.4897 504.411 14.2109 502.831 14.2109C501.251 14.2109 499.971 15.4897 499.971 17.0672C499.971 18.6446 501.251 19.9234 502.831 19.9234Z" fill="white"/>
<path d="M513.69 19.9234C515.27 19.9234 516.551 18.6446 516.551 17.0672C516.551 15.4897 515.27 14.2109 513.69 14.2109C512.11 14.2109 510.829 15.4897 510.829 17.0672C510.829 18.6446 512.11 19.9234 513.69 19.9234Z" fill="white"/>
<path d="M607.552 13.2529H595.047C594.802 13.2546 594.568 13.3523 594.395 13.5251C594.222 13.6979 594.124 13.9317 594.123 14.176C594.119 14.3151 594.153 14.4526 594.22 14.5743C594.294 14.7308 594.411 14.8631 594.558 14.956C594.704 15.0488 594.874 15.0984 595.047 15.099H607.552C607.727 15.0999 607.899 15.051 608.047 14.9581C608.195 14.8652 608.314 14.7321 608.389 14.5743C608.449 14.4501 608.479 14.3137 608.476 14.176C608.477 14.0547 608.453 13.9347 608.406 13.8226C608.36 13.7106 608.292 13.6088 608.206 13.5231C608.12 13.4374 608.018 13.3694 607.906 13.323C607.793 13.2767 607.673 13.2528 607.552 13.2529Z" fill="white"/>
<path d="M607.552 16.7217H595.047C594.802 16.7217 594.567 16.8189 594.393 16.992C594.22 17.1651 594.123 17.3999 594.123 17.6447C594.123 17.8895 594.22 18.1243 594.393 18.2974C594.567 18.4705 594.802 18.5678 595.047 18.5678H607.552C607.797 18.5678 608.032 18.4705 608.206 18.2974C608.379 18.1243 608.476 17.8895 608.476 17.6447C608.476 17.3999 608.379 17.1651 608.206 16.992C608.032 16.8189 607.797 16.7217 607.552 16.7217Z" fill="white"/>
<path d="M607.552 20.1904H595.047C594.802 20.1904 594.567 20.2877 594.393 20.4608C594.22 20.6339 594.123 20.8687 594.123 21.1135C594.123 21.3583 594.22 21.5931 594.393 21.7662C594.567 21.9393 594.802 22.0365 595.047 22.0365H607.552C607.797 22.0365 608.032 21.9393 608.206 21.7662C608.379 21.5931 608.476 21.3583 608.476 21.1135C608.476 20.8687 608.379 20.6339 608.206 20.4608C608.032 20.2877 607.797 20.1904 607.552 20.1904Z" fill="white"/>
<path d="M563.761 51.5156H538.032C536.741 51.5161 535.504 52.0282 534.592 52.9391C533.679 53.8501 533.167 55.0855 533.166 56.3738V78.6241C533.168 79.9119 533.681 81.1464 534.594 82.057C535.506 82.9676 536.742 83.4801 538.032 83.4823H563.761C565.05 83.4785 566.286 82.9655 567.197 82.0552C568.109 81.1449 568.623 79.9114 568.627 78.6241V56.3738C568.625 55.086 568.111 53.8515 567.199 52.9409C566.287 52.0303 565.051 51.5177 563.761 51.5156Z" fill="#1E293B"/>
<path d="M595.728 98.0176H506.055C505.469 98.0176 504.907 98.2499 504.493 98.6636C504.079 99.0772 503.846 99.6382 503.846 100.223C503.846 100.808 504.079 101.369 504.493 101.783C504.907 102.196 505.469 102.429 506.055 102.429H595.728C596.314 102.429 596.876 102.196 597.29 101.783C597.705 101.369 597.937 100.808 597.937 100.223C597.937 99.6382 597.705 99.0772 597.29 98.6636C596.876 98.2499 596.314 98.0176 595.728 98.0176Z" fill="#E4E4E4"/>
<path d="M540.114 108.356H506.055C505.469 108.356 504.907 108.589 504.493 109.002C504.079 109.416 503.846 109.977 503.846 110.562C503.846 111.147 504.079 111.708 504.493 112.122C504.907 112.535 505.469 112.768 506.055 112.768H540.114C540.7 112.768 541.262 112.535 541.676 112.122C542.091 111.708 542.323 111.147 542.323 110.562C542.323 109.977 542.091 109.416 541.676 109.002C541.262 108.589 540.7 108.356 540.114 108.356Z" fill="#E4E4E4"/>
<path d="M563.761 147.707H538.032C536.741 147.708 535.504 148.22 534.592 149.131C533.679 150.041 533.167 151.277 533.166 152.565V174.816C533.168 176.103 533.681 177.338 534.594 178.248C535.506 179.159 536.742 179.672 538.032 179.674H563.761C565.05 179.67 566.286 179.157 567.197 178.247C568.109 177.336 568.623 176.103 568.627 174.816V152.565C568.625 151.277 568.111 150.043 567.199 149.132C566.287 148.222 565.051 147.709 563.761 147.707Z" fill="#1E293B"/>
<path d="M595.728 194.209H506.055C505.469 194.209 504.907 194.441 504.493 194.855C504.079 195.269 503.846 195.83 503.846 196.415C503.846 197 504.079 197.561 504.493 197.974C504.907 198.388 505.469 198.62 506.055 198.62H595.728C596.314 198.62 596.876 198.388 597.29 197.974C597.705 197.561 597.937 197 597.937 196.415C597.937 195.83 597.705 195.269 597.29 194.855C596.876 194.441 596.314 194.209 595.728 194.209Z" fill="#E4E4E4"/>
<path d="M540.114 204.548H506.055C505.469 204.548 504.907 204.78 504.493 205.194C504.079 205.608 503.846 206.169 503.846 206.753C503.846 207.338 504.079 207.899 504.493 208.313C504.907 208.727 505.469 208.959 506.055 208.959H540.114C540.7 208.959 541.262 208.727 541.676 208.313C542.091 207.899 542.323 207.338 542.323 206.753C542.323 206.169 542.091 205.608 541.676 205.194C541.262 204.78 540.7 204.548 540.114 204.548Z" fill="#E4E4E4"/>
<path d="M563.761 243.898H538.032C536.741 243.899 535.504 244.411 534.592 245.322C533.679 246.233 533.167 247.468 533.166 248.757V271.007C533.168 272.295 533.681 273.529 534.594 274.44C535.506 275.35 536.742 275.863 538.032 275.865H563.761C565.05 275.861 566.286 275.348 567.197 274.438C568.109 273.528 568.623 272.294 568.627 271.007V248.757C568.625 247.469 568.111 246.234 567.199 245.324C566.287 244.413 565.051 243.901 563.761 243.898Z" fill="#1E293B"/>
<path d="M595.728 290.4H506.055C505.469 290.4 504.907 290.633 504.493 291.046C504.079 291.46 503.846 292.021 503.846 292.606C503.846 293.191 504.079 293.752 504.493 294.166C504.907 294.579 505.469 294.812 506.055 294.812H595.728C596.314 294.812 596.876 294.579 597.29 294.166C597.705 293.752 597.937 293.191 597.937 292.606C597.937 292.021 597.705 291.46 597.29 291.046C596.876 290.633 596.314 290.4 595.728 290.4Z" fill="#E4E4E4"/>
<path d="M540.114 300.739H506.055C505.469 300.739 504.907 300.972 504.493 301.385C504.079 301.799 503.846 302.36 503.846 302.945C503.846 303.53 504.079 304.091 504.493 304.504C504.907 304.918 505.469 305.15 506.055 305.15H540.114C540.7 305.15 541.262 304.918 541.676 304.504C542.091 304.091 542.323 303.53 542.323 302.945C542.323 302.36 542.091 301.799 541.676 301.385C541.262 300.972 540.7 300.739 540.114 300.739Z" fill="#E4E4E4"/>
<path d="M442.12 2.98296C442.119 2.44988 441.907 1.93891 441.529 1.56194C441.152 1.18498 440.64 0.972727 440.106 0.97168H80.3894C79.8555 0.972709 79.3437 1.18493 78.9661 1.56188C78.5885 1.93884 78.3759 2.44983 78.3748 2.98296V14.8174C78.3731 15.3101 78.5573 15.7854 78.8908 16.1486C78.5696 24.1839 78.3748 34.7747 78.3748 46.376V313.487C78.3748 338.536 79.2799 358.901 80.3894 358.901H440.106C441.215 358.901 442.12 338.536 442.12 313.487V46.376C442.12 34.7747 441.926 24.1839 441.605 16.1486C441.938 15.7853 442.122 15.3101 442.12 14.8174V2.98296Z" fill="white"/>
<path d="M440.106 359.872H80.3897C79.29 359.872 78.6262 359.872 77.994 345.63C77.6121 337.026 77.4019 325.611 77.4019 313.487V46.3759C77.4019 35.195 77.5854 24.4464 77.9187 16.1097C78.5584 1.29727e-05 79.2869 0 80.3897 0H440.106C441.209 0 441.937 0.00285955 442.577 16.1097C442.91 24.4388 443.094 35.1875 443.094 46.3759V313.487C443.094 325.612 442.883 337.027 442.501 345.63C441.87 359.872 441.206 359.872 440.106 359.872ZM80.9577 357.929H439.538C440.334 354.883 441.147 337.777 441.147 313.487V46.3759C441.147 35.2126 440.964 24.491 440.632 16.1875C440.227 5.98207 439.754 2.87599 439.528 1.94326H80.9683C80.742 2.87603 80.2687 5.98161 79.8633 16.1871C79.531 24.499 79.3481 35.2202 79.3481 46.3759V313.487C79.3481 337.777 80.1613 354.882 80.9577 357.929Z" fill="#E4E4E4"/>
<path d="M440.106 0.97168H80.3894C79.8555 0.972709 79.3437 1.18493 78.9661 1.56188C78.5885 1.93884 78.3759 2.44983 78.3748 2.98296V14.8174C78.3731 15.3101 78.5573 15.7854 78.8908 16.1486C79.0778 16.3618 79.3082 16.5328 79.5666 16.6501C79.825 16.7673 80.1055 16.8282 80.3894 16.8287H440.106C440.39 16.8282 440.67 16.7673 440.929 16.6501C441.187 16.5328 441.418 16.3618 441.605 16.1486C441.938 15.7853 442.122 15.3101 442.12 14.8174V2.98296C442.119 2.44989 441.907 1.93894 441.529 1.56197C441.152 1.18501 440.64 0.972748 440.106 0.97168Z" fill="#CACACA"/>
<path d="M90.0718 11.1783C91.6517 11.1783 92.9324 9.89949 92.9324 8.32204C92.9324 6.7446 91.6517 5.46582 90.0718 5.46582C88.4919 5.46582 87.2112 6.7446 87.2112 8.32204C87.2112 9.89949 88.4919 11.1783 90.0718 11.1783Z" fill="white"/>
<path d="M100.93 11.1783C102.51 11.1783 103.79 9.89949 103.79 8.32204C103.79 6.7446 102.51 5.46582 100.93 5.46582C99.3498 5.46582 98.0691 6.7446 98.0691 8.32204C98.0691 9.89949 99.3498 11.1783 100.93 11.1783Z" fill="white"/>
<path d="M111.788 11.1783C113.368 11.1783 114.649 9.89949 114.649 8.32204C114.649 6.7446 113.368 5.46582 111.788 5.46582C110.208 5.46582 108.928 6.7446 108.928 8.32204C108.928 9.89949 110.208 11.1783 111.788 11.1783Z" fill="white"/>
<path d="M429.47 4.50879H416.965C416.72 4.50879 416.484 4.60603 416.311 4.77914C416.138 4.95224 416.04 5.18703 416.04 5.43184C416.04 5.67664 416.138 5.91143 416.311 6.08453C416.484 6.25764 416.72 6.3549 416.965 6.3549H429.47C429.715 6.3549 429.95 6.25764 430.123 6.08453C430.297 5.91143 430.394 5.67664 430.394 5.43184C430.394 5.18703 430.297 4.95224 430.123 4.77914C429.95 4.60603 429.715 4.50879 429.47 4.50879Z" fill="white"/>
<path d="M429.47 7.97656H416.965C416.72 7.97656 416.484 8.07381 416.311 8.24691C416.138 8.42002 416.04 8.6548 416.04 8.89961C416.04 9.14442 416.138 9.3792 416.311 9.5523C416.484 9.72541 416.72 9.82265 416.965 9.82265H429.47C429.715 9.82265 429.95 9.72541 430.123 9.5523C430.297 9.3792 430.394 9.14442 430.394 8.89961C430.394 8.6548 430.297 8.42002 430.123 8.24691C429.95 8.07381 429.715 7.97656 429.47 7.97656Z" fill="white"/>
<path d="M429.47 11.4453H416.965C416.72 11.4453 416.484 11.5426 416.311 11.7157C416.138 11.8888 416.04 12.1236 416.04 12.3684C416.04 12.6132 416.138 12.8479 416.311 13.0211C416.484 13.1942 416.72 13.2914 416.965 13.2914H429.47C429.715 13.2914 429.95 13.1942 430.123 13.0211C430.297 12.8479 430.394 12.6132 430.394 12.3684C430.394 12.1236 430.297 11.8888 430.123 11.7157C429.95 11.5426 429.715 11.4453 429.47 11.4453Z" fill="white"/>
<path d="M196.659 60.2607H154.561C152.451 60.2633 150.427 61.1015 148.935 62.5915C147.443 64.0815 146.604 66.1016 146.601 68.2087V104.616C146.604 106.723 147.443 108.743 148.935 110.233C150.427 111.723 152.451 112.561 154.561 112.564H196.659C198.769 112.561 200.792 111.723 202.284 110.233C203.777 108.743 204.616 106.723 204.619 104.616V68.2087C204.616 66.1016 203.777 64.0815 202.284 62.5915C200.792 61.1015 198.769 60.2633 196.659 60.2607Z" fill="#1E293B"/>
<path d="M370.294 74.3398H223.566C222.607 74.3398 221.687 74.7201 221.009 75.3971C220.331 76.074 219.95 76.9921 219.95 77.9494C219.95 78.9068 220.331 79.8249 221.009 80.5018C221.687 81.1787 222.607 81.5591 223.566 81.5591H370.294C371.252 81.5591 372.172 81.1787 372.85 80.5018C373.528 79.8249 373.909 78.9068 373.909 77.9494C373.909 76.9921 373.528 76.074 372.85 75.3971C372.172 74.7201 371.252 74.3398 370.294 74.3398Z" fill="#E4E4E4"/>
<path d="M279.297 91.2559H223.566C222.607 91.2559 221.687 91.6362 221.009 92.3131C220.331 92.99 219.95 93.9081 219.95 94.8655C219.95 95.8228 220.331 96.7409 221.009 97.4178C221.687 98.0948 222.607 98.4751 223.566 98.4751H279.297C280.255 98.4751 281.175 98.0948 281.853 97.4178C282.531 96.7409 282.912 95.8228 282.912 94.8655C282.912 93.9081 282.531 92.99 281.853 92.3131C281.175 91.6362 280.255 91.2559 279.297 91.2559Z" fill="#E4E4E4"/>
<path d="M196.659 157.424H154.561C152.451 157.426 150.427 158.265 148.935 159.755C147.443 161.245 146.604 163.265 146.601 165.372V201.779C146.604 203.886 147.443 205.906 148.935 207.396C150.427 208.886 152.451 209.724 154.561 209.727H196.659C198.769 209.724 200.792 208.886 202.284 207.396C203.777 205.906 204.616 203.886 204.619 201.779V165.372C204.616 163.265 203.777 161.245 202.284 159.755C200.792 158.265 198.769 157.426 196.659 157.424Z" fill="#1E293B"/>
<path d="M370.294 171.503H223.566C222.607 171.503 221.687 171.883 221.009 172.56C220.331 173.237 219.95 174.155 219.95 175.113C219.95 176.07 220.331 176.988 221.009 177.665C221.687 178.342 222.607 178.722 223.566 178.722H370.294C371.252 178.722 372.172 178.342 372.85 177.665C373.528 176.988 373.909 176.07 373.909 175.113C373.909 174.155 373.528 173.237 372.85 172.56C372.172 171.883 371.252 171.503 370.294 171.503Z" fill="#E4E4E4"/>
<path d="M279.297 188.418H223.566C222.607 188.418 221.687 188.798 221.009 189.475C220.331 190.152 219.95 191.07 219.95 192.028C219.95 192.985 220.331 193.903 221.009 194.58C221.687 195.257 222.607 195.637 223.566 195.637H279.297C280.255 195.637 281.175 195.257 281.853 194.58C282.531 193.903 282.912 192.985 282.912 192.028C282.912 191.07 282.531 190.152 281.853 189.475C281.175 188.798 280.255 188.418 279.297 188.418Z" fill="#E4E4E4"/>
<path d="M196.659 254.587H154.561C152.451 254.589 150.427 255.428 148.935 256.918C147.443 258.408 146.604 260.428 146.601 262.535V298.942C146.604 301.049 147.443 303.069 148.935 304.559C150.427 306.049 152.451 306.887 154.561 306.89H196.659C198.769 306.887 200.792 306.049 202.284 304.559C203.777 303.069 204.616 301.049 204.619 298.942V262.535C204.616 260.428 203.777 258.408 202.284 256.918C200.792 255.428 198.769 254.589 196.659 254.587Z" fill="#1E293B"/>
<path d="M370.294 268.665H223.566C222.607 268.665 221.687 269.045 221.009 269.722C220.331 270.399 219.95 271.317 219.95 272.275C219.95 273.232 220.331 274.15 221.009 274.827C221.687 275.504 222.607 275.884 223.566 275.884H370.294C371.252 275.884 372.172 275.504 372.85 274.827C373.528 274.15 373.909 273.232 373.909 272.275C373.909 271.317 373.528 270.399 372.85 269.722C372.172 269.045 371.252 268.665 370.294 268.665Z" fill="#E4E4E4"/>
<path d="M279.297 285.581H223.566C222.607 285.581 221.687 285.961 221.009 286.638C220.331 287.315 219.95 288.233 219.95 289.191C219.95 290.148 220.331 291.066 221.009 291.743C221.687 292.42 222.607 292.8 223.566 292.8H279.297C280.255 292.8 281.175 292.42 281.853 291.743C282.531 291.066 282.912 290.148 282.912 289.191C282.912 288.233 282.531 287.315 281.853 286.638C281.175 285.961 280.255 285.581 279.297 285.581Z" fill="#E4E4E4"/>
<path d="M504.335 423.029H263.341C262.23 423.029 261.326 405.977 261.326 385.015V161.41C261.326 140.448 262.23 123.396 263.341 123.396H504.335C505.446 123.396 506.35 140.448 506.35 161.41V385.015C506.35 405.977 505.446 423.029 504.335 423.029Z" fill="white"/>
<path d="M504.335 424H263.341C262.322 424 261.585 424 260.946 411.934C260.564 404.73 260.353 395.17 260.353 385.015V161.41C260.353 151.256 260.564 141.696 260.946 134.491C261.585 122.425 262.322 122.425 263.341 122.425H504.335C505.355 122.425 506.092 122.425 506.731 134.491C507.113 141.696 507.323 151.256 507.323 161.41V385.015C507.323 395.17 507.113 404.729 506.731 411.934C506.092 424 505.355 424 504.335 424ZM263.88 422.057H503.797C504.495 419.54 505.377 406.128 505.377 385.015V161.41C505.377 140.297 504.495 126.885 503.797 124.368H263.88C263.181 126.885 262.3 140.297 262.3 161.41V385.015C262.299 406.128 263.181 419.54 263.88 422.057Z" fill="#E4E4E4"/>
<path d="M504.335 139.254H263.341C262.807 139.253 262.295 139.041 261.917 138.664C261.539 138.287 261.327 137.775 261.326 137.242V125.408C261.327 124.875 261.539 124.364 261.917 123.986C262.295 123.609 262.807 123.397 263.341 123.396H504.335C504.869 123.397 505.381 123.609 505.759 123.986C506.137 124.364 506.349 124.875 506.35 125.408V137.242C506.349 137.775 506.137 138.287 505.759 138.664C505.381 139.041 504.869 139.253 504.335 139.254Z" fill="#CACACA"/>
<path d="M273.02 133.604C274.6 133.604 275.88 132.325 275.88 130.748C275.88 129.17 274.6 127.892 273.02 127.892C271.44 127.892 270.159 129.17 270.159 130.748C270.159 132.325 271.44 133.604 273.02 133.604Z" fill="white"/>
<path d="M283.878 133.604C285.458 133.604 286.738 132.325 286.738 130.748C286.738 129.17 285.458 127.892 283.878 127.892C282.298 127.892 281.017 129.17 281.017 130.748C281.017 132.325 282.298 133.604 283.878 133.604Z" fill="white"/>
<path d="M294.736 133.604C296.316 133.604 297.597 132.325 297.597 130.748C297.597 129.17 296.316 127.892 294.736 127.892C293.156 127.892 291.876 129.17 291.876 130.748C291.876 132.325 293.156 133.604 294.736 133.604Z" fill="white"/>
<path d="M493.697 128.782H481.193C480.948 128.782 480.712 128.685 480.538 128.511C480.365 128.338 480.267 128.103 480.267 127.857C480.267 127.612 480.365 127.377 480.538 127.203C480.712 127.03 480.948 126.933 481.193 126.933H493.697C493.942 126.933 494.177 127.031 494.35 127.205C494.523 127.378 494.62 127.613 494.62 127.857C494.62 128.102 494.523 128.337 494.35 128.51C494.177 128.684 493.942 128.781 493.697 128.782Z" fill="white"/>
<path d="M493.697 132.25H481.193C480.948 132.25 480.712 132.152 480.538 131.979C480.365 131.806 480.267 131.57 480.267 131.325C480.267 131.08 480.365 130.845 480.538 130.671C480.712 130.498 480.948 130.4 481.193 130.4H493.697C493.942 130.4 494.178 130.498 494.352 130.671C494.525 130.845 494.623 131.08 494.623 131.325C494.623 131.57 494.525 131.806 494.352 131.979C494.178 132.152 493.942 132.25 493.697 132.25Z" fill="white"/>
<path d="M493.697 135.718H481.193C480.948 135.718 480.712 135.62 480.538 135.447C480.365 135.273 480.267 135.038 480.267 134.793C480.267 134.548 480.365 134.312 480.538 134.139C480.712 133.966 480.948 133.868 481.193 133.868H493.697C493.942 133.869 494.177 133.967 494.35 134.14C494.523 134.313 494.62 134.548 494.62 134.793C494.62 135.038 494.523 135.272 494.35 135.446C494.177 135.619 493.942 135.717 493.697 135.718Z" fill="white"/>
<path d="M337.396 212.706H306.652C305.111 212.704 303.633 212.092 302.543 211.004C301.453 209.915 300.84 208.44 300.838 206.901V180.314C300.84 178.775 301.453 177.299 302.543 176.211C303.633 175.123 305.111 174.511 306.652 174.509H337.396C338.938 174.511 340.415 175.123 341.505 176.211C342.595 177.299 343.208 178.775 343.21 180.314V206.901C343.208 208.44 342.595 209.915 341.505 211.004C340.415 212.092 338.938 212.704 337.396 212.706Z" fill="#1E293B"/>
<path d="M464.199 190.066H357.048C356.347 190.066 355.676 189.788 355.181 189.294C354.686 188.8 354.408 188.129 354.408 187.43C354.408 186.731 354.686 186.061 355.181 185.567C355.676 185.073 356.347 184.795 357.048 184.795H464.199C464.899 184.795 465.57 185.073 466.065 185.567C466.561 186.061 466.839 186.731 466.839 187.43C466.839 188.129 466.561 188.8 466.065 189.294C465.57 189.788 464.899 190.066 464.199 190.066Z" fill="#E4E4E4"/>
<path d="M397.745 202.419H357.048C356.347 202.419 355.676 202.142 355.181 201.648C354.686 201.153 354.408 200.483 354.408 199.784C354.408 199.085 354.686 198.415 355.181 197.92C355.676 197.426 356.347 197.148 357.048 197.148H397.745C398.092 197.148 398.436 197.215 398.757 197.348C399.078 197.48 399.369 197.674 399.615 197.919C399.861 198.163 400.056 198.454 400.189 198.774C400.322 199.094 400.39 199.437 400.39 199.784C400.39 200.13 400.322 200.474 400.189 200.794C400.056 201.114 399.861 201.405 399.615 201.649C399.369 201.894 399.078 202.088 398.757 202.22C398.436 202.352 398.092 202.42 397.745 202.419Z" fill="#E4E4E4"/>
<path d="M337.396 291.408H306.652C305.111 291.406 303.633 290.794 302.543 289.706C301.453 288.617 300.84 287.142 300.838 285.603V259.016C300.84 257.477 301.453 256.001 302.543 254.913C303.633 253.825 305.111 253.213 306.652 253.211H337.396C338.938 253.213 340.415 253.825 341.505 254.913C342.595 256.001 343.208 257.477 343.21 259.016V285.603C343.208 287.142 342.595 288.617 341.505 289.706C340.415 290.794 338.938 291.406 337.396 291.408Z" fill="#1E293B"/>
<path d="M464.199 268.768H357.048C356.347 268.768 355.676 268.49 355.181 267.996C354.686 267.502 354.408 266.832 354.408 266.133C354.408 265.434 354.686 264.763 355.181 264.269C355.676 263.775 356.347 263.497 357.048 263.497H464.199C464.899 263.497 465.57 263.775 466.065 264.269C466.561 264.763 466.839 265.434 466.839 266.133C466.839 266.832 466.561 267.502 466.065 267.996C465.57 268.49 464.899 268.768 464.199 268.768Z" fill="#E4E4E4"/>
<path d="M397.745 281.122H357.048C356.347 281.122 355.676 280.844 355.181 280.35C354.686 279.855 354.408 279.185 354.408 278.486C354.408 277.787 354.686 277.117 355.181 276.622C355.676 276.128 356.347 275.851 357.048 275.851H397.745C398.092 275.85 398.436 275.918 398.757 276.05C399.078 276.182 399.369 276.376 399.615 276.621C399.861 276.866 400.056 277.156 400.189 277.476C400.322 277.796 400.39 278.14 400.39 278.486C400.39 278.833 400.322 279.176 400.189 279.496C400.056 279.816 399.861 280.107 399.615 280.351C399.369 280.596 399.078 280.79 398.757 280.922C398.436 281.055 398.092 281.122 397.745 281.122Z" fill="#E4E4E4"/>
<path d="M337.396 370.11H306.652C305.111 370.108 303.633 369.496 302.543 368.408C301.453 367.32 300.84 365.844 300.838 364.305V337.718C300.84 336.179 301.453 334.704 302.543 333.615C303.633 332.527 305.111 331.915 306.652 331.913H337.396C338.938 331.915 340.415 332.527 341.505 333.615C342.595 334.704 343.208 336.179 343.21 337.718V364.305C343.208 365.844 342.595 367.32 341.505 368.408C340.415 369.496 338.938 370.108 337.396 370.11Z" fill="#1E293B"/>
<path d="M464.199 347.47H357.048C356.347 347.47 355.676 347.193 355.181 346.698C354.686 346.204 354.408 345.534 354.408 344.835C354.408 344.136 354.686 343.465 355.181 342.971C355.676 342.477 356.347 342.199 357.048 342.199H464.199C464.899 342.199 465.57 342.477 466.065 342.971C466.561 343.465 466.839 344.136 466.839 344.835C466.839 345.534 466.561 346.204 466.065 346.698C465.57 347.193 464.899 347.47 464.199 347.47Z" fill="#E4E4E4"/>
<path d="M397.745 359.824H357.048C356.347 359.824 355.676 359.546 355.181 359.052C354.686 358.558 354.408 357.887 354.408 357.188C354.408 356.489 354.686 355.819 355.181 355.325C355.676 354.83 356.347 354.553 357.048 354.553H397.745C398.092 354.552 398.436 354.62 398.757 354.752C399.078 354.884 399.369 355.078 399.615 355.323C399.861 355.568 400.056 355.858 400.189 356.178C400.322 356.499 400.39 356.842 400.39 357.188C400.39 357.535 400.322 357.878 400.189 358.198C400.056 358.518 399.861 358.809 399.615 359.054C399.369 359.298 399.078 359.492 398.757 359.625C398.436 359.757 398.092 359.824 397.745 359.824Z" fill="#E4E4E4"/>
</g>
<defs>
<clipPath id="clip0_331_805">
<rect width="712" height="424" fill="white"/>
</clipPath>
</defs>
</svg>
