<svg width="697" height="484" viewBox="0 0 697 484" fill="none" xmlns="http://www.w3.org/2000/svg">
<g clip-path="url(#clip0_361_787)">
<path d="M193.603 322.853C192.202 333.188 185.185 342.517 176.16 348.608C174.01 350.063 171.741 351.334 169.377 352.407C166.778 353.582 164.098 354.567 161.357 355.353C154.707 357.197 147.875 358.299 140.984 358.639H140.972C135.216 359.013 129.425 359.059 123.693 359.094L95.4626 359.27C92.0886 359.293 88.7262 359.317 85.352 359.34C75.2765 359.398 64.874 359.398 55.569 355.529C55.4299 355.477 55.2935 355.419 55.1604 355.353C46.0188 351.402 38.2316 342.716 38.4534 332.778C38.5426 329.278 39.5317 325.859 41.3254 322.853C42.5127 320.833 43.9396 318.965 45.5751 317.288C50.6421 312.027 57.6704 307.9 64.2552 304.58C71.6688 300.851 79.748 296.362 85.1301 290.317C85.784 289.581 86.391 288.833 86.9515 288.061C88.5744 285.879 89.796 283.424 90.5591 280.813C90.8943 279.632 91.121 278.423 91.2362 277.2C91.9834 269.484 88.2357 262.388 83.4606 256.04C82.9936 255.409 82.5033 254.777 82.0012 254.146C80.9271 252.802 79.818 251.48 78.7206 250.218C78.2536 249.68 77.7866 249.131 77.3079 248.581C76.0003 247.061 74.681 245.506 73.4201 243.917C72.8363 243.168 72.2643 242.42 71.7038 241.66C69.4089 238.667 67.5315 235.375 66.1232 231.875C65.123 229.315 64.5663 226.603 64.477 223.855C64.2201 213.929 75.2998 203.934 83.6825 208.622C86.8581 208.318 90.0454 208.002 93.221 207.675C93.9682 207.605 94.7037 207.523 95.4509 207.453C95.6377 207.429 95.8245 207.418 96.0114 207.394C101.055 206.892 106.075 206.389 111.107 205.875H111.119C112.251 205.781 113.36 205.664 114.47 205.547H114.481C122.549 204.74 130.608 203.934 138.66 203.127C139.407 203.057 140.155 202.975 140.902 202.905C142.56 202.73 144.206 202.566 145.864 202.402C150.51 201.946 155.974 201.771 158.998 205.348C162.291 209.253 160.586 215.426 157.329 219.366C154.071 223.294 149.553 226.076 146.494 230.145C144.022 233.496 142.586 237.5 142.361 241.66C142.315 242.397 142.291 243.157 142.315 243.916C142.332 245.481 142.476 247.041 142.747 248.581C143.075 250.475 143.567 252.337 144.218 254.146C145.361 257.376 146.944 260.433 148.923 263.23C155.788 272.863 165.957 279.503 174.981 287.137C175.343 287.441 175.694 287.745 176.044 288.061C176.896 288.786 177.725 289.546 178.554 290.317C186.143 297.414 192.634 306.053 193.708 316.248C193.743 316.587 193.778 316.937 193.79 317.288C193.921 319.144 193.858 321.01 193.603 322.853Z" fill="#F2F2F2"/>
<path d="M117.976 147.237C119.925 144.852 121.863 142.444 123.813 140.047C121.46 134.194 118.164 128.768 114.054 123.985C113.547 123.414 112.885 123.001 112.149 122.797C111.413 122.593 110.634 122.606 109.905 122.835C109.176 123.064 108.529 123.499 108.041 124.088C107.554 124.677 107.247 125.394 107.157 126.154C105.453 138.735 96.2028 150.782 94.5905 163.897C94.1317 167.643 94.3252 171.44 95.1626 175.12V175.125C85.3516 153.739 81.5164 130.09 84.0651 106.695C86.8652 81.9996 96.5736 58.5984 112.072 39.1857C118.386 35.7351 123.49 30.428 126.697 23.9808C127.132 23.0921 127.53 22.1774 127.88 21.2442C128.067 20.7357 128.129 20.1896 128.06 19.6521C127.992 19.1147 127.796 18.6015 127.488 18.1559C127.18 17.7102 126.77 17.3452 126.292 17.0915C125.814 16.8379 125.282 16.703 124.741 16.6983C122.479 16.7166 120.219 16.5835 117.976 16.2999C119.174 14.8343 122.1 11.2317 124.303 8.51751C124.733 8.00052 125.048 7.39734 125.226 6.74851C125.404 6.09968 125.441 5.42023 125.335 4.75583C125.229 4.09143 124.982 3.45745 124.611 2.89653C124.239 2.33561 123.753 1.86073 123.183 1.5038L123.136 1.47596C117.754 -1.68057 110.328 0.505614 106.441 5.38069C102.541 10.2558 101.806 17.0949 103.16 23.1858C104.492 28.3686 106.695 33.2867 109.675 37.7292L109.679 37.7362C109.383 38.1075 109.074 38.4689 108.783 38.8437C100.742 49.1947 94.2601 60.6695 89.5423 72.9025C89.3551 73.3863 89.189 73.8778 89.0075 74.3636L89.0098 74.3332L89.757 64.583C92.2523 60.1299 93.7139 55.1712 94.0333 50.075C94.3526 44.9788 93.5215 39.8761 91.6017 35.1455C88.4356 27.4978 82.4964 21.059 77.2734 14.4469C71.0119 6.52003 58.1898 10.0193 57.0864 20.0656C57.0757 20.1625 57.0653 20.2596 57.0552 20.3567C61.4346 22.8241 65.2708 26.1525 68.3333 30.1419C64.5506 30.7264 60.7562 31.3227 56.9735 31.9072C57.2494 34.7032 57.7373 37.4741 58.4328 40.196C60.5133 48.0422 64.2419 55.3535 69.3696 61.6414C74.4973 67.9294 80.906 73.0491 88.1676 76.6588C84.2416 87.7732 81.7864 99.3547 80.8648 111.108C80.3344 118.038 80.3649 124.999 80.956 131.924C80.9406 131.842 80.9352 131.759 80.9191 131.677C79.4246 123.974 75.3214 117.025 69.3024 112.001C59.9048 104.271 46.4292 101.674 36.6309 95.0942C35.7511 94.5137 34.7247 94.1958 33.6714 94.1774C32.618 94.159 31.5811 94.4409 30.6817 94.9904C29.7824 95.5398 29.0576 96.334 28.592 97.2803C28.1263 98.2266 27.9391 99.2861 28.052 100.335C28.1362 101.061 28.2343 101.785 28.3463 102.508C34.4587 104.998 39.7983 109.074 43.8158 114.316C40.0331 114.9 36.2387 115.496 32.4559 116.081C32.3742 116.093 32.3042 116.104 32.2225 116.116C34.679 121.989 38.1268 127.395 42.4148 132.097C47.712 137.789 54.1143 142.337 61.2292 145.463C68.3441 148.589 76.0217 150.227 83.7912 150.277C83.7963 150.277 83.8014 150.276 83.8066 150.276C86.6149 162.504 91.1043 174.283 97.1465 185.275C100.292 190.996 103.852 196.478 107.798 201.678L108.426 203.458C108.566 203.33 108.717 203.201 108.857 203.072L108.876 203.055C112.366 207.547 116.144 211.807 120.184 215.809C121.461 217.069 123.428 215.1 122.151 213.839C118.134 209.863 114.384 205.626 110.923 201.155C118.009 194.16 123.145 185.43 125.821 175.833C122.806 176.023 119.779 175.842 116.808 175.295C119.225 172.326 121.642 169.333 124.058 166.363C124.112 166.308 124.163 166.249 124.21 166.188C125.436 164.668 126.674 163.16 127.9 161.64C127.911 161.056 127.911 160.483 127.9 159.898C127.822 155.822 127.29 151.767 126.312 147.81C123.52 147.935 120.724 147.743 117.976 147.237ZM81.5145 138.831C81.5262 138.375 81.5262 137.92 81.5145 137.452C81.5129 137.323 81.4953 137.193 81.4922 137.064C81.5923 137.871 81.6894 138.679 81.8044 139.485L81.7947 139.463L81.5145 138.831Z" fill="#F2F2F2"/>
<path d="M290.593 281.155L277.072 340.726L268.433 350.202H262.199L287.889 241.892L289.159 260.292V260.305L290.593 281.155Z" fill="#1E293B"/>
<path d="M355.663 342.034L276.342 341.531L269.302 341.484L264.282 341.449L258.433 341.414H258.386C257.538 341.416 256.724 341.752 256.121 342.349L246.244 352.24C246.025 352.455 245.847 352.709 245.719 352.988C245.657 353.067 245.606 353.153 245.567 353.245C245.353 353.743 245.265 354.285 245.31 354.824C245.355 355.364 245.531 355.884 245.824 356.339C246.117 356.794 246.518 357.17 246.99 357.434C247.462 357.698 247.992 357.841 248.532 357.851H351.284C351.901 357.849 352.505 357.672 353.025 357.341C353.546 357.01 353.962 356.539 354.227 355.981L355.032 354.227L356.69 350.661L358.57 346.64C358.77 346.212 358.874 345.745 358.873 345.272C358.869 344.419 358.53 343.601 357.929 342.995C357.329 342.39 356.515 342.044 355.663 342.034Z" fill="#1E293B"/>
<path opacity="0.17" d="M355.033 354.225L354.221 355.985C353.957 356.542 353.542 357.012 353.023 357.343C352.504 357.673 351.902 357.85 351.287 357.854H248.531C247.991 357.844 247.461 357.701 246.989 357.437C246.517 357.174 246.117 356.798 245.824 356.343C245.531 355.888 245.355 355.368 245.311 354.829C245.267 354.289 245.356 353.747 245.57 353.25C245.606 353.158 245.657 353.071 245.719 352.993L355.033 354.225Z" fill="#1E293B"/>
<path opacity="0.17" d="M289.159 260.292V260.305L267.161 350.202H262.199L287.889 241.892L289.159 260.292Z" fill="#1E293B"/>
<path d="M316.154 276.764L285.017 39.5458C284.903 38.6567 284.441 37.8494 283.733 37.3012L262.297 10.4357L260.371 8.95098C259.657 8.40998 258.76 8.17072 257.872 8.2846L254.65 8.71715C253.761 8.83188 252.955 9.29542 252.407 10.0058C251.86 10.7161 251.617 11.6151 251.731 12.505L284.001 258.293V258.304L285.974 273.339L288.321 291.191V291.214L291.964 318.992C292.022 319.468 292.182 319.925 292.434 320.333C292.686 320.741 293.023 321.089 293.423 321.353C293.815 321.624 294.261 321.808 294.73 321.892C295.199 321.977 295.681 321.961 296.143 321.844L298.186 321.33C298.969 321.128 299.655 320.656 300.124 319.997L301.035 318.699L301.455 318.091L315.559 279.161C316.054 278.467 316.267 277.61 316.154 276.764Z" fill="#1E293B"/>
<path opacity="0.17" d="M262.292 10.437L301.459 318.097L301.034 318.699L300.126 319.993C299.658 320.653 298.971 321.126 298.187 321.327L296.141 321.842C295.678 321.957 295.196 321.973 294.726 321.888C294.257 321.804 293.81 321.621 293.416 321.352C293.021 321.083 292.688 320.734 292.438 320.327C292.187 319.92 292.025 319.465 291.963 318.992L251.736 12.509C251.62 11.619 251.861 10.7191 252.407 10.0072C252.953 9.29517 253.758 8.82934 254.647 8.71206L257.878 8.28689C258.316 8.22759 258.762 8.25624 259.189 8.37117C259.616 8.48611 260.016 8.68503 260.366 8.95634L262.292 10.437Z" fill="#1E293B"/>
<path d="M263.447 19.2354L284.232 48.9429L308.936 237.166L295.543 263.773L263.447 19.2354Z" fill="#E4E6F2"/>
<path d="M336.35 280.781L328.702 289.204C328.348 289.503 327.915 289.694 327.455 289.753C326.996 289.813 326.529 289.739 326.11 289.541C324.841 289.091 323.713 288.317 322.836 287.294C317.371 281.082 311.234 275.496 304.54 270.637C303.44 269.86 302.563 268.809 301.995 267.587C301.765 267.194 301.649 266.744 301.659 266.289C301.669 265.833 301.805 265.389 302.053 265.007C302.129 260.398 304.722 257.543 309.76 256.518C310.643 255.598 312.639 255.948 314.427 257.344C321.785 263.093 328.699 269.388 335.112 276.176C336.687 277.844 337.219 279.824 336.35 280.781Z" fill="#2563EB"/>
<path d="M316.693 262.649L310.255 269.739C310.033 269.984 309.497 269.858 309.058 269.459C308.619 269.059 308.444 268.537 308.666 268.292L315.103 261.202C315.326 260.957 315.861 261.083 316.3 261.483C316.739 261.882 316.915 262.404 316.693 262.649Z" fill="white"/>
<path d="M323.05 268.436L316.613 275.526C316.391 275.771 315.855 275.645 315.416 275.246C314.977 274.846 314.801 274.324 315.024 274.079L321.461 266.989C321.683 266.745 322.219 266.87 322.658 267.27C323.097 267.669 323.272 268.191 323.05 268.436Z" fill="white"/>
<path d="M329.407 274.225L322.97 281.315C322.747 281.56 322.212 281.434 321.773 281.035C321.334 280.635 321.158 280.113 321.38 279.868L327.818 272.778C328.04 272.534 328.576 272.659 329.015 273.059C329.454 273.458 329.629 273.98 329.407 274.225Z" fill="white"/>
<path d="M697 358.908C697 359.062 696.968 359.214 696.905 359.356C696.841 359.498 696.748 359.627 696.631 359.736C696.513 359.845 696.373 359.931 696.22 359.989C696.066 360.048 695.901 360.078 695.735 360.077H1.26501C0.929512 360.077 0.607747 359.954 0.370511 359.735C0.133276 359.516 0 359.218 0 358.908C0 358.598 0.133276 358.301 0.370511 358.082C0.607747 357.862 0.929512 357.739 1.26501 357.739H695.735C695.901 357.739 696.066 357.769 696.22 357.827C696.373 357.886 696.513 357.972 696.631 358.081C696.748 358.189 696.841 358.318 696.905 358.46C696.968 358.602 697 358.755 697 358.908Z" fill="#CCCCCC"/>
<path d="M176.079 290.318H178.612V288.061H140.902V243.917H142.315C142.291 243.157 142.315 242.397 142.361 241.66H140.902V202.905C140.155 202.975 139.408 203.057 138.66 203.127V241.66H95.451V207.453C94.7039 207.523 93.9684 207.605 93.2211 207.675V241.66H71.704C72.2644 242.42 72.8365 243.168 73.4202 243.917H93.2211V288.061H86.9516C86.3912 288.833 85.7841 289.581 85.1303 290.318H93.2211V325.53H65.9365C66.2634 326.29 66.6136 327.038 66.9873 327.775H93.2211V357.376H95.451V327.775H138.66V357.376H140.902V327.775H178.612V325.53H140.902C140.905 316.19 144.613 307.234 151.209 300.631C157.806 294.027 166.751 290.318 176.079 290.318ZM138.66 325.53H95.451V290.318H138.66V325.53ZM95.451 288.061V287.173C95.4534 275.699 100.007 264.697 108.11 256.585C116.213 248.473 127.202 243.916 138.66 243.917V288.061H95.451Z" fill="#E6E6E6"/>
<path d="M207.957 292.659C195.095 274.709 170.819 265.433 153.735 271.941C136.651 278.448 133.229 298.275 146.091 316.225C158.953 334.176 196.814 362.411 213.898 355.903C230.982 349.395 220.819 310.609 207.957 292.659ZM208.036 347.869C205.933 350.956 200.774 351.1 196.512 348.189C192.251 345.278 190.501 340.416 192.604 337.329C194.707 334.242 199.866 334.098 204.128 337.009C208.389 339.92 210.139 344.782 208.036 347.869Z" fill="#1E293B"/>
<path d="M193.437 310.217C191.835 311.513 190.234 312.81 188.632 314.106C186.666 315.922 184.338 317.3 181.802 318.149C178.32 318.955 174.68 318.738 171.318 317.524C166.417 315.939 162.122 312.882 159.015 308.769L162.477 309.542C160.64 307.413 159.147 305.009 158.05 302.418C157.238 300.014 157.691 297.574 159.883 296.915C162.392 296.161 166.431 297.856 168.538 296.638C172.18 294.531 166.192 286.686 169.511 284.266C171.445 282.855 175.315 284.251 178.541 285.634C182.554 287.165 186.356 289.198 189.859 291.686C195.589 296.117 198.761 303.101 196.421 307.144C195.621 308.341 194.61 309.383 193.437 310.217Z" fill="#2563EB"/>
<path d="M192.257 323.677C189.456 324.061 186.215 321.905 183.512 319.916L182.824 319.014C182.261 317.287 182.024 315.471 182.125 313.658C182.189 312.817 182.536 312.024 183.11 311.407C183.683 310.79 184.448 310.387 185.281 310.263C186.924 310.046 189.117 310.756 190.202 309.804C192.3 307.963 187.434 302.89 189.659 301.168C190.908 300.201 193.561 301.44 194.705 303.102C195.64 304.651 196.071 306.452 195.94 308.257C195.977 310.907 196.014 313.558 196.051 316.208C196.169 317.773 196.011 319.347 195.584 320.857C195.349 321.592 194.912 322.246 194.324 322.745C193.736 323.243 193.02 323.566 192.257 323.677Z" fill="#1E293B"/>
<path d="M192.959 332.509C189.076 331.361 183.155 327.354 178.112 323.816L176.61 322.508C175.038 320.722 173.705 318.739 172.646 316.607C172.064 315.011 172.814 314.079 175.392 314.85C177.674 315.532 181.268 317.472 182.331 317.089C184.386 316.35 174.486 308.443 176.791 307.896C178.085 307.588 182.644 310.327 185.229 312.669C187.132 314.359 188.705 316.391 189.866 318.658C191.377 321.408 192.887 324.158 194.398 326.908C195.311 328.282 195.947 329.82 196.27 331.438C196.301 332.608 195.315 333.206 192.959 332.509Z" fill="#FF6584"/>
<path d="M137.229 343.043L209.311 352.642C209.704 352.694 210.062 352.895 210.311 353.204C210.56 353.513 210.681 353.906 210.65 354.301C210.619 354.697 210.437 355.066 210.142 355.331C209.847 355.596 209.462 355.739 209.066 355.728L138.761 353.868L137.229 343.043Z" fill="#1E293B"/>
<path d="M116.563 351.341C118.128 349.038 119.959 346.928 122.019 345.056C123.07 344.107 124.177 343.228 125.295 342.382C125.68 342.076 126.081 341.778 126.47 341.483C127.396 340.777 128.323 340.071 129.261 339.362C130.047 338.758 130.844 338.151 131.633 337.558C132.789 336.676 134.09 335.753 135.534 335.956C136.194 336.109 136.812 336.407 137.343 336.828C137.874 337.249 138.305 337.783 138.605 338.391C139.246 339.652 139.711 340.996 139.986 342.384C140.769 345.565 141.54 348.749 142.323 351.93L143.484 353.176C141.827 354.815 139.897 356.151 137.78 357.124C136.889 357.486 135.934 357.664 134.973 357.647C134.012 357.629 133.064 357.418 132.186 357.024C131.803 356.839 131.441 356.613 131.105 356.351C129.641 355.192 128.74 353.371 127.452 351.979C127.18 351.692 126.892 351.422 126.587 351.171C125.698 350.418 124.654 349.871 123.529 349.569C122.405 349.267 121.227 349.218 120.081 349.424C118.753 349.722 117.535 350.386 116.563 351.341Z" fill="#CCCCCC"/>
<path d="M116.563 351.34C118.128 349.037 119.959 346.927 122.019 345.055C123.07 344.106 124.177 343.227 125.295 342.381C125.68 342.075 126.081 341.777 126.47 341.482C127.396 340.776 128.323 340.07 129.261 339.361C129.565 339.871 129.842 340.396 130.091 340.935C132.424 345.955 132.594 351.564 132.186 357.023C131.803 356.838 131.441 356.612 131.105 356.35C129.641 355.191 128.74 353.371 127.452 351.978C127.18 351.692 126.892 351.421 126.587 351.17C125.698 350.417 124.654 349.87 123.529 349.569C122.405 349.267 121.227 349.217 120.081 349.423C118.753 349.721 117.535 350.385 116.563 351.34Z" fill="#2563EB"/>
<path d="M594.849 134.641C592.161 128.851 596.427 122.387 597.949 116.154C600.79 104.524 592.785 91.9322 581.935 87.9023C571.085 83.8723 558.616 87.2406 549.295 94.2925C540.159 101.205 533.735 104.462 527.441 114.23C525.331 117.505 523.096 127.675 522.697 131.598C522.297 135.521 524.324 140.016 528.019 140.876C526.527 144.048 529.112 147.704 532.446 147.059C539.519 145.692 552.51 149.452 552.51 149.452C564.622 150.146 576.734 150.841 588.845 151.535C591.949 151.713 595.169 151.875 597.958 150.158C598.729 149.705 599.393 149.091 599.905 148.358C600.417 147.624 600.765 146.788 600.923 145.907C601.632 141.313 596.702 138.633 594.849 134.641Z" fill="#1E293B"/>
<path d="M587.417 342.734C565.898 363.041 543.045 361.816 518.994 340.912C505.724 340.558 495.176 330.949 495.48 319.49C495.784 308.032 506.828 298.997 520.098 299.351L588.521 301.173C601.791 301.527 612.339 311.136 612.035 322.595C611.731 334.053 600.687 343.087 587.417 342.734Z" fill="#1E293B"/>
<path d="M603.994 185.298L601.344 202.963L597.141 230.951L596.429 241.32L591.198 317.322C591.198 317.322 550.779 314.002 540.038 317.322C529.297 320.654 503.192 306.941 503.192 306.941C512.567 297.705 510.033 263.767 510.033 263.767L509.928 179.698L533.64 171.713L541.451 156.316H569.471L576.476 172.684L589.19 178.506L594.981 181.171L603.994 185.298Z" fill="white"/>
<path d="M492.358 462.921L478.789 465.14L463.781 413.79L483.807 410.515L492.358 462.921Z" fill="#FFB6B6"/>
<path d="M486.966 355.846C512.264 362.075 530.944 355.06 546.33 355.97C555.076 341.192 582.993 322.422 567.761 314.521C559.278 310.121 473.043 299.978 461.723 311.684C432.613 341.787 468.755 436.853 468.755 436.853L488.858 436.593L495.28 427.413L490.107 417.409L495 409.23L489.4 400.804L486.966 355.846Z" fill="#1E293B"/>
<path d="M617.398 462.921L630.966 465.14L645.974 413.79L625.949 410.515L617.398 462.921Z" fill="#FFB6B6"/>
<path d="M622.79 330.127C608.789 350.686 586.457 354.049 563.426 355.97C554.68 341.192 526.763 322.422 541.995 314.521C550.478 310.121 636.713 274.258 648.033 285.965C677.143 316.067 641.001 436.853 641.001 436.853L620.898 436.593L614.476 427.414L619.649 417.409L614.755 409.23L620.356 400.804L622.79 330.127Z" fill="#1E293B"/>
<path d="M618.586 443.844L638.706 447.97L636.434 456.466L651.78 474.535C652.538 475.427 652.992 476.539 653.074 477.707C653.157 478.876 652.864 480.04 652.239 481.03C651.614 482.02 650.689 482.785 649.599 483.211C648.509 483.638 647.312 483.704 646.182 483.401L622.605 477.08L620.789 467.586L616.955 475.565L608.065 473.181L618.586 443.844Z" fill="#1E293B"/>
<path d="M501.69 473.181L492.801 475.565L488.967 467.586L487.15 477.08L463.573 483.401C462.443 483.704 461.246 483.638 460.156 483.211C459.067 482.785 458.142 482.02 457.517 481.03C456.891 480.04 456.599 478.876 456.681 477.707C456.764 476.539 457.217 475.427 457.975 474.535L473.321 456.466L471.049 447.97L491.169 443.844L501.69 473.181Z" fill="#1E293B"/>
<path d="M556.619 148.421C569.703 148.421 580.31 137.8 580.31 124.698C580.31 111.596 569.703 100.975 556.619 100.975C543.535 100.975 532.928 111.596 532.928 124.698C532.928 137.8 543.535 148.421 556.619 148.421Z" fill="#FFB6B6"/>
<path d="M543.084 117.256C536.825 117.266 530.716 115.336 525.596 111.731L525.425 111.611C525.425 105.491 527.853 99.6221 532.174 95.2947C536.496 90.9673 542.357 88.5361 548.469 88.5361H557.875C560.882 88.5395 563.858 89.1367 566.633 90.2933C569.409 91.4499 571.929 93.1433 574.05 95.2766C576.171 97.4099 577.851 99.9411 578.994 102.725C580.137 105.51 580.72 108.492 580.711 111.503C580.691 112.877 580.137 114.189 579.165 115.16C578.194 116.131 576.883 116.684 575.511 116.701L543.624 117.251C543.444 117.254 543.263 117.256 543.084 117.256Z" fill="#1E293B"/>
<path d="M598.007 381.845H526.672C524.76 381.842 522.928 381.081 521.576 379.727C520.224 378.374 519.464 376.538 519.461 374.624V309.268C519.464 307.353 520.224 305.518 521.576 304.164C522.928 302.81 524.76 302.049 526.672 302.047H598.007C599.919 302.049 601.752 302.81 603.104 304.164C604.456 305.518 605.216 307.353 605.218 309.268V374.624C605.216 376.538 604.456 378.374 603.104 379.727C601.752 381.081 599.919 381.842 598.007 381.845Z" fill="#E6E6E6"/>
<path d="M592.993 375.826H531.687C529.989 375.824 528.362 375.148 527.162 373.946C525.961 372.744 525.286 371.115 525.284 369.415V314.476C525.286 312.776 525.961 311.146 527.162 309.944C528.362 308.742 529.989 308.066 531.687 308.064H592.993C594.691 308.066 596.318 308.742 597.518 309.944C598.719 311.146 599.394 312.776 599.396 314.476V369.415C599.394 371.115 598.719 372.744 597.518 373.946C596.318 375.148 594.691 375.824 592.993 375.826Z" fill="white"/>
<path d="M586.877 324.059H537.802C537.377 324.059 536.97 323.89 536.67 323.589C536.37 323.289 536.201 322.881 536.201 322.456C536.201 322.031 536.37 321.624 536.67 321.323C536.97 321.022 537.377 320.854 537.802 320.854H586.877C587.301 320.854 587.708 321.022 588.008 321.323C588.309 321.624 588.477 322.031 588.477 322.456C588.477 322.881 588.309 323.289 588.008 323.589C587.708 323.89 587.301 324.059 586.877 324.059Z" fill="#2563EB"/>
<path d="M586.877 330.392H537.802C537.377 330.392 536.97 330.223 536.67 329.923C536.37 329.622 536.201 329.214 536.201 328.789C536.201 328.364 536.37 327.957 536.67 327.656C536.97 327.355 537.377 327.187 537.802 327.187H586.877C587.301 327.187 587.708 327.355 588.009 327.656C588.309 327.957 588.477 328.364 588.477 328.789C588.477 329.214 588.309 329.622 588.009 329.923C587.708 330.223 587.301 330.392 586.877 330.392Z" fill="#2563EB"/>
<path d="M559.075 336.725H537.802C537.377 336.725 536.97 336.556 536.67 336.256C536.37 335.955 536.201 335.547 536.201 335.122C536.201 334.697 536.37 334.29 536.67 333.989C536.97 333.688 537.377 333.52 537.802 333.52H559.075C559.499 333.52 559.906 333.688 560.206 333.989C560.507 334.29 560.675 334.697 560.675 335.122C560.675 335.547 560.507 335.955 560.206 336.256C559.906 336.556 559.499 336.725 559.075 336.725Z" fill="#2563EB"/>
<path d="M586.877 349.989H537.802C537.377 349.989 536.97 349.82 536.67 349.519C536.37 349.219 536.201 348.811 536.201 348.386C536.201 347.961 536.37 347.553 536.67 347.253C536.97 346.952 537.377 346.783 537.802 346.783H586.877C587.301 346.783 587.708 346.952 588.008 347.253C588.309 347.553 588.477 347.961 588.477 348.386C588.477 348.811 588.309 349.219 588.008 349.519C587.708 349.82 587.301 349.989 586.877 349.989Z" fill="#E4E4E4"/>
<path d="M586.877 356.322H537.802C537.377 356.322 536.97 356.153 536.67 355.852C536.37 355.552 536.201 355.144 536.201 354.719C536.201 354.294 536.37 353.886 536.67 353.586C536.97 353.285 537.377 353.116 537.802 353.116H586.877C587.301 353.116 587.708 353.285 588.009 353.586C588.309 353.886 588.477 354.294 588.477 354.719C588.477 355.144 588.309 355.552 588.009 355.852C587.708 356.153 587.301 356.322 586.877 356.322Z" fill="#E4E4E4"/>
<path d="M559.075 362.655H537.802C537.377 362.655 536.97 362.486 536.67 362.185C536.37 361.885 536.201 361.477 536.201 361.052C536.201 360.627 536.37 360.219 536.67 359.919C536.97 359.618 537.377 359.449 537.802 359.449H559.075C559.499 359.449 559.906 359.618 560.206 359.919C560.507 360.219 560.675 360.627 560.675 361.052C560.675 361.477 560.507 361.885 560.206 362.185C559.906 362.486 559.499 362.655 559.075 362.655Z" fill="#E4E4E4"/>
<path d="M609.166 233.477L587.707 233.652L586.13 271.9L568.694 293.275C566.573 293.633 564.591 294.57 562.969 295.984C561.347 297.399 560.147 299.235 559.501 301.289C558.855 303.343 558.789 305.537 559.31 307.626C559.831 309.716 560.918 311.621 562.452 313.131C563.986 314.641 565.907 315.696 568.003 316.181C570.099 316.666 572.288 316.562 574.328 315.88C576.368 315.197 578.18 313.963 579.564 312.315C580.948 310.666 581.849 308.666 582.17 306.536L606.189 273.194L609.166 233.477Z" fill="#FFB6B6"/>
<path d="M499.28 235.212L477.282 224.915L453.261 254.694L426.54 261.461C424.623 260.483 422.474 260.054 420.33 260.222C418.185 260.391 416.129 261.149 414.388 262.414C412.647 263.679 411.289 265.401 410.464 267.39C409.64 269.379 409.38 271.558 409.714 273.686C410.048 275.813 410.963 277.807 412.357 279.447C413.752 281.087 415.572 282.309 417.617 282.978C419.661 283.647 421.851 283.737 423.943 283.238C426.036 282.739 427.95 281.671 429.474 280.151L468.602 267.7L499.28 235.212Z" fill="#FFB6B6"/>
<path d="M568.473 146.59L576.675 136.343C577.561 135.445 578.137 134.288 578.321 133.039C578.364 131.787 577.185 130.446 575.996 130.838C574.893 131.202 568.536 115.254 567.375 115.257C566.171 115.261 565.778 113.653 565.762 112.448C565.705 107.88 569.413 112.785 570.639 108.384C571.865 103.984 576.644 107.767 580.762 105.802C584.881 103.837 590.477 104.729 593.023 108.52C594.911 111.331 594.841 114.983 594.591 118.361C594.009 126.2 592.831 133.983 591.067 141.643C590.634 143.524 589.989 145.627 588.257 146.477C587.304 146.855 586.277 147.008 585.255 146.926L572.626 146.864" fill="#1E293B"/>
<path d="M588.152 102.539C594.6 102.539 599.827 97.3047 599.827 90.848C599.827 84.3914 594.6 79.1572 588.152 79.1572C581.704 79.1572 576.477 84.3914 576.477 90.848C576.477 97.3047 581.704 102.539 588.152 102.539Z" fill="#1E293B"/>
<path d="M614.409 233.698C613.148 235.896 610.462 236.773 608.011 237.451C604.695 238.375 603.726 239.31 600.41 240.234C599.091 240.608 597.76 240.982 596.429 241.321C594.244 241.91 592.026 242.367 589.786 242.689C587.906 242.958 585.688 242.958 584.462 241.496C583.649 240.241 583.321 238.732 583.54 237.253C584.019 219.295 584.501 201.338 584.987 183.381L586.003 183.732C586.461 183.43 586.936 183.157 587.428 182.914C589.765 181.721 592.359 181.123 594.981 181.172C596.482 181.184 597.973 181.416 599.406 181.861C601.631 182.569 603.676 183.753 605.398 185.332C607.12 186.911 608.478 188.846 609.377 191.004C610.541 194.261 611.095 197.705 611.011 201.163C611.023 201.689 611.023 202.215 611.034 202.741C611.105 207.231 608.828 211.72 608.898 216.209C608.845 217.473 609.019 218.736 609.412 219.938C609.879 221.131 610.789 222.125 611.14 223.364C611.49 224.591 610.918 226.275 609.645 226.368C610.544 226.272 611.452 226.427 612.269 226.816C613.085 227.205 613.778 227.812 614.271 228.571C614.765 229.33 615.038 230.21 615.063 231.115C615.087 232.02 614.86 232.914 614.409 233.698Z" fill="white"/>
<path d="M510.026 179.8C512.361 179.94 514.636 180.595 516.689 181.718C518.741 182.841 520.521 184.403 521.902 186.294C523.282 188.185 524.228 190.357 524.673 192.657C525.118 194.956 525.051 197.325 524.476 199.595C523.5 203.448 521.136 206.777 518.82 210.005L510.973 220.941C510.177 221.921 509.564 223.038 509.165 224.236C508.835 225.476 508.965 226.821 508.513 228.022C508.061 229.223 506.605 230.23 505.523 229.541C506.302 230 506.939 230.666 507.364 231.466C507.789 232.265 507.985 233.166 507.93 234.069C507.875 234.973 507.573 235.844 507.055 236.586C506.537 237.328 505.825 237.912 504.996 238.274C502.668 239.292 499.993 238.384 497.62 237.475L487.984 233.782C484.557 232.557 481.217 231.1 477.988 229.419C476.32 228.502 474.54 227.182 474.421 225.28C474.329 223.8 475.579 222.663 476.206 221.319C484.054 204.494 495.595 191.106 509.929 179.698L510.026 179.8Z" fill="white"/>
<path d="M528.554 400.131C537.703 400.131 545.12 392.705 545.12 383.543C545.12 374.382 537.703 366.955 528.554 366.955C519.405 366.955 511.988 374.382 511.988 383.543C511.988 392.705 519.405 400.131 528.554 400.131Z" fill="white"/>
<path d="M528.554 400.333C525.237 400.333 521.995 399.348 519.238 397.503C516.48 395.658 514.331 393.036 513.062 389.968C511.793 386.9 511.461 383.524 512.108 380.267C512.755 377.01 514.352 374.018 516.697 371.67C519.042 369.322 522.03 367.722 525.282 367.075C528.535 366.427 531.906 366.759 534.97 368.03C538.034 369.301 540.653 371.453 542.496 374.214C544.338 376.975 545.322 380.222 545.322 383.542C545.317 387.994 543.548 392.262 540.405 395.41C537.261 398.557 532.999 400.328 528.554 400.333Z" fill="#2563EB"/>
<path d="M527.313 390.172C527.278 390.172 527.242 390.171 527.207 390.169C526.895 390.154 526.59 390.071 526.313 389.927C526.036 389.783 525.793 389.58 525.601 389.334L522.833 385.77C522.658 385.545 522.529 385.287 522.454 385.013C522.378 384.738 522.357 384.451 522.393 384.168C522.428 383.885 522.519 383.612 522.659 383.364C522.8 383.116 522.988 382.899 523.213 382.724L523.312 382.646C523.537 382.471 523.794 382.342 524.069 382.266C524.343 382.19 524.63 382.17 524.912 382.205C525.195 382.24 525.468 382.331 525.715 382.472C525.963 382.613 526.18 382.802 526.355 383.027C526.495 383.207 526.671 383.354 526.873 383.459C527.075 383.564 527.298 383.624 527.525 383.635C527.752 383.646 527.979 383.608 528.191 383.523C528.402 383.438 528.592 383.309 528.749 383.143L534.37 377.201C534.765 376.784 535.31 376.541 535.885 376.525C536.459 376.51 537.016 376.723 537.434 377.118L537.526 377.206C537.733 377.402 537.899 377.637 538.015 377.897C538.131 378.157 538.195 378.438 538.202 378.723C538.21 379.008 538.162 379.291 538.06 379.558C537.958 379.824 537.805 380.067 537.609 380.274L528.886 389.494C528.684 389.708 528.44 389.879 528.169 389.995C527.899 390.112 527.608 390.172 527.313 390.172Z" fill="white"/>
<path d="M410.438 291.965L369.186 241.386C367.777 239.654 367.111 237.433 367.335 235.21C367.559 232.987 368.655 230.944 370.381 229.529L381.39 220.526C383.119 219.115 385.337 218.448 387.557 218.673C389.777 218.897 391.818 219.994 393.231 221.723L434.482 272.301C435.892 274.033 436.557 276.254 436.333 278.477C436.109 280.7 435.014 282.743 433.288 284.158L422.279 293.161C420.549 294.572 418.331 295.239 416.111 295.015C413.891 294.79 411.851 293.693 410.438 291.965Z" fill="#1E293B"/>
<path d="M432.418 273.271L421.373 259.733L415.618 252.684L391.158 222.697C390.782 222.235 390.319 221.852 389.795 221.569C389.271 221.287 388.696 221.111 388.104 221.051C387.512 220.991 386.914 221.049 386.344 221.221C385.775 221.393 385.244 221.676 384.784 222.054L373.774 231.056C373.313 231.432 372.931 231.896 372.649 232.421C372.367 232.946 372.191 233.521 372.131 234.114C372.072 234.707 372.129 235.306 372.301 235.876C372.473 236.447 372.755 236.978 373.132 237.439L373.156 237.474L393.809 262.796L414.38 288.025C415.143 288.956 416.244 289.546 417.441 289.667C418.637 289.787 419.833 289.428 420.766 288.668L431.764 279.666C432.695 278.903 433.286 277.802 433.409 276.604C433.531 275.406 433.175 274.207 432.418 273.271Z" fill="#2563EB"/>
<path d="M400.184 249.844C400.186 252.348 399.612 254.819 398.506 257.066C397.401 259.312 395.794 261.273 393.809 262.797L373.156 237.475C375.522 235.42 378.429 234.09 381.529 233.643C384.63 233.197 387.793 233.652 390.642 234.956C393.491 236.26 395.905 238.357 397.597 240.996C399.289 243.636 400.187 246.707 400.184 249.844Z" fill="#1E293B"/>
<path d="M403.234 241.428C403.792 243.441 402.348 245.855 399.165 248.226C398.529 248.701 397.624 248.926 397.094 249.612C395.979 251.163 394.458 252.377 392.699 253.12C390.94 253.863 389.01 254.106 387.122 253.824C386.9 253.681 386.678 253.535 386.459 253.383C386.5 253.373 386.541 253.362 386.581 253.351C390.35 252.347 393.957 250.809 397.291 248.783C397.825 248.444 398.654 248.316 398.807 247.743C400.031 243.145 402.778 242.813 402.655 241.59C402.474 239.802 399.817 238.663 396.188 238.307C395.828 238.272 395.461 238.245 395.086 238.226C394.937 238.015 394.784 237.808 394.624 237.605C395.182 237.623 395.722 237.657 396.246 237.708C400.194 238.095 402.675 239.416 403.234 241.428Z" fill="white"/>
<path d="M386.096 244.429C388.324 244.429 390.13 242.62 390.13 240.389C390.13 238.157 388.324 236.349 386.096 236.349C383.867 236.349 382.061 238.157 382.061 240.389C382.061 242.62 383.867 244.429 386.096 244.429Z" fill="white"/>
<path d="M407.319 267.107C407.904 267.107 408.378 266.632 408.378 266.046C408.378 265.46 407.904 264.984 407.319 264.984C406.733 264.984 406.259 265.46 406.259 266.046C406.259 266.632 406.733 267.107 407.319 267.107Z" fill="white"/>
<path d="M424.831 271.784C425.417 271.784 425.891 271.309 425.891 270.722C425.891 270.136 425.417 269.661 424.831 269.661C424.246 269.661 423.771 270.136 423.771 270.722C423.771 271.309 424.246 271.784 424.831 271.784Z" fill="white"/>
<path d="M386.304 228.527C386.889 228.527 387.364 228.052 387.364 227.466C387.364 226.879 386.889 226.404 386.304 226.404C385.719 226.404 385.244 226.879 385.244 227.466C385.244 228.052 385.719 228.527 386.304 228.527Z" fill="white"/>
<path d="M416.659 278.797C417.244 278.797 417.719 278.322 417.719 277.736C417.719 277.15 417.244 276.675 416.659 276.675C416.074 276.675 415.599 277.15 415.599 277.736C415.599 278.322 416.074 278.797 416.659 278.797Z" fill="white"/>
<path d="M391.172 245.185C391.401 245.185 391.587 244.999 391.587 244.77C391.587 244.541 391.401 244.354 391.172 244.354C390.943 244.354 390.757 244.541 390.757 244.77C390.757 244.999 390.943 245.185 391.172 245.185Z" fill="#F0F0F0"/>
<path d="M398.177 253.369C398.406 253.369 398.592 253.183 398.592 252.954C398.592 252.724 398.406 252.538 398.177 252.538C397.948 252.538 397.762 252.724 397.762 252.954C397.762 253.183 397.948 253.369 398.177 253.369Z" fill="#F0F0F0"/>
<path d="M377.162 239.34C377.391 239.34 377.577 239.154 377.577 238.924C377.577 238.695 377.391 238.509 377.162 238.509C376.933 238.509 376.747 238.695 376.747 238.924C376.747 239.154 376.933 239.34 377.162 239.34Z" fill="#F0F0F0"/>
<path d="M421.374 259.734C420.944 260.288 420.395 260.739 419.767 261.051C419.139 261.363 418.45 261.53 417.749 261.539C417.048 261.548 416.354 261.398 415.719 261.101C415.084 260.805 414.523 260.368 414.08 259.825C413.636 259.282 413.32 258.645 413.156 257.963C412.992 257.28 412.983 256.57 413.131 255.884C413.279 255.198 413.579 254.554 414.01 254C414.441 253.446 414.99 252.996 415.618 252.685L421.374 259.734Z" fill="#FF6584"/>
</g>
<defs>
<clipPath id="clip0_361_787">
<rect width="697" height="484" fill="white"/>
</clipPath>
</defs>
</svg>
