<svg width="529" height="409" viewBox="0 0 529 409" fill="none" xmlns="http://www.w3.org/2000/svg">
<g clip-path="url(#clip0_331_754)">
<path d="M507.08 357.861C504.98 340.957 494.511 324.301 478.401 318.8C484.754 336.199 484.753 355.287 478.397 372.685C475.921 379.386 472.471 386.582 474.799 393.335C476.248 397.538 479.792 400.753 483.754 402.763C487.716 404.773 492.113 405.731 496.455 406.67L497.31 407.378C504.203 391.802 509.181 374.766 507.08 357.861Z" fill="#F0F0F0"/>
<path d="M478.241 319.12C487.623 329.639 493.454 342.85 494.906 356.874C495.272 359.888 495.161 362.941 494.578 365.92C493.915 368.804 492.493 371.457 490.46 373.605C488.604 375.646 486.469 377.518 485.141 379.975C484.48 381.242 484.094 382.635 484.009 384.063C483.923 385.49 484.14 386.919 484.646 388.257C485.818 391.622 488.129 394.365 490.482 396.969C493.095 399.86 495.854 402.822 496.965 406.655C497.099 407.119 497.811 406.883 497.677 406.419C495.745 399.751 489.276 395.963 486.191 389.957C484.752 387.154 484.148 383.9 485.497 380.942C486.677 378.355 488.877 376.422 490.774 374.372C492.789 372.306 494.267 369.778 495.08 367.008C495.814 364.068 496.042 361.025 495.755 358.008C495.217 351.207 493.614 344.533 491.005 338.23C488.067 331.02 483.918 324.366 478.737 318.556C478.417 318.197 477.922 318.762 478.241 319.12Z" fill="white"/>
<path d="M494.704 352.331C497.022 351.767 499.065 350.398 500.467 348.467C501.87 346.535 502.54 344.168 502.36 341.788C502.321 341.306 501.572 341.343 501.61 341.825C501.783 344.041 501.158 346.246 499.848 348.042C498.539 349.838 496.631 351.106 494.469 351.618C493.999 351.73 494.237 352.442 494.704 352.331Z" fill="white"/>
<path d="M491.537 372.695C487.35 370.193 484.259 366.203 482.88 361.522C482.744 361.058 482.032 361.294 482.168 361.758C483.612 366.626 486.837 370.771 491.2 373.365C491.616 373.612 491.951 372.94 491.537 372.695Z" fill="white"/>
<path d="M487.371 331.732C486.519 332.137 485.58 332.324 484.639 332.276C483.697 332.228 482.782 331.947 481.976 331.458C481.563 331.206 481.228 331.878 481.638 332.129C482.532 332.665 483.543 332.974 484.583 333.029C485.623 333.084 486.661 332.884 487.606 332.445C487.699 332.411 487.775 332.343 487.819 332.255C487.863 332.167 487.872 332.065 487.845 331.971C487.813 331.877 487.745 331.799 487.657 331.754C487.568 331.709 487.465 331.701 487.371 331.732Z" fill="white"/>
<path d="M429.295 348.994C429.548 349.158 429.802 349.323 430.055 349.494C433.448 351.727 436.654 354.232 439.641 356.984C439.876 357.193 440.11 357.409 440.338 357.624C447.465 364.331 453.285 372.305 457.503 381.139C459.179 384.655 460.584 388.295 461.708 392.025C463.259 397.176 464.532 402.885 467.603 407.099C467.918 407.542 468.261 407.966 468.629 408.366H496.381C496.444 408.335 496.508 408.309 496.571 408.278L497.679 408.328C497.635 408.132 497.584 407.929 497.54 407.733C497.514 407.619 497.483 407.505 497.457 407.391C497.439 407.315 497.419 407.239 497.407 407.169C497.401 407.143 497.394 407.118 497.388 407.099C497.375 407.029 497.356 406.966 497.343 406.903C497.065 405.768 496.778 404.634 496.482 403.5C496.482 403.494 496.482 403.494 496.476 403.487C494.203 394.851 491.189 386.328 486.978 378.534C486.852 378.3 486.725 378.059 486.586 377.825C484.668 374.322 482.468 370.982 480.007 367.838C478.654 366.121 477.215 364.474 475.695 362.902C471.76 358.849 467.214 355.441 462.221 352.802C452.267 347.543 440.743 345.528 430.106 348.74C429.833 348.823 429.567 348.905 429.295 348.994Z" fill="#F0F0F0"/>
<path d="M429.358 349.346C443.177 352.092 455.781 359.127 465.378 369.45C467.483 371.636 469.231 374.14 470.558 376.87C471.764 379.572 472.225 382.547 471.893 385.487C471.639 388.235 471.061 391.016 471.479 393.778C471.714 395.188 472.244 396.533 473.034 397.724C473.825 398.915 474.858 399.926 476.066 400.689C479.027 402.67 482.523 403.467 485.968 404.129C489.793 404.863 493.778 405.565 496.971 407.956C497.358 408.246 497.784 407.628 497.398 407.339C491.844 403.179 484.4 404.052 478.323 401.115C475.488 399.744 473.048 397.511 472.345 394.335C471.731 391.559 472.325 388.69 472.606 385.911C472.972 383.047 472.631 380.137 471.614 377.436C470.431 374.647 468.782 372.08 466.738 369.844C462.217 364.738 456.922 360.374 451.046 356.914C444.363 352.928 437.047 350.115 429.415 348.597C428.943 348.503 428.888 349.253 429.358 349.346Z" fill="white"/>
<path d="M462.483 365.944C463.996 364.098 464.803 361.773 464.76 359.386C464.718 356.999 463.829 354.705 462.253 352.913C461.933 352.552 461.356 353.033 461.677 353.395C463.148 355.061 463.976 357.198 464.011 359.421C464.045 361.643 463.285 363.805 461.867 365.517C461.559 365.889 462.177 366.314 462.483 365.944Z" fill="white"/>
<path d="M472.206 384.112C467.357 384.637 462.489 383.314 458.572 380.407C458.184 380.119 457.758 380.736 458.145 381.024C462.227 384.042 467.296 385.408 472.34 384.851C472.82 384.797 472.684 384.059 472.206 384.112Z" fill="white"/>
<path d="M444.235 353.915C443.799 354.751 443.162 355.466 442.381 355.995C441.6 356.525 440.701 356.851 439.762 356.947C439.281 356.994 439.418 357.732 439.896 357.685C440.932 357.575 441.926 357.213 442.789 356.63C443.653 356.048 444.361 355.262 444.852 354.342C444.905 354.26 444.925 354.159 444.908 354.062C444.89 353.965 444.836 353.879 444.757 353.82C444.675 353.764 444.574 353.742 444.476 353.76C444.379 353.778 444.292 353.833 444.235 353.915Z" fill="white"/>
<path d="M384.609 60.8178L53.4007 0.0915667C52.7264 -0.0381587 52.0328 -0.0299668 51.3618 0.115647C50.7532 0.249042 50.1818 0.516115 49.6889 0.897563C49.2072 1.2736 48.8196 1.75674 48.5568 2.3087C48.2772 2.90484 48.1351 3.55621 48.1408 4.21471V301.156C48.1347 301.815 48.2764 302.467 48.5556 303.063C48.8179 303.615 49.2051 304.098 49.6864 304.475C50.179 304.857 50.7501 305.124 51.3586 305.258C52.0296 305.404 52.7231 305.413 53.3975 305.283L384.609 244.556C384.884 244.5 385.138 244.371 385.345 244.183C385.588 243.966 385.791 243.709 385.945 243.422C386.124 243.096 386.26 242.747 386.348 242.385C386.447 241.991 386.496 241.587 386.497 241.181V64.2034C386.497 63.7965 386.447 63.3911 386.349 62.9963C386.261 62.6341 386.125 62.2852 385.946 61.9583C385.791 61.672 385.588 61.4148 385.346 61.198C385.138 61.0096 384.884 60.8803 384.61 60.8235L384.609 60.8178Z" fill="#E4E4E4"/>
<path d="M389.675 60.8178L58.4661 0.0915667C57.7918 -0.0381587 57.0983 -0.0299668 56.4272 0.115647C55.8186 0.249042 55.2472 0.516115 54.7544 0.897563C54.2726 1.2736 53.885 1.75674 53.6222 2.3087C53.3427 2.90484 53.2005 3.55621 53.2062 4.21471V301.156C53.2001 301.815 53.3418 302.467 53.621 303.063C53.8833 303.615 54.2705 304.098 54.7518 304.475C55.2444 304.857 55.8156 305.124 56.4241 305.258C57.095 305.404 57.7886 305.413 58.4629 305.283L389.675 244.556C389.949 244.5 390.203 244.371 390.411 244.183C390.653 243.966 390.856 243.709 391.011 243.422C391.19 243.096 391.325 242.747 391.414 242.385C391.512 241.991 391.562 241.587 391.562 241.181V64.2034C391.562 63.7965 391.513 63.3911 391.415 62.9963C391.326 62.6341 391.19 62.2852 391.011 61.9583C390.857 61.672 390.654 61.4148 390.412 61.198C390.204 61.0096 389.95 60.8803 389.675 60.8235L389.675 60.8178Z" fill="white"/>
<path d="M389.675 60.8178L58.4661 0.0915667C57.7918 -0.0381587 57.0983 -0.0299668 56.4272 0.115647C55.8186 0.249042 55.2472 0.516115 54.7544 0.897563C54.2726 1.2736 53.885 1.75674 53.6222 2.3087C53.3427 2.90484 53.2005 3.55621 53.2062 4.21471V301.156C53.2001 301.815 53.3418 302.467 53.621 303.063C53.8833 303.615 54.2705 304.098 54.7518 304.475C55.2444 304.857 55.8156 305.124 56.4241 305.258C57.095 305.404 57.7886 305.413 58.4629 305.283L389.675 244.556C389.949 244.5 390.203 244.371 390.411 244.183C390.653 243.966 390.856 243.709 391.011 243.422C391.19 243.096 391.325 242.747 391.414 242.385C391.512 241.991 391.562 241.587 391.562 241.181V64.2034C391.562 63.7965 391.513 63.3911 391.415 62.9963C391.326 62.6341 391.19 62.2852 391.011 61.9583C390.857 61.672 390.654 61.4148 390.412 61.198C390.204 61.0096 389.95 60.8803 389.675 60.8235L389.675 60.8178ZM390.935 241.288C390.935 241.56 390.902 241.83 390.836 242.094C390.777 242.336 390.686 242.569 390.567 242.787C390.464 242.978 390.328 243.149 390.167 243.294C390.028 243.419 389.859 243.505 389.676 243.542L58.4693 303.595C58.0199 303.68 57.5579 303.674 57.1111 303.576C56.7062 303.486 56.3262 303.307 55.9986 303.053C55.6784 302.802 55.4209 302.48 55.2464 302.113C55.0609 301.716 54.9666 301.283 54.9703 300.845V4.53026C54.9665 4.09256 55.0606 3.65954 55.2457 3.26297C55.4199 2.89502 55.6772 2.57267 55.9973 2.32137C56.3247 2.06669 56.7044 1.88792 57.1092 1.79798C57.5559 1.69973 58.018 1.69304 58.4674 1.77833L389.676 61.8329C389.859 61.8703 390.028 61.9561 390.167 62.0813C390.328 62.2257 390.464 62.3973 390.567 62.5882C390.686 62.8061 390.777 63.0387 390.836 63.2801C390.902 63.5437 390.935 63.8144 390.935 64.0861V241.287L390.935 241.288Z" fill="#CACACA"/>
<path d="M0.000428901 92.6826C-0.0155043 90.6568 0.412667 88.6522 1.25477 86.8099C2.04179 85.1081 3.20488 83.6075 4.65624 82.4213C6.11718 81.2354 7.82279 80.3886 9.65017 79.9418C11.6272 79.4646 13.6816 79.4026 15.6838 79.76C17.7838 80.1259 19.7988 80.8744 21.6288 81.9682C23.4366 83.0447 25.055 84.4118 26.4188 86.0147C27.7712 87.5948 28.8518 89.3888 29.6164 91.3234C30.3784 93.2431 30.774 95.2888 30.7827 97.3544C30.7969 99.3079 30.3995 101.242 29.6164 103.032C28.8809 104.695 27.7893 106.176 26.4188 107.37C25.0297 108.573 23.3949 109.458 21.6288 109.963C19.6966 110.509 17.672 110.646 15.6838 110.367C13.5659 110.075 11.5209 109.391 9.65333 108.35C7.77702 107.308 6.08941 105.957 4.6613 104.354C3.22714 102.755 2.07656 100.922 1.2592 98.9348C0.439623 96.9517 0.0121455 94.8285 0.000428901 92.6826Z" fill="#E4E4E4"/>
<path d="M0.000428901 154.146C-0.0155043 152.121 0.412667 150.116 1.25477 148.274C2.04179 146.572 3.20488 145.071 4.65624 143.885C6.11718 142.699 7.82279 141.852 9.65017 141.406C11.6272 140.928 13.6816 140.866 15.6838 141.224C17.7838 141.59 19.7988 142.338 21.6288 143.432C23.4366 144.509 25.055 145.876 26.4188 147.479C27.7712 149.059 28.8518 150.853 29.6164 152.787C30.3784 154.707 30.774 156.753 30.7827 158.818C30.7969 160.772 30.3995 162.706 29.6164 164.496C28.8809 166.159 27.7893 167.64 26.4188 168.834C25.0297 170.037 23.3949 170.921 21.6288 171.427C19.6966 171.973 17.672 172.11 15.6838 171.831C13.5659 171.539 11.5209 170.855 9.65333 169.813C7.77702 168.772 6.08941 167.421 4.6613 165.818C3.22714 164.219 2.07656 162.386 1.2592 160.399C0.439623 158.416 0.0121455 156.292 0.000428901 154.146Z" fill="#E4E4E4"/>
<path d="M0.000428901 215.61C-0.0155043 213.585 0.412667 211.58 1.25477 209.738C2.04179 208.036 3.20488 206.535 4.65624 205.349C6.11718 204.163 7.82279 203.316 9.65017 202.87C11.6272 202.392 13.6816 202.33 15.6838 202.688C17.7838 203.054 19.7988 203.802 21.6288 204.896C23.4366 205.972 25.055 207.34 26.4188 208.942C27.7712 210.523 28.8518 212.317 29.6164 214.251C30.3784 216.171 30.774 218.217 30.7827 220.282C30.7969 222.236 30.3995 224.17 29.6164 225.96C28.8809 227.623 27.7893 229.103 26.4188 230.298C25.0297 231.5 23.3949 232.385 21.6288 232.891C19.6966 233.436 17.672 233.574 15.6838 233.295C13.5659 233.003 11.5209 232.319 9.65333 231.277C7.77702 230.235 6.08941 228.885 4.6613 227.282C3.22714 225.683 2.07656 223.85 1.2592 221.863C0.439623 219.879 0.0121455 217.756 0.000428901 215.61Z" fill="#E4E4E4"/>
<path d="M3.7995 92.6826C3.78357 90.6568 4.21174 88.6522 5.05384 86.8099C5.84086 85.1081 7.00396 83.6075 8.45531 82.4213C9.91626 81.2354 11.6219 80.3886 13.4492 79.9418C15.4263 79.4646 17.4807 79.4026 19.4829 79.76C21.5828 80.1259 23.5979 80.8744 25.4278 81.9682C27.2357 83.0447 28.854 84.4118 30.2179 86.0147C31.5703 87.5948 32.6509 89.3888 33.4155 91.3234C34.1775 93.2431 34.5731 95.2888 34.5818 97.3544C34.596 99.3079 34.1986 101.242 33.4155 103.032C32.68 104.695 31.5884 106.176 30.2179 107.37C28.8287 108.573 27.194 109.458 25.4278 109.963C23.4956 110.509 21.4711 110.646 19.4829 110.367C17.365 110.075 15.3199 109.391 13.4524 108.35C11.5761 107.308 9.88848 105.957 8.46037 104.354C7.02622 102.755 5.87563 100.922 5.05827 98.9348C4.2387 96.9517 3.81122 94.8285 3.7995 92.6826Z" fill="#2563EB"/>
<path d="M3.79948 153.728C3.78978 151.672 4.21737 149.638 5.05382 147.76C5.84812 145.991 7.00731 144.411 8.45529 143.122C9.90361 141.834 11.6045 140.863 13.4492 140.27C15.3963 139.65 17.4499 139.436 19.4828 139.642C21.5593 139.846 23.5774 140.446 25.4278 141.411C27.2297 142.349 28.8514 143.599 30.2179 145.103C31.575 146.59 32.6576 148.307 33.4154 150.172C34.183 152.063 34.5788 154.084 34.5811 156.124C34.5899 158.106 34.193 160.068 33.4148 161.89C32.6687 163.624 31.5748 165.187 30.2008 166.48C28.8269 167.774 27.2021 168.772 25.4272 169.412C23.5238 170.096 21.5006 170.383 19.4822 170.255C17.3894 170.126 15.3415 169.593 13.4518 168.684C9.67911 166.869 6.69574 163.741 5.05888 159.886C4.23393 157.937 3.80577 155.844 3.79948 153.728Z" fill="#2563EB"/>
<path d="M3.79957 214.773C3.79698 212.728 4.20814 210.703 5.00829 208.821C5.80845 206.939 6.98103 205.239 8.45538 203.823C10.2684 202.086 12.4767 200.816 14.8897 200.125C17.3026 199.433 19.8476 199.339 22.3047 199.852C24.7618 200.365 27.0571 201.469 28.9924 203.069C30.9277 204.669 32.4447 206.716 33.4124 209.033C34.3635 211.34 34.7357 213.844 34.4962 216.328C34.2568 218.812 33.4131 221.199 32.0388 223.281C30.6646 225.363 28.8017 227.076 26.6129 228.271C24.4241 229.466 21.9761 230.107 19.4829 230.136C16.4307 230.181 13.4332 229.322 10.867 227.668C8.30077 226.013 6.28019 223.637 5.05898 220.837C4.22836 218.924 3.79969 216.859 3.79957 214.773Z" fill="#2563EB"/>
<path d="M13.3663 92.6134L17.9645 93.3205V88.7836C17.9623 88.5872 18.0024 88.3927 18.0822 88.2133C18.1569 88.0475 18.2679 87.9007 18.407 87.7837C18.5476 87.6665 18.7124 87.5818 18.8895 87.5359C19.0826 87.4866 19.2838 87.478 19.4803 87.5106C19.6885 87.5443 19.8888 87.616 20.0711 87.7222C20.2528 87.8278 20.4158 87.9627 20.5535 88.1214C20.691 88.2788 20.8012 88.4581 20.8796 88.6518C20.9578 88.844 20.9989 89.0494 21.0006 89.2569V93.7875L25.5114 94.4801C25.7163 94.5125 25.9134 94.5827 26.0926 94.6873C26.452 94.8961 26.7315 95.219 26.8867 95.6048C26.9632 95.7957 27.0029 95.9992 27.0038 96.2049C27.0053 96.3993 26.9653 96.5917 26.8867 96.7695C26.8139 96.9335 26.7058 97.0793 26.5701 97.1965C26.4323 97.3136 26.2703 97.3989 26.0958 97.4462C25.9063 97.4968 25.7083 97.5071 25.5146 97.4766L20.9974 96.8005V101.321C20.9989 101.517 20.9583 101.712 20.8784 101.891C20.8036 102.058 20.6929 102.205 20.5542 102.324C20.4141 102.443 20.2499 102.529 20.073 102.577C19.8807 102.63 19.6798 102.641 19.4828 102.612C19.2748 102.581 19.0743 102.513 18.8914 102.409C18.7095 102.306 18.5462 102.173 18.4083 102.016C18.2706 101.86 18.1603 101.682 18.0822 101.489C18.0046 101.296 17.9646 101.09 17.9645 100.882V96.3455L13.3663 95.6549C13.155 95.6224 12.9515 95.5513 12.766 95.4451C12.5814 95.34 12.4156 95.2049 12.2753 95.0453C12.1359 94.8882 12.0239 94.7087 11.9441 94.5143C11.8646 94.3198 11.8233 94.1117 11.8226 93.9016C11.821 93.7035 11.8625 93.5074 11.9441 93.3268C12.0207 93.1594 12.1339 93.0113 12.2753 92.8934C12.4183 92.7739 12.5858 92.6874 12.766 92.64C12.9621 92.5899 13.1665 92.5808 13.3663 92.6134Z" fill="white"/>
<path d="M16.5938 159.003L29.3626 159.929H29.4094L23.4214 149.049C23.3842 148.981 23.331 148.923 23.2663 148.879C23.2345 148.858 23.2003 148.841 23.1643 148.828C23.1282 148.815 23.0905 148.807 23.0522 148.803C23.015 148.8 22.9775 148.802 22.9408 148.808C22.9054 148.815 22.8711 148.827 22.8389 148.843C22.7744 148.875 22.7205 148.925 22.6837 148.987L18.6092 155.689L18.4129 156.012L16.5938 159.003Z" fill="white"/>
<path d="M9.3064 158.473L20.572 159.291L18.4129 156.011L18.2571 155.774L15.4255 151.472C15.3754 151.406 15.3128 151.349 15.2412 151.306C15.2065 151.285 15.1698 151.268 15.1317 151.254C15.0923 151.24 15.0516 151.23 15.0101 151.225C14.9701 151.219 14.9295 151.217 14.8892 151.22C14.85 151.223 14.8111 151.23 14.7733 151.24C14.7361 151.251 14.7002 151.266 14.6663 151.285C14.6322 151.303 14.6003 151.326 14.5713 151.352L14.5618 151.363L14.5498 151.375L14.5403 151.387L14.5308 151.399L9.3064 158.473Z" fill="white"/>
<path d="M17.8257 147.258C18.0855 147.281 18.3385 147.353 18.571 147.471C18.799 147.587 19.0046 147.743 19.1782 147.931C19.3515 148.117 19.4901 148.334 19.5873 148.569C19.6858 148.808 19.7368 149.063 19.7373 149.321C19.7385 149.571 19.6873 149.818 19.5873 150.047C19.4922 150.264 19.3529 150.458 19.1782 150.617C19.0027 150.777 18.7959 150.899 18.571 150.974C18.3312 151.054 18.0776 151.084 17.8257 151.062C17.5657 151.04 17.3122 150.969 17.0792 150.851C16.8502 150.736 16.6435 150.58 16.4688 150.392C16.2943 150.205 16.1546 149.989 16.0566 149.752C15.9572 149.513 15.9058 149.256 15.9053 148.997C15.9042 148.746 15.9558 148.498 16.0566 148.268C16.1526 148.052 16.293 147.857 16.4688 147.698C16.6456 147.539 16.8535 147.419 17.0792 147.345C17.3195 147.265 17.5736 147.236 17.8257 147.258Z" fill="white"/>
<path d="M155.614 190.629L282.048 70.5801L282.59 71.5305L156.404 191.645L155.614 190.629Z" fill="#E6E6E6"/>
<path d="M155.634 54.5638L156.427 53.6133L282.579 184.667L282.035 185.57L155.634 54.5638Z" fill="#E6E6E6"/>
<path d="M280.769 68.8274L157.868 51.9306C157.3 51.8493 156.721 51.8988 156.174 52.075C155.654 52.2466 155.18 52.5334 154.786 52.914C154.378 53.3077 154.058 53.7826 153.845 54.308C153.613 54.8877 153.495 55.507 153.499 56.1316V188.526C153.497 189.159 153.615 189.787 153.845 190.376C154.06 190.924 154.379 191.425 154.785 191.851C155.177 192.261 155.65 192.585 156.174 192.802C156.71 193.021 157.289 193.118 157.867 193.086L280.769 186.312C281.184 186.285 281.586 186.154 281.938 185.932C282.31 185.697 282.633 185.391 282.887 185.031C283.169 184.638 283.384 184.202 283.527 183.741C283.683 183.239 283.762 182.716 283.762 182.191V73.1907C283.761 72.6588 283.682 72.1299 283.527 71.6212C283.383 71.1437 283.167 70.6908 282.887 70.2778C282.632 69.897 282.31 69.5653 281.938 69.2988C281.591 69.0515 281.191 68.8899 280.769 68.8274ZM157.868 191.723C157.455 191.746 157.042 191.675 156.659 191.518C156.285 191.363 155.948 191.131 155.669 190.837C155.379 190.532 155.152 190.174 154.999 189.782C154.835 189.361 154.751 188.913 154.752 188.462V56.2958C154.75 55.8507 154.834 55.4093 154.999 54.9962C155.15 54.6205 155.378 54.2807 155.669 53.9988C155.95 53.7273 156.289 53.5227 156.659 53.4C157.049 53.2733 157.462 53.2371 157.868 53.2942L280.769 69.9623C281.07 70.0068 281.357 70.1224 281.605 70.2994C281.871 70.4889 282.102 70.725 282.285 70.9964C282.485 71.2914 282.639 71.6151 282.742 71.9563C282.854 72.32 282.91 72.6982 282.911 73.0785V182.235C282.911 182.611 282.854 182.985 282.742 183.344C282.64 183.674 282.486 183.986 282.285 184.266C282.102 184.523 281.871 184.741 281.605 184.909C281.353 185.067 281.066 185.159 280.769 185.177L157.868 191.723Z" fill="#E6E6E6"/>
<path d="M153.797 207.067C153.47 207.103 153.158 207.224 152.893 207.418C152.6 207.633 152.352 207.902 152.16 208.211C151.942 208.556 151.777 208.931 151.671 209.325C151.554 209.755 151.497 210.199 151.502 210.644C151.505 211.071 151.569 211.495 151.692 211.903C151.799 212.262 151.966 212.601 152.186 212.904C152.377 213.171 152.625 213.393 152.912 213.553C153.183 213.701 153.49 213.77 153.799 213.752L368.957 195.923C369.129 195.909 369.289 195.835 369.412 195.715C369.569 195.565 369.695 195.387 369.786 195.19C369.9 194.948 369.985 194.692 370.039 194.43C370.103 194.126 370.136 193.816 370.138 193.506C370.141 193.199 370.113 192.892 370.054 192.59C370.005 192.334 369.923 192.085 369.811 191.849C369.726 191.661 369.602 191.493 369.448 191.356C369.323 191.245 369.162 191.186 368.995 191.189H368.957L153.797 207.067Z" fill="#E6E6E6"/>
<path d="M153.797 227.356C153.468 227.402 153.157 227.531 152.893 227.732C152.601 227.954 152.352 228.229 152.16 228.542C151.943 228.891 151.778 229.271 151.671 229.669C151.554 230.102 151.497 230.548 151.502 230.997C151.504 231.422 151.568 231.844 151.692 232.251C151.799 232.606 151.966 232.94 152.186 233.238C152.377 233.5 152.625 233.715 152.911 233.866C153.184 234.008 153.491 234.069 153.797 234.042L368.958 210.289C369.13 210.269 369.29 210.191 369.412 210.068C369.568 209.914 369.695 209.732 369.786 209.532C369.9 209.286 369.985 209.028 370.039 208.762C370.103 208.457 370.136 208.146 370.138 207.835C370.141 207.528 370.113 207.222 370.054 206.921C370.005 206.667 369.924 206.42 369.811 206.187C369.725 206.003 369.6 205.838 369.446 205.706C369.32 205.598 369.159 205.543 368.994 205.551H368.956L153.797 227.356Z" fill="#E6E6E6"/>
<path d="M153.797 247.317C153.467 247.372 153.156 247.51 152.893 247.718C152.601 247.948 152.352 248.229 152.16 248.548C151.943 248.902 151.778 249.287 151.671 249.688C151.554 250.122 151.497 250.57 151.502 251.02C151.504 251.443 151.568 251.863 151.692 252.268C151.798 252.619 151.965 252.949 152.186 253.242C152.377 253.499 152.625 253.707 152.911 253.851C153.186 253.985 153.493 254.038 153.797 254.002L368.957 224.422C369.131 224.397 369.291 224.315 369.412 224.188C369.568 224.03 369.695 223.846 369.786 223.643C369.9 223.394 369.985 223.134 370.039 222.865C370.103 222.56 370.136 222.248 370.138 221.936C370.142 221.63 370.113 221.325 370.054 221.025C370.006 220.772 369.924 220.528 369.811 220.297C369.725 220.115 369.601 219.954 369.446 219.826C369.319 219.721 369.157 219.67 368.994 219.683H368.956L153.797 247.317Z" fill="#E6E6E6"/>
<path d="M25.621 208.343L13.3385 208.196C13.1337 208.189 12.9292 208.218 12.7344 208.282C12.5461 208.344 12.3698 208.437 12.2133 208.559C12.0573 208.68 11.9236 208.827 11.8182 208.994C11.7102 209.166 11.634 209.355 11.5934 209.554C11.5529 209.791 11.5652 210.034 11.6295 210.266C11.6616 210.382 11.7062 210.494 11.7625 210.6C11.8772 210.816 12.0378 211.005 12.2329 211.153C12.5256 211.375 12.882 211.497 13.2492 211.5L16.9432 211.533C17.1174 211.534 17.2875 211.586 17.4326 211.683C17.5777 211.779 17.6915 211.916 17.76 212.076C17.8061 212.185 17.8298 212.301 17.8297 212.419V219.67C17.8205 220.071 17.9538 220.461 18.2058 220.772C18.4579 221.084 18.8119 221.298 19.2056 221.374C19.5623 221.434 19.9289 221.375 20.2491 221.207C20.5693 221.039 20.8255 220.77 20.9785 220.442C21.0792 220.226 21.1315 219.99 21.1317 219.752V212.439C21.1318 212.325 21.1543 212.212 21.198 212.107C21.2417 212.002 21.3057 211.906 21.3864 211.825C21.4671 211.745 21.5628 211.681 21.6682 211.637C21.7735 211.593 21.8864 211.571 22.0004 211.571L22.0087 211.571L25.5374 211.599C25.9314 211.612 26.3171 211.484 26.6258 211.239C26.9346 210.994 27.1464 210.647 27.2236 210.26C27.2623 210.026 27.25 209.786 27.1876 209.557C27.1252 209.328 27.0141 209.116 26.8619 208.934C26.7097 208.752 26.5201 208.605 26.3059 208.503C26.0917 208.401 25.8581 208.347 25.621 208.343Z" fill="white"/>
<path d="M25.6216 218.113C25.9719 218.113 26.3128 218.226 26.594 218.435C26.8752 218.644 27.0816 218.938 27.1828 219.273C27.2839 219.609 27.2744 219.968 27.1557 220.298C27.0369 220.628 26.8151 220.91 26.5233 221.104C26.2315 221.298 25.885 221.392 25.5353 221.374C25.1856 221.355 24.8512 221.224 24.5816 221C24.312 220.777 24.1215 220.472 24.0385 220.132C23.9554 219.791 23.9841 219.433 24.1204 219.11C24.2445 218.814 24.4532 218.562 24.7204 218.384C24.9875 218.207 25.3011 218.113 25.6216 218.113Z" fill="white"/>
<path d="M313.498 122.016C313.441 122.458 313.349 122.895 313.223 123.323L338.827 154.002L348.389 152.353L352.762 166.469L336.117 171.035C334.773 171.403 333.345 171.326 332.048 170.813C330.751 170.301 329.655 169.381 328.925 168.193L305.129 129.452C303.413 129.457 301.735 128.938 300.32 127.966C298.905 126.993 297.819 125.613 297.207 124.007C296.595 122.402 296.486 120.649 296.894 118.98C297.302 117.311 298.208 115.806 299.492 114.665C300.776 113.525 302.376 112.802 304.08 112.594C305.784 112.385 307.512 112.701 309.032 113.499C310.552 114.297 311.794 115.539 312.592 117.061C313.389 118.582 313.705 120.31 313.498 122.016Z" fill="#FFB6B6"/>
<path d="M339.96 152.291C340.234 151.847 340.6 151.468 341.033 151.179C341.467 150.89 341.957 150.698 342.472 150.616L360.435 147.749C362.976 146.947 365.731 147.185 368.097 148.413C370.462 149.641 372.245 151.757 373.054 154.298C373.862 156.838 373.631 159.596 372.411 161.967C371.191 164.338 369.081 166.127 366.545 166.944L350.133 174.929C349.664 175.157 349.152 175.281 348.632 175.293C348.111 175.305 347.594 175.204 347.115 174.998C346.637 174.792 346.209 174.486 345.859 174.099C345.51 173.712 345.248 173.255 345.092 172.758L339.587 155.288C339.43 154.791 339.382 154.266 339.447 153.748C339.511 153.231 339.686 152.734 339.96 152.291Z" fill="#E7E7E7"/>
<path d="M340.962 400.793H333.199L329.506 370.829L340.963 370.83L340.962 400.793Z" fill="#FFB6B6"/>
<path d="M342.941 408.324L317.911 408.323V408.006C317.911 405.421 318.938 402.941 320.765 401.113C322.592 399.284 325.07 398.257 327.654 398.257L342.942 398.257L342.941 408.324Z" fill="#1E293B"/>
<path d="M422.01 400.793H414.247L410.554 370.829L422.011 370.83L422.01 400.793Z" fill="#FFB6B6"/>
<path d="M423.989 408.324L398.959 408.323V408.006C398.959 405.421 399.986 402.941 401.813 401.113C403.64 399.284 406.118 398.257 408.702 398.257L423.99 398.257L423.989 408.324Z" fill="#1E293B"/>
<path d="M343.993 218.273L377.631 208.545C389.885 217.243 398.346 234.677 395.606 257.234C391.19 293.585 416.753 340.324 427.778 387.682L408.714 388.282L366.969 288.305L342.494 390.363L325.465 390.899L336.853 250.375L343.993 218.273Z" fill="#1E293B"/>
<path d="M358.971 129.87C368.582 129.87 376.373 122.073 376.373 112.456C376.373 102.838 368.582 95.042 358.971 95.042C349.361 95.042 341.57 102.838 341.57 112.456C341.57 122.073 349.361 129.87 358.971 129.87Z" fill="#FFB6B6"/>
<path d="M341.266 189.889C337.42 183.133 335.519 174.927 338.867 167.91C339.71 166.143 342.008 164.473 343.211 162.929L356.656 142.868L371.838 140.424C384.976 151.451 373.752 189.124 384.517 213.836L339.56 237.915C342.774 225.634 347.111 200.157 341.266 189.889Z" fill="#F4F4F4"/>
<path d="M341.46 105.483C341.46 105.483 342.639 103.299 349.692 106.117C352.16 107.103 353.318 106.876 353.478 109.022C354.05 117.099 357.002 124.824 361.961 131.222L362.014 131.291L365.541 128.071L370.075 131.694L389.218 132.096C389.218 132.096 392.241 117.202 382.165 100.296C372.09 83.3897 351.435 92.6479 351.435 92.6479C337.329 93.453 341.46 105.483 341.46 105.483Z" fill="#1E293B"/>
<path d="M297.036 83.2249L174.135 66.328C173.566 66.2468 172.987 66.2962 172.441 66.4725C171.921 66.6441 171.446 66.9309 171.052 67.3115C170.645 67.7052 170.325 68.1801 170.112 68.7055C169.88 69.2851 169.762 69.9045 169.766 70.5291V202.923C169.764 203.556 169.881 204.184 170.112 204.774C170.327 205.322 170.646 205.823 171.052 206.249C171.443 206.659 171.916 206.983 172.44 207.199C172.977 207.419 173.555 207.516 174.134 207.483L297.036 200.709C297.451 200.682 297.853 200.551 298.204 200.329C298.576 200.094 298.899 199.788 299.154 199.429C299.435 199.036 299.651 198.6 299.793 198.138C299.95 197.636 300.029 197.114 300.028 196.588V87.5882C300.028 87.0562 299.949 86.5273 299.793 86.0186C299.649 85.5411 299.434 85.0882 299.154 84.6753C298.899 84.2944 298.577 83.9628 298.204 83.6963C297.857 83.4489 297.457 83.2874 297.036 83.2249Z" fill="#2563EB"/>
<path opacity="0.2" d="M297.036 83.2249L174.135 66.328C173.566 66.2468 172.987 66.2962 172.441 66.4725C171.921 66.6441 171.446 66.9309 171.052 67.3115C170.645 67.7052 170.325 68.1801 170.112 68.7055C169.88 69.2851 169.762 69.9045 169.766 70.5291V202.923C169.764 203.556 169.881 204.184 170.112 204.774C170.327 205.322 170.646 205.823 171.052 206.249C171.443 206.659 171.916 206.983 172.44 207.199C172.977 207.419 173.555 207.516 174.134 207.483L297.036 200.709C297.451 200.682 297.853 200.551 298.204 200.329C298.576 200.094 298.899 199.788 299.154 199.429C299.435 199.036 299.651 198.6 299.793 198.138C299.95 197.636 300.029 197.114 300.028 196.588V87.5882C300.028 87.0562 299.949 86.5273 299.793 86.0186C299.649 85.5411 299.434 85.0882 299.154 84.6753C298.899 84.2944 298.577 83.9628 298.204 83.6963C297.857 83.4489 297.457 83.2874 297.036 83.2249Z" fill="black"/>
<path d="M302.101 83.2249L179.2 66.328C178.632 66.2468 178.053 66.2962 177.506 66.4725C176.986 66.6441 176.512 66.9309 176.118 67.3115C175.71 67.7052 175.39 68.1801 175.177 68.7055C174.945 69.2851 174.827 69.9045 174.831 70.5291V202.923C174.829 203.556 174.947 204.184 175.177 204.774C175.392 205.322 175.711 205.823 176.117 206.249C176.509 206.659 176.982 206.983 177.506 207.199C178.042 207.419 178.621 207.516 179.2 207.483L302.101 200.709C302.516 200.682 302.918 200.551 303.27 200.329C303.642 200.094 303.965 199.788 304.219 199.429C304.501 199.036 304.717 198.6 304.859 198.138C305.015 197.636 305.094 197.114 305.094 196.588V87.5882C305.093 87.0562 305.014 86.5273 304.859 86.0186C304.715 85.5411 304.499 85.0882 304.219 84.6753C303.964 84.2944 303.642 83.9628 303.27 83.6963C302.923 83.4489 302.523 83.2874 302.101 83.2249Z" fill="#2563EB"/>
<path d="M301.574 189.07C301.908 189.365 302.219 189.685 302.503 190.029L342.238 185.965L346.224 177.111L360.361 181.385L354.827 197.744C354.38 199.066 353.516 200.207 352.366 200.995C351.216 201.784 349.841 202.178 348.448 202.118L303.049 200.172C302.092 201.598 300.724 202.7 299.127 203.329C297.529 203.958 295.778 204.086 294.106 203.695C292.434 203.304 290.921 202.414 289.768 201.141C288.614 199.869 287.875 198.275 287.649 196.572C287.423 194.869 287.72 193.137 288.501 191.607C289.282 190.077 290.51 188.822 292.022 188.007C293.534 187.193 295.257 186.858 296.964 187.048C298.67 187.238 300.278 187.943 301.574 189.07Z" fill="#FFB6B6"/>
<path d="M341.456 184.067C341.242 183.592 341.132 183.076 341.136 182.555C341.139 182.034 341.254 181.519 341.474 181.047L349.153 164.545C349.911 161.989 351.65 159.837 353.991 158.562C356.332 157.287 359.082 156.993 361.639 157.744C364.196 158.495 366.35 160.23 367.631 162.569C368.911 164.908 369.212 167.66 368.468 170.22L365.896 188.3C365.822 188.816 365.639 189.31 365.357 189.749C365.076 190.187 364.703 190.56 364.265 190.842C363.827 191.123 363.333 191.307 362.817 191.38C362.301 191.453 361.776 191.414 361.277 191.266L343.729 186.054C343.229 185.906 342.768 185.652 342.376 185.309C341.983 184.966 341.67 184.542 341.456 184.067Z" fill="#E7E7E7"/>
<path d="M528.367 409H287.123C286.955 409 286.794 408.933 286.675 408.814C286.557 408.695 286.49 408.534 286.49 408.366C286.49 408.198 286.557 408.037 286.675 407.918C286.794 407.799 286.955 407.732 287.123 407.732H528.367C528.535 407.732 528.696 407.799 528.814 407.918C528.933 408.037 529 408.198 529 408.366C529 408.534 528.933 408.695 528.814 408.814C528.696 408.933 528.535 409 528.367 409Z" fill="#CACACA"/>
</g>
<defs>
<clipPath id="clip0_331_754">
<rect width="529" height="409" fill="white"/>
</clipPath>
</defs>
</svg>
