<svg width="44" height="44" viewBox="0 0 44 44" fill="none" xmlns="http://www.w3.org/2000/svg">
<g id="basil:linkedin-outline">
<path id="Vector" fill-rule="evenodd" clip-rule="evenodd" d="M9.16667 2.29102C7.82953 2.29102 6.54717 2.82219 5.60167 3.76769C4.65617 4.71318 4.125 5.99555 4.125 7.33268C4.125 8.66982 4.65617 9.95218 5.60167 10.8977C6.54717 11.8432 7.82953 12.3743 9.16667 12.3743C10.5038 12.3743 11.7862 11.8432 12.7317 10.8977C13.6772 9.95218 14.2083 8.66982 14.2083 7.33268C14.2083 5.99555 13.6772 4.71318 12.7317 3.76769C11.7862 2.82219 10.5038 2.29102 9.16667 2.29102ZM6.875 7.33268C6.875 6.72489 7.11644 6.142 7.54621 5.71223C7.97598 5.28246 8.55888 5.04102 9.16667 5.04102C9.77445 5.04102 10.3573 5.28246 10.7871 5.71223C11.2169 6.142 11.4583 6.72489 11.4583 7.33268C11.4583 7.94047 11.2169 8.52336 10.7871 8.95314C10.3573 9.38291 9.77445 9.62435 9.16667 9.62435C8.55888 9.62435 7.97598 9.38291 7.54621 8.95314C7.11644 8.52336 6.875 7.94047 6.875 7.33268ZM4.125 14.666C4.125 14.3013 4.26987 13.9516 4.52773 13.6937C4.78559 13.4359 5.13533 13.291 5.5 13.291H12.8333C13.198 13.291 13.5477 13.4359 13.8056 13.6937C14.0635 13.9516 14.2083 14.3013 14.2083 14.666V38.4993C14.2083 38.864 14.0635 39.2138 13.8056 39.4716C13.5477 39.7295 13.198 39.8743 12.8333 39.8743H5.5C5.13533 39.8743 4.78559 39.7295 4.52773 39.4716C4.26987 39.2138 4.125 38.864 4.125 38.4993V14.666ZM6.875 16.041V37.1243H11.4583V16.041H6.875ZM16.9583 14.666C16.9583 14.3013 17.1032 13.9516 17.3611 13.6937C17.6189 13.4359 17.9687 13.291 18.3333 13.291H25.6667C26.0313 13.291 26.3811 13.4359 26.6389 13.6937C26.8968 13.9516 27.0417 14.3013 27.0417 14.666V15.4617L27.8392 15.1188C29.2142 14.5312 30.673 14.1631 32.1622 14.028C37.2497 13.566 41.7083 17.5627 41.7083 22.696V38.4993C41.7083 38.864 41.5635 39.2138 41.3056 39.4716C41.0477 39.7295 40.698 39.8743 40.3333 39.8743H33C32.6353 39.8743 32.2856 39.7295 32.0277 39.4716C31.7699 39.2138 31.625 38.864 31.625 38.4993V25.666C31.625 25.0582 31.3836 24.4753 30.9538 24.0456C30.524 23.6158 29.9411 23.3743 29.3333 23.3743C28.7255 23.3743 28.1427 23.6158 27.7129 24.0456C27.2831 24.4753 27.0417 25.0582 27.0417 25.666V38.4993C27.0417 38.864 26.8968 39.2138 26.6389 39.4716C26.3811 39.7295 26.0313 39.8743 25.6667 39.8743H18.3333C17.9687 39.8743 17.6189 39.7295 17.3611 39.4716C17.1032 39.2138 16.9583 38.864 16.9583 38.4993V14.666ZM19.7083 16.041V37.1243H24.2917V25.666C24.2917 24.3289 24.8228 23.0465 25.7683 22.101C26.7138 21.1555 27.9962 20.6243 29.3333 20.6243C30.6705 20.6243 31.9528 21.1555 32.8983 22.101C33.8438 23.0465 34.375 24.3289 34.375 25.666V37.1243H38.9583V22.696C38.9583 19.2053 35.9132 16.448 32.4133 16.767C31.211 16.8764 30.0332 17.1733 28.9227 17.647L26.2093 18.8112C26.0001 18.9011 25.7717 18.9376 25.5448 18.9174C25.318 18.8972 25.0997 18.821 24.9095 18.6956C24.7194 18.5701 24.5634 18.3995 24.4556 18.1988C24.3477 17.9982 24.2914 17.774 24.2917 17.5462V16.041H19.7083Z" fill="#2C3E50"/>
</g>
</svg>
