<svg width="377" height="75" viewBox="0 0 373 60" fill="none" xmlns="http://www.w3.org/2000/svg">
<path d="M21.7998 35.1876H31.9783V59.3616H21.7998V35.1876ZM27.0388 53.5239C23.2967 53.5239 19.804 52.8753 16.5609 51.578C13.3177 50.2807 10.4487 48.4596 7.95401 46.1145C5.50916 43.7196 3.58822 40.9005 2.19116 37.6574C0.794108 34.3643 0.0955808 30.7469 0.0955808 26.8052C0.0955808 22.8636 0.794108 19.2711 2.19116 16.028C3.58822 12.7349 5.50916 9.91586 7.95401 7.5708C10.4487 5.17585 13.3177 3.32974 16.5609 2.03248C19.804 0.735215 23.2967 0.086584 27.0388 0.086584C30.7809 0.086584 34.2735 0.735215 37.5167 2.03248C40.8097 3.32974 43.6787 5.17585 46.1235 7.5708C48.5684 9.91586 50.4893 12.7349 51.8864 16.028C53.2834 19.2711 53.9819 22.8636 53.9819 26.8052C53.9819 30.7469 53.2834 34.3643 51.8864 37.6574C50.4893 40.9005 48.5434 43.7196 46.0487 46.1145C43.6038 48.4596 40.7598 50.2807 37.5167 51.578C34.2735 52.8753 30.7809 53.5239 27.0388 53.5239ZM27.0388 42.3724C29.783 42.3724 32.1779 41.6988 34.2236 40.3517C36.2693 39.0045 37.8659 37.1584 39.0135 34.8134C40.1611 32.4683 40.7349 29.7989 40.7349 26.8052C40.7349 23.7617 40.1611 21.0923 39.0135 18.7971C37.8659 16.4521 36.2693 14.606 34.2236 13.2588C32.1779 11.9116 29.783 11.2381 27.0388 11.2381C24.2447 11.2381 21.8248 11.9116 19.7791 13.2588C17.7334 14.606 16.1368 16.4521 14.9892 18.7971C13.8915 21.0923 13.3426 23.7617 13.3426 26.8052C13.3426 29.7989 13.8915 32.4683 14.9892 34.8134C16.1368 37.1584 17.7334 39.0045 19.7791 40.3517C21.8248 41.6988 24.2447 42.3724 27.0388 42.3724ZM72.5284 2.64991V32.7739C72.5284 35.7863 73.2695 38.1054 74.7518 39.7311C76.2341 41.3568 78.4097 42.1697 81.2787 42.1697C84.1476 42.1697 86.3472 41.3568 87.8773 39.7311C89.4074 38.1054 90.1724 35.7863 90.1724 32.7739V2.64991H102.437V32.7022C102.437 37.1969 101.481 40.9982 99.5683 44.1063C97.6556 47.2143 95.0736 49.5573 91.8221 51.1352C88.6184 52.7131 85.0322 53.5021 81.0635 53.5021C77.0948 53.5021 73.5325 52.737 70.3767 51.2069C67.2686 49.629 64.8061 47.286 62.9891 44.178C61.1721 41.0221 60.2636 37.1969 60.2636 32.7022V2.64991H72.5284ZM141.532 27.1794C144.449 27.801 146.792 29.2594 148.561 31.5546C150.33 33.8019 151.215 36.384 151.215 39.3008C151.215 43.5086 149.733 46.8557 146.768 49.3421C143.851 51.7807 139.763 53 134.503 53H111.05V2.64991H133.714C138.831 2.64991 142.823 3.82139 145.692 6.16437C148.609 8.50735 150.067 11.6871 150.067 15.7036C150.067 18.6682 149.278 21.1307 147.701 23.0912C146.17 25.0516 144.114 26.4144 141.532 27.1794ZM123.314 23.0195H131.347C133.356 23.0195 134.886 22.5891 135.938 21.7284C137.038 20.8199 137.587 19.505 137.587 17.7836C137.587 16.0623 137.038 14.7473 135.938 13.8388C134.886 12.9303 133.356 12.4761 131.347 12.4761H123.314V23.0195ZM132.352 43.1021C134.408 43.1021 135.986 42.6479 137.085 41.7394C138.233 40.783 138.807 39.4203 138.807 37.6511C138.807 35.8819 138.209 34.4953 137.014 33.4911C135.866 32.487 134.264 31.9849 132.208 31.9849H123.314V43.1021H132.352ZM170.593 12.4761V22.6608H187.018V32.1284H170.593V43.1738H189.17V53H158.329V2.64991H189.17V12.4761H170.593Z" fill="url(#paint0_linear_404_1806)"/>
<path d="M237.05 53H233.823L204.272 7.95747V53H201.045V2.72163H204.272L233.823 47.6207V2.72163H237.05V53ZM259.284 5.37541V26.3905H279.367V29.116H259.284V50.2745H281.518V53H256.056V2.64991H281.518V5.37541H259.284ZM313.809 27.825L328.943 53H325.285L311.729 30.407L298.747 53H295.161L310.08 27.6098L295.089 2.64991H298.747L312.16 25.0277L325.357 2.64991H329.015L313.809 27.825ZM372.405 2.64991V5.37541H358.06V53H354.833V5.37541H340.488V2.64991H372.405Z" fill="#1E293B"/>
<defs>
<linearGradient id="paint0_linear_404_1806" x1="186.5" y1="-10" x2="186.5" y2="65" gradientUnits="userSpaceOnUse">
<stop offset="0.510417" stop-color="#2563EB"/>
<stop offset="1" stop-color="#1E40AF"/>
</linearGradient>
</defs>
</svg>
