<svg width="562" height="355" viewBox="0 0 562 355" fill="none" xmlns="http://www.w3.org/2000/svg">
<g clip-path="url(#clip0_331_1461)">
<path d="M494.881 324.66L495.428 312.359C501.134 309.31 507.498 307.7 513.968 307.668C505.063 314.945 506.176 328.971 500.139 338.757C496.278 344.91 489.826 348.973 482.607 349.8L475.156 354.36C473.086 342.83 476.172 330.972 483.6 321.911C485.684 319.419 488.073 317.2 490.712 315.305C492.496 320.009 494.881 324.66 494.881 324.66Z" fill="#F2F2F2"/>
<path d="M118.2 311.18L100.218 305.738C97.86 296.161 97.8761 286.154 100.265 276.585C107.67 292.479 128.828 296.118 141.023 308.721C148.666 316.743 152.244 327.803 150.747 338.779L154.683 351.504C136.856 350.218 120.486 341.193 109.886 326.808C106.987 322.792 104.606 318.426 102.798 313.815C110.425 312.95 118.2 311.18 118.2 311.18Z" fill="#F2F2F2"/>
<path d="M432.573 352.349C432.571 352.721 432.422 353.078 432.16 353.343C431.898 353.604 431.543 353.75 431.173 353.749H425.543C424.772 353.751 424.145 353.129 424.143 352.359V182.176C424.143 178.425 422.882 175.38 421.335 175.373H70.8844C69.33 175.38 68.0766 178.425 68.0696 182.176V351.306C68.0672 352.027 67.5196 352.628 66.8022 352.699C65.6678 352.811 64.5335 352.909 63.4061 353C63.3781 353 63.3501 353.007 63.3221 353.007C62.7059 353.063 62.0897 353.105 61.4735 353.154H61.4665C61.1444 352.573 60.8363 351.978 60.5212 351.383C60.4202 351.181 60.3675 350.958 60.3672 350.732V173.351C60.3672 172.315 60.4092 171.272 60.4792 170.243C60.5791 168.83 60.7544 167.424 61.0044 166.03C62.1877 159.528 64.8626 155.125 67.9015 155.111H424.311C424.754 155.114 425.193 155.207 425.599 155.384C426.196 155.648 426.736 156.026 427.189 156.497C427.803 157.135 428.328 157.853 428.75 158.632C430.248 161.27 431.32 165.204 431.698 169.781C431.698 169.823 431.705 169.865 431.705 169.907C431.803 171.041 431.852 172.196 431.845 173.351L431.943 188.349L432.006 197.294L432.195 225.36L432.265 235.326L432.573 352.349Z" fill="#E6E6E6"/>
<path d="M302.509 103.225H266.794C265.742 103.226 264.89 104.08 264.892 105.131V161.525H304.417V105.131C304.417 104.079 303.564 103.225 302.511 103.225H302.509ZM284.772 135.267C282.447 135.256 280.565 133.375 280.555 131.051V124.547C280.555 122.219 282.443 120.331 284.772 120.331C287.101 120.331 288.989 122.219 288.989 124.547V131.051C288.978 133.375 287.097 135.256 284.772 135.267Z" fill="#CCCCCC"/>
<path d="M264.769 159.722V165.163C264.77 165.749 265.246 166.225 265.833 166.226H303.475C304.062 166.223 304.536 165.749 304.539 165.163V159.722H264.769Z" fill="#3F3D56"/>
<path d="M361.65 15.2168H208.983C206.252 15.2211 204.039 17.4329 204.035 20.1625V123.136C204.037 125.866 206.251 128.079 208.983 128.082H361.65C364.381 128.079 366.595 125.866 366.598 123.136V20.1625C366.593 17.4329 364.381 15.2211 361.65 15.2168Z" fill="#E6E6E6"/>
<path d="M360.375 18.7891H210.258C208.796 18.7922 207.612 19.9779 207.612 21.4396V121.861C207.614 123.32 208.798 124.503 210.258 124.506H360.375C361.836 124.503 363.019 123.32 363.021 121.861V21.4395C363.021 19.9779 361.838 18.7922 360.375 18.7891Z" fill="white"/>
<path d="M331.135 168.119H241.824C240.916 168.119 240.181 167.384 240.181 166.477C240.181 166.363 240.192 166.25 240.216 166.139L241.602 159.56C241.764 158.801 242.433 158.259 243.209 158.256H329.75C330.525 158.259 331.195 158.801 331.357 159.56L332.743 166.139C332.93 167.026 332.361 167.897 331.474 168.084C331.362 168.107 331.249 168.119 331.135 168.119Z" fill="#CCCCCC"/>
<path d="M246.252 159.44H244.185C243.996 159.44 243.843 159.593 243.843 159.782V160.748C243.843 160.937 243.996 161.09 244.185 161.09H246.252C246.441 161.09 246.594 160.937 246.594 160.748V159.782C246.594 159.593 246.441 159.44 246.252 159.44Z" fill="#E6E6E6"/>
<path d="M251.754 159.44H249.687C249.498 159.44 249.345 159.593 249.345 159.782V160.748C249.345 160.937 249.498 161.09 249.687 161.09H251.754C251.942 161.09 252.095 160.937 252.095 160.748V159.782C252.095 159.593 251.942 159.44 251.754 159.44Z" fill="#E6E6E6"/>
<path d="M257.255 159.44H255.188C254.999 159.44 254.846 159.593 254.846 159.782V160.748C254.846 160.937 254.999 161.09 255.188 161.09H257.255C257.444 161.09 257.597 160.937 257.597 160.748V159.782C257.597 159.593 257.444 159.44 257.255 159.44Z" fill="#E6E6E6"/>
<path d="M262.757 159.44H260.689C260.501 159.44 260.348 159.593 260.348 159.782V160.748C260.348 160.937 260.501 161.09 260.689 161.09H262.757C262.945 161.09 263.098 160.937 263.098 160.748V159.782C263.098 159.593 262.945 159.44 262.757 159.44Z" fill="#E6E6E6"/>
<path d="M268.258 159.44H266.191C266.002 159.44 265.849 159.593 265.849 159.782V160.748C265.849 160.937 266.002 161.09 266.191 161.09H268.258C268.447 161.09 268.6 160.937 268.6 160.748V159.782C268.6 159.593 268.447 159.44 268.258 159.44Z" fill="#E6E6E6"/>
<path d="M273.759 159.44H271.692C271.504 159.44 271.351 159.593 271.351 159.782V160.748C271.351 160.937 271.504 161.09 271.692 161.09H273.759C273.948 161.09 274.101 160.937 274.101 160.748V159.782C274.101 159.593 273.948 159.44 273.759 159.44Z" fill="#E6E6E6"/>
<path d="M279.261 159.44H277.194C277.005 159.44 276.852 159.593 276.852 159.782V160.748C276.852 160.937 277.005 161.09 277.194 161.09H279.261C279.45 161.09 279.603 160.937 279.603 160.748V159.782C279.603 159.593 279.45 159.44 279.261 159.44Z" fill="#E6E6E6"/>
<path d="M284.762 159.44H282.695C282.507 159.44 282.354 159.593 282.354 159.782V160.748C282.354 160.937 282.507 161.09 282.695 161.09H284.762C284.951 161.09 285.104 160.937 285.104 160.748V159.782C285.104 159.593 284.951 159.44 284.762 159.44Z" fill="#E6E6E6"/>
<path d="M290.263 159.44H288.196C288.008 159.44 287.854 159.593 287.854 159.782V160.748C287.854 160.937 288.008 161.09 288.196 161.09H290.263C290.452 161.09 290.605 160.937 290.605 160.748V159.782C290.605 159.593 290.452 159.44 290.263 159.44Z" fill="#E6E6E6"/>
<path d="M295.765 159.44H293.698C293.509 159.44 293.356 159.593 293.356 159.782V160.748C293.356 160.937 293.509 161.09 293.698 161.09H295.765C295.954 161.09 296.107 160.937 296.107 160.748V159.782C296.107 159.593 295.954 159.44 295.765 159.44Z" fill="#E6E6E6"/>
<path d="M301.266 159.44H299.199C299.01 159.44 298.857 159.593 298.857 159.782V160.748C298.857 160.937 299.01 161.09 299.199 161.09H301.266C301.455 161.09 301.608 160.937 301.608 160.748V159.782C301.608 159.593 301.455 159.44 301.266 159.44Z" fill="#E6E6E6"/>
<path d="M306.768 159.44H304.701C304.512 159.44 304.359 159.593 304.359 159.782V160.748C304.359 160.937 304.512 161.09 304.701 161.09H306.768C306.957 161.09 307.11 160.937 307.11 160.748V159.782C307.11 159.593 306.957 159.44 306.768 159.44Z" fill="#E6E6E6"/>
<path d="M312.269 159.44H310.202C310.013 159.44 309.86 159.593 309.86 159.782V160.748C309.86 160.937 310.013 161.09 310.202 161.09H312.269C312.458 161.09 312.611 160.937 312.611 160.748V159.782C312.611 159.593 312.458 159.44 312.269 159.44Z" fill="#E6E6E6"/>
<path d="M317.771 159.44H315.704C315.515 159.44 315.362 159.593 315.362 159.782V160.748C315.362 160.937 315.515 161.09 315.704 161.09H317.771C317.959 161.09 318.113 160.937 318.113 160.748V159.782C318.113 159.593 317.959 159.44 317.771 159.44Z" fill="#E6E6E6"/>
<path d="M323.272 159.44H321.205C321.016 159.44 320.863 159.593 320.863 159.782V160.748C320.863 160.937 321.016 161.09 321.205 161.09H323.272C323.461 161.09 323.614 160.937 323.614 160.748V159.782C323.614 159.593 323.461 159.44 323.272 159.44Z" fill="#E6E6E6"/>
<path d="M328.774 159.44H326.707C326.518 159.44 326.365 159.593 326.365 159.782V160.748C326.365 160.937 326.518 161.09 326.707 161.09H328.774C328.962 161.09 329.115 160.937 329.115 160.748V159.782C329.115 159.593 328.962 159.44 328.774 159.44Z" fill="#E6E6E6"/>
<path d="M246.187 162.19H244.12C243.931 162.19 243.778 162.343 243.778 162.532V163.498C243.778 163.687 243.931 163.84 244.12 163.84H246.187C246.376 163.84 246.529 163.687 246.529 163.498V162.532C246.529 162.343 246.376 162.19 246.187 162.19Z" fill="#E6E6E6"/>
<path d="M251.689 162.19H249.622C249.433 162.19 249.28 162.343 249.28 162.532V163.498C249.28 163.687 249.433 163.84 249.622 163.84H251.689C251.877 163.84 252.03 163.687 252.03 163.498V162.532C252.03 162.343 251.877 162.19 251.689 162.19Z" fill="#E6E6E6"/>
<path d="M257.19 162.19H255.123C254.934 162.19 254.781 162.343 254.781 162.532V163.498C254.781 163.687 254.934 163.84 255.123 163.84H257.19C257.379 163.84 257.532 163.687 257.532 163.498V162.532C257.532 162.343 257.379 162.19 257.19 162.19Z" fill="#E6E6E6"/>
<path d="M262.692 162.19H260.625C260.436 162.19 260.283 162.343 260.283 162.532V163.498C260.283 163.687 260.436 163.84 260.625 163.84H262.692C262.88 163.84 263.033 163.687 263.033 163.498V162.532C263.033 162.343 262.88 162.19 262.692 162.19Z" fill="#E6E6E6"/>
<path d="M268.193 162.19H266.126C265.937 162.19 265.784 162.343 265.784 162.532V163.498C265.784 163.687 265.937 163.84 266.126 163.84H268.193C268.382 163.84 268.535 163.687 268.535 163.498V162.532C268.535 162.343 268.382 162.19 268.193 162.19Z" fill="#E6E6E6"/>
<path d="M273.694 162.19H271.627C271.438 162.19 271.285 162.343 271.285 162.532V163.498C271.285 163.687 271.438 163.84 271.627 163.84H273.694C273.883 163.84 274.036 163.687 274.036 163.498V162.532C274.036 162.343 273.883 162.19 273.694 162.19Z" fill="#E6E6E6"/>
<path d="M279.196 162.19H277.128C276.94 162.19 276.787 162.343 276.787 162.532V163.498C276.787 163.687 276.94 163.84 277.128 163.84H279.196C279.384 163.84 279.537 163.687 279.537 163.498V162.532C279.537 162.343 279.384 162.19 279.196 162.19Z" fill="#E6E6E6"/>
<path d="M284.697 162.19H282.63C282.441 162.19 282.288 162.343 282.288 162.532V163.498C282.288 163.687 282.441 163.84 282.63 163.84H284.697C284.886 163.84 285.039 163.687 285.039 163.498V162.532C285.039 162.343 284.886 162.19 284.697 162.19Z" fill="#E6E6E6"/>
<path d="M290.198 162.19H288.131C287.943 162.19 287.79 162.343 287.79 162.532V163.498C287.79 163.687 287.943 163.84 288.131 163.84H290.198C290.387 163.84 290.54 163.687 290.54 163.498V162.532C290.54 162.343 290.387 162.19 290.198 162.19Z" fill="#E6E6E6"/>
<path d="M295.7 162.19H293.633C293.444 162.19 293.291 162.343 293.291 162.532V163.498C293.291 163.687 293.444 163.84 293.633 163.84H295.7C295.889 163.84 296.042 163.687 296.042 163.498V162.532C296.042 162.343 295.889 162.19 295.7 162.19Z" fill="#E6E6E6"/>
<path d="M301.201 162.19H299.134C298.946 162.19 298.792 162.343 298.792 162.532V163.498C298.792 163.687 298.946 163.84 299.134 163.84H301.201C301.39 163.84 301.543 163.687 301.543 163.498V162.532C301.543 162.343 301.39 162.19 301.201 162.19Z" fill="#E6E6E6"/>
<path d="M306.703 162.19H304.636C304.447 162.19 304.294 162.343 304.294 162.532V163.498C304.294 163.687 304.447 163.84 304.636 163.84H306.703C306.892 163.84 307.045 163.687 307.045 163.498V162.532C307.045 162.343 306.892 162.19 306.703 162.19Z" fill="#E6E6E6"/>
<path d="M312.204 162.19H310.137C309.948 162.19 309.795 162.343 309.795 162.532V163.498C309.795 163.687 309.948 163.84 310.137 163.84H312.204C312.393 163.84 312.546 163.687 312.546 163.498V162.532C312.546 162.343 312.393 162.19 312.204 162.19Z" fill="#E6E6E6"/>
<path d="M317.706 162.19H315.639C315.45 162.19 315.297 162.343 315.297 162.532V163.498C315.297 163.687 315.45 163.84 315.639 163.84H317.706C317.895 163.84 318.048 163.687 318.048 163.498V162.532C318.048 162.343 317.895 162.19 317.706 162.19Z" fill="#E6E6E6"/>
<path d="M323.207 162.19H321.14C320.951 162.19 320.798 162.343 320.798 162.532V163.498C320.798 163.687 320.951 163.84 321.14 163.84H323.207C323.396 163.84 323.549 163.687 323.549 163.498V162.532C323.549 162.343 323.396 162.19 323.207 162.19Z" fill="#E6E6E6"/>
<path d="M328.709 162.19H326.642C326.453 162.19 326.3 162.343 326.3 162.532V163.498C326.3 163.687 326.453 163.84 326.642 163.84H328.709C328.897 163.84 329.051 163.687 329.051 163.498V162.532C329.051 162.343 328.897 162.19 328.709 162.19Z" fill="#E6E6E6"/>
<path d="M291.849 165.489H270.527C270.338 165.489 270.185 165.642 270.185 165.831V166.797C270.185 166.986 270.338 167.139 270.527 167.139H291.849C292.038 167.139 292.191 166.986 292.191 166.797V165.831C292.191 165.642 292.038 165.489 291.849 165.489Z" fill="#E6E6E6"/>
<path d="M352.829 32.6255H212.365C212.057 32.6187 211.812 32.3632 211.819 32.0548C211.826 31.756 212.066 31.5154 212.365 31.5088H352.829C353.138 31.5156 353.382 31.771 353.376 32.0794C353.369 32.3782 353.128 32.6189 352.829 32.6255Z" fill="#CACACA"/>
<path d="M221.927 28.6578C223.735 28.6578 225.2 27.1602 225.2 25.3128C225.2 23.4654 223.735 21.9678 221.927 21.9678C220.119 21.9678 218.653 23.4654 218.653 25.3128C218.653 27.1602 220.119 28.6578 221.927 28.6578Z" fill="#CCCCCC"/>
<path d="M233.235 28.6578C235.043 28.6578 236.509 27.1602 236.509 25.3128C236.509 23.4654 235.043 21.9678 233.235 21.9678C231.428 21.9678 229.962 23.4654 229.962 25.3128C229.962 27.1602 231.428 28.6578 233.235 28.6578Z" fill="#CCCCCC"/>
<path d="M244.544 28.6578C246.352 28.6578 247.818 27.1602 247.818 25.3128C247.818 23.4654 246.352 21.9678 244.544 21.9678C242.736 21.9678 241.271 23.4654 241.271 25.3128C241.271 27.1602 242.736 28.6578 244.544 28.6578Z" fill="#CCCCCC"/>
<path d="M282.453 41.0906L282 39.7657L340.018 9.63379L340.471 10.9587L282.453 41.0906Z" fill="#3F3D56"/>
<path d="M457.507 96.9019L457.053 95.577L491.965 65.5977L492.418 66.9219L457.507 96.9019Z" fill="#3F3D56"/>
<path d="M390.433 103.881L332.415 73.7487L332.869 72.4238L390.886 102.556L390.433 103.881Z" fill="#3F3D56"/>
<path d="M420.133 82.913L386.12 27.0991L387.195 26.2012L421.207 82.015L420.133 82.913Z" fill="#3F3D56"/>
<path d="M446.677 10.1862L413.552 10.0336V8.63379L446.677 8.78637V10.1862Z" fill="#3F3D56"/>
<path d="M506.683 18.8692H469.572C464.544 18.8692 460.469 14.7956 460.469 9.77051C460.469 4.74548 464.544 0.671875 469.572 0.671875H506.683C511.71 0.671875 515.786 4.74548 515.786 9.77051C515.786 14.7956 511.71 18.8692 506.683 18.8692Z" fill="#6C63FF"/>
<path d="M552.897 72.0606H515.786C510.759 72.0606 506.683 67.987 506.683 62.9619C506.683 57.9369 510.759 53.8633 515.786 53.8633H552.897C557.925 53.8633 562 57.9369 562 62.9619C562 67.987 557.925 72.0606 552.897 72.0606Z" fill="#6C63FF"/>
<path d="M492.891 109.571L459.766 109.419V108.02L492.891 108.171V109.571Z" fill="#3F3D56"/>
<path d="M552.897 118.254H515.786C510.759 118.254 506.683 114.18 506.683 109.155C506.683 104.13 510.759 100.057 515.786 100.057H552.897C557.925 100.057 562 104.13 562 109.155C562 114.18 557.925 118.254 552.897 118.254Z" fill="#6C63FF"/>
<path d="M444.364 111.983H407.253C402.225 111.983 398.15 107.91 398.15 102.885C398.15 97.8597 402.225 93.7861 407.253 93.7861H444.364C449.391 93.7861 453.467 97.8597 453.467 102.885C453.467 107.91 449.391 111.983 444.364 111.983Z" fill="#6C63FF"/>
<path d="M393.949 18.1973H356.837C351.81 18.1973 347.734 14.1237 347.734 9.09864C347.734 4.0736 351.81 0 356.837 0H393.949C398.976 0 403.051 4.0736 403.051 9.09864C403.051 14.1237 398.976 18.1973 393.949 18.1973Z" fill="#6C63FF"/>
<path d="M246.269 174.4H204.256C201.162 174.4 198.654 176.907 198.654 180C198.654 183.092 201.162 185.599 204.256 185.599H219.661V228.992H230.864V185.599H246.269C249.363 185.599 251.871 183.092 251.871 180C251.871 176.907 249.363 174.4 246.269 174.4Z" fill="#3F3D56"/>
<path d="M273.998 253.024H161.626C139.108 252.942 120.056 236.367 116.87 214.085L112.893 199.46C104.66 169.155 92.1191 140.186 75.6543 113.441C68.1289 101.225 64.2556 89.4005 73.0532 78.0157C73.128 77.9188 73.2017 77.8232 73.2741 77.729C80.3303 68.549 115.451 66.5617 126.9 66.1752C127.353 66.1598 127.807 66.1522 128.263 66.1523H198.157C198.613 66.1523 199.067 66.16 199.519 66.1752C212.094 66.5416 223.452 73.7781 229.093 85.0171C235.113 96.4917 234.345 110.343 227.094 121.083C202.542 157.947 195.025 181.062 202.72 196.031C210.165 210.51 232.984 217.913 274.533 219.327C285.699 219.707 290.824 228.398 290.86 236.311C290.895 244.02 285.968 252.532 275.068 253.002C274.714 253.017 274.357 253.024 273.998 253.024Z" fill="#3F3D56"/>
<path d="M180.715 352.759H222.728C225.822 352.759 228.33 350.253 228.33 347.16C228.33 344.068 225.822 341.561 222.728 341.561H207.324V247.075H196.12V341.561H180.715C177.622 341.561 175.114 344.068 175.114 347.16C175.114 350.253 177.622 352.759 180.715 352.759Z" fill="#3F3D56"/>
<path d="M218.741 314.667L225.978 318.596L245.137 292.118L234.455 286.318L218.741 314.667Z" fill="#A0616A"/>
<path d="M222.225 305.232L235.364 309.345L233.272 314.847L242.282 327.917C243.435 329.589 243.013 331.878 241.341 333.03C240.345 333.716 239.077 333.869 237.947 333.44L222.651 327.631L222.084 321.188L218.986 326.239L213.219 324.049L222.225 305.232Z" fill="#2F2E41"/>
<path d="M237.027 47.6458C237.676 52.0883 234.598 56.2149 230.154 56.8629C229.68 56.932 229.201 56.9591 228.722 56.9439L200.818 116.292L192.066 104.093L220.791 47.9744C221.233 43.4822 225.234 40.1982 229.728 40.6393C233.489 41.0084 236.506 43.9051 237.027 47.6458Z" fill="#A0616A"/>
<path d="M144.424 128.291C144.424 128.291 143.676 138.659 155.407 140.693C167.138 142.726 198.498 122.905 203.648 119.861C208.798 116.818 218.396 78.5252 218.396 78.5252L210.049 64.4141C199.744 77.444 191.651 89.4591 191.16 97.988L144.424 128.291Z" fill="white"/>
<path d="M157.967 164.005L160.5 174.885C160.5 174.885 160.525 184.918 162.303 186.768C164.068 188.609 202.884 184.912 202.884 184.912C202.884 184.912 198.769 168.745 198.823 156.512L157.967 164.005Z" fill="#A0616A"/>
<path d="M239.967 303.18L225.962 295.481C225.696 277.267 236.657 252.617 249.657 226.799C220.582 231.797 193.153 233.398 169.427 227.352C161.323 225.213 156.438 216.965 158.46 208.834C158.552 208.451 158.659 208.071 158.78 207.695C161.62 199.036 155.253 193.608 161.109 184.084C176.511 178.826 191.143 177.341 204.522 181.984L212.906 200.511L254.458 195.137C262.86 194.133 270.486 200.127 271.491 208.525C271.495 208.564 271.5 208.602 271.504 208.64C271.56 209.091 271.596 209.544 271.613 209.998C263.211 249.369 253.79 284.795 239.967 303.18Z" fill="#2F2E41"/>
<path d="M152.326 95.1184L168.334 94.1737C169.717 94.092 171.001 94.8967 171.529 96.1776L176.053 107.139L194.854 122.671C194.854 122.671 202.298 132.139 202.315 144.367C202.332 156.595 204.956 184.898 204.956 184.898C204.956 184.898 194.092 169.613 187.387 173.679C186.246 174.37 185.845 175.785 184.65 176.499C184.054 176.856 182.677 176.509 182.075 176.867C172.835 182.349 163.199 187.705 162.298 186.766C160.53 184.922 158.386 175.5 158.386 175.5L143.733 121.687C142.125 115.954 143.165 109.802 146.568 104.916C147.592 103.475 148.665 102.404 149.661 102.226C151.899 101.75 150.709 96.7364 152.326 95.1184Z" fill="white"/>
<path d="M288.496 337.461L295.253 332.766L279.946 303.899L269.974 310.83L288.496 337.461Z" fill="#A0616A"/>
<path d="M289.517 318.093L278.928 327.554C262.089 308.8 249.36 282.498 238.572 252.629C210.307 244.354 188.992 231.01 170.384 215.166C164.071 209.827 159.339 202.967 164.723 196.464C164.974 196.16 165.237 195.866 165.511 195.582C171.868 189.052 187.988 190.296 197.43 184.313L218.522 206.848L217.195 212.889L256.811 226.302C264.786 229.096 268.985 237.823 266.19 245.794C266.177 245.833 266.163 245.872 266.149 245.911C266 246.341 265.834 246.763 265.649 247.179L289.517 318.093Z" fill="#2F2E41"/>
<path d="M284.557 335.558L295.373 327.044L298.734 331.877L314.614 331.828C316.645 331.822 318.297 333.463 318.303 335.493C318.307 336.701 317.717 337.834 316.724 338.523L303.289 347.858L297.649 344.687L300.07 350.096L295.004 353.615L284.557 335.558Z" fill="#2F2E41"/>
<path d="M175.964 230.736C171.83 228.982 169.901 224.21 171.656 220.077C171.843 219.637 172.068 219.214 172.33 218.813L136.091 164.15L151.066 163.012L184.118 216.698C187.729 219.409 188.458 224.532 185.746 228.141C183.477 231.162 179.433 232.234 175.964 230.736Z" fill="#A0616A"/>
<path d="M155.128 109.751C155.128 109.751 146.653 103.726 138.821 112.689C130.989 121.652 131.643 158.733 131.569 164.712C131.546 166.585 134.251 170.625 137.978 175.293C139.651 177.388 141.531 179.609 143.461 181.818C144.579 183.096 143.616 185.756 144.738 186.998C145.854 188.233 149.054 188.051 150.115 189.197C155.153 194.639 159.245 198.782 159.245 198.782L175.644 198.983C175.829 186.798 167.481 175.921 156.755 165.409L155.128 109.751Z" fill="white"/>
<path d="M138.598 56.6967C137.045 57.8168 135.412 58.9708 133.517 59.2483C131.623 59.5259 129.405 58.6105 128.881 56.7697C128.239 54.5191 130.273 52.4698 132.1 51.0071L137.895 46.3689C138.956 45.4281 140.154 44.6539 141.448 44.0727C142.764 43.4938 144.273 43.5442 145.547 44.2097C146.814 45.0645 147.546 46.5145 147.482 48.0406C147.399 49.5448 146.903 50.997 146.047 52.237C143.873 55.6236 140.411 57.9764 136.46 58.7507" fill="#2F2E41"/>
<path d="M182.549 177.199H140.536C137.443 177.199 134.935 179.706 134.935 182.798C134.935 185.891 137.443 188.398 140.536 188.398H155.941V231.791H167.144V188.398H182.549C185.643 188.398 188.151 185.891 188.151 182.798C188.151 179.706 185.643 177.199 182.549 177.199Z" fill="#3F3D56"/>
<path d="M141.172 44.9498C141.341 40.7517 136.865 37.4276 132.671 37.6904C128.478 37.9531 124.872 40.9018 122.494 44.3658C120.116 47.8269 118.688 51.8358 116.815 55.5937C114.942 59.3516 112.447 63.031 108.725 64.9784C105.004 66.9229 99.8234 66.576 97.2512 63.256C95.629 65.7148 95.2762 68.7991 96.3013 71.5605C97.3543 74.2861 99.3181 76.5638 101.86 78.0071C102.871 78.6068 103.952 79.0817 105.078 79.4216C105.542 78.1691 106.195 76.9948 107.015 75.9397C106.645 77.1888 106.503 78.4945 106.598 79.7938C108.333 80.1263 110.119 80.0982 111.843 79.7112C115.275 78.9437 118.146 76.6041 119.588 73.3973C121.161 69.6754 120.36 65.4319 120.696 61.4059C121.03 57.3791 123.458 52.7822 127.5 52.7166C130.578 52.666 130.171 52.9196 132.121 55.3004" fill="#2F2E41"/>
<path d="M169.125 67.0098C169.125 77.0599 160.974 85.2071 150.919 85.2071C140.865 85.2071 131.313 73.5604 131.313 63.5103C131.313 53.4602 140.865 48.8125 150.919 48.8125C160.974 48.8125 169.125 56.9597 169.125 67.0098Z" fill="#2F2E41"/>
<path d="M159.891 88.8161C169.289 86.894 175.349 77.7209 173.426 68.3273C171.503 58.9337 162.325 52.8769 152.927 54.799C143.53 56.7211 137.47 65.8943 139.393 75.2878C141.316 84.6814 150.493 90.7382 159.891 88.8161Z" fill="#A0616A"/>
<path d="M178.228 69.109C173.086 70.5123 167.895 71.9833 165.89 69.109C165.5 67.2032 164.762 65.3857 163.712 63.7478C163.515 65.582 163.084 67.3836 162.431 69.109C155.935 70.5203 149.864 70.8577 144.617 69.109C143.896 70.4131 143.477 71.8626 143.392 73.3504C143.133 73.1875 142.861 73.0448 142.58 72.9234C142.242 72.7328 141.839 72.6971 141.474 72.8255C141.221 72.9781 141.053 73.239 141.018 73.5324C140.984 73.8243 140.998 74.12 141.06 74.4072C141.134 75.4083 141.433 76.3798 141.936 77.2488C142.338 77.854 142.975 78.2628 143.693 78.3756C144.421 82.47 150.219 88.0062 150.219 88.0062C132.714 88.7061 132.714 76.8359 132.714 65.6095L134.815 61.4102H141.817V52.3115H161.423C170.703 52.3139 178.225 59.833 178.228 69.109Z" fill="#2F2E41"/>
<path d="M308.057 354.785L0.838084 355C0.37763 355.002 0.00241332 354.631 1.15855e-05 354.171C-0.00239015 353.711 0.368934 353.336 0.829388 353.333H0.838084L308.057 353.118C308.518 353.12 308.89 353.494 308.888 353.954C308.887 354.412 308.516 354.783 308.057 354.785Z" fill="#CACACA"/>
<path d="M513.22 354.785L354.446 355C353.986 355.002 353.611 354.631 353.608 354.171C353.606 353.711 353.977 353.336 354.438 353.333H354.446L513.22 353.118C513.681 353.117 514.055 353.489 514.057 353.949C514.058 354.409 513.686 354.783 513.226 354.785H513.22Z" fill="#CACACA"/>
<path d="M315.078 103.584H254.893C249.665 103.578 245.429 99.3441 245.423 94.1192V54.258C245.429 49.033 249.665 44.7988 254.893 44.793H315.078C320.306 44.7988 324.542 49.033 324.548 54.258V94.1192C324.542 99.3441 320.306 103.578 315.078 103.584ZM254.893 46.1927C250.438 46.1978 246.829 49.8058 246.824 54.258V94.1192C246.829 98.5714 250.438 102.179 254.893 102.184H315.078C319.532 102.179 323.142 98.5714 323.147 94.1192V54.258C323.142 49.8058 319.532 46.1978 315.078 46.1928L254.893 46.1927Z" fill="#E6E6E6"/>
<path d="M272.726 57.3916H256.627V58.7914H272.726V57.3916Z" fill="#E6E6E6"/>
<path d="M292.338 62.9902H256.627V64.39H292.338V62.9902Z" fill="#E6E6E6"/>
<path d="M292.338 67.8896H256.627V69.2894H292.338V67.8896Z" fill="#E6E6E6"/>
<path d="M302.141 72.7891H256.627V74.1889H302.141V72.7891Z" fill="#E6E6E6"/>
<path d="M280.434 77.6885H256.627V79.0883H280.434V77.6885Z" fill="#E6E6E6"/>
<path d="M300.04 82.5879H256.627V83.9877H300.04V82.5879Z" fill="#E6E6E6"/>
<path d="M264.329 87.4873H256.627V88.8871H264.329V87.4873Z" fill="#E6E6E6"/>
<path d="M256.103 27.2668C256.035 27.2668 255.967 27.2405 255.915 27.1881L254.421 25.6615C254.322 25.5597 254.322 25.3972 254.421 25.2955L255.915 23.769C256.017 23.6658 256.183 23.6641 256.286 23.7649C256.389 23.866 256.391 24.0318 256.29 24.135L254.975 25.4785L256.29 26.8221C256.391 26.9253 256.389 27.0911 256.286 27.1922C256.235 27.242 256.169 27.2668 256.103 27.2668Z" fill="#CCCCCC"/>
<path d="M258.613 27.267C258.547 27.267 258.481 27.2422 258.43 27.1923C258.327 27.0913 258.325 26.9256 258.426 26.8223L259.741 25.4787L258.426 24.1352C258.325 24.032 258.327 23.8662 258.43 23.7651C258.534 23.6639 258.699 23.6658 258.801 23.7692L260.294 25.2957C260.394 25.3974 260.394 25.5599 260.294 25.6617L258.801 27.1883C258.749 27.2406 258.681 27.267 258.613 27.267Z" fill="#CCCCCC"/>
<path d="M336.773 23.4775H333.995C333.678 23.4775 333.422 23.734 333.422 24.0507V26.8301C333.422 27.1468 333.678 27.4033 333.995 27.4033H336.773C337.09 27.4033 337.349 27.1468 337.349 26.8301V24.0507C337.349 23.734 337.09 23.4775 336.773 23.4775Z" fill="#CCCCCC"/>
<path d="M329.966 23.4775H327.188C326.871 23.4775 326.614 23.734 326.614 24.0507V26.8301C326.614 27.1468 326.871 27.4033 327.188 27.4033H329.966C330.283 27.4033 330.542 27.1468 330.542 26.8301V24.0507C330.542 23.734 330.283 23.4775 329.966 23.4775Z" fill="#CCCCCC"/>
<path d="M343.188 23.6084H340.41C340.093 23.6084 339.837 23.8649 339.837 24.1816V26.961C339.837 27.2777 340.093 27.5341 340.41 27.5341H343.188C343.505 27.5341 343.764 27.2777 343.764 26.961V24.1816C343.764 23.8649 343.505 23.6084 343.188 23.6084Z" fill="#CCCCCC"/>
<path d="M301.315 24.666H279.109C278.722 24.666 278.41 24.9801 278.41 25.3648C278.41 25.7495 278.722 26.0636 279.109 26.0636H301.315C301.7 26.0636 302.015 25.7495 302.015 25.3648C302.015 24.9801 301.7 24.666 301.315 24.666Z" fill="#CCCCCC"/>
</g>
<defs>
<clipPath id="clip0_331_1461">
<rect width="562" height="355" fill="white"/>
</clipPath>
</defs>
</svg>
