<svg width="591" height="514" viewBox="0 0 591 514" fill="none" xmlns="http://www.w3.org/2000/svg">
<g clip-path="url(#clip0_331_1799)">
<path d="M190.64 492.829C190.079 492.855 189.523 492.708 189.047 492.408C188.572 492.107 188.201 491.668 187.984 491.15C187.767 490.632 187.715 490.06 187.835 489.511C187.954 488.963 188.24 488.464 188.653 488.083C188.722 487.809 188.771 487.611 188.841 487.337C188.816 487.277 188.791 487.218 188.766 487.158C188.2 485.823 187.252 484.685 186.04 483.887C184.829 483.089 183.408 482.666 181.956 482.671C180.505 482.676 179.087 483.11 177.881 483.917C176.676 484.724 175.736 485.869 175.18 487.208C172.958 492.552 170.129 497.905 169.432 503.554C169.126 506.052 169.255 508.583 169.815 511.037C164.596 499.669 161.886 487.315 161.868 474.81C161.867 471.672 162.042 468.537 162.391 465.418C162.68 462.862 163.081 460.324 163.594 457.803C166.391 444.13 172.397 431.314 181.118 420.408C185.339 418.108 188.752 414.572 190.899 410.276C191.676 408.731 192.226 407.082 192.53 405.381C192.054 405.443 191.57 405.482 191.094 405.513C190.946 405.521 190.789 405.529 190.641 405.537L190.585 405.539C190.062 405.563 189.543 405.435 189.091 405.17C188.639 404.906 188.273 404.517 188.037 404.05C187.801 403.583 187.706 403.058 187.762 402.538C187.818 402.018 188.023 401.525 188.353 401.119C188.559 400.866 188.765 400.614 188.971 400.362C189.283 399.972 189.603 399.59 189.915 399.2C189.951 399.163 189.985 399.124 190.017 399.083C190.376 398.639 190.735 398.203 191.094 397.758C190.438 396.743 189.557 395.892 188.518 395.272C184.919 393.168 179.955 394.625 177.355 397.875C174.748 401.125 174.256 405.685 175.162 409.746C176.052 413.201 177.525 416.48 179.518 419.441C179.322 419.691 179.119 419.932 178.924 420.182C175.357 424.762 172.248 429.68 169.641 434.866C170.275 429.056 169.519 423.179 167.434 417.719C165.321 412.63 161.361 408.344 157.874 403.944C153.685 398.66 145.095 400.966 144.357 407.665C144.35 407.73 144.343 407.795 144.336 407.859C144.854 408.151 145.361 408.461 145.857 408.788C146.481 409.204 146.964 409.798 147.243 410.493C147.522 411.187 147.585 411.95 147.423 412.68C147.261 413.411 146.881 414.076 146.334 414.588C145.787 415.099 145.098 415.434 144.357 415.548L144.282 415.56C144.466 417.424 144.792 419.271 145.257 421.086C146.605 426.152 148.986 430.885 152.251 434.989C155.517 439.093 159.596 442.479 164.234 444.936C164.538 445.091 164.835 445.247 165.139 445.395C162.52 452.805 160.878 460.524 160.253 468.357C159.899 472.978 159.919 477.62 160.315 482.238L160.292 482.074C159.292 476.939 156.549 472.306 152.525 468.957C146.548 464.054 138.103 462.249 131.655 458.308C130.97 457.869 130.173 457.635 129.358 457.633C128.544 457.631 127.746 457.861 127.059 458.297C126.371 458.733 125.823 459.356 125.479 460.093C125.134 460.83 125.008 461.65 125.115 462.456C125.124 462.513 125.132 462.571 125.141 462.628C126.103 463.019 127.039 463.469 127.944 463.976C128.462 464.268 128.969 464.578 129.465 464.905C130.088 465.321 130.571 465.915 130.85 466.61C131.13 467.304 131.192 468.067 131.03 468.797C130.868 469.528 130.489 470.193 129.942 470.705C129.395 471.216 128.706 471.551 127.965 471.665L127.889 471.677C127.834 471.685 127.788 471.692 127.733 471.7C129.375 475.616 131.681 479.22 134.548 482.355C138.089 486.149 142.37 489.181 147.127 491.265C151.884 493.349 157.017 494.441 162.212 494.474H162.22C163.63 500.593 165.673 506.548 168.316 512.245H190.095C190.173 512.003 190.243 511.754 190.313 511.512C188.297 511.639 186.274 511.518 184.287 511.154C185.903 509.174 187.519 507.179 189.135 505.199C189.171 505.162 189.204 505.123 189.236 505.082C190.056 504.069 190.883 503.063 191.703 502.05L191.703 502.049C191.747 498.943 191.389 495.844 190.64 492.829Z" fill="#F2F2F2"/>
<path d="M263.627 74.6836C263.627 89.3337 256.287 104.241 241.615 104.241C226.942 104.241 206.698 93.6309 211.252 70.8941C214.13 56.5285 222.388 48.1572 237.06 48.1572C244.106 48.1572 250.864 50.952 255.846 55.9266C260.828 60.9013 263.627 67.6483 263.627 74.6836Z" fill="#1E293B"/>
<path d="M202.078 283.995C202.878 283.11 203.473 282.06 203.823 280.92C204.172 279.779 204.266 278.577 204.1 277.396C203.933 276.215 203.509 275.086 202.858 274.086C202.207 273.087 201.344 272.242 200.33 271.612L206.753 243.348L192.636 248.651L188.701 274.678C187.753 276.449 187.488 278.505 187.957 280.457C188.426 282.409 189.596 284.121 191.245 285.27C192.894 286.418 194.908 286.923 196.904 286.688C198.901 286.453 200.742 285.495 202.078 283.995Z" fill="#FFB8B8"/>
<path d="M232.045 183.813L222.191 184.815C222.191 184.815 224.768 199.39 220.738 202.672C216.708 205.955 218.332 205.94 218.356 208.373C218.379 210.806 216.794 214.877 213.568 217.341C210.342 219.805 203.634 263.69 203.634 263.69L189.013 263.83C189.45 260.056 189.413 256.242 188.904 252.476C188.038 246.807 183.656 232.526 185.257 230.078C186.858 227.629 186.015 223.126 185.968 218.26C185.922 213.394 192.893 218.771 192.815 210.661C192.737 202.551 201.68 151.661 200.797 144.37C199.915 137.078 208.787 130.505 208.787 130.505L216.91 130.427L232.045 183.813Z" fill="#FAFAFA"/>
<path d="M336.651 115.372C336.897 116.474 336.898 117.618 336.653 118.721C336.409 119.824 335.925 120.86 335.236 121.756C334.547 122.652 333.67 123.386 332.666 123.907C331.662 124.428 330.556 124.723 329.425 124.771L321.521 151.073L312.354 140.124L321.266 116.826C321.311 114.925 322.054 113.106 323.352 111.714C324.651 110.323 326.415 109.455 328.312 109.276C330.208 109.097 332.104 109.618 333.642 110.742C335.179 111.865 336.249 113.513 336.651 115.372Z" fill="#FFB8B8"/>
<path d="M253.196 123.939C253.196 123.939 272.306 116.785 282.667 155.963L296.42 170.185L307.975 149.339L306.447 144.393L315.377 124.179L330.687 132.953L326.918 146.831L327.555 153.691L323.897 157.958L317.907 180.011L314.161 187.216C314.161 187.216 309.436 196.442 301.188 197.961C298.989 198.372 296.74 198.436 294.521 198.15C290.178 197.584 285.418 195.585 280.526 191.174C262.379 174.808 251.646 162.183 251.646 162.183L253.196 123.939Z" fill="#FAFAFA"/>
<path d="M345.324 132.272L311.306 99.4908C311.121 99.312 311.011 99.0691 311 98.812C310.988 98.5549 311.076 98.3033 311.245 98.109C311.414 97.9146 311.651 97.7924 311.908 97.7674C312.164 97.7425 312.42 97.8167 312.624 97.9748L348.694 126.033L345.324 132.272Z" fill="#1E293B"/>
<path d="M359.335 135.904C357.628 136.503 355.857 136.898 354.058 137.081C353.143 137.171 352.224 137.204 351.314 137.214C350.994 137.226 350.669 137.227 350.352 137.231C349.595 137.242 348.839 137.253 348.075 137.262C347.431 137.274 346.779 137.284 346.138 137.289C345.194 137.304 344.157 137.284 343.48 136.622C343.193 136.288 342.985 135.894 342.869 135.47C342.754 135.046 342.734 134.601 342.811 134.168C342.962 133.263 343.236 132.383 343.627 131.553C344.443 129.591 345.267 127.633 346.083 125.672L345.956 124.574C347.454 124.358 348.979 124.404 350.462 124.712C351.067 124.867 351.635 125.142 352.132 125.521C352.628 125.9 353.043 126.376 353.35 126.92C353.479 127.164 353.582 127.421 353.656 127.687C353.976 128.856 353.746 130.153 353.883 131.376C353.915 131.63 353.962 131.882 354.024 132.131C354.199 132.866 354.535 133.554 355.007 134.145C355.479 134.735 356.076 135.215 356.755 135.549C357.565 135.905 358.459 136.028 359.335 135.904Z" fill="#CCCCCC"/>
<path d="M361.727 134.954C361.017 135.457 360.197 135.783 359.335 135.904C360.148 135.628 360.946 135.311 361.727 134.954Z" fill="#E6E6E6"/>
<path d="M359.335 135.905C357.629 136.503 355.857 136.898 354.058 137.082C353.143 137.172 352.224 137.204 351.314 137.215C350.994 137.226 350.67 137.227 350.352 137.231C349.595 137.242 348.839 137.253 348.075 137.262C348.112 136.879 348.169 136.498 348.247 136.121C348.96 132.603 351.033 129.611 353.35 126.92C353.479 127.164 353.582 127.422 353.656 127.688C353.976 128.856 353.746 130.153 353.883 131.376C353.915 131.63 353.962 131.883 354.024 132.131C354.199 132.866 354.535 133.554 355.007 134.145C355.479 134.736 356.076 135.215 356.755 135.549C357.565 135.905 358.459 136.028 359.335 135.905Z" fill="#2563EB"/>
<path d="M227.565 189.541L226.213 195.973L225.063 219.699L271.241 213.456L274.787 185.984L269.886 177.942L227.565 189.541Z" fill="#FFB6B6"/>
<path d="M261.72 92.5033C267.509 81.9285 263.617 68.6698 253.026 62.8891C242.435 57.1083 229.156 60.9947 223.367 71.5695C217.577 82.1443 221.469 95.403 232.06 101.184C242.651 106.964 255.93 103.078 261.72 92.5033Z" fill="#FFB7B7"/>
<path d="M209.617 159.976L203.608 144.386C203.605 137.859 205.817 131.524 209.883 126.414C213.95 121.304 219.63 117.721 225.998 116.248L226.081 116.229L230.402 110.415L247.96 112.169L251.178 118.736L263.9 126.3L278.37 143.217C282.927 146.484 285.634 150.673 286.417 155.669C288.08 166.276 280.642 176.888 279.758 178.105L277.478 190.923L224.772 198.465L224.369 198.516L209.617 159.976Z" fill="white"/>
<path d="M219.671 87.7578C219.869 87.7266 220.067 87.6849 220.265 87.6536C223.674 87.05 227.083 86.4567 230.482 85.8424L230.795 78.1501L234.913 85.0409C244.306 88.1533 253.094 86.3942 261.361 82.5115C264.088 81.219 266.734 79.7625 269.285 78.1501C271.063 67.3147 266.576 58.7756 255.054 57.6855C254.696 57.6517 254.439 57.3525 254.126 57.1962L254.122 57.1955L254.119 57.1932L254.117 57.1898L254.116 57.1858C253.584 56.936 253.042 56.6966 252.5 56.478C248.256 54.822 243.628 54.4026 239.155 55.2686C234.681 56.1346 230.546 58.2505 227.229 61.3703C220.557 67.7305 217.555 78.2334 219.671 87.7578Z" fill="#1E293B"/>
<path d="M259.755 458.185L272.293 463.937L300.482 418.386L281.977 409.896L259.755 458.185Z" fill="#FFB6B6"/>
<path d="M259.488 450.582L279.852 458.495L275.949 466.974L288.812 488.614C289.448 489.683 289.724 490.926 289.602 492.163C289.479 493.4 288.964 494.566 288.131 495.489C287.298 496.413 286.192 497.047 284.973 497.298C283.753 497.549 282.486 497.405 281.355 496.886L257.758 486.059L257.551 475.806L252.103 483.464L243.206 479.382L259.488 450.582Z" fill="#1E293B"/>
<path d="M204.945 486.447H218.744L225.309 433.305L204.943 433.305L204.945 486.447Z" fill="#FFB6B6"/>
<path d="M197.442 377.401L197.441 377.259L202.624 368.341L197.332 356.732L196.956 286.179C194.872 235.194 224.496 210.686 224.729 210.445L225.371 209.778L272.881 208.617C272.881 208.617 297.851 281.81 317.688 347.759C318.861 351.657 322.177 355.502 321.145 359.36C312.966 389.968 303.257 424.611 297.026 425.589L277.29 414.978L280.958 361.932L278.703 356.159C274.663 355.416 264.161 314.721 264.161 314.721C262.401 312.634 262.492 306.961 262.492 306.961L248.736 292.541L236.057 359.009L239.192 378.835L236.598 385.651L225.487 441.928L225.369 442.835L204.421 440.747L197.442 377.401Z" fill="#1E293B"/>
<path d="M200.273 479.651L222.086 478.351V487.682L242.824 501.982C243.848 502.689 244.619 503.703 245.025 504.878C245.431 506.053 245.45 507.327 245.08 508.513C244.71 509.7 243.969 510.737 242.966 511.474C241.964 512.21 240.751 512.608 239.507 512.607H213.538L209.062 503.377L207.314 512.607H197.523L200.273 479.651Z" fill="#1E293B"/>
<path d="M228.045 56.6438V56.6622C228.047 57.8044 227.901 58.9421 227.611 60.0467C227.564 60.2404 227.509 60.4432 227.444 60.6369V60.6462C226.825 62.6188 225.756 64.4214 224.322 65.9126C222.888 67.4037 221.127 68.543 219.178 69.2411C218.892 69.3517 218.596 69.4439 218.301 69.5269C217.678 69.7072 217.042 69.8368 216.398 69.9142C215.82 69.9961 215.236 70.0361 214.652 70.0341C214.196 70.036 213.74 70.0145 213.285 69.9696C212.222 69.8621 211.177 69.6236 210.173 69.2595C210.016 69.2138 209.861 69.1584 209.711 69.0935C209.636 69.0667 209.562 69.0359 209.489 69.0013C207.814 68.301 206.298 67.268 205.035 65.965C203.771 64.6621 202.786 63.1163 202.139 61.4216C201.492 59.7269 201.197 57.9186 201.271 56.1065C201.346 54.2944 201.788 52.5162 202.571 50.88L202.581 50.8708C203.237 49.4981 204.128 48.2499 205.213 47.182C207.633 44.7751 208.699 38.743 212.375 38.743C212.551 38.7399 212.727 38.746 212.902 38.7614C215.368 38.8444 219.926 44.1572 221.866 45.4114C223.306 46.32 224.555 47.5011 225.542 48.8881C226.572 50.3149 227.307 51.9326 227.703 53.6466C227.93 54.6296 228.044 55.6351 228.045 56.6438Z" fill="#1E293B"/>
<path d="M211.682 51.9875C209.602 54.4051 206.346 55.3449 203.408 56.6031C198.224 58.874 193.672 62.3733 190.149 66.7976C186.625 71.2219 184.235 76.4376 183.187 81.9925C182.375 86.5172 182.481 91.201 181.198 95.6119C179.923 100.023 176.765 104.35 172.234 105.116C169.167 105.639 166.093 104.457 163.209 103.289C161.622 102.653 160.036 102.014 158.449 101.372C160.104 97.2262 161.756 93.0805 163.406 88.9348C160.755 92.8473 157.671 96.4497 154.214 99.6742C148.528 97.3854 142.838 95.0965 137.143 92.8076C151.155 92.8607 148.764 79.2792 151.899 65.6523C153.622 58.1643 168.294 53.094 171.171 45.9698C172.726 42.1056 175.356 38.767 178.752 36.3491C182.147 33.9312 186.165 32.5352 190.331 32.3263C194.496 32.1174 198.634 33.1043 202.255 35.1703C205.876 37.2364 208.829 40.2949 210.763 43.9841C213.64 45.1285 213.724 49.6001 211.682 51.9875Z" fill="#1E293B"/>
<path d="M271.196 211.957C274.42 212.797 277.394 214.402 279.863 216.635C282.333 218.869 284.225 221.665 285.38 224.785C286.003 226.58 286.392 228.708 285.32 230.415C284.993 231.027 284.454 231.499 283.805 231.745C283.155 231.991 282.438 231.994 281.786 231.753C280.387 231.177 279.423 229.748 278.711 228.482C277.768 226.693 276.958 224.837 276.287 222.93C275.187 220.051 272.842 215.246 276.19 212.996C279.007 211.103 282.735 211.838 285.904 211.709C289.328 211.568 293.134 210.259 294.351 206.715C295.534 203.269 292.76 200.027 289.77 198.717C287.973 197.973 286.02 197.68 284.082 197.864C282.145 198.048 280.282 198.704 278.658 199.774C275.447 201.996 273.154 205.308 272.206 209.092C272.137 209.379 272.183 209.682 272.333 209.935C272.483 210.189 272.726 210.375 273.011 210.454C273.296 210.532 273.6 210.497 273.86 210.356C274.119 210.215 274.313 209.978 274.402 209.697C275.342 206.27 277.376 203.045 280.549 201.288C283.52 199.644 287.595 199.543 290.367 201.671C291.738 202.724 292.815 204.476 292.112 206.216C291.468 207.813 289.79 208.763 288.193 209.148C284.58 210.02 280.801 208.892 277.2 210.044C273.765 211.142 271.787 213.947 272.282 217.586C272.657 219.631 273.263 221.627 274.091 223.534C274.794 225.495 275.615 227.412 276.551 229.274C277.981 231.972 280.559 234.892 283.961 234.101C287.838 233.199 288.759 228.679 287.928 225.355C286.033 217.774 279.232 211.702 271.801 209.765C271.514 209.696 271.211 209.742 270.957 209.892C270.703 210.042 270.517 210.285 270.438 210.569C270.36 210.854 270.395 211.157 270.536 211.416C270.678 211.675 270.914 211.869 271.196 211.957Z" fill="#1E293B"/>
<path d="M305.273 419.027C303.664 417.127 301.367 415.967 299.136 414.857L280.414 405.546L279.881 408.864C279.173 406.681 275.699 406.521 274.29 408.333C272.882 410.145 273.333 412.884 274.706 414.722C276.08 416.56 278.166 417.707 280.186 418.799C284.666 421.22 289.145 423.64 293.624 426.061C295.711 427.189 297.866 428.338 300.225 428.596C302.583 428.853 305.226 428.004 306.401 425.946C307.636 423.784 306.883 420.928 305.273 419.027Z" fill="#1E293B"/>
<path d="M232.444 436.366C230.154 435.383 227.58 435.369 225.087 435.371C218.116 435.377 211.144 435.382 204.172 435.388L205.179 438.594C203.57 436.957 200.389 438.363 199.939 440.612C199.489 442.861 201.118 445.111 203.169 446.143C205.22 447.175 207.6 447.272 209.895 447.348C214.986 447.516 220.077 447.685 225.167 447.853C227.539 447.932 229.98 447.999 232.206 447.178C234.432 446.357 236.417 444.419 236.548 442.053C236.685 439.568 234.734 437.349 232.444 436.366Z" fill="#1E293B"/>
<path d="M349.998 289.739C319.323 289.739 285.989 283.635 252.878 271.899C211.933 257.386 174.39 235.479 144.309 208.547L145.2 206.764C175.136 233.565 212.512 255.371 253.288 269.824C290.137 282.886 327.262 288.938 360.636 287.341L360.694 289.485C357.169 289.655 353.604 289.74 349.998 289.739Z" fill="#F0F0F0"/>
<path d="M75.1869 177.963C50.6085 145.568 60.3556 108.594 45.956 82.7997C-9.23228 -16.0597 58.7244 -6.95163 135.556 12.2733L135.739 14.406C86.8389 21.941 54.679 47.0699 47.5058 83.3488C41.9309 111.544 52.161 144.602 76.3117 176.434L75.1869 177.963Z" fill="#F0F0F0"/>
<path d="M312.328 292.958C281.652 292.958 246.398 258.969 215.208 275.118C120.77 324.012 133.77 242.195 106.638 211.766L107.529 209.982C137.465 236.784 174.842 258.59 215.618 273.043C252.466 286.105 289.591 292.157 322.966 290.56L323.024 292.704C319.499 292.874 315.934 292.958 312.328 292.958Z" fill="#F0F0F0"/>
<path d="M382.701 279.461L382.188 277.428C409.623 265.008 407.265 228.017 431.811 219.57C618.792 155.222 434.221 147.965 392.706 113.928C355.58 83.4899 315.12 48.1017 263.699 29.8758L264.109 27.8008C315.754 46.1069 361.792 76.112 393.74 112.289C425.85 148.648 439.921 186.942 433.361 220.119C428.188 246.281 410.67 266.8 382.701 279.461Z" fill="#F0F0F0"/>
<path d="M130.784 293.855C97.7642 239.951 53.8946 191.802 1.52588e-05 163.098L1.33526 161.911C25.2304 210.102 71.4334 256.264 131.433 291.893L130.784 293.855Z" fill="#F0F0F0"/>
<path d="M342.707 355.863C336.49 355.863 330.167 355.677 323.737 355.305L323.806 353.161C371.229 380.1 413.534 373.694 446.242 330.924L446.841 332.915C418.823 348.031 383.11 355.863 342.707 355.863Z" fill="#F0F0F0"/>
<path d="M352.427 335.343C355.968 335.343 358.839 331.499 358.839 326.758C358.839 322.017 355.968 318.173 352.427 318.173C348.885 318.173 346.015 322.017 346.015 326.758C346.015 331.499 348.885 335.343 352.427 335.343Z" fill="#FD6584"/>
<path d="M135.811 178.287C136.343 174.791 132.968 171.38 128.273 170.668C123.578 169.957 119.341 172.214 118.81 175.709C118.278 179.205 121.653 182.616 126.348 183.328C131.043 184.039 135.28 181.782 135.811 178.287Z" fill="#E6E6E6"/>
<path d="M106.293 85.1359C109.834 85.1359 112.705 81.2922 112.705 76.5509C112.705 71.8095 109.834 67.9658 106.293 67.9658C102.752 67.9658 99.881 71.8095 99.881 76.5509C99.881 81.2922 102.752 85.1359 106.293 85.1359Z" fill="#E6E6E6"/>
<path d="M120.864 134.305C112.501 122.668 96.7183 116.655 85.6112 120.873C74.5041 125.092 72.279 137.946 80.6413 149.582C89.0036 161.219 113.619 179.523 124.726 175.305C135.833 171.086 129.226 145.942 120.864 134.305ZM120.915 170.096C119.548 172.098 116.193 172.191 113.423 170.304C110.652 168.417 109.515 165.265 110.882 163.263C112.249 161.262 115.603 161.169 118.374 163.056C121.145 164.943 122.282 168.095 120.915 170.096Z" fill="#1E293B"/>
<path d="M111.424 145.687C110.382 146.528 109.341 147.368 108.299 148.209C107.021 149.386 105.508 150.279 103.859 150.83C101.595 151.352 99.2287 151.211 97.043 150.424C93.8566 149.397 91.064 147.415 89.0439 144.749L91.2949 145.25C90.1006 143.869 89.1295 142.311 88.4168 140.632C87.8889 139.073 88.1835 137.491 89.6084 137.064C91.2396 136.575 93.8656 137.674 95.2351 136.884C97.6034 135.518 93.71 130.432 95.8682 128.864C97.1256 127.949 99.6416 128.854 101.739 129.751C104.348 130.743 106.82 132.061 109.097 133.674C112.823 136.546 114.885 141.074 113.364 143.695C112.844 144.471 112.186 145.146 111.424 145.687Z" fill="#2563EB"/>
<path d="M110.656 154.413C108.835 154.662 106.728 153.264 104.971 151.975L104.523 151.39C104.157 150.271 104.003 149.093 104.069 147.918C104.111 147.373 104.336 146.859 104.709 146.459C105.082 146.059 105.58 145.797 106.121 145.717C107.189 145.577 108.615 146.036 109.32 145.419C110.684 144.226 107.521 140.937 108.967 139.821C109.779 139.194 111.504 139.997 112.248 141.075C112.856 142.079 113.136 143.246 113.051 144.417C113.075 146.135 113.099 147.853 113.123 149.571C113.2 150.586 113.097 151.606 112.819 152.585C112.666 153.061 112.383 153.485 112 153.809C111.618 154.132 111.152 154.341 110.656 154.413Z" fill="#1E293B"/>
<path d="M111.113 160.139C108.588 159.395 104.739 156.797 101.46 154.503L100.484 153.655C99.4615 152.498 98.5951 151.212 97.9066 149.83C97.5282 148.795 98.0153 148.191 99.6915 148.691C101.175 149.133 103.512 150.39 104.203 150.142C105.539 149.663 99.1029 144.537 100.601 144.182C101.442 143.983 104.406 145.759 106.087 147.277C107.325 148.373 108.347 149.689 109.102 151.159C110.084 152.942 111.066 154.725 112.049 156.508C112.642 157.398 113.055 158.396 113.266 159.444C113.286 160.203 112.644 160.591 111.113 160.139Z" fill="#FF6584"/>
<path d="M468.439 21.0221C469.43 8.50389 477.727 23.2752 490.264 24.2641C493.246 24.498 496.153 25.3163 498.818 26.6722C501.483 28.0281 503.855 29.8949 505.797 32.1662C507.739 34.4374 509.215 37.0685 510.138 39.9091C511.062 42.7497 511.416 45.7442 511.181 48.7216C510.945 51.699 510.125 54.6008 508.766 57.2614C507.407 59.922 505.536 62.2891 503.26 64.2276C500.985 66.1662 498.349 67.6381 495.504 68.5593C492.658 69.4805 489.659 69.833 486.677 69.5965C474.14 68.6076 467.449 33.5403 468.439 21.0221Z" fill="#2563EB"/>
<path d="M546.493 141.217C546.728 138.241 547.549 135.34 548.907 132.68C550.266 130.02 552.135 127.653 554.41 125.714C556.684 123.776 559.319 122.304 562.163 121.382C565.008 120.46 568.006 120.107 570.987 120.342C583.524 121.331 591.911 96.4715 590.921 108.99C589.93 121.508 579.938 166.663 567.4 165.674C564.419 165.439 561.514 164.62 558.85 163.264C556.186 161.907 553.815 160.04 551.874 157.769C549.932 155.498 548.458 152.868 547.535 150.028C546.611 147.188 546.257 144.194 546.493 141.217Z" fill="#2563EB"/>
<path d="M575.072 168.616C571.644 170.266 567.684 169.293 564.725 167.115C561.359 164.637 559.7 160.695 559.152 156.651C558.624 152.311 558.987 147.909 560.219 143.714C561.388 139.666 563.896 135.466 568.375 134.631C571.361 134.075 574.547 135.347 575.375 138.442C575.69 139.684 575.678 140.986 575.342 142.222C575.007 143.458 574.357 144.587 573.458 145.499C570.778 148.07 566.477 147.874 563.365 146.241C559.705 144.319 557.685 140.475 557.018 136.522C556.226 131.822 557.333 127.1 558.908 122.679C560.62 117.874 562.751 113.212 564.709 108.504C568.528 99.3223 572.116 89.943 573.636 80.0693C575.96 64.9862 572.342 47.0855 559.098 37.8521C551.949 32.8677 542.983 31.4558 534.453 32.5286C525.458 33.6599 517.192 37.6009 509.872 42.8193C506.064 45.5824 502.448 48.5995 499.048 51.85C498.018 52.9081 496.696 53.6364 495.25 53.9423C493.804 54.2483 492.299 54.118 490.927 53.5682C483.888 50.7077 486.132 39.2709 493.387 38.4188C496.684 38.0316 500.08 39.8682 502.316 42.163C504.756 44.7675 506.348 48.0488 506.883 51.5746C508.124 58.9956 505.368 66.8402 500.581 72.5128C495.174 78.9214 486.956 82.5292 478.956 84.4296C469.848 86.5931 460.48 86.7035 451.17 86.909C441.642 87.1194 432.002 87.4811 422.806 90.2103C415.405 92.4297 408.422 95.8559 402.14 100.35C389.484 109.327 380.013 122.087 375.095 136.789C373.939 140.346 373.083 143.992 372.537 147.691C372.322 149.139 374.593 149.312 374.807 147.87C377.201 131.747 385.945 116.92 398.234 106.305C404.365 100.986 411.384 96.7816 418.97 93.8842C428.108 90.4228 437.814 89.5451 447.512 89.2625C457.416 88.9739 467.41 89.131 477.167 87.1511C485.793 85.4007 494.527 81.9674 500.812 75.6089C506.353 70.0025 509.781 61.9818 509.413 54.0549C509.071 46.6791 505.003 38.7924 497.465 36.6005C493.929 35.5721 490.132 36.2264 487.505 38.9222C486.045 40.4591 485.04 42.3699 484.601 44.4426C484.163 46.5153 484.308 48.6687 485.02 50.6642C485.959 52.8322 487.673 54.5739 489.827 55.5501C491.981 56.5263 494.422 56.6673 496.675 55.9456C498.329 55.339 499.823 54.3638 501.043 53.0944C508.16 46.4405 516.124 40.3344 525.391 37.0209C534.035 33.9304 543.977 33.2965 552.578 36.8608C568.86 43.6084 573.753 63.1913 571.477 79.1429C569.988 89.5822 566.029 99.4668 561.98 109.137C559.913 114.075 557.615 118.981 556.032 124.102C554.615 128.688 553.904 133.608 555.066 138.332C556.08 142.455 558.481 146.244 562.322 148.242C565.811 150.056 570.238 150.369 573.656 148.211C578.597 145.092 579.709 136.479 574.159 133.34C570.476 131.257 565.76 132.281 562.705 135.016C559.281 138.082 557.882 142.675 557.176 147.069C555.842 155.373 556.891 165.599 565.106 170.042C568.49 171.872 572.525 172.367 576.063 170.664C576.324 170.526 576.522 170.293 576.614 170.013C576.707 169.733 576.687 169.428 576.558 169.162C576.43 168.896 576.203 168.691 575.925 168.589C575.648 168.487 575.342 168.497 575.072 168.616Z" fill="#1E293B"/>
<path d="M372.074 141.905C373.124 128.63 354.932 93.1357 362.758 83.5275C363.729 82.3268 364.747 81.1654 365.813 80.0432C369.264 76.3695 373.145 73.125 377.375 70.38C378.09 69.9042 378.811 69.4517 379.538 69.015C382.123 67.4755 384.812 66.1201 387.588 64.959C388.091 64.7555 388.602 64.5525 389.113 64.3495C403.108 58.9425 418.571 58.6686 432.75 63.5766C446.928 68.4846 458.903 78.2562 466.543 91.1525C474.183 104.049 476.992 119.233 474.472 134.004C471.951 148.775 464.264 162.173 452.778 171.816C452.174 172.331 451.556 172.829 450.923 173.319C444.645 178.214 437.496 181.878 429.853 184.118C429.845 184.117 429.845 184.125 429.837 184.124C418.377 187.465 406.206 187.52 394.716 184.281L394.7 184.28C394.447 184.207 394.194 184.133 393.942 184.053C365.839 175.761 369.673 172.24 372.074 141.905Z" fill="#2563EB"/>
<path d="M387.557 65.2456C387.556 65.1492 387.566 65.053 387.588 64.9591C388.091 64.7555 388.602 64.5526 389.113 64.3496C389.327 64.4354 389.51 64.5841 389.638 64.7761C389.765 64.9681 389.832 65.1943 389.828 65.4247C389.831 66.5737 389.963 67.7187 390.22 68.8388C392.42 78.5612 402.388 84.2282 411.287 86.6559C422.176 89.6359 433.876 89.6769 444.033 95.0624C448.207 97.1549 451.808 100.231 454.525 104.025C457.352 108.19 458.538 113.252 457.854 118.238C456.302 129.968 447.257 138.53 443.532 149.419C441.997 153.905 441.619 158.68 443.366 163.167C444.846 166.978 447.769 170.455 451.97 171.243C452.141 171.269 452.302 171.334 452.442 171.434C452.582 171.533 452.697 171.664 452.778 171.816C452.174 172.331 451.556 172.829 450.923 173.319C450.164 173.144 449.427 172.89 448.722 172.56C444.7 170.646 442.101 166.83 440.801 162.675C439.3 157.866 439.871 152.863 441.551 148.183C445.468 137.271 455.148 128.295 455.751 116.247C456.272 105.805 447.676 98.5883 438.707 95.1136C427.61 90.8172 415.172 91.4554 404.238 86.6321C395.638 82.8367 387.597 75.2309 387.557 65.2456Z" fill="#1E293B"/>
<path d="M377.375 70.3797C378.09 69.9039 378.811 69.4514 379.538 69.0146C379.623 69.1203 379.684 69.2429 379.716 69.374C379.749 69.5051 379.754 69.6418 379.729 69.7748C378.578 79.5185 381.198 89.3335 387.054 97.2123C389.585 100.669 392.684 103.674 396.218 106.1C399.917 108.62 404.076 110.141 408.182 111.849C412.222 113.528 416.307 115.5 419.233 118.841C422.215 122.246 423.466 126.64 423.602 131.091C423.917 141.638 417.913 150.834 416.674 161.099C416.121 165.678 416.782 170.223 419.343 174.143C421.557 177.526 425.025 179.989 429.187 179.83C430.562 179.772 430.472 181.772 429.262 182.064C429.178 182.084 429.093 182.095 429.008 182.097C424.166 182.278 420.023 179.305 417.462 175.393C414.479 170.847 413.742 165.536 414.497 160.22C415.966 149.936 422.2 140.43 421.26 129.789C421.131 127.555 420.534 125.374 419.507 123.386C418.479 121.398 417.046 119.648 415.298 118.249C411.697 115.448 407.299 113.969 403.126 112.241C398.955 110.601 395.073 108.308 391.625 105.449C388.259 102.556 385.377 99.1432 383.09 95.3411C378.518 87.8621 376.512 79.0993 377.375 70.3797Z" fill="#1E293B"/>
<path d="M362.758 83.5273C363.729 82.3266 364.747 81.1652 365.813 80.043C364.337 85.8331 364.085 91.8668 365.074 97.7595C366.265 105.174 369.31 112.168 373.927 118.095C376.241 121.047 378.969 123.651 382.026 125.827C385.522 128.308 389.386 130.475 391.702 134.216C396.725 142.336 392.133 152.055 389.665 160.162C388.37 164.394 387.493 168.939 388.926 173.249C390.04 176.591 392.509 179.834 396.157 180.494C397.591 180.752 397.419 183.027 395.978 182.761C395.708 182.709 395.439 182.65 395.17 182.583C391.209 181.541 388.351 178.305 386.963 174.485C385.164 169.501 386.007 164.336 387.518 159.385C390.005 151.241 395.118 140.598 388.064 133.229C385.09 130.121 381.06 128.214 377.81 125.411C374.897 122.911 372.338 120.026 370.204 116.836C363.669 107.04 361.015 95.168 362.758 83.5273Z" fill="#1E293B"/>
<path d="M406.264 245.819V244.359H381.751V210.301H380.293V244.359H352.2V218.057C351.709 218.443 351.224 218.84 350.745 219.248V244.359H332.19C331.984 244.842 331.785 245.329 331.598 245.819H350.745V274.438H326.971C326.994 274.929 327.028 275.412 327.069 275.898H350.745V298.73H333.008C333.225 299.22 333.454 299.703 333.694 300.182H350.745V319.375H352.2V300.182H380.293V319.375H381.751V300.182H406.264V298.73H381.751C381.751 295.731 382.342 292.762 383.491 289.992C384.64 287.222 386.324 284.704 388.448 282.584C390.571 280.464 393.092 278.782 395.867 277.635C398.641 276.488 401.615 275.898 404.618 275.898H406.264V274.438H381.751V245.819H406.264ZM380.293 298.73H352.2V275.898H380.293V298.73ZM380.293 274.438H352.2V273.866C352.2 270.182 352.927 266.535 354.339 263.132C355.751 259.729 357.82 256.637 360.429 254.033C363.038 251.429 366.135 249.363 369.543 247.954C372.951 246.544 376.604 245.819 380.293 245.819V274.438Z" fill="#1E293B"/>
<path d="M336.921 513.767L127.611 514C127.372 514 127.142 513.905 126.972 513.735C126.803 513.566 126.707 513.337 126.707 513.097C126.707 512.858 126.803 512.628 126.972 512.459C127.142 512.29 127.372 512.195 127.611 512.195L336.921 511.962C337.039 511.962 337.157 511.985 337.267 512.03C337.377 512.075 337.477 512.141 337.561 512.225C337.646 512.309 337.712 512.409 337.758 512.518C337.803 512.628 337.827 512.746 337.827 512.864C337.827 512.983 337.803 513.101 337.758 513.21C337.712 513.32 337.646 513.42 337.561 513.503C337.477 513.587 337.377 513.654 337.267 513.699C337.157 513.744 337.039 513.767 336.921 513.767Z" fill="#CACACA"/>
</g>
<defs>
<clipPath id="clip0_331_1799">
<rect width="591" height="514" fill="white"/>
</clipPath>
</defs>
</svg>
