<svg width="625" height="530" viewBox="0 0 625 530" fill="none" xmlns="http://www.w3.org/2000/svg">
<g clip-path="url(#clip0_331_1239)">
<path d="M51.7033 512.18C83.2214 532.363 122.596 531.339 160.454 526.61C165.74 525.95 170.986 525.227 176.18 524.472C176.211 524.462 176.253 524.463 176.284 524.453C176.534 524.416 176.784 524.379 177.023 524.351C178.095 524.193 179.168 524.034 180.23 523.875L180.004 524.369L179.293 525.902C179.55 525.388 179.808 524.884 180.065 524.37C180.141 524.216 180.227 524.062 180.302 523.907C189.221 506.274 198.026 488.016 199.461 468.352C200.938 447.942 192.461 425.379 174.052 416.379C171.638 415.203 169.099 414.299 166.484 413.684C165.398 413.418 164.301 413.213 163.193 413.04C151.6 411.326 139.185 414.813 130.559 422.8C119.149 433.384 115.159 451.192 120.956 465.625C104.966 450.932 106.431 425.618 110.52 404.308C114.619 382.998 119.692 359.257 108.02 340.944C101.53 330.75 90.7659 324.789 78.9395 322.791C78.5769 322.734 78.2148 322.676 77.852 322.628C64.1256 320.6 49.1078 323.837 37.7077 331.903C16.1267 347.162 6.09349 374.43 3.78145 400.735C0.0535519 443.066 15.8688 489.231 51.7033 512.18Z" fill="#F2F2F2"/>
<path d="M57.8555 444.313C59.2375 453.531 61.9587 462.499 65.9332 470.933C69.5789 478.39 74.3209 485.261 80.0019 491.318C91.614 503.824 106.564 512.892 122.577 518.607C134.815 522.857 147.541 525.545 160.454 526.609C165.74 525.949 170.986 525.226 176.18 524.472C176.211 524.462 176.253 524.462 176.285 524.453C176.534 524.415 176.784 524.378 177.024 524.351C178.096 524.192 179.168 524.033 180.23 523.874L180.004 524.368L179.293 525.901C179.55 525.387 179.808 524.884 180.066 524.369C180.141 524.215 180.227 524.061 180.302 523.907C170.175 514.867 162.367 503.535 157.53 490.862C152.694 478.188 150.971 464.542 152.505 451.067C154.149 437.68 158.939 424.871 166.485 413.684C165.398 413.417 164.301 413.213 163.193 413.039C160.332 417.421 157.865 422.046 155.821 426.862C148.48 444.039 146.874 463.119 151.24 481.277C155.274 497.705 163.92 512.643 176.162 524.337C175.144 524.32 174.116 524.293 173.11 524.255C154.053 523.674 134.902 520.623 117.245 513.212C102.331 506.965 88.6364 497.348 78.417 484.76C67.2204 470.975 61.695 453.965 59.9574 436.468C58.1052 417.735 59.5121 398.496 62.8168 380.003C66.1873 361.045 71.8687 342.571 79.7346 324.991C79.9102 324.593 79.9256 324.142 79.7776 323.732C79.6296 323.323 79.3296 322.986 78.9397 322.791C78.6128 322.595 78.222 322.537 77.8521 322.628C77.6719 322.686 77.5071 322.784 77.3701 322.915C77.2331 323.045 77.1274 323.205 77.0609 323.382C76.0907 325.554 75.1407 327.725 74.2325 329.919C66.6688 348.188 61.4079 367.325 58.5705 386.89C55.8097 405.765 54.8536 425.405 57.8555 444.313Z" fill="white"/>
<path d="M433.018 125.92H430.102V46.1629C430.102 33.9198 425.23 22.178 416.558 13.5208C407.887 4.86358 396.125 4.04107e-06 383.861 0H214.596C202.332 0 190.57 4.86358 181.899 13.5208C173.227 22.178 168.355 33.9197 168.355 46.1629V483.723C168.355 495.966 173.227 507.708 181.899 516.365C190.57 525.022 202.332 529.886 214.596 529.886H383.861C396.125 529.885 407.886 525.022 416.558 516.365C425.23 507.707 430.101 495.966 430.101 483.723V182.692H433.017L433.018 125.92Z" fill="white"/>
<path d="M385.727 12.0059H363.634C364.65 14.4929 365.038 17.1913 364.763 19.8632C364.489 22.5351 363.56 25.0986 362.059 27.3279C360.558 29.5571 358.531 31.3836 356.157 32.6465C353.782 33.9093 351.133 34.5698 348.442 34.5697H251.472C248.782 34.5696 246.133 33.9089 243.758 32.646C241.384 31.383 239.357 29.5564 237.856 27.3273C236.356 25.0981 235.427 22.5347 235.153 19.8628C234.878 17.191 235.266 14.4928 236.282 12.0059H215.646C211.111 12.0059 206.621 12.8976 202.431 14.63C198.241 16.3625 194.435 18.9019 191.228 22.1031C188.021 25.3043 185.478 29.1047 183.742 33.2872C182.007 37.4698 181.114 41.9527 181.114 46.4799V483.404C181.114 492.547 184.752 501.316 191.228 507.781C197.704 514.246 206.487 517.878 215.646 517.878H385.727C394.885 517.878 403.669 514.246 410.145 507.781C416.621 501.316 420.259 492.547 420.259 483.404V46.4792C420.259 37.3362 416.62 28.5678 410.144 22.1028C403.668 15.6378 394.885 12.0059 385.727 12.0059Z" fill="#E4E6F2"/>
<path d="M607.325 520.73C595.059 529.551 579.163 529.994 563.798 528.91C561.652 528.759 559.522 528.582 557.411 528.391C557.399 528.387 557.382 528.389 557.369 528.385C557.268 528.376 557.166 528.366 557.069 528.36C556.633 528.32 556.197 528.279 555.766 528.238L555.868 528.432L556.188 529.035C556.073 528.833 555.958 528.636 555.843 528.434C555.809 528.373 555.771 528.313 555.738 528.253C551.757 521.338 547.809 514.169 546.802 506.272C545.761 498.077 548.687 488.796 555.912 484.768C556.86 484.241 557.863 483.821 558.904 483.517C559.336 483.386 559.774 483.279 560.217 483.185C562.927 482.585 565.748 482.715 568.391 483.564C571.033 484.413 573.401 485.949 575.252 488.014C577.103 490.079 578.369 492.599 578.921 495.315C579.473 498.031 579.29 500.845 578.391 503.467C584.517 497.196 583.374 487.023 581.261 478.52C579.144 470.019 576.581 460.558 580.887 452.921C583.281 448.671 587.491 446.034 592.215 444.971C592.36 444.94 592.504 444.909 592.65 444.882C598.278 443.744 604.13 444.767 609.036 447.748C618.069 453.431 622.708 464.205 624.214 474.76C626.64 491.744 621.271 510.699 607.325 520.73Z" fill="#F2F2F2"/>
<path d="M603.365 493.503C603.009 497.249 602.107 500.924 600.689 504.41C599.382 507.496 597.62 510.368 595.462 512.934C590.975 518.176 585.293 522.267 578.893 524.861C574.052 526.84 568.98 528.2 563.798 528.91C561.652 528.759 559.522 528.581 557.411 528.39C557.398 528.387 557.382 528.388 557.369 528.385C557.267 528.375 557.166 528.365 557.069 528.36C556.633 528.319 556.197 528.278 555.766 528.237L555.868 528.432L556.188 529.034C556.073 528.832 555.958 528.635 555.843 528.433C555.809 528.373 555.771 528.313 555.737 528.252C559.623 524.387 562.523 519.649 564.197 514.435C565.87 509.221 566.267 503.682 565.355 498.283C564.4 492.922 562.19 487.862 558.904 483.516C559.336 483.385 559.774 483.279 560.217 483.185C561.466 484.889 562.561 486.7 563.49 488.597C566.824 495.362 567.888 503.019 566.524 510.435C565.256 517.145 562.096 523.355 557.416 528.335C557.826 528.306 558.239 528.273 558.644 528.236C566.314 527.587 573.968 525.941 580.925 522.57C586.871 519.758 592.034 515.529 595.958 510.256C600.171 504.455 602.027 497.478 602.346 490.386C602.592 482.746 601.789 475.108 599.962 467.685C598.19 460.115 595.496 452.791 591.942 445.875C591.863 445.718 591.846 445.537 591.897 445.368C591.948 445.2 592.062 445.058 592.214 444.971C592.342 444.885 592.498 444.853 592.649 444.881C592.723 444.901 592.792 444.937 592.85 444.986C592.908 445.036 592.954 445.098 592.985 445.168C593.423 446.022 593.854 446.877 594.268 447.742C597.715 454.943 600.254 462.543 601.824 470.369C603.349 477.918 604.162 485.815 603.365 493.503Z" fill="white"/>
<path d="M624.237 529.945H0.763126C0.560732 529.945 0.366628 529.864 0.223514 529.721C0.0803999 529.579 0 529.385 0 529.183C0 528.981 0.0803999 528.787 0.223514 528.644C0.366628 528.501 0.560732 528.421 0.763126 528.421H624.237C624.439 528.421 624.633 528.501 624.776 528.644C624.92 528.787 625 528.981 625 529.183C625 529.385 624.92 529.579 624.776 529.721C624.633 529.864 624.439 529.945 624.237 529.945Z" fill="#C1C1C1"/>
<path d="M488.105 521.328L478.75 521.327L474.299 485.301L488.108 485.302L488.105 521.328Z" fill="#FFB8B8"/>
<path d="M472.067 518.658H490.11V530H460.707C460.707 528.51 461 527.035 461.571 525.659C462.142 524.283 462.979 523.033 464.034 521.98C465.089 520.927 466.341 520.091 467.72 519.522C469.098 518.952 470.575 518.658 472.067 518.658Z" fill="#1E293B"/>
<path d="M523.209 521.328L513.854 521.327L509.402 485.301L523.211 485.302L523.209 521.328Z" fill="#FFB8B8"/>
<path d="M507.171 518.658H525.214V530H495.81C495.81 528.51 496.104 527.035 496.675 525.659C497.246 524.283 498.083 523.033 499.137 521.98C500.192 520.927 501.445 520.091 502.823 519.522C504.201 518.952 505.679 518.658 507.171 518.658Z" fill="#1E293B"/>
<path d="M522.067 414.03C521.059 413.382 520.205 412.522 519.566 411.51C518.927 410.498 518.518 409.358 518.368 408.171C518.218 406.984 518.331 405.778 518.698 404.64C519.065 403.501 519.678 402.456 520.493 401.579L514.333 314.304L532.078 316.022L532.565 401.49C533.95 402.955 534.748 404.877 534.809 406.89C534.87 408.904 534.189 410.87 532.895 412.415C531.601 413.961 529.784 414.979 527.788 415.277C525.792 415.574 523.757 415.13 522.067 414.03Z" fill="#FFB8B8"/>
<path d="M487.663 503.178L477.364 502.687C476.487 502.646 475.659 502.27 475.05 501.638C474.442 501.005 474.099 500.164 474.093 499.287L473.375 395.252C473.371 394.759 473.475 394.27 473.678 393.82C473.881 393.369 474.18 392.968 474.553 392.644C474.926 392.319 475.364 392.079 475.839 391.94C476.313 391.8 476.812 391.764 477.302 391.835L518.506 397.806C519.32 397.92 520.066 398.324 520.606 398.942C521.146 399.561 521.445 400.353 521.447 401.174L526.746 497.573C526.749 498.025 526.663 498.474 526.492 498.893C526.321 499.312 526.069 499.693 525.749 500.014C525.43 500.335 525.051 500.59 524.632 500.764C524.214 500.938 523.765 501.027 523.312 501.027H512.209C511.389 501.031 510.596 500.74 509.974 500.209C509.351 499.677 508.94 498.94 508.816 498.132L501.966 454.655C501.866 454.019 501.538 453.441 501.044 453.027C500.55 452.613 499.923 452.391 499.278 452.403C498.633 452.415 498.014 452.66 497.536 453.091C497.057 453.523 496.752 454.113 496.675 454.753L491.237 500.161C491.134 500.992 490.731 501.758 490.104 502.315C489.476 502.871 488.666 503.179 487.827 503.182C487.772 503.182 487.718 503.18 487.663 503.178Z" fill="#1E293B"/>
<path d="M494.914 401.178C485.833 396.142 478.738 394.818 475.317 394.477C474.862 394.434 474.421 394.298 474.021 394.079C473.62 393.86 473.268 393.562 472.986 393.203C472.699 392.841 472.487 392.425 472.365 391.98C472.243 391.535 472.213 391.069 472.276 390.612L482.149 317.436C482.717 313.155 484.374 309.09 486.96 305.629C489.547 302.168 492.977 299.425 496.926 297.661C500.748 295.907 504.956 295.158 509.149 295.486C513.343 295.815 517.383 297.209 520.884 299.536C521.223 299.76 521.555 299.99 521.88 300.224C525.913 303.173 528.98 307.249 530.696 311.936C532.413 316.623 532.7 321.713 531.524 326.563C525.469 351.289 523.39 391.824 523.034 399.699C523.006 400.371 522.78 401.019 522.384 401.562C521.987 402.105 521.439 402.518 520.807 402.751C517.082 404.102 513.152 404.801 509.188 404.816C504.196 404.846 499.28 403.593 494.914 401.178Z" fill="white"/>
<path d="M518.349 343.63C517.934 343.332 517.591 342.944 517.345 342.496C517.1 342.047 516.958 341.55 516.931 341.039L515.631 317.516C515.502 315.186 516.242 312.89 517.708 311.073C519.175 309.255 521.263 308.043 523.571 307.671C525.879 307.3 528.244 307.794 530.208 309.06C532.173 310.325 533.598 312.272 534.21 314.525L539.922 335.555C540.159 336.433 540.038 337.369 539.585 338.157C539.132 338.946 538.384 339.523 537.506 339.761L521.258 344.159C520.765 344.294 520.247 344.316 519.744 344.225C519.24 344.133 518.764 343.93 518.349 343.63Z" fill="#FCFCFC"/>
<path d="M503.172 287.725C513.524 287.725 521.916 279.348 521.916 269.013C521.916 258.679 513.524 250.302 503.172 250.302C492.821 250.302 484.429 258.679 484.429 269.013C484.429 279.348 492.821 287.725 503.172 287.725Z" fill="#FFB8B8"/>
<path d="M467.912 342.664C465.787 342.668 463.723 341.958 462.052 340.647L430.163 315.532C429.904 315.623 429.64 315.701 429.372 315.765C428.223 316.033 427.029 316.058 425.87 315.836C424.711 315.614 423.611 315.15 422.643 314.476C421.668 313.802 420.849 312.927 420.24 311.911C419.631 310.895 419.247 309.761 419.113 308.585C418.862 306.459 419.436 304.318 420.717 302.602C421.997 300.885 423.886 299.722 425.998 299.352C428.109 298.982 430.283 299.432 432.072 300.61C433.862 301.788 435.132 303.606 435.623 305.689C435.707 306.053 435.765 306.423 435.798 306.795L468.216 325.466L476.284 320.829L485.221 332.51L473.397 340.923C471.795 342.059 469.877 342.668 467.912 342.664Z" fill="#FFB8B8"/>
<path d="M469.387 324.299C469.332 323.791 469.392 323.278 469.563 322.796C469.734 322.314 470.011 321.877 470.374 321.516L487.058 304.856C488.711 303.205 490.918 302.224 493.253 302.102C495.587 301.979 497.885 302.724 499.702 304.193C501.519 305.661 502.727 307.75 503.094 310.055C503.46 312.36 502.958 314.719 501.686 316.677L489.804 334.955C489.307 335.717 488.528 336.251 487.638 336.44C486.747 336.63 485.818 336.459 485.054 335.965L470.933 326.816C470.503 326.539 470.141 326.169 469.873 325.733C469.606 325.298 469.439 324.808 469.387 324.299Z" fill="#FCFCFC"/>
<path d="M508.439 286.514C508.704 286.82 509.029 287.07 509.393 287.248C509.757 287.427 510.153 287.531 510.557 287.554C510.962 287.577 511.368 287.519 511.75 287.383C512.132 287.248 512.482 287.037 512.781 286.763C516.961 283.385 520.275 279.064 522.452 274.155C524.889 268.357 525.246 261.281 522.472 255.846C520.128 251.251 515.92 248.327 511.719 245.936C510.108 244.923 508.343 244.179 506.493 243.731C505.558 243.52 504.59 243.506 503.649 243.69C502.709 243.875 501.818 244.254 501.033 244.803C500.201 245.435 499.556 246.282 499.17 247.252C498.783 248.222 498.668 249.279 498.837 250.309C496.915 247.782 494.325 245.841 491.357 244.705C489.536 243.922 487.502 243.786 485.592 244.319C482.894 245.218 480.897 247.938 479.786 250.86C478.887 253.098 478.558 255.523 478.828 257.918C478.946 259.062 479.295 260.17 479.855 261.174C480.415 262.179 481.174 263.06 482.086 263.762C484.286 265.278 487.122 265.124 489.681 264.453C492.241 263.783 494.725 262.645 497.329 262.328C499.933 262.011 502.819 262.698 504.37 265.017C505.463 266.65 505.72 268.801 505.943 270.851L507.103 281.516C507.185 283.042 507.514 284.544 508.078 285.965C508.173 286.163 508.295 286.348 508.439 286.514Z" fill="#1E293B"/>
<path d="M211.625 360.11H237.483V365.162H216.873V380.44H235.486V385.428H216.873V404.756H211.626L211.625 360.11Z" fill="#1E293B"/>
<path d="M243.728 360.11H249.034V404.751H243.728V360.11Z" fill="#1E293B"/>
<path d="M259.686 402.38C257.664 400.136 256.655 396.998 256.656 392.964V372.953H261.962V392.159C261.962 395.193 262.649 397.417 264.023 398.831C264.751 399.55 265.621 400.109 266.578 400.475C267.535 400.84 268.557 401.002 269.58 400.951C271.282 400.979 272.95 400.478 274.355 399.518C275.742 398.571 276.86 397.283 277.601 395.777C278.365 394.269 278.761 392.602 278.756 390.912V372.953H284.067V404.751H279.007V400.136H278.756C277.762 401.831 276.313 403.214 274.571 404.128C272.708 405.194 270.597 405.753 268.449 405.748C264.628 405.748 261.707 404.625 259.686 402.38Z" fill="#1E293B"/>
<path d="M300.905 405.114C299.873 404.736 298.928 404.153 298.127 403.401C297.306 402.617 296.667 401.663 296.253 400.607C295.805 399.366 295.593 398.053 295.629 396.734V377.754H290.072V372.953H295.629V363.974H300.935V372.953H308.68V377.754H300.935V395.472C300.827 396.863 301.178 398.251 301.933 399.424C302.362 399.903 302.894 400.279 303.49 400.522C304.085 400.765 304.728 400.87 305.371 400.828C306.614 400.818 307.828 400.45 308.867 399.768V404.942C308.261 405.228 307.622 405.437 306.964 405.566C306.148 405.703 305.322 405.766 304.495 405.752C303.27 405.76 302.053 405.544 300.905 405.114Z" fill="#1E293B"/>
<path d="M323.448 405.114C322.415 404.736 321.47 404.153 320.669 403.401C319.849 402.617 319.209 401.663 318.796 400.607C318.348 399.366 318.136 398.053 318.171 396.734V377.754H312.614V372.953H318.171V363.974H323.477V372.953H331.223V377.754H323.477V395.472C323.37 396.863 323.72 398.251 324.476 399.424C324.904 399.903 325.437 400.279 326.032 400.522C326.628 400.765 327.271 400.87 327.913 400.828C329.157 400.818 330.371 400.45 331.409 399.768V404.942C330.803 405.228 330.164 405.437 329.506 405.566C328.691 405.703 327.865 405.766 327.038 405.752C325.812 405.76 324.596 405.543 323.448 405.114Z" fill="#1E293B"/>
<path d="M342.283 403.564C339.878 402.119 337.922 400.038 336.632 397.55C335.253 394.882 334.555 391.916 334.601 388.914C334.57 385.979 335.221 383.076 336.504 380.435C337.712 377.927 339.58 375.794 341.909 374.264C344.323 372.702 347.151 371.899 350.028 371.957C352.876 371.886 355.687 372.609 358.147 374.043C360.424 375.421 362.255 377.424 363.424 379.812C364.691 382.435 365.323 385.319 365.268 388.232C365.276 388.777 365.213 389.322 365.081 389.852H339.912C339.961 392.005 340.564 394.11 341.663 395.964C342.618 397.548 343.989 398.841 345.627 399.705C347.175 400.524 348.9 400.952 350.652 400.952C354.734 400.952 357.878 399.04 360.084 395.218L364.579 397.402C363.285 399.894 361.357 402.003 358.988 403.514C356.449 404.976 353.572 405.75 350.642 405.758C347.711 405.767 344.83 405.01 342.283 403.564ZM359.642 385.482C359.542 384.089 359.159 382.731 358.516 381.491C357.793 380.102 356.703 378.937 355.364 378.123C353.731 377.158 351.855 376.682 349.959 376.753C347.613 376.695 345.337 377.557 343.62 379.154C341.842 380.849 340.65 383.066 340.217 385.482H359.642Z" fill="#1E293B"/>
<path d="M371.444 372.954H376.504V378.064H376.755C377.437 376.244 378.714 374.707 380.379 373.7C382.039 372.576 383.995 371.968 386 371.952C387.283 371.92 388.559 372.154 389.747 372.639V378.315C388.348 377.636 386.808 377.295 385.253 377.318C383.735 377.311 382.253 377.769 381.004 378.629C379.693 379.528 378.629 380.742 377.911 382.159C377.14 383.634 376.743 385.276 376.755 386.94V404.752H371.449V372.954H371.444Z" fill="#1E293B"/>
<path d="M317.241 257.395L386.726 327.089L321.097 326.328L296.677 301.949L317.241 257.395Z" fill="#1E293B"/>
<path d="M345.405 285.644L296.677 301.949L326.49 266.518L345.405 285.644Z" fill="url(#paint0_linear_331_1239)"/>
<path d="M386.26 114.192L247.348 252.886L214.648 220.249L320.891 114.192H386.26Z" fill="#54C5F8"/>
<path d="M263.48 269.571L320.715 212.433H386.344L296.295 301.568L263.48 269.571Z" fill="#54C5F8"/>
<path d="M296.368 236.567L329.068 269.196L296.677 301.949L263.862 269.951L296.368 236.567Z" fill="#29B6F6"/>
</g>
<defs>
<linearGradient id="paint0_linear_331_1239" x1="304.964" y1="307.011" x2="329.248" y2="282.686" gradientUnits="userSpaceOnUse">
<stop stop-color="#1A237E" stop-opacity="0.4"/>
<stop offset="1" stop-color="#1A237E" stop-opacity="0"/>
</linearGradient>
<clipPath id="clip0_331_1239">
<rect width="625" height="530" fill="white"/>
</clipPath>
</defs>
</svg>
