<svg width="655" height="527" viewBox="0 0 655 527" fill="none" xmlns="http://www.w3.org/2000/svg">
<g clip-path="url(#clip0_331_1272)">
<path d="M541.885 525.247L541.9 524.55C542.216 512.862 545.073 501.383 550.273 490.91C555.473 480.438 562.892 471.223 572.013 463.907C577.161 459.844 582.801 456.445 588.799 453.792L589.371 453.537L589.468 454.155C590.63 461.535 592.469 469.068 593.326 472.411L599.07 449.997L599.709 449.813C602.636 448.953 605.753 448.99 608.658 449.919C611.564 450.847 614.125 452.624 616.012 455.021C617.98 457.419 619.186 460.351 619.473 463.44C619.76 466.529 619.116 469.634 617.623 472.353C616.284 474.848 614.968 477.451 613.695 479.967C609.321 488.617 604.799 497.561 598.208 504.509C593.168 509.72 587.027 513.739 580.235 516.272C573.443 518.806 566.17 519.791 558.949 519.154L541.885 525.247Z" fill="#F2F2F2"/>
<path d="M367.248 320.566H218.966C213.633 320.56 208.521 318.439 204.75 314.668C200.979 310.897 198.857 305.784 198.851 300.451V91.8522C198.879 67.5 208.565 44.153 225.784 26.9333C243.004 9.71367 266.351 0.0275554 290.703 0H367.248C372.581 0.00602138 377.694 2.12718 381.465 5.89813C385.236 9.66908 387.357 14.7819 387.363 20.1148V300.451C387.357 305.784 385.236 310.897 381.465 314.668C377.694 318.439 372.581 320.56 367.248 320.566Z" fill="#F2F2F2"/>
<path d="M224.151 181.283C221.905 181.286 219.752 182.179 218.164 183.767C216.575 185.356 215.682 187.509 215.679 189.755V237.368C215.682 239.614 216.575 241.768 218.164 243.356C219.752 244.944 221.905 245.838 224.151 245.84H368.253C370.499 245.838 372.653 244.944 374.241 243.356C375.829 241.768 376.723 239.614 376.725 237.368V189.755C376.723 187.509 375.829 185.356 374.241 183.767C372.653 182.179 370.499 181.286 368.253 181.283L224.151 181.283Z" fill="white"/>
<path d="M368.6 150.394H224.499C222.068 150.391 219.739 149.424 218.02 147.706C216.302 145.988 215.335 143.658 215.333 141.228C215.35 126.174 221.337 111.742 231.982 101.097C242.626 90.4528 257.058 84.4653 272.112 84.4482H368.601C371.031 84.4509 373.361 85.4175 375.079 87.1359C376.797 88.8543 377.764 91.1842 377.767 93.6144V141.227C377.764 143.658 376.797 145.987 375.079 147.706C373.36 149.424 371.03 150.391 368.6 150.394Z" fill="white"/>
<path d="M430.642 238.536H264.758C263.783 238.535 262.848 238.147 262.159 237.458C261.469 236.768 261.081 235.833 261.08 234.858V191.15C261.081 190.175 261.469 189.24 262.159 188.551C262.848 187.862 263.783 187.474 264.758 187.473H430.642C431.617 187.474 432.552 187.862 433.241 188.551C433.931 189.24 434.319 190.175 434.32 191.15V234.858C434.319 235.833 433.931 236.768 433.241 237.458C432.552 238.147 431.617 238.535 430.642 238.536Z" fill="white"/>
<path d="M430.642 239.231H264.758C263.599 239.23 262.488 238.769 261.668 237.949C260.849 237.13 260.388 236.018 260.386 234.859V191.151C260.388 189.992 260.849 188.881 261.668 188.061C262.488 187.242 263.599 186.781 264.758 186.779H430.642C431.801 186.781 432.913 187.242 433.732 188.061C434.552 188.881 435.013 189.992 435.014 191.151V234.859C435.013 236.018 434.552 237.13 433.732 237.949C432.913 238.769 431.801 239.23 430.642 239.231ZM264.758 188.168C263.967 188.169 263.209 188.483 262.649 189.042C262.09 189.602 261.775 190.36 261.775 191.151V234.859C261.775 235.65 262.09 236.409 262.649 236.968C263.209 237.527 263.967 237.842 264.758 237.843H430.642C431.433 237.842 432.192 237.527 432.751 236.968C433.31 236.409 433.625 235.65 433.626 234.859V191.151C433.625 190.36 433.31 189.602 432.751 189.042C432.192 188.483 431.433 188.169 430.642 188.168H264.758Z" fill="#CCCCCC"/>
<path d="M278.863 208.19C282.159 208.19 284.831 205.519 284.831 202.223C284.831 198.927 282.159 196.255 278.863 196.255C275.568 196.255 272.896 198.927 272.896 202.223C272.896 205.519 275.568 208.19 278.863 208.19Z" fill="#E6E6E6"/>
<path d="M420.726 217.261H274.673C274.439 217.262 274.208 217.216 273.992 217.127C273.775 217.038 273.579 216.907 273.414 216.742C273.248 216.577 273.117 216.381 273.027 216.165C272.938 215.949 272.892 215.718 272.892 215.484C272.892 215.25 272.938 215.019 273.027 214.803C273.117 214.587 273.248 214.391 273.414 214.226C273.579 214.061 273.775 213.93 273.992 213.841C274.208 213.752 274.439 213.706 274.673 213.707H420.726C420.96 213.706 421.192 213.752 421.408 213.841C421.624 213.93 421.82 214.061 421.986 214.226C422.151 214.391 422.282 214.587 422.372 214.803C422.461 215.019 422.508 215.25 422.508 215.484C422.508 215.718 422.461 215.949 422.372 216.165C422.282 216.381 422.151 216.577 421.986 216.742C421.82 216.907 421.624 217.038 421.408 217.127C421.192 217.216 420.96 217.262 420.726 217.261Z" fill="#E6E6E6"/>
<path d="M406.214 224.283H274.673C274.202 224.283 273.75 224.096 273.416 223.762C273.083 223.429 272.896 222.977 272.896 222.506C272.896 222.034 273.083 221.582 273.416 221.249C273.75 220.916 274.202 220.729 274.673 220.729H406.214C406.685 220.729 407.137 220.916 407.471 221.249C407.804 221.582 407.991 222.034 407.991 222.506C407.991 222.977 407.804 223.429 407.471 223.762C407.137 224.096 406.685 224.283 406.214 224.283Z" fill="#E6E6E6"/>
<path d="M258.307 523.611L217.705 507.427C216.799 507.065 216.075 506.359 215.69 505.463C215.304 504.568 215.29 503.556 215.65 502.65L277.07 348.555C277.432 347.65 278.139 346.925 279.035 346.54C279.93 346.155 280.942 346.14 281.848 346.5L322.45 362.684C323.355 363.046 324.08 363.752 324.465 364.648C324.85 365.544 324.865 366.555 324.505 367.462L263.085 521.556C262.722 522.461 262.016 523.186 261.12 523.571C260.225 523.957 259.213 523.971 258.307 523.611Z" fill="white"/>
<path d="M258.05 524.256L217.448 508.073C216.372 507.642 215.51 506.803 215.052 505.738C214.594 504.673 214.578 503.47 215.006 502.393L276.426 348.298C276.856 347.222 277.696 346.361 278.761 345.903C279.825 345.445 281.028 345.428 282.105 345.856L322.707 362.039C323.783 362.47 324.645 363.31 325.103 364.374C325.561 365.439 325.578 366.642 325.15 367.719L263.729 521.814C263.299 522.89 262.459 523.752 261.395 524.21C260.33 524.667 259.127 524.684 258.05 524.256ZM216.295 502.907C216.003 503.642 216.015 504.463 216.327 505.19C216.64 505.916 217.228 506.489 217.962 506.783L258.564 522.967C259.299 523.259 260.12 523.247 260.846 522.935C261.573 522.622 262.146 522.034 262.44 521.3L323.86 367.205C324.152 366.47 324.14 365.649 323.828 364.923C323.515 364.196 322.928 363.623 322.193 363.329L281.591 347.146C280.856 346.854 280.035 346.865 279.309 347.178C278.582 347.49 278.009 348.078 277.715 348.813L216.295 502.907Z" fill="#CCCCCC"/>
<path d="M285.549 373.087C288.845 373.087 291.517 370.415 291.517 367.119C291.517 363.823 288.845 361.151 285.549 361.151C282.253 361.151 279.582 363.823 279.582 367.119C279.582 370.415 282.253 373.087 285.549 373.087Z" fill="#E6E6E6"/>
<path d="M244.684 505.46C244.246 505.285 243.896 504.944 243.71 504.511C243.524 504.078 243.517 503.589 243.691 503.152L297.769 367.478C297.855 367.262 297.983 367.064 298.146 366.897C298.309 366.73 298.503 366.596 298.718 366.504C298.932 366.412 299.162 366.363 299.396 366.36C299.629 366.356 299.861 366.399 300.078 366.486C300.294 366.572 300.492 366.7 300.659 366.863C300.826 367.026 300.96 367.22 301.052 367.434C301.144 367.649 301.193 367.879 301.196 368.113C301.2 368.346 301.157 368.578 301.07 368.794L246.993 504.468C246.818 504.905 246.476 505.255 246.044 505.441C245.611 505.628 245.122 505.634 244.684 505.46Z" fill="#E6E6E6"/>
<path d="M256.58 494.58C256.143 494.405 255.793 494.063 255.606 493.63C255.42 493.198 255.413 492.709 255.587 492.271L304.292 370.078C304.378 369.861 304.506 369.663 304.669 369.495C304.831 369.328 305.026 369.194 305.24 369.101C305.455 369.009 305.685 368.959 305.919 368.956C306.153 368.953 306.385 368.996 306.602 369.082C306.819 369.169 307.017 369.297 307.184 369.46C307.351 369.623 307.485 369.818 307.577 370.033C307.669 370.247 307.718 370.478 307.721 370.712C307.724 370.946 307.68 371.177 307.593 371.394L258.889 493.587C258.714 494.024 258.373 494.374 257.94 494.561C257.507 494.747 257.018 494.754 256.58 494.58Z" fill="#E6E6E6"/>
<path d="M358.24 41.238C366.916 41.238 373.949 34.2049 373.949 25.5292C373.949 16.8534 366.916 9.82031 358.24 9.82031C349.564 9.82031 342.531 16.8534 342.531 25.5292C342.531 34.2049 349.564 41.238 358.24 41.238Z" fill="white"/>
<path d="M365.975 24.9071H358.908V17.841C358.909 17.753 358.892 17.6658 358.858 17.5844C358.825 17.503 358.776 17.429 358.714 17.3666C358.651 17.3043 358.578 17.2548 358.496 17.2211C358.415 17.1873 358.328 17.1699 358.24 17.1699C358.152 17.1699 358.065 17.1873 357.983 17.2211C357.902 17.2548 357.828 17.3043 357.766 17.3666C357.704 17.429 357.655 17.503 357.622 17.5844C357.588 17.6658 357.571 17.753 357.571 17.841V24.9071H350.505C350.328 24.9071 350.158 24.9776 350.033 25.1029C349.907 25.2283 349.837 25.3983 349.837 25.5756C349.837 25.7529 349.907 25.9229 350.033 26.0483C350.158 26.1736 350.328 26.2441 350.505 26.2441H357.571V33.3104C357.571 33.3984 357.588 33.4856 357.622 33.567C357.655 33.6484 357.704 33.7224 357.766 33.7847C357.828 33.8471 357.902 33.8966 357.983 33.9303C358.065 33.9641 358.152 33.9814 358.24 33.9814C358.328 33.9814 358.415 33.9641 358.496 33.9303C358.578 33.8966 358.651 33.8471 358.714 33.7847C358.776 33.7224 358.825 33.6484 358.858 33.567C358.892 33.4856 358.909 33.3984 358.908 33.3104V26.2441H365.975C366.152 26.2441 366.322 26.1736 366.447 26.0483C366.573 25.9229 366.643 25.7529 366.643 25.5756C366.643 25.3983 366.573 25.2283 366.447 25.1029C366.322 24.9776 366.152 24.9071 365.975 24.9071Z" fill="#E6E6E6"/>
<path d="M551.818 38.4727H498.818C495.371 38.4727 492.064 37.103 489.626 34.6651C487.188 32.2271 485.818 28.9205 485.818 25.4727C485.818 22.0248 487.188 18.7182 489.626 16.2803C492.064 13.8423 495.371 12.4727 498.818 12.4727H551.818C555.266 12.4727 558.573 13.8423 561.011 16.2803C563.449 18.7182 564.818 22.0248 564.818 25.4727C564.818 28.9205 563.449 32.2271 561.011 34.6651C558.573 37.103 555.266 38.4727 551.818 38.4727Z" fill="#2563EB"/>
<path d="M370.727 20.1192L370.698 22.1191L473.117 23.5986L473.146 21.5987L370.727 20.1192Z" fill="#1E293B"/>
<path d="M366.428 26.5441C365.198 26.5469 364.009 26.0966 363.089 25.2791C362.169 24.4616 361.583 23.3341 361.441 22.1116C361.299 20.8892 361.613 19.6574 362.321 18.6513C363.03 17.6451 364.084 16.935 365.283 16.6564C366.481 16.3778 367.741 16.5502 368.82 17.1408C369.9 17.7313 370.724 18.6987 371.136 19.8583C371.548 21.0178 371.519 22.2885 371.054 23.4279C370.589 24.5673 369.721 25.4956 368.615 26.0358C367.934 26.3686 367.186 26.5424 366.428 26.5441ZM366.421 18.5396C365.769 18.5396 365.135 18.7518 364.615 19.1441C364.094 19.5364 363.715 20.0875 363.535 20.7141C363.356 21.3407 363.385 22.0088 363.618 22.6175C363.852 23.2261 364.277 23.7422 364.83 24.0878C365.383 24.4333 366.033 24.5896 366.682 24.5329C367.332 24.4762 367.945 24.2097 368.43 23.7736C368.914 23.3375 369.244 22.7555 369.368 22.1156C369.493 21.4757 369.406 20.8127 369.12 20.2266C368.873 19.7213 368.489 19.2948 368.012 18.9967C367.535 18.6986 366.984 18.5402 366.421 18.5396Z" fill="#1E293B"/>
<path d="M59.5923 55.4727C59.5961 52.026 60.967 48.7216 63.4041 46.2845C65.8413 43.8473 69.1456 42.4765 72.5923 42.4727H125.592C129.04 42.4727 132.347 43.8423 134.785 46.2803C137.223 48.7182 138.592 52.0248 138.592 55.4727C138.592 58.9205 137.223 62.2271 134.785 64.6651C132.347 67.103 129.04 68.4727 125.592 68.4727H72.5923C69.1456 68.4688 65.8413 67.098 63.4041 64.6608C60.967 62.2237 59.5961 58.9193 59.5923 55.4727Z" fill="#2563EB"/>
<path d="M253.685 50.1225L151.265 51.6016L151.294 53.6016L253.714 52.1225L253.685 50.1225Z" fill="#1E293B"/>
<path d="M255.796 56.0353C254.701 55.4979 253.842 54.5765 253.383 53.4467C252.924 52.317 252.896 51.0578 253.306 49.909C253.715 48.7602 254.533 47.8022 255.603 47.2175C256.673 46.6328 257.921 46.4623 259.109 46.7383C260.297 47.0144 261.342 47.7179 262.044 48.7146C262.747 49.7114 263.058 50.9318 262.919 52.1434C262.78 53.3549 262.2 54.4729 261.29 55.2844C260.379 56.0959 259.202 56.5441 257.983 56.5436C257.224 56.5433 256.476 56.3694 255.796 56.0353ZM257.01 48.7043C256.637 48.8316 256.293 49.0316 255.998 49.2928C255.703 49.554 255.462 49.8711 255.291 50.2258C254.985 50.851 254.906 51.5634 255.067 52.2405C255.228 52.9176 255.618 53.518 256.172 53.9393C256.726 54.3606 257.409 54.5768 258.104 54.5509C258.8 54.525 259.465 54.2588 259.986 53.7975C260.507 53.3362 260.852 52.7085 260.962 52.0213C261.072 51.3342 260.94 50.6301 260.589 50.0293C260.238 49.4284 259.689 48.9679 259.037 48.7263C258.384 48.4846 257.668 48.4769 257.01 48.7043Z" fill="#1E293B"/>
<path d="M55.5923 448.473C55.5961 445.026 56.967 441.722 59.4041 439.284C61.8413 436.847 65.1456 435.476 68.5923 435.473H121.592C125.04 435.473 128.347 436.842 130.785 439.28C133.223 441.718 134.592 445.025 134.592 448.473C134.592 451.92 133.223 455.227 130.785 457.665C128.347 460.103 125.04 461.473 121.592 461.473H68.5923C65.1456 461.469 61.8413 460.098 59.4041 457.661C56.967 455.224 55.5961 451.919 55.5923 448.473Z" fill="#2563EB"/>
<path d="M249.683 443.123L147.264 444.603L147.293 446.603L249.712 445.123L249.683 443.123Z" fill="#1E293B"/>
<path d="M251.796 449.035C250.701 448.498 249.842 447.577 249.383 446.447C248.924 445.317 248.896 444.058 249.306 442.909C249.715 441.76 250.533 440.802 251.603 440.218C252.673 439.633 253.921 439.462 255.109 439.738C256.297 440.014 257.342 440.718 258.044 441.715C258.747 442.711 259.058 443.932 258.919 445.143C258.78 446.355 258.2 447.473 257.29 448.284C256.379 449.096 255.202 449.544 253.983 449.544C253.224 449.543 252.476 449.369 251.796 449.035ZM253.01 441.704C252.637 441.832 252.293 442.032 251.998 442.293C251.703 442.554 251.462 442.871 251.291 443.226C250.985 443.851 250.906 444.563 251.067 445.24C251.228 445.918 251.618 446.518 252.172 446.939C252.726 447.361 253.409 447.577 254.104 447.551C254.8 447.525 255.465 447.259 255.986 446.797C256.507 446.336 256.852 445.708 256.962 445.021C257.072 444.334 256.94 443.63 256.589 443.029C256.238 442.428 255.689 441.968 255.036 441.726C254.384 441.485 253.668 441.477 253.01 441.704Z" fill="#1E293B"/>
<path d="M69.5923 200.473C69.5961 197.026 70.967 193.722 73.4041 191.284C75.8413 188.847 79.1456 187.476 82.5923 187.473H135.592C139.04 187.473 142.347 188.842 144.785 191.28C147.223 193.718 148.592 197.025 148.592 200.473C148.592 203.92 147.223 207.227 144.785 209.665C142.347 212.103 139.04 213.473 135.592 213.473H82.5923C79.1456 213.469 75.8413 212.098 73.4041 209.661C70.967 207.224 69.5961 203.919 69.5923 200.473Z" fill="#2563EB"/>
<path d="M263.684 195.122L161.265 196.602L161.294 198.602L263.713 197.122L263.684 195.122Z" fill="#1E293B"/>
<path d="M265.796 201.035C264.701 200.498 263.842 199.577 263.383 198.447C262.924 197.317 262.896 196.058 263.306 194.909C263.715 193.76 264.533 192.802 265.603 192.218C266.673 191.633 267.921 191.462 269.109 191.738C270.297 192.014 271.342 192.718 272.044 193.715C272.747 194.711 273.058 195.932 272.919 197.143C272.78 198.355 272.2 199.473 271.29 200.284C270.379 201.096 269.202 201.544 267.983 201.544C267.224 201.543 266.476 201.369 265.796 201.035ZM267.01 193.704C266.637 193.832 266.293 194.032 265.998 194.293C265.703 194.554 265.462 194.871 265.291 195.226C264.985 195.851 264.906 196.563 265.067 197.24C265.228 197.918 265.618 198.518 266.172 198.939C266.726 199.361 267.409 199.577 268.104 199.551C268.8 199.525 269.465 199.259 269.986 198.798C270.507 198.336 270.852 197.708 270.962 197.021C271.072 196.334 270.94 195.63 270.589 195.029C270.238 194.428 269.689 193.968 269.037 193.726C268.384 193.485 267.668 193.477 267.01 193.704Z" fill="#1E293B"/>
<path d="M537.818 121.473H484.818C481.371 121.473 478.064 120.103 475.626 117.665C473.188 115.227 471.818 111.92 471.818 108.473C471.818 105.025 473.188 101.718 475.626 99.2803C478.064 96.8423 481.371 95.4727 484.818 95.4727H537.818C541.266 95.4727 544.573 96.8423 547.011 99.2803C549.449 101.718 550.818 105.025 550.818 108.473C550.818 111.92 549.449 115.227 547.011 117.665C544.573 120.103 541.266 121.473 537.818 121.473Z" fill="#2563EB"/>
<path d="M356.727 103.119L356.698 105.119L459.117 106.599L459.146 104.599L356.727 103.119Z" fill="#1E293B"/>
<path d="M352.428 109.544C351.198 109.547 350.009 109.097 349.089 108.279C348.169 107.462 347.583 106.334 347.441 105.112C347.299 103.889 347.613 102.657 348.321 101.651C349.03 100.645 350.084 99.935 351.283 99.6564C352.481 99.3778 353.741 99.5502 354.82 100.141C355.9 100.731 356.724 101.699 357.136 102.858C357.548 104.018 357.519 105.289 357.054 106.428C356.589 107.567 355.721 108.496 354.615 109.036C353.934 109.369 353.186 109.542 352.428 109.544ZM352.421 101.54C351.769 101.54 351.135 101.752 350.615 102.144C350.094 102.536 349.715 103.087 349.535 103.714C349.356 104.341 349.385 105.009 349.618 105.617C349.852 106.226 350.277 106.742 350.83 107.088C351.383 107.433 352.033 107.59 352.682 107.533C353.332 107.476 353.945 107.21 354.43 106.774C354.914 106.337 355.244 105.755 355.368 105.116C355.493 104.476 355.406 103.813 355.12 103.227C354.873 102.721 354.489 102.295 354.012 101.997C353.535 101.699 352.984 101.54 352.421 101.54Z" fill="#1E293B"/>
<path d="M566.163 269.549L550.769 270.231C547.3 279.665 549.757 302.566 549.757 302.566L541.67 340.2C540.823 341.043 540.213 342.095 539.902 343.249C539.591 344.402 539.589 345.618 539.896 346.773C540.204 347.928 540.811 348.981 541.655 349.827C542.499 350.673 543.551 351.281 544.705 351.591C545.86 351.901 547.075 351.902 548.229 351.593C549.384 351.284 550.437 350.676 551.281 349.831C552.126 348.985 552.734 347.932 553.042 346.778C553.351 345.623 553.35 344.408 553.039 343.254L569.463 298.126L566.163 269.549Z" fill="#9E616A"/>
<path d="M555.922 228.388C558.31 228.309 560.685 228.758 562.88 229.702C565.075 230.645 567.035 232.061 568.62 233.849C570.205 235.636 571.377 237.751 572.052 240.042C572.727 242.334 572.889 244.746 572.526 247.108L571.047 256.724C571.047 256.724 575.276 289.458 570.12 298.367L560.285 324.999L544.238 324.179L548.675 295.095C548.675 295.095 549.794 280.701 545.699 274.611C543.192 270.882 540.642 256.848 540.206 245.122C540.137 242.991 540.489 240.867 541.242 238.872C541.994 236.877 543.133 235.05 544.593 233.495C546.053 231.941 547.805 230.69 549.749 229.813C551.693 228.937 553.791 228.452 555.922 228.388Z" fill="#FCFCFC"/>
<path d="M544.798 514.593L534.803 514.592L530.047 476.036H544.801L544.798 514.593Z" fill="#9E616A"/>
<path d="M545.151 525.02L514.412 525.019V524.63C514.412 521.457 515.673 518.414 517.916 516.17C520.16 513.927 523.203 512.666 526.376 512.666L531.992 508.406L542.468 512.667L545.151 512.667L545.151 525.02Z" fill="#1E293B"/>
<path d="M508.681 514.593L498.686 514.592L493.93 476.036H508.684L508.681 514.593Z" fill="#9E616A"/>
<path d="M509.034 525.02L478.295 525.019V524.63C478.295 521.457 479.556 518.414 481.799 516.17C484.043 513.927 487.086 512.666 490.259 512.666L495.875 508.406L506.351 512.667L509.034 512.667L509.034 525.02Z" fill="#1E293B"/>
<path d="M472.385 409.522C478.321 428.433 480.601 443.27 485.125 461.996C486.911 465.283 494.602 492.6 494.602 492.6C494.602 492.6 506.129 493.865 510.206 490.639C514.283 487.413 510.081 471.448 510.081 471.448C512.769 459.377 506.145 440.36 505.752 428.658C506.568 423.747 502.245 419.531 501.849 414.848C504.707 412.673 518.608 378.55 521.443 369.016C519.986 398.069 532.766 464.405 526.033 486.443C522.12 499.247 531.214 496.4 544.681 497.019C550.685 495.236 548.243 484.958 548.243 484.958C548.243 484.958 552.32 478.169 552.32 475.537C555.239 463.219 558.747 436.424 557.79 430.402C558.228 424.011 558.445 360.156 563.327 337.79C566.58 319.973 526.709 316.051 515.242 311.803C496.108 302.584 499.337 315.69 489.261 327.763C479.545 348.575 473.822 385.738 472.385 409.522Z" fill="#1E293B"/>
<path d="M517.051 222.225L528.675 209.137L547.042 211.178L558.802 227.635C571.798 230.626 574.195 241.252 571.913 254.391C567.35 280.668 556.085 299.035 561.205 312C568.978 331.681 565.21 346.825 546.603 344.066C527.996 341.307 485.12 323.086 497.205 311C509.291 298.914 498.486 292.579 498.486 292.579L506.97 246.375C504.797 234.592 505.133 223.459 517.051 222.225Z" fill="white"/>
<path d="M518.544 263.704L503.895 258.926C497.328 266.535 491.568 288.836 491.568 288.836L470.754 321.216C469.665 321.707 468.724 322.477 468.026 323.447C467.329 324.418 466.899 325.555 466.781 326.744C466.662 327.933 466.859 329.133 467.352 330.222C467.844 331.311 468.615 332.251 469.586 332.947C470.558 333.643 471.695 334.071 472.885 334.188C474.074 334.305 475.273 334.107 476.361 333.613C477.45 333.119 478.389 332.348 479.084 331.375C479.779 330.403 480.206 329.265 480.321 328.076L511.576 291.615L518.544 263.704Z" fill="#9E616A"/>
<path d="M523.444 221.572C525.707 222.339 527.773 223.595 529.495 225.251C531.217 226.907 532.553 228.922 533.408 231.153C534.263 233.384 534.616 235.776 534.441 238.158C534.266 240.541 533.569 242.856 532.398 244.938L527.629 253.418C527.629 253.418 520.068 285.547 512.106 292.071L493.527 313.539L478.797 307.124L493.185 281.462C493.185 281.462 499.298 268.382 497.608 261.242C496.573 256.868 499.126 242.835 502.845 231.706C503.53 229.686 504.607 227.822 506.014 226.22C507.42 224.617 509.129 223.308 511.043 222.366C512.956 221.425 515.036 220.871 517.164 220.734C519.293 220.598 521.427 220.883 523.444 221.572Z" fill="#FCFCFC"/>
<path d="M542.318 206.346C552.804 206.346 561.305 197.845 561.305 187.36C561.305 176.874 552.804 168.373 542.318 168.373C531.832 168.373 523.332 176.874 523.332 187.36C523.332 197.845 531.832 206.346 542.318 206.346Z" fill="#A0616A"/>
<path d="M525.788 170.276C526.072 168.698 526.708 167.205 527.647 165.907C528.12 165.344 528.707 164.888 529.368 164.568C530.03 164.248 530.751 164.071 531.486 164.048C532.221 164.026 532.952 164.159 533.632 164.438C534.311 164.718 534.924 165.138 535.431 165.67C535.134 164.807 535.048 163.886 535.179 162.983C536.566 163.648 538.049 164.089 539.574 164.29L536.205 160.772C543.126 157.696 548.846 157.862 552.976 162.313C554.158 163.587 556.578 162.697 557.849 164.012C559.12 165.327 559.191 168.134 557.584 168.867C560.75 167.675 564.385 169.405 566.474 172.304C568.562 175.203 569.332 179.028 569.473 182.738C569.656 187.549 568.759 192.67 565.823 196.212C563.902 198.528 561.284 199.972 559.159 202.056L559.095 202.119C556.768 204.506 553.85 206.235 550.639 207.129C547.427 208.024 544.036 208.053 540.81 207.213C540.447 207.113 540.087 207.003 539.726 206.9C537.919 207.717 535.668 206.599 534.527 204.782C533.31 202.844 533.07 200.364 533.018 198.002C532.951 194.913 533.141 191.823 533.587 188.766C534.09 185.322 534.544 180.913 531.817 179.183C529.694 177.837 527.056 179.166 524.919 180.484C524.713 177.057 525.006 173.619 525.788 170.276Z" fill="#1E293B"/>
<path d="M711.941 526.604L-36.8093 526.911C-37.1245 526.91 -37.4265 526.785 -37.649 526.561C-37.8716 526.338 -37.9966 526.036 -37.9966 525.721C-37.9966 525.405 -37.8716 525.103 -37.649 524.88C-37.4265 524.657 -37.1245 524.531 -36.8093 524.53L711.941 524.223C712.256 524.223 712.559 524.348 712.783 524.571C713.006 524.795 713.131 525.098 713.131 525.413C713.131 525.729 713.006 526.032 712.783 526.255C712.559 526.479 712.256 526.604 711.941 526.604Z" fill="#CACACA"/>
</g>
<defs>
<clipPath id="clip0_331_1272">
<rect width="655" height="527" fill="white"/>
</clipPath>
</defs>
</svg>
