<svg width="708" height="444" viewBox="0 0 708 444" fill="none" xmlns="http://www.w3.org/2000/svg">
<g clip-path="url(#clip0_331_1846)">
<path d="M542.021 395.861C586.102 395.861 621.838 388.676 621.838 379.814C621.838 370.952 586.102 363.768 542.021 363.768C497.939 363.768 462.204 370.952 462.204 379.814C462.204 388.676 497.939 395.861 542.021 395.861Z" stroke="#1E293B" stroke-miterlimit="10"/>
<path d="M241.317 253.626C241.551 254.221 241.817 254.803 242.112 255.371V255.444C242.112 255.444 245.892 269.425 247.662 272.36C248.177 273.209 248.758 274.132 249.332 275.034C249.219 275.698 249.219 276.376 249.332 277.04C249.866 280.156 250.514 284.442 250.22 285.384C249.926 286.327 250.574 288.674 249.552 289.489C248.53 290.305 247.482 291.723 250.614 293.601C250.614 293.601 251.202 295.186 250.675 295.54C250.614 295.58 250.675 295.667 250.821 295.781C249.96 298.335 248.697 302.467 249.486 302.761C249.92 302.928 251.095 302.313 252.384 301.484C252.418 301.651 252.445 301.832 252.478 302.012C252.683 303.389 253 304.746 253.426 306.071C254.001 307.348 254.575 309.501 254.268 310.21C253.961 310.918 255.11 312.496 254.842 313.118C254.575 313.74 255.731 315.759 255.731 315.759C255.731 315.759 256.88 319.677 256.833 321.001C256.786 322.325 258.075 330.863 258.075 330.863C258.075 330.863 256.739 335.269 257.407 336.546C258.075 337.823 258.509 342.229 257.407 343.86C256.305 345.492 254.923 349.096 255.37 350.065C255.818 351.034 254.749 363.016 257.447 367.95C257.793 369.786 258.045 371.638 258.202 373.5C258.202 374.837 260.326 378.387 260.326 378.387C260.326 378.387 259.044 383.736 262.19 384.639C262.407 384.706 262.631 384.749 262.857 384.766C262.954 385.35 262.875 385.951 262.63 386.491C262.093 387.236 261.711 388.082 261.508 388.978C261.462 389.146 261.484 389.326 261.568 389.479C261.922 389.874 262.904 395.162 262.904 395.162C262.904 395.162 264.32 401.106 272.115 399.655C272.115 399.655 277.385 399.348 276.944 397.496C276.799 396.885 276.607 396.285 276.37 395.704C276.184 395.328 276.019 394.942 275.875 394.547C275.789 394.106 274.68 392.869 274.593 392.033C274.506 391.198 273.798 389.566 273.925 389.038C274.052 388.51 272.729 384.725 272.636 383.883C272.528 383.297 272.36 382.723 272.135 382.171L272.415 382.038C272.415 382.038 273.123 378.073 272.509 376.622C271.894 375.171 269.45 373.279 269.45 373.279C269.45 373.279 269.804 363.544 269.363 362.22C268.922 360.896 269.583 355.882 269.583 355.882C269.583 355.882 271.086 348.788 270.999 347.19C270.949 346.201 271.099 345.211 271.44 344.282C271.44 344.282 272.375 333.845 272.99 332.521C273.604 331.197 274.326 318.253 274.326 318.253L274.74 319.443C275.322 321.229 276.013 322.977 276.81 324.678C277.151 325.213 278.146 326.925 279.001 328.355L280.264 330.495C280.264 330.495 280.838 332.568 280.437 333.838C280.036 335.108 284.558 341.982 284.558 341.982C284.267 342.555 284.116 343.19 284.118 343.834C284.244 344.502 282.742 346.608 282.742 346.608C282.742 346.608 282.167 348.501 282.521 349.162C282.875 349.824 281.947 353.742 281.947 353.742C281.947 353.742 280.437 362.374 280.083 363.39C279.729 364.407 280.264 371.36 280.264 371.36C280.264 371.36 277.485 378.481 278.774 380.848C278.828 381.723 278.834 383.061 278.494 383.602C278.033 384.324 278.166 386.992 278.213 387.728C278.213 387.855 278.213 387.921 278.213 387.921C278.213 387.921 276.704 389.927 278.607 390.743C280.511 391.559 286.983 392.147 286.983 392.147C286.983 392.147 293.135 393.912 296.1 394.394C299.066 394.875 305.271 394.701 305.712 392.896C305.869 392.335 305.923 391.751 305.872 391.171C305.832 390.805 305.699 390.455 305.485 390.155C305.271 389.855 304.983 389.615 304.65 389.459C302.826 388.733 300.961 388.115 299.066 387.607C299.066 387.607 296.14 386.939 295.873 385.668C295.606 384.398 291.445 380.868 291.445 380.868C291.445 380.868 291.398 380.62 291.311 380.286H291.445L291.244 380.085C291.037 379.417 290.703 378.534 290.296 378.701C290.232 378.582 290.193 378.45 290.182 378.315C290.17 378.18 290.186 378.044 290.229 377.915C290.271 377.787 290.339 377.668 290.429 377.566C290.518 377.465 290.628 377.382 290.75 377.324C292.346 376.448 293.322 373.673 292.874 370.678C292.427 367.683 292.346 368.211 293.275 366.493C293.851 365.194 294.081 363.768 293.943 362.354L296.394 353.207C296.778 352.084 297.016 350.915 297.102 349.731C297.143 348.799 297.385 347.887 297.81 347.056C297.81 347.056 298.919 340.711 299.894 339.26C300.869 337.81 299.226 332.695 299.226 332.695C299.226 332.695 297.723 324.772 297.81 321.155C297.897 317.537 293.909 304.994 293.909 304.994C293.398 304.18 293.181 303.215 293.295 302.26C293.375 301.511 292.907 300.294 292.38 299.204L292.213 298.863C292.416 298.601 292.662 298.375 292.941 298.195C294.036 297.526 294.551 295.768 294.557 294.531L279.455 258.901C279.455 258.794 286.449 244.492 286.429 244.385C286.014 242.039 282.06 235.814 282.06 235.814C282.022 235.736 281.965 235.669 281.893 235.62C281.005 235.212 277.999 233.507 277.999 233.507C275.642 230.592 273.431 229.99 271.988 230.01C271.534 230.005 271.083 230.075 270.652 230.218C270.498 230.266 270.349 230.326 270.205 230.398L270.138 230.98C270.015 229.635 270.121 228.278 270.452 226.968C270.485 226.855 270.519 226.734 270.545 226.621C270.766 226.621 270.986 226.621 271.213 226.621C272.627 226.625 274.028 226.351 275.336 225.813C276.644 225.275 277.833 224.485 278.836 223.488C279.839 222.49 280.636 221.304 281.181 219.998C281.726 218.692 282.009 217.292 282.014 215.876C282.013 214.87 281.874 213.869 281.599 212.901L281.546 212.747L281.88 212.6C283.216 212.105 284.892 212.948 285.974 212.052C286.366 211.662 286.648 211.175 286.789 210.641C287.089 209.925 287.289 209.172 287.384 208.401C287.384 208.267 287.384 208.134 287.384 208C287.387 207.96 287.387 207.92 287.384 207.88C287.387 207.831 287.387 207.782 287.384 207.733C287.384 207.672 287.384 207.612 287.384 207.552C287.323 207.061 287.124 206.597 286.809 206.215C286.101 205.386 284.919 205.185 284.024 204.577C283.292 204.009 282.685 203.297 282.241 202.484C281.795 201.676 281.209 200.954 280.511 200.351C280.156 200.053 279.726 199.857 279.268 199.785C278.81 199.713 278.342 199.768 277.912 199.943C277.651 200.122 277.362 200.258 277.058 200.345C276.726 200.349 276.4 200.261 276.116 200.09C273.043 198.653 269.437 198.907 266.097 199.335C264.74 199.443 263.408 199.763 262.149 200.284C261.521 200.543 260.956 200.937 260.494 201.437C260.033 201.937 259.686 202.531 259.478 203.179C259.204 204.216 259.411 205.339 259.084 206.362C258.857 207.031 258.416 207.646 258.135 208.321C257.999 208.675 257.914 209.046 257.881 209.424C257.881 209.424 257.881 209.498 257.881 209.531C257.768 211.049 258.362 212.647 258.65 214.211C259.044 216.344 258.843 218.664 259.758 220.683C259.85 220.931 259.966 221.168 260.106 221.392C259.785 222.061 259.438 222.769 259.104 223.431C258.609 223.291 257.1 222.957 257.047 224.281C257.036 225.357 256.785 226.417 256.312 227.383C256.242 227.439 256.168 227.49 256.091 227.537C256.01 227.574 255.942 227.636 255.898 227.714C255.853 227.792 255.835 227.882 255.844 227.971L255.671 228.105C255.594 228.11 255.52 228.135 255.457 228.178C255.363 228.018 255.056 228.005 254.081 229.168C252.783 230.519 251.29 231.669 249.653 232.578C249.653 232.578 243.094 237.158 242.74 239.264C242.386 241.37 240.195 250.57 241.317 253.626ZM270.118 231.281C270.118 231.281 270.118 231.234 270.118 231.207L270.198 231.247L270.118 231.281ZM287.938 381.048C287.761 381.124 287.57 381.162 287.377 381.162L287.938 381.048Z" fill="url(#paint0_linear_331_1846)"/>
<path d="M272.333 398.04C264.632 399.484 263.229 393.574 263.229 393.574C263.229 393.574 262.267 388.318 261.893 387.924C261.808 387.771 261.787 387.591 261.833 387.422C262.034 386.532 262.411 385.691 262.942 384.949C263.423 384.38 263.029 382.014 263.029 382.014L271.952 379.74C272.334 380.584 272.627 381.464 272.827 382.368C272.921 383.197 274.23 386.968 274.096 387.489C273.963 388.011 274.671 389.636 274.764 390.471C274.858 391.307 275.946 392.531 276.033 392.965C276.167 393.361 276.328 393.748 276.514 394.122C276.752 394.698 276.942 395.293 277.082 395.9C277.536 397.732 272.333 398.04 272.333 398.04Z" fill="#1E293B"/>
<path opacity="0.1" d="M272.333 398.04C264.632 399.484 263.229 393.574 263.229 393.574C263.229 393.574 262.267 388.319 261.893 387.924C261.808 387.771 261.787 387.591 261.833 387.423L263.683 392.772C263.683 392.772 265.219 395.974 270.903 395.486C274.143 395.219 275.733 394.617 276.507 394.149C276.746 394.725 276.935 395.32 277.075 395.928C277.536 397.733 272.333 398.04 272.333 398.04Z" fill="#1E293B"/>
<path opacity="0.1" d="M266.335 389.716C266.335 389.716 268.265 389.762 268.392 388.185L266.335 389.716Z" fill="#1E293B"/>
<path d="M299.811 337.946C298.849 339.39 297.754 345.695 297.754 345.695C297.347 346.53 297.119 347.441 297.086 348.369C297.015 349.548 296.791 350.712 296.418 351.833L293.887 360.899C294.021 362.304 293.791 363.721 293.219 365.011C292.304 366.723 292.391 366.194 292.825 369.176C293.259 372.158 292.304 374.913 290.728 375.789C289.151 376.665 291.429 378.724 291.429 378.724C291.429 378.724 281.363 381.438 279.259 379.774C277.155 378.109 280.355 369.878 280.355 369.878C280.355 369.878 279.834 362.958 280.181 361.949C280.528 360.939 282.018 352.354 282.018 352.354C282.018 352.354 282.939 348.456 282.585 347.801C282.231 347.146 282.806 345.26 282.806 345.26C282.806 345.26 284.295 343.154 284.142 342.499C284.144 341.86 284.295 341.231 284.583 340.66C284.583 340.66 280.121 333.827 280.508 332.557C280.896 331.286 280.335 329.214 280.335 329.214C280.335 329.214 279.774 328.244 279.092 327.088C278.264 325.664 277.262 323.965 276.922 323.43C276.139 321.739 275.459 320.002 274.884 318.229L274.47 317.039C274.47 317.039 273.802 329.916 273.134 331.226C272.466 332.537 271.605 342.927 271.605 342.927C271.264 343.85 271.114 344.833 271.164 345.815C271.251 347.433 269.761 354.507 269.761 354.507C269.761 354.507 269.093 359.502 269.548 360.819C270.002 362.136 269.634 371.811 269.634 371.811C269.634 371.811 272.039 373.696 272.653 375.154C273.268 376.611 272.567 380.543 272.567 380.543C272.567 380.543 265.567 384.046 262.454 383.123C259.342 382.201 260.617 376.905 260.617 376.905C260.617 376.905 258.52 373.402 258.52 372.045C258.364 370.192 258.115 368.349 257.772 366.522C255.1 361.614 256.156 349.707 255.722 348.737C255.287 347.768 256.637 344.184 257.725 342.566C258.814 340.948 258.393 336.548 257.725 335.291C257.057 334.034 258.393 329.642 258.393 329.642C258.393 329.642 257.124 321.144 257.171 319.833C257.218 318.523 256.076 314.618 256.076 314.618C256.076 314.618 254.94 312.612 255.201 311.991C255.461 311.369 254.326 309.798 254.633 309.102C254.94 308.407 254.366 306.254 253.798 304.984C253.382 303.673 253.07 302.332 252.863 300.972C252.596 299.461 252.402 298.13 252.402 298.13L259.622 292.307L277.656 287.573L284.496 285.347L291.102 295.77C291.102 295.77 291.769 296.86 292.391 298.117C292.912 299.2 293.372 300.41 293.292 301.159C293.182 302.108 293.399 303.065 293.907 303.874C293.907 303.874 297.841 316.357 297.754 319.92C297.667 323.484 299.157 331.4 299.157 331.4C299.157 331.4 300.773 336.502 299.811 337.946Z" fill="#1E293B"/>
<path opacity="0.1" d="M259.295 344.472C259.295 344.472 266.996 341.189 269.267 343.509C271.538 345.829 259.295 344.472 259.295 344.472Z" fill="#1E293B"/>
<path opacity="0.1" d="M263.623 345.782C263.623 345.782 255.815 350.202 258.487 350.91C261.158 351.619 263.623 345.782 263.623 345.782Z" fill="#1E293B"/>
<path opacity="0.1" d="M286.9 341.978C286.9 341.978 283.561 342.191 284.843 342.853C286.125 343.515 286.9 341.978 286.9 341.978Z" fill="#1E293B"/>
<path opacity="0.1" d="M291.061 342.98C291.015 343.201 281.39 346.324 283.273 347.714C285.157 349.105 291.061 342.98 291.061 342.98Z" fill="#1E293B"/>
<path opacity="0.1" d="M260.43 369.785C261.873 369.571 269.928 365.847 266.776 368.521C265.932 369.289 264.896 369.812 263.778 370.034C262.66 370.257 261.503 370.171 260.43 369.785Z" fill="#1E293B"/>
<path opacity="0.1" d="M264.411 372.72C264.411 372.72 265.113 375.441 267.784 375.087C270.456 374.732 264.411 372.72 264.411 372.72Z" fill="#1E293B"/>
<path opacity="0.1" d="M262.18 378.243C262.661 378.109 268.392 375.482 268.526 376.712C268.659 377.942 263.055 380.055 262.621 379.426C262.369 379.079 262.217 378.67 262.18 378.243Z" fill="#1E293B"/>
<path opacity="0.1" d="M280.735 375.087C281.403 375.047 287.996 372.941 289.311 374.826L280.735 375.087Z" fill="#1E293B"/>
<path opacity="0.1" d="M286.687 376.317C286.687 376.317 287.822 375.307 288.957 375.836C290.093 376.364 286.687 376.317 286.687 376.317Z" fill="#1E293B"/>
<path opacity="0.1" d="M272.159 387.176C272.23 387.549 272.408 387.893 272.672 388.166C272.935 388.439 273.272 388.629 273.642 388.714L272.159 387.176Z" fill="#1E293B"/>
<path d="M305.542 391.294C305.108 393.092 298.976 393.266 296.051 392.785C293.125 392.304 287.034 390.552 287.034 390.552C287.034 390.552 280.649 389.937 278.765 389.148C276.881 388.359 278.371 386.346 278.371 386.346C278.371 386.346 278.371 386.279 278.371 386.159C278.324 385.424 278.197 382.769 278.645 382.054C279.172 381.218 278.865 378.504 278.865 378.504C278.865 378.504 287.922 380.255 288.096 379.426C288.27 378.597 289.672 377.42 290.327 377.146C290.981 376.872 291.469 379.339 291.469 379.339C291.469 379.339 295.583 382.843 295.844 384.113C296.104 385.383 298.99 386.039 298.99 386.039C300.864 386.542 302.706 387.156 304.507 387.877C304.837 388.033 305.122 388.27 305.334 388.568C305.545 388.865 305.677 389.212 305.716 389.576C305.763 390.154 305.704 390.737 305.542 391.294Z" fill="#1E293B"/>
<path opacity="0.1" d="M305.542 391.294C305.108 393.093 298.976 393.266 296.051 392.785C293.125 392.304 287.034 390.552 287.034 390.552C287.034 390.552 280.649 389.937 278.765 389.148C276.881 388.359 278.371 386.346 278.371 386.346C278.371 386.346 278.371 386.28 278.371 386.159L287.528 388.165C287.528 388.165 292.037 390.091 294.922 390.091C297.447 390.091 303.091 391.127 305.716 389.556C305.765 390.141 305.706 390.73 305.542 391.294Z" fill="#1E293B"/>
<path opacity="0.1" d="M293.159 384.374C293.159 384.374 292.725 387.262 290.975 388.232L293.159 384.374Z" fill="#1E293B"/>
<path d="M321.205 277.905C318.6 278.895 312.589 279.002 309.917 279.002C309.102 279.002 308.581 279.002 308.581 279.002L306.865 275.499L308.581 272.577C308.581 272.577 310.157 272.142 312.255 271.761C315.347 271.206 319.602 270.771 321.606 272.022C324.972 274.115 324.611 276.655 321.205 277.905Z" fill="#FABDBD"/>
<path d="M281.417 235.977L282.178 235.102C282.178 235.102 286.085 241.293 286.493 243.626C286.9 245.96 287.428 248.647 287.428 248.647C287.428 248.647 288.416 251.683 289.064 253.027C289.616 254.045 290.046 255.124 290.347 256.243C290.4 256.825 290.113 258.108 291.335 258.917C292.558 259.726 292.852 261.953 292.852 261.953C292.852 261.953 297.287 266.272 299.624 266.392C301.962 266.513 308.661 267.676 308.434 268.839C308.207 270.003 311.233 270.711 312.442 271.006C313.651 271.3 304.574 274.81 309.917 279.33C309.917 279.33 306.531 279.998 306.183 280.847C305.836 281.697 302.276 280.379 302.276 280.379C302.276 280.379 301.514 278.568 298.89 278.454C296.265 278.34 294.922 277.17 294.922 276.996C294.922 276.822 292.297 275.358 290.841 274.95C289.385 274.543 287.455 274.369 287.395 273.954C287.334 273.54 278.645 235.997 278.645 235.997L281.417 235.977Z" fill="#F4F4F4"/>
<path opacity="0.05" d="M279.772 233.876L280.533 233C280.533 233 284.441 239.191 284.848 241.531C285.256 243.871 285.783 246.553 285.783 246.553C285.783 246.553 286.772 249.588 287.42 250.932C287.97 251.948 288.4 253.025 288.702 254.141C288.755 254.73 288.468 256.013 289.691 256.816C290.913 257.618 291.207 259.851 291.207 259.851C291.207 259.851 295.642 264.177 297.98 264.291C300.317 264.404 307.017 265.574 306.789 266.744C306.562 267.914 309.588 268.617 310.797 268.904C312.006 269.192 302.929 272.715 308.272 277.215C308.272 277.215 304.886 277.883 304.539 278.733C304.191 279.582 300.631 278.265 300.631 278.265C300.631 278.265 299.87 276.453 297.245 276.339C294.62 276.225 293.277 275.055 293.277 274.875C293.277 274.694 290.652 273.243 289.196 272.835C287.74 272.428 285.81 272.247 285.75 271.839C285.69 271.431 277 233.876 277 233.876H279.772Z" fill="#1E293B"/>
<path d="M370.698 394.851C414.781 394.851 450.515 402.038 450.515 410.897C450.515 419.756 414.781 426.944 370.698 426.944C326.615 426.944 290.881 419.763 290.881 410.897" stroke="#1E293B" stroke-miterlimit="10"/>
<path d="M354.296 64.1576L343.042 62.2461L328.844 146.008L340.098 147.92L354.296 64.1576Z" fill="#1E293B"/>
<path d="M367.586 400.327L370.084 418.179L372.221 399.618L367.586 400.327Z" fill="#D0D2D5"/>
<path d="M287.341 390.331V401.403L289.839 411.038H291.623L293.767 400.688L294.835 388.191L287.341 390.331Z" fill="#1E293B"/>
<path d="M282.258 347.14L287.602 348.209C287.602 348.209 281.544 364.985 285.818 368.555H279.052C279.052 368.555 276.554 355.704 282.258 347.14Z" fill="#D0D2D5"/>
<path opacity="0.1" d="M282.258 347.14L287.602 348.209C287.602 348.209 281.544 364.985 285.818 368.555H279.052C279.052 368.555 276.554 355.704 282.258 347.14Z" fill="#1E293B"/>
<path d="M318.012 145.441L300.893 253.963C300.893 253.963 275.579 369.631 285.204 392.477H297.333L333.708 170.434L318.012 145.441Z" fill="#D0D2D5"/>
<path d="M361.427 131.963L374.552 241.039C374.552 241.039 384.11 379.995 373.644 402.467H363.304L344.829 156.36L361.427 131.963Z" fill="#D0D2D5"/>
<path d="M316.416 105.793C317.297 102.83 319.13 100.241 321.631 98.4281C324.133 96.6148 327.162 95.6784 330.249 95.7642C340.809 96.0316 357.133 97.9572 365.649 106.689C378.847 120.255 356.732 165.948 356.732 165.948C356.732 165.948 336.026 204.145 317.151 155.598C317.124 155.638 309.296 129.642 316.416 105.793Z" fill="#1E293B"/>
<path opacity="0.1" d="M316.416 105.793C317.297 102.83 319.13 100.241 321.631 98.4281C324.133 96.6148 327.162 95.6784 330.249 95.7642C340.809 96.0316 357.133 97.9572 365.649 106.689C378.847 120.255 356.732 165.948 356.732 165.948C356.732 165.948 336.026 204.145 317.151 155.598C317.124 155.638 309.296 129.642 316.416 105.793Z" fill="#1E293B"/>
<path d="M323.676 115.073C324.311 112.968 325.619 111.131 327.399 109.843C329.179 108.555 331.333 107.889 333.528 107.946C341.042 108.14 352.664 109.51 358.709 115.728C368.107 125.383 352.364 157.917 352.364 157.917C352.364 157.917 337.669 185.109 324.177 150.563C324.177 150.543 318.6 132.056 323.676 115.073Z" fill="#1E293B"/>
<path d="M360.232 393.072C360.345 394.797 360.612 396.609 361.701 397.96C363.505 400.193 366.784 400.367 369.589 401.069C371.743 401.686 373.832 402.51 375.828 403.529L381.899 406.404C380.342 406.494 378.807 406.814 377.344 407.354C376.562 407.641 375.708 408.116 375.594 408.932C375.579 409.272 375.668 409.608 375.848 409.897C376.028 410.186 376.291 410.413 376.603 410.55C377.237 410.811 377.921 410.932 378.606 410.904C382.223 411.006 385.841 410.816 389.427 410.336L389.854 410.275C391.698 411.189 393.532 412.123 395.358 413.077C396.119 413.478 397.034 413.077 397.676 412.515C398.459 411.822 399.15 411.031 399.733 410.162C399.84 410.349 399.947 410.529 400.033 410.71C400.621 411.84 401.176 413.318 400.334 414.28C399.666 415.029 398.404 415.156 398.023 416.066C397.919 416.394 397.923 416.748 398.035 417.074C398.147 417.4 398.361 417.682 398.644 417.877C399.225 418.261 399.894 418.491 400.588 418.546C402.24 418.773 403.916 418.76 405.564 418.506C406.457 418.443 407.303 418.083 407.968 417.483C408.537 416.708 408.837 415.769 408.823 414.809L409.965 401.818C410.069 401.201 410.024 400.568 409.832 399.972C409.378 398.869 408.062 398.408 406.873 398.214H406.746C407.735 398.214 408.75 398.167 409.818 398.167C410.749 398.227 411.683 398.109 412.57 397.819C414.267 397.151 415.182 395.366 415.91 393.721C417.246 390.832 418.782 387.703 418.582 384.494L418.061 384.26C418.014 380.843 416.585 377.654 416.057 374.318C416.637 373.422 416.945 372.377 416.945 371.309C416.876 370.135 416.621 368.98 416.19 367.886C414.073 361.588 411.956 355.269 409.124 349.252C407.291 345.245 405.053 341.436 402.445 337.886C401.763 336.994 401.055 336.103 400.321 335.211C399.786 334.596 398.591 333.727 398.37 332.945C398.15 332.162 398.617 331.4 398.37 330.598C398.307 330.389 398.227 330.185 398.13 329.989C399.693 327.917 399.252 324.921 398.704 322.341L398.036 319.125C397.893 318.238 397.614 317.378 397.208 316.577C396.778 315.89 396.239 315.278 395.612 314.765C392.325 311.797 388.265 309.824 384.571 307.364C380.664 304.763 377.17 301.6 373.67 298.478C372.602 297.529 371.259 296.506 369.877 296.907C368.494 297.308 367.92 298.806 367.873 300.17C367.86 301.116 368.047 302.053 368.421 302.922C368.795 303.791 369.348 304.571 370.044 305.211C372.461 307.424 376.115 307.605 378.994 309.169C379.983 309.744 380.923 310.399 381.806 311.128L390.168 317.7C390.802 318.08 391.268 318.687 391.471 319.399C391.503 319.828 391.435 320.258 391.27 320.656C390.956 321.618 390.422 322.829 390.028 324.052L389.36 323.571C387.976 322.535 386.492 321.639 384.932 320.896C382.861 320.05 380.674 319.525 378.446 319.339C373.51 318.784 369.095 319.546 366.076 323.671C365.45 324.614 364.655 325.432 363.732 326.085C363.047 326.404 362.407 326.81 361.828 327.295C360.278 329.013 361.16 331.862 362.616 333.312C363.848 334.459 365.367 335.251 367.011 335.606C367.917 337.63 369.536 339.25 371.558 340.158C373.581 341.065 375.866 341.196 377.979 340.527C378.082 341.387 378.102 342.256 378.039 343.121C378.007 343.566 378.075 344.013 378.238 344.428C378.401 344.843 378.654 345.217 378.98 345.521C379.332 345.76 379.72 345.941 380.129 346.056C381.607 346.591 383.006 347.322 384.29 348.229C382.782 349.864 381.538 351.725 380.603 353.745C380.029 355.085 379.789 356.546 379.906 358C380.022 359.454 380.491 360.857 381.271 362.089L381.311 362.143C381.199 362.559 380.991 362.944 380.704 363.266C380.296 363.584 379.782 363.732 379.268 363.68C378.754 363.628 378.28 363.379 377.945 362.985C377.372 362.307 376.887 361.559 376.502 360.759C375.842 359.678 374.968 358.744 373.934 358.013C372.901 357.281 371.729 356.769 370.491 356.506C369.576 356.272 368.612 356.311 367.719 356.62C367.28 356.778 366.895 357.058 366.61 357.427C366.325 357.797 366.151 358.241 366.109 358.706C366.109 359.716 366.844 360.551 367.566 361.267C369.779 363.564 372.243 365.605 374.913 367.351C375.64 367.802 376.392 368.212 377.164 368.581C375.828 368.3 374.51 368.026 373.21 367.759C371.388 367.304 369.505 367.139 367.632 367.271C366.698 367.344 365.793 367.627 364.983 368.1C364.173 368.572 363.481 369.221 362.957 369.999C362.221 371.398 362.065 373.031 362.523 374.545C362.986 376.046 363.678 377.467 364.573 378.757C365.979 381.122 367.702 383.282 369.696 385.176C368.026 385.677 366.357 386.226 364.727 386.827C363.097 387.429 361.387 388.165 360.639 389.662C360.2 390.742 360.06 391.92 360.232 393.072ZM384.818 370.34H384.878C385.233 370.179 385.536 369.922 385.753 369.598C386.769 368.238 387.488 366.68 387.864 365.024C388.252 364.972 388.633 364.876 388.999 364.737C388.75 364.975 388.551 365.261 388.415 365.578C388.28 365.896 388.21 366.237 388.211 366.582L391.978 368.427C392.25 368.53 392.483 368.715 392.646 368.956C392.75 369.205 392.775 369.48 392.72 369.745C392.613 370.607 392.446 371.47 392.339 372.325C391.21 371.991 390.101 371.724 389.106 371.456C387.69 371.068 386.254 370.707 384.818 370.346V370.34Z" fill="url(#paint1_linear_331_1846)"/>
<path d="M385.519 334.824C386.467 335.061 387.453 335.103 388.417 334.948C389.381 334.793 390.304 334.444 391.13 333.921C391.46 333.689 391.829 333.517 392.219 333.413C392.565 333.382 392.913 333.434 393.235 333.563C393.558 333.692 393.846 333.894 394.075 334.155C395.678 335.753 395.865 338.387 395.037 340.493C394.209 342.6 392.546 344.258 390.803 345.695C389.395 346.856 387.906 347.915 386.348 348.864C385.918 347.857 385.293 346.946 384.509 346.182C383.725 345.419 382.797 344.819 381.779 344.418C379.949 343.709 378.613 341.811 377.564 340.152C376.783 338.922 376.088 338.976 376.79 337.705C377.581 336.486 378.514 335.363 379.568 334.362C380.142 333.754 380.644 333.081 381.064 332.357C381.532 331.514 381.425 330.966 382.146 331.634C382.621 332.076 382.814 333.032 383.362 333.547C383.97 334.138 384.709 334.575 385.519 334.824Z" fill="#FABDBD"/>
<path d="M391.257 321.786C391.413 321.393 391.479 320.971 391.451 320.549C391.251 319.849 390.795 319.25 390.175 318.871L382.006 312.386C381.149 311.666 380.233 311.02 379.268 310.453C376.449 308.909 372.889 308.728 370.524 306.549C369.845 305.911 369.305 305.139 368.939 304.282C368.573 303.424 368.39 302.5 368.4 301.568C368.4 300.23 369.068 298.719 370.331 298.345C371.593 297.97 373.002 298.96 374.044 299.903C377.457 302.978 380.864 306.101 384.678 308.668C388.285 311.102 392.259 313.041 395.471 315.976C396.057 316.475 396.56 317.064 396.961 317.721C397.353 318.517 397.626 319.366 397.769 320.242L398.437 323.411C398.998 326.085 399.452 329.194 397.656 331.247C397.394 331.576 397.063 331.843 396.687 332.029C396.311 332.215 395.898 332.315 395.478 332.323C394.885 332.251 394.314 332.055 393.802 331.748C392.466 331.08 390.048 330.411 389.64 328.74C389.119 326.647 390.622 323.725 391.257 321.786Z" fill="#FABDBD"/>
<path d="M378.226 363.574C377.668 362.903 377.195 362.167 376.816 361.381C376.177 360.317 375.326 359.397 374.318 358.674C373.309 357.952 372.164 357.444 370.952 357.182C370.07 356.959 369.142 356.996 368.28 357.289C367.849 357.448 367.472 357.727 367.194 358.093C366.916 358.459 366.748 358.897 366.711 359.355C366.711 360.344 367.425 361.173 368.127 361.876C370.287 364.147 372.698 366.166 375.313 367.893C377.933 369.612 380.936 370.655 384.057 370.928C384.371 370.967 384.69 370.937 384.992 370.841C385.338 370.681 385.633 370.429 385.847 370.113C387.503 367.987 388.078 365.225 388.518 362.571C388.358 363.527 382.981 361.294 382.373 361.581C381.478 362.003 381.565 363.26 380.917 363.861C380.521 364.176 380.016 364.323 379.513 364.269C379.009 364.215 378.547 363.966 378.226 363.574Z" fill="#FABDBD"/>
<path d="M417.399 384.581C417.43 384.916 417.365 385.252 417.212 385.551C416.845 386.126 416.017 386.132 415.342 386.032C413.784 385.769 412.247 385.398 410.74 384.922L397.028 380.957C396.81 380.916 396.607 380.816 396.44 380.67C396.295 380.498 396.2 380.29 396.166 380.068C395.69 378.099 395.588 376.058 395.866 374.051C395.882 373.761 395.977 373.482 396.139 373.242C396.448 372.957 396.855 372.803 397.275 372.814C399.423 372.596 401.581 372.497 403.74 372.52C405.141 372.579 406.545 372.548 407.942 372.426C409.745 372.212 411.822 371.176 413.632 371.336C415.202 371.47 415.135 372.673 415.295 374.011C415.743 377.561 417.366 380.957 417.399 384.581Z" fill="#FABDBD"/>
<path d="M373.617 368.288C371.838 367.833 369.998 367.668 368.167 367.8C367.254 367.872 366.369 368.15 365.579 368.613C364.789 369.076 364.114 369.712 363.605 370.474C362.878 371.857 362.724 373.471 363.177 374.967C363.635 376.443 364.311 377.842 365.181 379.119C366.722 381.787 368.702 384.174 371.039 386.179C372.208 387.109 373.497 387.878 374.619 388.854C377.01 390.947 378.493 393.868 379.915 396.71C381.251 399.384 382.587 402.112 383.162 405.054C383.167 405.168 383.195 405.279 383.244 405.381C383.293 405.484 383.363 405.575 383.449 405.649C383.634 405.739 383.847 405.754 384.043 405.689L390.622 404.472C390.808 404.48 390.993 404.437 391.157 404.348C391.321 404.259 391.457 404.127 391.552 403.967C391.646 403.806 391.696 403.623 391.694 403.436C391.693 403.25 391.641 403.067 391.544 402.908C390.117 396.767 387.446 390.985 383.696 385.919C385.438 387.567 387.548 388.775 389.851 389.442C392.153 390.11 394.582 390.217 396.934 389.756C397.854 389.626 398.721 389.249 399.446 388.667C400.915 387.329 400.848 385.05 400.521 383.104C400.226 381.37 399.82 379.657 399.305 377.976C398.07 373.964 392.74 372.881 389.126 371.905C383.997 370.545 378.827 369.34 373.617 368.288Z" fill="#1E293B"/>
<path opacity="0.1" d="M378.486 382.502C379.425 382.874 380.276 383.439 380.984 384.16C379.802 382.823 376.422 382.154 374.766 381.533C372.715 380.77 370.478 379.988 368.754 378.631C372.088 379.683 375.34 380.977 378.486 382.502Z" fill="#1E293B"/>
<path d="M399.793 410.684C400.361 411.807 400.902 413.258 400.087 414.214C399.459 414.949 398.203 415.076 397.829 415.972C397.727 416.297 397.73 416.646 397.84 416.968C397.949 417.29 398.158 417.569 398.437 417.764C399.001 418.148 399.654 418.378 400.334 418.433C401.948 418.653 403.586 418.64 405.196 418.393C406.069 418.329 406.895 417.973 407.541 417.383C408.103 416.607 408.396 415.667 408.376 414.709L409.491 401.885C409.59 401.275 409.546 400.65 409.364 400.06C408.917 398.97 407.634 398.522 406.472 398.328C405.173 398.107 403.851 398.054 402.538 398.167C401.652 398.179 400.793 398.475 400.087 399.01C399.431 399.758 399.026 400.693 398.931 401.684C398.631 403.209 397.789 405.321 397.969 406.866C398.083 408.143 399.232 409.56 399.793 410.684Z" fill="#1E293B"/>
<path d="M385.045 406.538C382.54 406.211 379.994 406.498 377.624 407.374C376.863 407.655 376.028 408.13 375.915 408.932C375.899 409.267 375.986 409.599 376.162 409.884C376.338 410.169 376.597 410.394 376.903 410.53C377.525 410.788 378.194 410.909 378.867 410.884C382.398 410.978 385.932 410.79 389.433 410.323C390.343 410.263 391.225 409.986 392.005 409.514C392.39 409.269 392.681 408.899 392.828 408.466C392.975 408.033 392.97 407.563 392.813 407.133C392.392 406.251 391.243 405.977 390.689 405.181C390.288 404.606 390.188 403.757 389.56 403.456C389.086 403.305 388.571 403.343 388.124 403.563C387.456 403.797 385.853 404.031 385.392 404.586C385.193 405.219 385.076 405.875 385.045 406.538Z" fill="#1E293B"/>
<path d="M375.587 341.837C380.431 341.837 384.357 337.906 384.357 333.058C384.357 328.21 380.431 324.279 375.587 324.279C370.744 324.279 366.817 328.21 366.817 333.058C366.817 337.906 370.744 341.837 375.587 341.837Z" fill="#FABDBD"/>
<path d="M396.386 329.194C394.977 328.158 393.2 327.803 391.484 327.483C390.904 327.302 390.28 327.333 389.721 327.569C389.352 327.837 389.059 328.197 388.872 328.612C388.343 329.471 387.951 330.407 387.71 331.387C387.592 331.878 387.592 332.39 387.708 332.881C387.824 333.372 388.053 333.829 388.378 334.215C388.899 334.75 389.647 335.018 390.181 335.553C390.528 335.94 390.78 336.402 390.917 336.903C391.053 337.405 391.072 337.931 390.97 338.441C390.754 339.455 390.358 340.422 389.801 341.296C388.513 343.569 387.043 345.733 385.406 347.768C383.703 349.887 381.792 351.927 380.79 354.454C380.232 355.78 380.001 357.22 380.117 358.654C380.234 360.088 380.694 361.473 381.458 362.691C383.081 365.058 386.314 366.328 388.993 365.305C388.749 365.541 388.555 365.823 388.424 366.136C388.293 366.449 388.227 366.785 388.231 367.124L391.905 368.949C392.176 369.049 392.41 369.232 392.573 369.471C392.671 369.717 392.694 369.987 392.639 370.246C392.351 371.729 392.202 373.236 392.192 374.746C392.292 376.251 392.98 377.835 394.343 378.49C395.592 379.092 397.074 378.771 398.437 378.49C401.619 377.845 404.855 377.505 408.102 377.474C409.718 377.474 411.388 377.514 412.878 376.886C413.876 376.445 414.726 375.726 415.327 374.814C415.927 373.902 416.253 372.836 416.264 371.744C416.197 370.584 415.947 369.442 415.523 368.361C413.459 362.143 411.388 355.912 408.623 349.968C406.822 346.012 404.626 342.249 402.07 338.735C401.403 337.846 400.735 336.97 399.993 336.121C399.472 335.512 398.303 334.657 398.09 333.881C397.876 333.105 398.33 332.357 398.09 331.568C397.79 330.615 397.193 329.783 396.386 329.194Z" fill="white"/>
<path d="M417.907 384.762C414.06 382.984 410.213 381.205 406.212 379.821C403.266 378.805 399.98 378.009 397.088 379.152C396.22 379.5 395.431 380.002 394.596 380.409C391.798 381.747 388.585 381.974 385.493 382.315C378.611 383.091 371.849 384.7 365.355 387.109C363.798 387.684 362.122 388.446 361.347 389.904C360.909 390.96 360.761 392.114 360.92 393.247C361.033 394.952 361.294 396.743 362.356 398.074C364.119 400.28 367.318 400.447 370.057 401.143C372.164 401.754 374.206 402.569 376.155 403.577C382.554 406.632 388.959 409.688 395.238 412.997C395.972 413.392 396.867 412.997 397.495 412.442C399.387 410.685 400.751 408.434 401.436 405.943C402.117 403.465 402.454 400.905 402.438 398.335C404.896 398.335 406.893 398.228 409.351 398.228C410.255 398.285 411.162 398.169 412.023 397.887C413.672 397.218 414.567 395.46 415.309 393.842C416.631 390.987 418.121 387.891 417.907 384.762Z" fill="#1E293B"/>
<path opacity="0.1" d="M373.236 393.901C374.966 393.059 376.97 393.039 378.9 393.052C380.077 393.03 381.253 393.12 382.413 393.319C384.185 393.792 385.906 394.439 387.55 395.252C391.647 396.972 396.052 397.837 400.494 397.792" fill="#1E293B"/>
<path d="M363.257 334.303C364.579 335.523 366.218 336.346 367.986 336.676C369.723 337.077 371.513 337.231 373.263 337.619C375.414 338.094 377.765 339.23 378.252 341.383C378.365 342.245 378.387 343.117 378.319 343.984C378.287 344.417 378.352 344.853 378.508 345.258C378.663 345.664 378.907 346.03 379.221 346.331C379.565 346.564 379.944 346.742 380.343 346.859C383.847 348.2 386.867 350.564 389.011 353.645C391.155 356.726 392.324 360.381 392.366 364.136C393.466 363.494 394.408 362.612 395.123 361.557C395.837 360.502 396.305 359.299 396.493 358.038C396.493 360.365 398.497 362.718 397.362 364.798C398.6 363.987 399.657 362.928 400.466 361.688C401.274 360.447 401.817 359.052 402.058 357.59C402.3 356.129 402.236 354.633 401.87 353.198C401.504 351.763 400.845 350.419 399.933 349.253C399.052 348.129 397.929 347.193 397.008 346.117C395.699 344.605 394.716 342.839 394.121 340.929C393.526 339.019 393.33 337.007 393.548 335.018C393.742 333.326 394.216 331.615 393.862 329.95C393.347 327.643 391.324 326.039 389.4 324.668C388.048 323.649 386.598 322.767 385.072 322.034C383.051 321.196 380.913 320.675 378.733 320.489C373.918 319.948 369.636 320.696 366.65 324.768C366.046 325.699 365.271 326.506 364.366 327.149C363.696 327.466 363.07 327.868 362.503 328.345C360.973 330.044 361.841 332.852 363.257 334.303Z" fill="#1E293B"/>
<path d="M273.181 236.412C272.907 236.298 253.871 228.429 256.483 226.864C258.039 225.935 259.956 222.004 261.265 218.921C262.18 216.775 262.802 215.037 262.802 215.037C262.802 215.037 278.084 212.322 272.613 221.723C271.751 223.162 271.101 224.718 270.683 226.343C269.107 232.695 273.028 236.292 273.181 236.412Z" fill="#FABDBD"/>
<path opacity="0.1" d="M272.593 221.695C271.731 223.134 271.081 224.69 270.663 226.315C268.725 226.177 266.862 225.513 265.273 224.393C263.684 223.274 262.43 221.743 261.646 219.964C261.492 219.624 261.358 219.276 261.245 218.921C262.16 216.774 262.782 215.036 262.782 215.036C262.782 215.036 278.064 212.321 272.593 221.695Z" fill="#1E293B"/>
<path d="M282.091 215.304C282.08 217.75 281.232 220.118 279.689 222.014C278.145 223.91 275.999 225.219 273.608 225.723C271.217 226.228 268.726 225.897 266.549 224.785C264.373 223.674 262.642 221.85 261.646 219.617C261.044 218.259 260.734 216.789 260.738 215.304C260.751 212.736 261.687 210.258 263.375 208.324C265.062 206.389 267.389 205.127 269.929 204.767C272.469 204.408 275.054 204.976 277.211 206.366C279.368 207.757 280.953 209.878 281.677 212.342C281.951 213.305 282.091 214.302 282.091 215.304Z" fill="#FABDBD"/>
<path opacity="0.1" d="M292.391 298.11C291.626 298.944 291.092 299.962 290.841 301.066C290.841 301.066 285.591 304.656 285.938 302.403C286.286 300.15 283.2 290.903 283.2 290.903L283.547 303.432C283.547 303.432 266.749 302.643 265.513 301.427C264.278 300.21 257.151 297.823 257.151 297.823C257.151 297.823 254.953 299.588 252.93 300.925C252.662 299.414 252.469 298.084 252.469 298.084L259.689 292.26L277.723 287.526L284.496 285.347L291.102 295.77C291.102 295.77 291.783 296.853 292.391 298.11Z" fill="#1E293B"/>
<path d="M292.938 297.121C291.542 297.997 291.015 300.364 291.015 300.364C291.015 300.364 285.765 303.954 286.112 301.701C286.459 299.448 283.4 290.228 283.4 290.228L283.754 302.757C283.754 302.757 266.949 301.968 265.72 300.751C264.491 299.535 257.318 297.161 257.318 297.161C257.318 297.161 251.106 302.156 249.971 301.714C248.835 301.273 251.975 292.782 251.975 292.782L255.207 243.024C255.207 243.024 254.332 228.221 255.648 227.693C255.851 227.613 256.037 227.495 256.196 227.345C257.064 226.57 257.325 224.992 257.398 223.661C257.485 222.09 259.582 222.872 259.582 222.872L258.36 224.45L269.207 231.05L269.3 231.11C269.734 230.886 270.18 230.688 270.636 230.515C271.598 230.147 272.874 229.799 273.709 230.147C274.175 230.386 274.571 230.744 274.858 231.183C275.478 232.113 275.974 233.12 276.334 234.179L280.274 240.831C280.274 240.831 282.278 249.683 282.278 250.031C282.278 250.379 282.893 258.442 283.614 259.318C284.335 260.194 285.017 264.573 284.756 265.89C284.496 267.208 285.19 272.108 285.19 272.108C288.083 274.475 289.565 282.532 289.565 282.532C289.565 282.532 294.121 291.558 294.468 292.608C294.815 293.658 294.341 296.245 292.938 297.121Z" fill="#1E293B"/>
<path opacity="0.1" d="M269.22 231.364C268.152 232.941 265.079 235.155 265.079 235.155L256.209 227.659C257.077 226.884 257.338 225.299 257.411 223.975C257.498 222.398 259.596 223.186 259.596 223.186L259.342 223.514C259.221 223.672 259.134 223.853 259.087 224.046C259.041 224.239 259.035 224.44 259.071 224.635C259.107 224.831 259.183 225.016 259.296 225.18C259.408 225.344 259.553 225.483 259.722 225.587L269.22 231.364Z" fill="#1E293B"/>
<path d="M269.22 231.009C268.152 232.587 265.079 234.807 265.079 234.807L256.209 227.305C257.077 226.53 257.338 224.952 257.411 223.621C257.498 222.05 259.596 222.832 259.596 222.832L259.342 223.16C259.221 223.317 259.134 223.499 259.087 223.692C259.041 223.885 259.035 224.086 259.071 224.281C259.107 224.477 259.183 224.662 259.296 224.826C259.408 224.99 259.553 225.129 259.722 225.233L269.22 231.009Z" fill="#1E293B"/>
<path opacity="0.1" d="M273.321 232.193C272.173 233.564 270.55 235.122 270.65 234.339C270.75 233.557 269.681 231.839 269.02 231.07C270.06 230.742 271.179 230.773 272.199 231.157C272.656 231.4 273.042 231.757 273.321 232.193Z" fill="#1E293B"/>
<path d="M273.495 231.664C272.346 233.042 270.723 234.593 270.823 233.817C270.924 233.042 269.962 231.771 269.294 231.002C270.256 230.635 271.531 230.287 272.366 230.635C272.827 230.872 273.216 231.228 273.495 231.664Z" fill="#1E293B"/>
<path opacity="0.1" d="M256.216 227.74C256.216 227.74 256.329 226.69 254.813 228.502C253.541 229.831 252.077 230.962 250.472 231.859C250.472 231.859 244 236.418 243.646 238.545C243.292 240.671 241.194 249.757 242.31 252.793C243.425 255.828 251.881 270.377 251.881 270.377C251.881 270.377 249.664 273.004 250.184 276.1C250.705 279.196 251.353 283.455 251.059 284.391C250.766 285.327 251.413 287.66 250.392 288.476C249.37 289.292 248.354 290.696 251.447 292.568C251.447 292.568 252.028 294.146 251.5 294.493C250.973 294.841 259.262 298.465 262.528 296.539C265.794 294.614 271.692 279.196 271.805 275.746C271.919 272.296 269.995 260.916 268.946 258.228C267.898 255.54 264.745 245.084 263.403 242.75C262.06 240.417 256.216 227.74 256.216 227.74Z" fill="#1E293B"/>
<path d="M255.862 227.74C255.862 227.74 255.982 226.69 254.466 228.502C253.185 229.843 251.71 230.983 250.091 231.885C250.091 231.885 243.612 236.445 243.265 238.571C242.917 240.697 240.814 249.784 241.929 252.819C243.044 255.855 251.494 270.404 251.494 270.404C251.494 270.404 249.276 273.031 249.804 276.127C250.331 279.222 250.973 283.481 250.679 284.417C250.385 285.354 251.026 287.687 250.011 288.503C248.996 289.318 247.967 290.722 251.059 292.595C251.059 292.595 251.647 294.172 251.12 294.52C250.592 294.868 258.881 298.492 262.147 296.566C265.413 294.64 271.304 279.222 271.424 275.772C271.545 272.322 269.614 260.943 268.566 258.255C267.517 255.567 264.365 245.11 263.022 242.777C261.679 240.443 255.862 227.74 255.862 227.74Z" fill="white"/>
<path opacity="0.1" d="M253.531 237.669C253.531 237.669 258.547 243.218 258.373 246.896C258.373 246.896 258.433 240.938 253.531 237.669Z" fill="#1E293B"/>
<path opacity="0.1" d="M270.463 229.726C270.463 229.726 273.715 227.72 277.81 232.821C277.81 232.821 280.782 234.513 281.657 234.927C282.532 235.342 283.527 246.193 283.527 246.193C283.527 246.193 285.451 250.874 284.923 253.548C284.396 256.222 286.446 265.463 286.446 265.463C286.446 265.463 289.826 282.051 289.712 282.512C289.599 282.973 286.266 277.317 286.326 274.489C286.386 271.66 283.527 262.922 283.12 262.4C282.712 261.879 279.907 246.862 279.907 246.862C279.907 246.862 277.636 240.497 276.173 238.397C274.711 236.298 272.907 232.32 272.166 231.618C271.622 231.148 271.015 230.756 270.362 230.454L270.463 229.726Z" fill="#1E293B"/>
<path d="M270.423 229.726C270.423 229.726 274.069 227.72 278.15 232.821C278.15 232.821 281.129 234.513 282.004 234.927C282.879 235.342 283.868 246.193 283.868 246.193C283.868 246.193 285.792 250.874 285.271 253.548C284.75 256.222 286.787 265.463 286.787 265.463C286.787 265.463 290.173 282.051 290.053 282.512C289.933 282.973 286.613 277.317 286.667 274.489C286.72 271.66 283.868 262.922 283.461 262.4C283.053 261.879 280.254 246.862 280.254 246.862C280.254 246.862 277.977 240.55 276.521 238.431C275.065 236.311 273.248 232.353 272.513 231.651C271.865 231.144 271.135 230.751 270.356 230.488L270.423 229.726Z" fill="white"/>
<path d="M286.439 266.224C286.439 266.224 293.379 261.671 296.732 263.918C300.085 266.164 305.575 269.354 300.179 271.66C294.782 273.967 287.314 273.526 287.314 273.526L286.439 266.224Z" fill="#FABDBD"/>
<path opacity="0.1" d="M281.61 310.172C280.575 312.399 279.72 323.544 279.139 327.101C278.311 325.677 277.309 323.979 276.968 323.444C276.186 321.752 275.506 320.015 274.931 318.242C275.599 316.638 277.409 312.038 277.409 310.353C277.409 308.294 280.749 305.706 280.749 305.706C281.346 306.264 281.751 306.996 281.906 307.799C282.06 308.601 281.957 309.432 281.61 310.172Z" fill="#1E293B"/>
<path opacity="0.1" d="M281.677 212.342C281.51 212.429 281.336 212.501 281.156 212.556C280.335 212.777 279.533 212.222 278.805 211.781C278.077 211.339 277.068 211.012 276.434 211.587C275.612 212.336 276.207 213.934 275.359 214.656C274.824 215.117 273.976 214.957 273.355 215.324C272.734 215.692 272.58 216.528 272.426 217.236C272.273 217.945 271.979 218.761 271.278 218.968C270.576 219.175 269.942 218.721 269.274 218.741C269.133 218.741 268.966 218.741 268.873 218.661C268.811 218.569 268.787 218.456 268.806 218.346C268.889 217.495 268.812 216.635 268.579 215.812C268.457 215.401 268.228 215.03 267.916 214.737C267.604 214.443 267.22 214.238 266.802 214.141C265.573 213.954 264.538 215.03 263.817 216.046C263.059 217.116 262.37 218.232 261.753 219.389C261.72 219.45 261.686 219.53 261.646 219.623C261.044 218.266 260.734 216.796 260.738 215.311C260.751 212.743 261.687 210.265 263.375 208.33C265.062 206.396 267.389 205.134 269.929 204.774C272.469 204.415 275.054 204.982 277.211 206.373C279.368 207.764 280.953 209.885 281.677 212.349V212.342Z" fill="#1E293B"/>
<path d="M263.83 215.879C264.552 214.862 265.587 213.786 266.816 213.973C267.232 214.07 267.615 214.275 267.927 214.567C268.239 214.859 268.469 215.229 268.593 215.638C268.826 216.461 268.901 217.321 268.813 218.172C268.798 218.284 268.824 218.398 268.886 218.493C268.98 218.6 269.147 218.58 269.287 218.573C269.955 218.573 270.656 218.994 271.291 218.8C271.925 218.607 272.293 217.777 272.44 217.069C272.587 216.36 272.754 215.544 273.368 215.156C273.983 214.769 274.818 214.936 275.372 214.488C276.22 213.766 275.626 212.161 276.447 211.419C277.082 210.844 278.09 211.172 278.818 211.613C279.546 212.054 280.348 212.609 281.17 212.388C281.441 212.291 281.707 212.178 281.964 212.047C283.267 211.553 284.95 212.395 286.012 211.506C286.399 211.116 286.678 210.632 286.82 210.102C287.115 209.389 287.312 208.641 287.408 207.875C287.503 207.1 287.293 206.318 286.82 205.696C286.152 204.88 284.95 204.673 284.062 204.071C283.342 203.504 282.744 202.797 282.305 201.992C281.866 201.186 281.287 200.466 280.595 199.866C280.244 199.57 279.819 199.376 279.365 199.305C278.912 199.235 278.448 199.29 278.024 199.464C277.768 199.644 277.483 199.778 277.182 199.859C276.854 199.866 276.532 199.778 276.254 199.605C273.221 198.174 269.688 198.428 266.362 198.856C265.02 198.962 263.703 199.28 262.461 199.799C261.841 200.061 261.285 200.454 260.831 200.952C260.376 201.449 260.035 202.039 259.829 202.68C259.562 203.71 259.769 204.827 259.442 205.843C259.222 206.511 258.774 207.12 258.507 207.795C257.799 209.641 258.647 211.673 259.008 213.619C259.402 215.745 259.201 218.045 260.103 220.057C260.284 220.452 260.477 221.141 260.925 220.88C261.252 220.686 261.593 219.543 261.76 219.215C262.381 218.062 263.073 216.947 263.83 215.879Z" fill="#1E293B"/>
<path opacity="0.1" d="M244.607 250.112L243.031 254.592C243.031 254.592 246.765 268.492 248.515 271.414C250.265 274.335 252.829 278.1 252.829 278.1C255.76 279.416 259.017 279.822 262.18 279.263C267.197 278.274 281.837 275.646 281.837 275.646C282.183 275.708 282.54 275.676 282.869 275.553C283.198 275.429 283.488 275.219 283.708 274.944C284.376 274.008 287.675 273.54 287.675 273.54C287.675 273.54 291.522 267.937 286.8 265.597C286.8 265.597 286.219 266.887 283.708 266.005C281.196 265.122 280.441 266.707 280.441 266.707C280.441 266.707 276.354 267.529 274.083 267.235C271.812 266.941 266.148 266.827 265.56 266.359C265.487 266.294 265.403 266.244 265.31 266.211C265.218 266.179 265.121 266.166 265.023 266.171C264.926 266.177 264.831 266.201 264.743 266.244C264.655 266.287 264.576 266.346 264.511 266.419C263.835 266.175 263.205 265.818 262.648 265.363C262.18 264.841 261.539 265.951 261.539 265.951C261.539 265.951 260.718 265.483 260.951 264.901C261.185 264.32 260.197 262.093 260.197 262.093C259.933 261.243 259.874 260.343 260.023 259.466C260.31 258.296 258.56 254.117 258.56 254.117C258.539 253.407 258.618 252.698 258.794 252.011C259.088 250.961 256.577 248.855 256.577 248.855C256.577 248.855 254.125 236.947 248.935 240.832C243.746 244.716 244.607 250.112 244.607 250.112Z" fill="#1E293B"/>
<path d="M244.253 250.112L242.677 254.592C242.677 254.592 246.411 268.492 248.161 271.414C249.911 274.335 252.482 278.1 252.482 278.1C255.412 279.419 258.67 279.824 261.833 279.263C266.856 278.274 281.497 275.646 281.497 275.646C281.843 275.708 282.199 275.676 282.528 275.553C282.858 275.429 283.147 275.219 283.367 274.944C284.035 274.008 287.334 273.54 287.334 273.54C287.334 273.54 291.182 267.937 286.459 265.597C286.459 265.597 285.872 266.887 283.367 266.005C280.862 265.122 280.094 266.707 280.094 266.707C280.094 266.707 276.013 267.529 273.735 267.235C271.458 266.941 265.801 266.827 265.219 266.359C265.147 266.294 265.062 266.244 264.97 266.211C264.878 266.179 264.78 266.166 264.683 266.171C264.585 266.177 264.49 266.201 264.402 266.244C264.314 266.287 264.236 266.346 264.171 266.419C263.492 266.175 262.86 265.818 262.301 265.363C261.833 264.841 261.192 265.951 261.192 265.951C261.192 265.951 260.377 265.483 260.611 264.901C260.845 264.32 259.849 262.093 259.849 262.093C259.589 261.243 259.53 260.343 259.676 259.466C259.97 258.296 258.22 254.117 258.22 254.117C258.195 253.407 258.273 252.698 258.453 252.011C258.741 250.961 256.236 248.855 256.236 248.855C256.236 248.855 253.785 236.947 248.595 240.832C243.405 244.716 244.253 250.112 244.253 250.112Z" fill="#F4F4F4"/>
<path opacity="0.1" d="M258.667 263.657C258.667 263.657 252.95 264.827 254.873 265.817C256.797 266.806 258.667 263.657 258.667 263.657Z" fill="#1E293B"/>
<g opacity="0.1">
<path d="M268.579 214.649C268.458 214.238 268.229 213.867 267.917 213.575C267.604 213.282 267.22 213.078 266.802 212.984C265.573 212.797 264.538 213.873 263.817 214.883C263.059 215.954 262.368 217.07 261.746 218.226C261.559 218.574 261.239 219.697 260.911 219.891C260.464 220.151 260.243 219.456 260.09 219.062C259.188 217.056 259.422 214.749 258.994 212.623C258.679 211.386 258.427 210.134 258.24 208.872C258.106 210.396 258.707 212.001 258.994 213.552C259.388 215.678 259.188 217.978 260.09 219.991C260.27 220.385 260.464 221.074 260.911 220.813C261.239 220.619 261.579 219.476 261.746 219.155C262.366 217.999 263.058 216.882 263.817 215.812C264.538 214.796 265.573 213.719 266.802 213.913C267.22 214.008 267.604 214.212 267.917 214.504C268.229 214.797 268.458 215.168 268.579 215.578C268.723 216.01 268.802 216.46 268.813 216.915C268.88 216.152 268.801 215.383 268.579 214.649Z" fill="#1E293B"/>
<path d="M286.807 209.126C286.666 209.656 286.387 210.138 285.999 210.524C284.937 211.413 283.253 210.577 281.951 211.072C281.684 211.172 281.437 211.333 281.156 211.413C280.335 211.627 279.533 211.079 278.805 210.637C278.077 210.196 277.068 209.862 276.434 210.437C275.612 211.186 276.207 212.783 275.359 213.506C274.824 213.967 273.976 213.806 273.355 214.174C272.734 214.542 272.58 215.371 272.426 216.08C272.273 216.788 271.979 217.604 271.278 217.811C270.576 218.019 269.942 217.564 269.274 217.591C269.134 217.591 268.967 217.591 268.873 217.511C268.85 217.486 268.834 217.456 268.826 217.424C268.826 217.658 268.826 217.892 268.826 218.126C268.812 218.236 268.838 218.347 268.9 218.44C268.993 218.547 269.16 218.527 269.301 218.527C269.968 218.527 270.67 218.941 271.304 218.747C271.939 218.554 272.306 217.731 272.453 217.016C272.6 216.3 272.767 215.498 273.382 215.11C273.996 214.722 274.831 214.89 275.385 214.442C276.234 213.72 275.639 212.122 276.461 211.373C277.095 210.798 278.104 211.125 278.832 211.567C279.56 212.008 280.361 212.563 281.183 212.342C281.453 212.245 281.719 212.133 281.978 212.008C283.28 211.513 284.963 212.349 286.025 211.46C286.412 211.073 286.691 210.591 286.834 210.062C287.127 209.347 287.325 208.596 287.421 207.829C287.451 207.569 287.451 207.307 287.421 207.047C287.293 207.76 287.087 208.458 286.807 209.126Z" fill="#1E293B"/>
</g>
<path d="M170.321 383.405C185.416 383.405 197.652 381.049 197.652 378.143C197.652 375.237 185.416 372.881 170.321 372.881C155.226 372.881 142.989 375.237 142.989 378.143C142.989 381.049 155.226 383.405 170.321 383.405Z" fill="#2563EB"/>
<path d="M169.867 380.081C171.622 380.081 173.046 378.214 173.046 375.909C173.046 373.605 171.622 371.737 169.867 371.737C168.111 371.737 166.687 373.605 166.687 375.909C166.687 378.214 168.111 380.081 169.867 380.081Z" fill="#1E293B"/>
<path d="M169.867 374.987C171.622 374.987 173.046 373.119 173.046 370.815C173.046 368.51 171.622 366.643 169.867 366.643C168.111 366.643 166.687 368.51 166.687 370.815C166.687 373.119 168.111 374.987 169.867 374.987Z" fill="#1E293B"/>
<path d="M169.867 369.892C171.622 369.892 173.046 368.024 173.046 365.72C173.046 363.416 171.622 361.548 169.867 361.548C168.111 361.548 166.687 363.416 166.687 365.72C166.687 368.024 168.111 369.892 169.867 369.892Z" fill="#1E293B"/>
<path d="M169.867 364.79C171.622 364.79 173.046 362.923 173.046 360.618C173.046 358.314 171.622 356.446 169.867 356.446C168.111 356.446 166.687 358.314 166.687 360.618C166.687 362.923 168.111 364.79 169.867 364.79Z" fill="#1E293B"/>
<path d="M169.867 359.696C171.622 359.696 173.046 357.828 173.046 355.524C173.046 353.219 171.622 351.352 169.867 351.352C168.111 351.352 166.687 353.219 166.687 355.524C166.687 357.828 168.111 359.696 169.867 359.696Z" fill="#1E293B"/>
<path d="M169.867 354.601C171.622 354.601 173.046 352.733 173.046 350.429C173.046 348.125 171.622 346.257 169.867 346.257C168.111 346.257 166.687 348.125 166.687 350.429C166.687 352.733 168.111 354.601 169.867 354.601Z" fill="#1E293B"/>
<path d="M169.867 349.506C171.622 349.506 173.046 347.638 173.046 345.334C173.046 343.03 171.622 341.162 169.867 341.162C168.111 341.162 166.687 343.03 166.687 345.334C166.687 347.638 168.111 349.506 169.867 349.506Z" fill="#1E293B"/>
<path d="M181.776 310.46C182.211 309.905 182.606 309.319 182.958 308.708L174.602 307.337L183.639 307.404C184.507 305.515 184.98 303.469 185.031 301.39C185.081 299.312 184.708 297.245 183.933 295.316L171.804 301.614L183.011 293.37C181.962 291.559 180.552 289.984 178.868 288.742C177.184 287.5 175.263 286.618 173.225 286.152C171.186 285.685 169.073 285.643 167.017 286.029C164.962 286.415 163.008 287.22 161.276 288.394C159.545 289.569 158.073 291.087 156.954 292.855C155.834 294.623 155.089 296.603 154.767 298.672C154.444 300.74 154.55 302.853 155.079 304.879C155.607 306.904 156.546 308.8 157.837 310.446C157.159 311.307 156.577 312.24 156.101 313.228L166.948 318.871L155.379 314.979C154.563 317.384 154.361 319.954 154.79 322.456C155.22 324.958 156.267 327.314 157.837 329.308C156.069 331.558 154.968 334.261 154.662 337.108C154.356 339.955 154.856 342.831 156.106 345.407C157.355 347.983 159.304 350.154 161.729 351.674C164.153 353.193 166.956 353.999 169.816 353.999C172.677 353.999 175.48 353.193 177.904 351.674C180.329 350.154 182.278 347.983 183.527 345.407C184.777 342.831 185.277 339.955 184.971 337.108C184.665 334.261 183.564 331.558 181.796 329.308C183.908 326.619 185.056 323.297 185.056 319.877C185.056 316.456 183.908 313.135 181.796 310.446L181.776 310.46Z" fill="#2563EB"/>
<path opacity="0.1" d="M154.551 319.887C154.546 323.31 155.697 326.635 157.817 329.321C156.048 331.571 154.948 334.274 154.642 337.121C154.336 339.968 154.836 342.844 156.086 345.42C157.335 347.996 159.284 350.167 161.708 351.687C164.133 353.206 166.936 354.012 169.796 354.012C172.657 354.012 175.46 353.206 177.884 351.687C180.309 350.167 182.257 347.996 183.507 345.42C184.757 342.844 185.257 339.968 184.951 337.121C184.645 334.274 183.544 331.571 181.776 329.321C183.819 326.727 154.551 318.175 154.551 319.887Z" fill="#1E293B"/>
<path d="M627.849 432.212C642.944 432.212 655.181 429.856 655.181 426.95C655.181 424.044 642.944 421.688 627.849 421.688C612.754 421.688 600.518 424.044 600.518 426.95C600.518 429.856 612.754 432.212 627.849 432.212Z" fill="#2563EB"/>
<path d="M627.395 428.889C629.151 428.889 630.574 427.021 630.574 424.717C630.574 422.413 629.151 420.545 627.395 420.545C625.639 420.545 624.216 422.413 624.216 424.717C624.216 427.021 625.639 428.889 627.395 428.889Z" fill="#1E293B"/>
<path d="M627.395 423.794C629.151 423.794 630.574 421.926 630.574 419.622C630.574 417.318 629.151 415.45 627.395 415.45C625.639 415.45 624.216 417.318 624.216 419.622C624.216 421.926 625.639 423.794 627.395 423.794Z" fill="#1E293B"/>
<path d="M627.395 418.7C629.151 418.7 630.574 416.832 630.574 414.528C630.574 412.223 629.151 410.355 627.395 410.355C625.639 410.355 624.216 412.223 624.216 414.528C624.216 416.832 625.639 418.7 627.395 418.7Z" fill="#1E293B"/>
<path d="M627.395 413.598C629.151 413.598 630.574 411.73 630.574 409.426C630.574 407.122 629.151 405.254 627.395 405.254C625.639 405.254 624.216 407.122 624.216 409.426C624.216 411.73 625.639 413.598 627.395 413.598Z" fill="#1E293B"/>
<path d="M627.395 408.503C629.151 408.503 630.574 406.635 630.574 404.331C630.574 402.027 629.151 400.159 627.395 400.159C625.639 400.159 624.216 402.027 624.216 404.331C624.216 406.635 625.639 408.503 627.395 408.503Z" fill="#1E293B"/>
<path d="M627.395 403.409C629.151 403.409 630.574 401.541 630.574 399.237C630.574 396.932 629.151 395.064 627.395 395.064C625.639 395.064 624.216 396.932 624.216 399.237C624.216 401.541 625.639 403.409 627.395 403.409Z" fill="#1E293B"/>
<path d="M627.395 398.314C629.151 398.314 630.574 396.446 630.574 394.142C630.574 391.838 629.151 389.97 627.395 389.97C625.639 389.97 624.216 391.838 624.216 394.142C624.216 396.446 625.639 398.314 627.395 398.314Z" fill="#1E293B"/>
<path d="M639.304 359.268C639.739 358.713 640.134 358.128 640.486 357.517L632.13 356.146L641.167 356.213C642.035 354.324 642.508 352.277 642.559 350.199C642.609 348.12 642.236 346.053 641.461 344.124L629.332 350.423L640.54 342.179C639.49 340.368 638.08 338.792 636.396 337.55C634.713 336.309 632.792 335.427 630.753 334.96C628.714 334.493 626.601 334.452 624.546 334.838C622.49 335.223 620.536 336.029 618.804 337.203C617.073 338.377 615.602 339.896 614.482 341.664C613.362 343.432 612.618 345.412 612.295 347.48C611.973 349.549 612.079 351.662 612.607 353.687C613.135 355.713 614.074 357.608 615.366 359.255C614.687 360.116 614.105 361.049 613.629 362.036L624.476 367.679L612.908 363.788C612.092 366.192 611.889 368.762 612.319 371.265C612.748 373.767 613.795 376.122 615.366 378.116C613.597 380.367 612.496 383.07 612.19 385.917C611.884 388.764 612.384 391.64 613.634 394.215C614.884 396.791 616.832 398.963 619.257 400.482C621.681 402.002 624.484 402.808 627.345 402.808C630.205 402.808 633.008 402.002 635.433 400.482C637.857 398.963 639.806 396.791 641.055 394.215C642.305 391.64 642.805 388.764 642.499 385.917C642.193 383.07 641.093 380.367 639.324 378.116C641.436 375.427 642.584 372.106 642.584 368.686C642.584 365.265 641.436 361.944 639.324 359.255L639.304 359.268Z" fill="#2563EB"/>
<path opacity="0.1" d="M612.079 368.695C612.075 372.119 613.226 375.443 615.346 378.129C613.577 380.38 612.476 383.083 612.17 385.93C611.864 388.777 612.364 391.653 613.614 394.229C614.864 396.804 616.812 398.976 619.237 400.496C621.661 402.015 624.464 402.821 627.325 402.821C630.185 402.821 632.988 402.015 635.413 400.496C637.837 398.976 639.786 396.804 641.035 394.229C642.285 391.653 642.785 388.777 642.479 385.93C642.173 383.083 641.073 380.38 639.304 378.129C641.348 375.535 612.079 366.984 612.079 368.695Z" fill="#1E293B"/>
<path opacity="0.1" d="M270.129 72.8508C275.762 72.8508 280.328 68.2798 280.328 62.6412C280.328 57.0026 275.762 52.4316 270.129 52.4316C264.496 52.4316 259.93 57.0026 259.93 62.6412C259.93 68.2798 264.496 72.8508 270.129 72.8508Z" fill="#2563EB"/>
<path opacity="0.1" d="M306.617 34.2325C316.061 34.2325 323.716 26.5693 323.716 17.1163C323.716 7.66321 316.061 0 306.617 0C297.174 0 289.519 7.66321 289.519 17.1163C289.519 26.5693 297.174 34.2325 306.617 34.2325Z" fill="#2563EB"/>
<path opacity="0.1" d="M283.988 117.286C293.432 117.286 301.087 109.623 301.087 100.17C301.087 90.7169 293.432 83.0537 283.988 83.0537C274.545 83.0537 266.889 90.7169 266.889 100.17C266.889 109.623 274.545 117.286 283.988 117.286Z" fill="#2563EB"/>
<path opacity="0.1" d="M643.832 195.874C649.465 195.874 654.032 191.303 654.032 185.665C654.032 180.026 649.465 175.455 643.832 175.455C638.2 175.455 633.633 180.026 633.633 185.665C633.633 191.303 638.2 195.874 643.832 195.874Z" fill="#2563EB"/>
<path opacity="0.1" d="M607.337 157.256C616.781 157.256 624.436 149.593 624.436 140.14C624.436 130.687 616.781 123.023 607.337 123.023C597.894 123.023 590.238 130.687 590.238 140.14C590.238 149.593 597.894 157.256 607.337 157.256Z" fill="#2563EB"/>
<path opacity="0.1" d="M629.973 240.31C639.417 240.31 647.072 232.646 647.072 223.193C647.072 213.74 639.417 206.077 629.973 206.077C620.53 206.077 612.874 213.74 612.874 223.193C612.874 232.646 620.53 240.31 629.973 240.31Z" fill="#2563EB"/>
<path opacity="0.1" d="M67.3067 209.942C70.4976 209.942 73.0843 207.353 73.0843 204.158C73.0843 200.964 70.4976 198.375 67.3067 198.375C64.1159 198.375 61.5292 200.964 61.5292 204.158C61.5292 207.353 64.1159 209.942 67.3067 209.942Z" fill="#2563EB"/>
<path opacity="0.1" d="M92.0734 191.963C97.4222 191.963 101.758 187.622 101.758 182.268C101.758 176.914 97.4222 172.573 92.0734 172.573C86.7246 172.573 82.3885 176.914 82.3885 182.268C82.3885 187.622 86.7246 191.963 92.0734 191.963Z" fill="#2563EB"/>
<path opacity="0.1" d="M45.7194 207C51.0683 207 55.4043 202.659 55.4043 197.305C55.4043 191.951 51.0683 187.61 45.7194 187.61C40.3706 187.61 36.0345 191.951 36.0345 197.305C36.0345 202.659 40.3706 207 45.7194 207Z" fill="#2563EB"/>
<path opacity="0.1" d="M495.446 175.174C498.637 175.174 501.224 172.585 501.224 169.391C501.224 166.197 498.637 163.607 495.446 163.607C492.256 163.607 489.669 166.197 489.669 169.391C489.669 172.585 492.256 175.174 495.446 175.174Z" fill="#2563EB"/>
<path opacity="0.1" d="M520.213 157.195C525.562 157.195 529.898 152.855 529.898 147.5C529.898 142.146 525.562 137.806 520.213 137.806C514.864 137.806 510.528 142.146 510.528 147.5C510.528 152.855 514.864 157.195 520.213 157.195Z" fill="#2563EB"/>
<path opacity="0.1" d="M473.859 172.232C479.208 172.232 483.544 167.892 483.544 162.538C483.544 157.183 479.208 152.843 473.859 152.843C468.51 152.843 464.174 157.183 464.174 162.538C464.174 167.892 468.51 172.232 473.859 172.232Z" fill="#2563EB"/>
<path opacity="0.1" d="M144.659 119.393C158.031 119.393 168.871 108.542 168.871 95.1559C168.871 81.7702 158.031 70.9189 144.659 70.9189C131.287 70.9189 120.447 81.7702 120.447 95.1559C120.447 108.542 131.287 119.393 144.659 119.393Z" fill="#2563EB"/>
<path opacity="0.1" d="M282.919 189.376C290.637 189.376 296.892 183.113 296.892 175.389C296.892 167.664 290.637 161.401 282.919 161.401C275.202 161.401 268.947 167.664 268.947 175.389C268.947 183.113 275.202 189.376 282.919 189.376Z" fill="#2563EB"/>
<path opacity="0.1" d="M421.18 280.305C428.897 280.305 435.153 274.043 435.153 266.318C435.153 258.593 428.897 252.331 421.18 252.331C413.463 252.331 407.207 258.593 407.207 266.318C407.207 274.043 413.463 280.305 421.18 280.305Z" fill="#2563EB"/>
<path d="M170.321 396.195C214.402 396.195 250.138 389.01 250.138 380.148C250.138 371.286 214.402 364.102 170.321 364.102C126.239 364.102 90.5038 371.286 90.5038 380.148C90.5038 389.01 126.239 396.195 170.321 396.195Z" stroke="#1E293B" stroke-miterlimit="10"/>
<path d="M627.849 443.665C671.931 443.665 707.666 436.481 707.666 427.619C707.666 418.757 671.931 411.572 627.849 411.572C583.767 411.572 548.032 418.757 548.032 427.619C548.032 436.481 583.767 443.665 627.849 443.665Z" stroke="#1E293B" stroke-miterlimit="10"/>
<path d="M80.1509 443.665C124.233 443.665 159.968 436.481 159.968 427.619C159.968 418.757 124.233 411.572 80.1509 411.572C36.0692 411.572 0.333961 418.757 0.333961 427.619C0.333961 436.481 36.0692 443.665 80.1509 443.665Z" stroke="#1E293B" stroke-miterlimit="10"/>
</g>
<defs>
<linearGradient id="paint0_linear_331_1846" x1="273.444" y1="399.903" x2="273.444" y2="199.047" gradientUnits="userSpaceOnUse">
<stop stop-color="#808080" stop-opacity="0.25"/>
<stop offset="0.54" stop-color="#808080" stop-opacity="0.12"/>
<stop offset="1" stop-color="#808080" stop-opacity="0.1"/>
</linearGradient>
<linearGradient id="paint1_linear_331_1846" x1="418.615" y1="357.757" x2="360.192" y2="357.757" gradientUnits="userSpaceOnUse">
<stop stop-color="#808080" stop-opacity="0.25"/>
<stop offset="0.54" stop-color="#808080" stop-opacity="0.12"/>
<stop offset="1" stop-color="#808080" stop-opacity="0.1"/>
</linearGradient>
<clipPath id="clip0_331_1846">
<rect width="708" height="444" fill="white"/>
</clipPath>
</defs>
</svg>
