<svg width="587" height="426" viewBox="0 0 587 426" fill="none" xmlns="http://www.w3.org/2000/svg">
<g clip-path="url(#clip0_331_910)">
<path d="M341.927 75.0988C352.928 75.0988 361.847 66.1998 361.847 55.2223C361.847 44.2447 352.928 35.3457 341.927 35.3457C330.925 35.3457 322.007 44.2447 322.007 55.2223C322.007 66.1998 330.925 75.0988 341.927 75.0988Z" fill="#F2F2F2"/>
<path d="M496.451 370.089C526.06 347.586 540.202 309.772 531.348 273.7C531.128 272.804 530.896 271.91 530.652 271.018C524.782 249.605 510.261 229.255 489.097 222.413C471.327 216.669 451.93 221.086 433.391 218.802C396.998 214.317 368.783 184.935 348.931 154.172C329.078 123.408 313.82 88.9731 287.441 63.558C243.958 21.6655 173.026 12.646 119.114 39.9149C65.2015 67.1838 30.8598 127.682 32.3244 187.976C33.789 248.271 69.661 305.916 121.756 336.501C140.894 347.736 163.028 355.696 185.056 352.911C204.17 350.494 221.537 340.246 240.561 337.204C270.47 332.42 300.189 345.914 326.059 361.638C351.929 377.363 376.917 396.001 406.314 403.29C434.859 410.369 470.223 390.024 496.451 370.089Z" fill="#F2F2F2"/>
<path d="M453.911 41.1813C453.262 40.7495 452.605 40.3401 451.956 39.9232C433.194 27.9498 413.084 18.2227 392.042 10.943L387.162 78.1045H356.232V1.13896C354.284 0.736975 352.322 0.357321 350.36 0V78.1045H313.603C293.367 78.1045 273.961 70.0835 259.652 55.8061C245.344 41.5286 237.305 22.1642 237.305 1.9728C235.336 2.39712 233.381 2.85115 231.426 3.33502V78.1045H201.488L196.84 14.0621C175.216 22.3373 154.686 33.2196 135.709 46.4667C135.381 46.69 135.053 46.9208 134.732 47.1441C133.083 48.298 131.457 49.4742 129.838 50.6652V306.887H218.072L216.513 285.336L207.933 167.011H380.709L372.13 285.336L370.57 306.887H457.827V43.7719C456.529 42.8935 455.224 42.03 453.911 41.1813ZM231.426 147.47H206.516L201.913 83.9706H231.426V147.47ZM350.36 147.47H308.522V146.211C308.522 145.607 308.403 145.008 308.171 144.449C307.938 143.891 307.598 143.383 307.169 142.956C306.74 142.528 306.231 142.19 305.671 141.959C305.111 141.728 304.51 141.61 303.904 141.611H285.716C285.11 141.611 284.511 141.73 283.951 141.961C283.392 142.192 282.883 142.531 282.455 142.958C282.027 143.385 281.687 143.892 281.456 144.451C281.224 145.009 281.105 145.607 281.105 146.211V147.47H237.305V83.9706H350.36V147.47ZM356.232 147.47V83.9706H386.737L382.134 147.47H356.232Z" fill="#3F3D56"/>
<path d="M0 323.295C6.48105 330.958 13.491 338.159 20.9787 344.846L566.021 345.59C573.509 338.903 580.519 331.702 587 324.039L0 323.295Z" fill="#3F3D56"/>
<path d="M369.611 254.288V318.087C369.612 318.9 369.936 319.68 370.512 320.255C371.088 320.83 371.869 321.153 372.684 321.154H467.435C468.25 321.153 469.031 320.83 469.607 320.255C470.183 319.68 470.507 318.9 470.508 318.087V254.288C470.506 253.475 470.181 252.697 469.605 252.123C469.029 251.549 468.249 251.226 467.435 251.225H372.684C371.87 251.226 371.09 251.549 370.514 252.123C369.938 252.697 369.613 253.475 369.611 254.288Z" fill="#3F3D56"/>
<path d="M371.834 255.082V317.301C371.835 317.735 372.008 318.151 372.316 318.459C372.624 318.766 373.041 318.939 373.476 318.939H466.646C467.081 318.939 467.499 318.766 467.806 318.459C468.114 318.151 468.288 317.735 468.288 317.301V255.082C468.288 254.647 468.115 254.23 467.807 253.922C467.5 253.614 467.082 253.44 466.646 253.439H373.476C373.04 253.44 372.623 253.614 372.315 253.922C372.007 254.23 371.834 254.647 371.834 255.082Z" fill="#6C63FF"/>
<path d="M367.629 330.529C367.803 330.746 368.023 330.922 368.275 331.041C368.526 331.161 368.801 331.223 369.079 331.222H470.535C470.812 331.221 471.086 331.159 471.336 331.04C471.587 330.921 471.808 330.747 471.982 330.532C472.157 330.317 472.282 330.066 472.347 329.797C472.412 329.528 472.417 329.248 472.36 328.977L470.785 321.512C470.719 321.208 470.579 320.924 470.376 320.688C470.173 320.452 469.914 320.27 469.622 320.159C469.411 320.076 469.187 320.034 468.96 320.034H370.648C370.421 320.034 370.196 320.076 369.985 320.159C369.694 320.27 369.435 320.452 369.232 320.688C369.029 320.924 368.888 321.208 368.823 321.512L367.248 328.977C367.192 329.247 367.197 329.527 367.263 329.796C367.329 330.064 367.454 330.315 367.629 330.529Z" fill="#2F2E41"/>
<path d="M465.479 323.25H467.875C468.076 323.25 468.239 323.087 468.239 322.887V321.743C468.239 321.542 468.076 321.379 467.875 321.379H465.479C465.278 321.379 465.114 321.542 465.114 321.743V322.887C465.114 323.087 465.278 323.25 465.479 323.25Z" fill="#3F3D56"/>
<path d="M459.229 323.25H461.626C461.827 323.25 461.99 323.087 461.99 322.887V321.743C461.99 321.542 461.827 321.379 461.626 321.379H459.229C459.028 321.379 458.865 321.542 458.865 321.743V322.887C458.865 323.087 459.028 323.25 459.229 323.25Z" fill="#3F3D56"/>
<path d="M452.98 323.25H455.376C455.577 323.25 455.74 323.087 455.74 322.887V321.743C455.74 321.542 455.577 321.379 455.376 321.379H452.98C452.779 321.379 452.615 321.542 452.615 321.743V322.887C452.615 323.087 452.779 323.25 452.98 323.25Z" fill="#3F3D56"/>
<path d="M446.73 323.25H449.126C449.328 323.25 449.491 323.087 449.491 322.887V321.743C449.491 321.542 449.328 321.379 449.126 321.379H446.73C446.529 321.379 446.366 321.542 446.366 321.743V322.887C446.366 323.087 446.529 323.25 446.73 323.25Z" fill="#3F3D56"/>
<path d="M440.481 323.25H442.877C443.078 323.25 443.241 323.087 443.241 322.887V321.743C443.241 321.542 443.078 321.379 442.877 321.379H440.481C440.28 321.379 440.116 321.542 440.116 321.743V322.887C440.116 323.087 440.28 323.25 440.481 323.25Z" fill="#3F3D56"/>
<path d="M434.231 323.25H436.627C436.829 323.25 436.992 323.087 436.992 322.887V321.743C436.992 321.542 436.829 321.379 436.627 321.379H434.231C434.03 321.379 433.867 321.542 433.867 321.743V322.887C433.867 323.087 434.03 323.25 434.231 323.25Z" fill="#3F3D56"/>
<path d="M427.982 323.25H430.378C430.579 323.25 430.742 323.087 430.742 322.887V321.743C430.742 321.542 430.579 321.379 430.378 321.379H427.982C427.78 321.379 427.617 321.542 427.617 321.743V322.887C427.617 323.087 427.78 323.25 427.982 323.25Z" fill="#3F3D56"/>
<path d="M421.732 323.25H424.128C424.33 323.25 424.493 323.087 424.493 322.887V321.743C424.493 321.542 424.33 321.379 424.128 321.379H421.732C421.531 321.379 421.368 321.542 421.368 321.743V322.887C421.368 323.087 421.531 323.25 421.732 323.25Z" fill="#3F3D56"/>
<path d="M415.482 323.25H417.878C418.08 323.25 418.243 323.087 418.243 322.887V321.743C418.243 321.542 418.08 321.379 417.878 321.379H415.482C415.281 321.379 415.118 321.542 415.118 321.743V322.887C415.118 323.087 415.281 323.25 415.482 323.25Z" fill="#3F3D56"/>
<path d="M409.233 323.25H411.629C411.83 323.25 411.993 323.087 411.993 322.887V321.743C411.993 321.542 411.83 321.379 411.629 321.379H409.233C409.031 321.379 408.868 321.542 408.868 321.743V322.887C408.868 323.087 409.031 323.25 409.233 323.25Z" fill="#3F3D56"/>
<path d="M402.983 323.25H405.379C405.581 323.25 405.744 323.087 405.744 322.887V321.743C405.744 321.542 405.581 321.379 405.379 321.379H402.983C402.782 321.379 402.619 321.542 402.619 321.743V322.887C402.619 323.087 402.782 323.25 402.983 323.25Z" fill="#3F3D56"/>
<path d="M396.734 323.25H399.13C399.331 323.25 399.494 323.087 399.494 322.887V321.743C399.494 321.542 399.331 321.379 399.13 321.379H396.734C396.532 321.379 396.369 321.542 396.369 321.743V322.887C396.369 323.087 396.532 323.25 396.734 323.25Z" fill="#3F3D56"/>
<path d="M390.484 323.25H392.88C393.082 323.25 393.245 323.087 393.245 322.887V321.743C393.245 321.542 393.082 321.379 392.88 321.379H390.484C390.283 321.379 390.12 321.542 390.12 321.743V322.887C390.12 323.087 390.283 323.25 390.484 323.25Z" fill="#3F3D56"/>
<path d="M384.235 323.25H386.631C386.832 323.25 386.995 323.087 386.995 322.887V321.743C386.995 321.542 386.832 321.379 386.631 321.379H384.235C384.033 321.379 383.87 321.542 383.87 321.743V322.887C383.87 323.087 384.033 323.25 384.235 323.25Z" fill="#3F3D56"/>
<path d="M377.985 323.25H380.381C380.583 323.25 380.746 323.087 380.746 322.887V321.743C380.746 321.542 380.583 321.379 380.381 321.379H377.985C377.784 321.379 377.621 321.542 377.621 321.743V322.887C377.621 323.087 377.784 323.25 377.985 323.25Z" fill="#3F3D56"/>
<path d="M371.735 323.25H374.131C374.333 323.25 374.496 323.087 374.496 322.887V321.743C374.496 321.542 374.333 321.379 374.131 321.379H371.735C371.534 321.379 371.371 321.542 371.371 321.743V322.887C371.371 323.087 371.534 323.25 371.735 323.25Z" fill="#3F3D56"/>
<path d="M465.553 326.368H467.949C468.15 326.368 468.313 326.205 468.313 326.005V324.861C468.313 324.66 468.15 324.497 467.949 324.497H465.553C465.352 324.497 465.189 324.66 465.189 324.861V326.005C465.189 326.205 465.352 326.368 465.553 326.368Z" fill="#3F3D56"/>
<path d="M459.303 326.368H461.699C461.9 326.368 462.063 326.205 462.063 326.005V324.861C462.063 324.66 461.9 324.497 461.699 324.497H459.303C459.102 324.497 458.939 324.66 458.939 324.861V326.005C458.939 326.205 459.102 326.368 459.303 326.368Z" fill="#3F3D56"/>
<path d="M453.053 326.368H455.45C455.651 326.368 455.814 326.205 455.814 326.005V324.861C455.814 324.66 455.651 324.497 455.45 324.497H453.053C452.852 324.497 452.689 324.66 452.689 324.861V326.005C452.689 326.205 452.852 326.368 453.053 326.368Z" fill="#3F3D56"/>
<path d="M446.804 326.368H449.2C449.401 326.368 449.564 326.205 449.564 326.005V324.861C449.564 324.66 449.401 324.497 449.2 324.497H446.804C446.603 324.497 446.44 324.66 446.44 324.861V326.005C446.44 326.205 446.603 326.368 446.804 326.368Z" fill="#3F3D56"/>
<path d="M440.554 326.368H442.951C443.152 326.368 443.315 326.205 443.315 326.005V324.861C443.315 324.66 443.152 324.497 442.951 324.497H440.554C440.353 324.497 440.19 324.66 440.19 324.861V326.005C440.19 326.205 440.353 326.368 440.554 326.368Z" fill="#3F3D56"/>
<path d="M434.305 326.368H436.701C436.902 326.368 437.065 326.205 437.065 326.005V324.861C437.065 324.66 436.902 324.497 436.701 324.497H434.305C434.104 324.497 433.941 324.66 433.941 324.861V326.005C433.941 326.205 434.104 326.368 434.305 326.368Z" fill="#3F3D56"/>
<path d="M428.055 326.368H430.452C430.653 326.368 430.816 326.205 430.816 326.005V324.861C430.816 324.66 430.653 324.497 430.452 324.497H428.055C427.854 324.497 427.691 324.66 427.691 324.861V326.005C427.691 326.205 427.854 326.368 428.055 326.368Z" fill="#3F3D56"/>
<path d="M421.806 326.368H424.202C424.403 326.368 424.566 326.205 424.566 326.005V324.861C424.566 324.66 424.403 324.497 424.202 324.497H421.806C421.605 324.497 421.442 324.66 421.442 324.861V326.005C421.442 326.205 421.605 326.368 421.806 326.368Z" fill="#3F3D56"/>
<path d="M415.556 326.368H417.953C418.154 326.368 418.317 326.205 418.317 326.005V324.861C418.317 324.66 418.154 324.497 417.953 324.497H415.556C415.355 324.497 415.192 324.66 415.192 324.861V326.005C415.192 326.205 415.355 326.368 415.556 326.368Z" fill="#3F3D56"/>
<path d="M409.307 326.368H411.703C411.904 326.368 412.067 326.205 412.067 326.005V324.861C412.067 324.66 411.904 324.497 411.703 324.497H409.307C409.106 324.497 408.943 324.66 408.943 324.861V326.005C408.943 326.205 409.106 326.368 409.307 326.368Z" fill="#3F3D56"/>
<path d="M403.057 326.368H405.453C405.654 326.368 405.817 326.205 405.817 326.005V324.861C405.817 324.66 405.654 324.497 405.453 324.497H403.057C402.856 324.497 402.693 324.66 402.693 324.861V326.005C402.693 326.205 402.856 326.368 403.057 326.368Z" fill="#3F3D56"/>
<path d="M396.807 326.368H399.204C399.405 326.368 399.568 326.205 399.568 326.005V324.861C399.568 324.66 399.405 324.497 399.204 324.497H396.807C396.606 324.497 396.443 324.66 396.443 324.861V326.005C396.443 326.205 396.606 326.368 396.807 326.368Z" fill="#3F3D56"/>
<path d="M390.558 326.368H392.954C393.155 326.368 393.318 326.205 393.318 326.005V324.861C393.318 324.66 393.155 324.497 392.954 324.497H390.558C390.357 324.497 390.194 324.66 390.194 324.861V326.005C390.194 326.205 390.357 326.368 390.558 326.368Z" fill="#3F3D56"/>
<path d="M384.308 326.368H386.705C386.906 326.368 387.069 326.205 387.069 326.005V324.861C387.069 324.66 386.906 324.497 386.705 324.497H384.308C384.107 324.497 383.944 324.66 383.944 324.861V326.005C383.944 326.205 384.107 326.368 384.308 326.368Z" fill="#3F3D56"/>
<path d="M378.059 326.368H380.455C380.656 326.368 380.819 326.205 380.819 326.005V324.861C380.819 324.66 380.656 324.497 380.455 324.497H378.059C377.858 324.497 377.695 324.66 377.695 324.861V326.005C377.695 326.205 377.858 326.368 378.059 326.368Z" fill="#3F3D56"/>
<path d="M371.809 326.368H374.206C374.407 326.368 374.57 326.205 374.57 326.005V324.861C374.57 324.66 374.407 324.497 374.206 324.497H371.809C371.608 324.497 371.445 324.66 371.445 324.861V326.005C371.445 326.205 371.608 326.368 371.809 326.368Z" fill="#3F3D56"/>
<path d="M413.681 330.109H437.951C438.152 330.109 438.315 329.947 438.315 329.746V328.602C438.315 328.401 438.152 328.239 437.951 328.239H413.681C413.48 328.239 413.317 328.401 413.317 328.602V329.746C413.317 329.947 413.48 330.109 413.681 330.109Z" fill="#3F3D56"/>
<path d="M387.968 267.051H385.847C385.204 267.051 384.682 267.571 384.682 268.213C384.682 268.855 385.204 269.375 385.847 269.375H387.968C388.611 269.375 389.133 268.855 389.133 268.213C389.133 267.571 388.611 267.051 387.968 267.051Z" fill="white"/>
<path d="M412.231 267.051H410.11C409.467 267.051 408.945 267.571 408.945 268.213C408.945 268.855 409.467 269.375 410.11 269.375H412.231C412.875 269.375 413.396 268.855 413.396 268.213C413.396 267.571 412.875 267.051 412.231 267.051Z" fill="white"/>
<path d="M419.106 267.051H416.985C416.342 267.051 415.82 267.571 415.82 268.213C415.82 268.855 416.342 269.375 416.985 269.375H419.106C419.75 269.375 420.271 268.855 420.271 268.213C420.271 267.571 419.75 267.051 419.106 267.051Z" fill="white"/>
<path d="M405.632 266.857H392.446C391.803 266.857 391.282 267.378 391.282 268.02C391.282 268.661 391.803 269.182 392.446 269.182H405.632C406.275 269.182 406.797 268.661 406.797 268.02C406.797 267.378 406.275 266.857 405.632 266.857Z" fill="white"/>
<path d="M437.983 266.857H424.797C424.154 266.857 423.633 267.378 423.633 268.02C423.633 268.661 424.154 269.182 424.797 269.182H437.983C438.626 269.182 439.148 268.661 439.148 268.02C439.148 267.378 438.626 266.857 437.983 266.857Z" fill="white"/>
<path d="M394.438 272.297H392.317C391.674 272.297 391.152 272.817 391.152 273.459C391.152 274.101 391.674 274.621 392.317 274.621H394.438C395.082 274.621 395.603 274.101 395.603 273.459C395.603 272.817 395.082 272.297 394.438 272.297Z" fill="white"/>
<path d="M418.702 272.297H416.58C415.937 272.297 415.416 272.817 415.416 273.459C415.416 274.101 415.937 274.621 416.58 274.621H418.702C419.345 274.621 419.866 274.101 419.866 273.459C419.866 272.817 419.345 272.297 418.702 272.297Z" fill="white"/>
<path d="M425.577 272.297H423.455C422.812 272.297 422.291 272.817 422.291 273.459C422.291 274.101 422.812 274.621 423.455 274.621H425.577C426.22 274.621 426.741 274.101 426.741 273.459C426.741 272.817 426.22 272.297 425.577 272.297Z" fill="white"/>
<path d="M412.102 272.103H398.917C398.273 272.103 397.752 272.623 397.752 273.265C397.752 273.906 398.273 274.427 398.917 274.427H412.102C412.745 274.427 413.267 273.906 413.267 273.265C413.267 272.623 412.745 272.103 412.102 272.103Z" fill="white"/>
<path d="M444.454 272.103H431.268C430.625 272.103 430.104 272.623 430.104 273.265C430.104 273.906 430.625 274.427 431.268 274.427H444.454C445.097 274.427 445.618 273.906 445.618 273.265C445.618 272.623 445.097 272.103 444.454 272.103Z" fill="white"/>
<path d="M400.909 277.542H398.787C398.144 277.542 397.623 278.062 397.623 278.704C397.623 279.346 398.144 279.866 398.787 279.866H400.909C401.552 279.866 402.073 279.346 402.073 278.704C402.073 278.062 401.552 277.542 400.909 277.542Z" fill="white"/>
<path d="M425.172 277.542H423.051C422.408 277.542 421.886 278.062 421.886 278.704C421.886 279.346 422.408 279.866 423.051 279.866H425.172C425.816 279.866 426.337 279.346 426.337 278.704C426.337 278.062 425.816 277.542 425.172 277.542Z" fill="white"/>
<path d="M432.047 277.542H429.925C429.282 277.542 428.761 278.062 428.761 278.704C428.761 279.346 429.282 279.866 429.925 279.866H432.047C432.69 279.866 433.211 279.346 433.211 278.704C433.211 278.062 432.69 277.542 432.047 277.542Z" fill="white"/>
<path d="M418.572 277.349H405.387C404.744 277.349 404.222 277.869 404.222 278.511C404.222 279.153 404.744 279.673 405.387 279.673H418.572C419.216 279.673 419.737 279.153 419.737 278.511C419.737 277.869 419.216 277.349 418.572 277.349Z" fill="white"/>
<path d="M450.924 277.349H437.738C437.095 277.349 436.574 277.869 436.574 278.511C436.574 279.153 437.095 279.673 437.738 279.673H450.924C451.567 279.673 452.089 279.153 452.089 278.511C452.089 277.869 451.567 277.349 450.924 277.349Z" fill="white"/>
<path d="M407.379 282.788H405.257C404.614 282.788 404.093 283.308 404.093 283.95C404.093 284.592 404.614 285.112 405.257 285.112H407.379C408.022 285.112 408.544 284.592 408.544 283.95C408.544 283.308 408.022 282.788 407.379 282.788Z" fill="white"/>
<path d="M431.643 282.788H429.521C428.878 282.788 428.356 283.308 428.356 283.95C428.356 284.592 428.878 285.112 429.521 285.112H431.643C432.286 285.112 432.807 284.592 432.807 283.95C432.807 283.308 432.286 282.788 431.643 282.788Z" fill="white"/>
<path d="M438.517 282.788H436.396C435.752 282.788 435.231 283.308 435.231 283.95C435.231 284.592 435.752 285.112 436.396 285.112H438.517C439.16 285.112 439.682 284.592 439.682 283.95C439.682 283.308 439.16 282.788 438.517 282.788Z" fill="white"/>
<path d="M425.043 282.594H411.857C411.214 282.594 410.692 283.114 410.692 283.756C410.692 284.398 411.214 284.918 411.857 284.918H425.043C425.686 284.918 426.207 284.398 426.207 283.756C426.207 283.114 425.686 282.594 425.043 282.594Z" fill="white"/>
<path d="M412.231 303.646H410.11C409.467 303.646 408.945 304.167 408.945 304.809C408.945 305.45 409.467 305.971 410.11 305.971H412.231C412.875 305.971 413.396 305.45 413.396 304.809C413.396 304.167 412.875 303.646 412.231 303.646Z" fill="white"/>
<path d="M419.106 303.646H416.985C416.342 303.646 415.82 304.167 415.82 304.809C415.82 305.45 416.342 305.971 416.985 305.971H419.106C419.75 305.971 420.271 305.45 420.271 304.809C420.271 304.167 419.75 303.646 419.106 303.646Z" fill="white"/>
<path d="M437.983 303.841H424.797C424.154 303.841 423.633 304.361 423.633 305.003C423.633 305.645 424.154 306.165 424.797 306.165H437.983C438.626 306.165 439.148 305.645 439.148 305.003C439.148 304.361 438.626 303.841 437.983 303.841Z" fill="white"/>
<path d="M387.968 303.646H385.847C385.204 303.646 384.682 304.167 384.682 304.809C384.682 305.45 385.204 305.971 385.847 305.971H387.968C388.611 305.971 389.133 305.45 389.133 304.809C389.133 304.167 388.611 303.646 387.968 303.646Z" fill="white"/>
<path d="M405.632 303.841H392.446C391.803 303.841 391.282 304.361 391.282 305.003C391.282 305.645 391.803 306.165 392.446 306.165H405.632C406.275 306.165 406.797 305.645 406.797 305.003C406.797 304.361 406.275 303.841 405.632 303.841Z" fill="white"/>
<path d="M394.438 298.401H392.317C391.674 298.401 391.152 298.922 391.152 299.563C391.152 300.205 391.674 300.726 392.317 300.726H394.438C395.082 300.726 395.603 300.205 395.603 299.563C395.603 298.922 395.082 298.401 394.438 298.401Z" fill="white"/>
<path d="M418.702 298.401H416.58C415.937 298.401 415.416 298.922 415.416 299.563C415.416 300.205 415.937 300.726 416.58 300.726H418.702C419.345 300.726 419.866 300.205 419.866 299.563C419.866 298.922 419.345 298.401 418.702 298.401Z" fill="white"/>
<path d="M425.577 298.401H423.455C422.812 298.401 422.291 298.922 422.291 299.563C422.291 300.205 422.812 300.726 423.455 300.726H425.577C426.22 300.726 426.741 300.205 426.741 299.563C426.741 298.922 426.22 298.401 425.577 298.401Z" fill="white"/>
<path d="M412.102 298.595H398.917C398.273 298.595 397.752 299.115 397.752 299.757C397.752 300.399 398.273 300.919 398.917 300.919H412.102C412.745 300.919 413.267 300.399 413.267 299.757C413.267 299.115 412.745 298.595 412.102 298.595Z" fill="white"/>
<path d="M400.909 293.155H398.787C398.144 293.155 397.623 293.676 397.623 294.317C397.623 294.959 398.144 295.479 398.787 295.479H400.909C401.552 295.479 402.073 294.959 402.073 294.317C402.073 293.676 401.552 293.155 400.909 293.155Z" fill="white"/>
<path d="M425.172 293.155H423.051C422.408 293.155 421.886 293.676 421.886 294.317C421.886 294.959 422.408 295.479 423.051 295.479H425.172C425.816 295.479 426.337 294.959 426.337 294.317C426.337 293.676 425.816 293.155 425.172 293.155Z" fill="white"/>
<path d="M432.047 293.155H429.925C429.282 293.155 428.761 293.676 428.761 294.317C428.761 294.959 429.282 295.479 429.925 295.479H432.047C432.69 295.479 433.211 294.959 433.211 294.317C433.211 293.676 432.69 293.155 432.047 293.155Z" fill="white"/>
<path d="M418.572 293.35H405.387C404.744 293.35 404.222 293.87 404.222 294.512C404.222 295.154 404.744 295.674 405.387 295.674H418.572C419.216 295.674 419.737 295.154 419.737 294.512C419.737 293.87 419.216 293.35 418.572 293.35Z" fill="white"/>
<path d="M407.379 287.91H405.257C404.614 287.91 404.093 288.43 404.093 289.072C404.093 289.714 404.614 290.234 405.257 290.234H407.379C408.022 290.234 408.544 289.714 408.544 289.072C408.544 288.43 408.022 287.91 407.379 287.91Z" fill="white"/>
<path d="M431.643 287.91H429.521C428.878 287.91 428.356 288.43 428.356 289.072C428.356 289.714 428.878 290.234 429.521 290.234H431.643C432.286 290.234 432.807 289.714 432.807 289.072C432.807 288.43 432.286 287.91 431.643 287.91Z" fill="white"/>
<path d="M438.517 287.91H436.396C435.752 287.91 435.231 288.43 435.231 289.072C435.231 289.714 435.752 290.234 436.396 290.234H438.517C439.16 290.234 439.682 289.714 439.682 289.072C439.682 288.43 439.16 287.91 438.517 287.91Z" fill="white"/>
<path d="M425.043 288.104H411.857C411.214 288.104 410.692 288.624 410.692 289.266C410.692 289.907 411.214 290.428 411.857 290.428H425.043C425.686 290.428 426.207 289.907 426.207 289.266C426.207 288.624 425.686 288.104 425.043 288.104Z" fill="white"/>
<path d="M376.689 365.125L366.729 349.416L397.99 324.55L410.893 310.287C412.569 308.433 414.704 307.052 417.083 306.28C419.462 305.507 422.003 305.372 424.451 305.886C426.899 306.401 429.169 307.547 431.034 309.212C432.899 310.876 434.293 312.999 435.078 315.369C436.241 318.882 435.991 322.708 434.381 326.04C432.77 329.372 429.925 331.95 426.447 333.229L406.043 340.729L376.689 365.125Z" fill="#FFB6B6"/>
<path d="M143.009 251.227V327.575H196.612V251.227C196.613 250.678 196.437 250.143 196.111 249.701C195.785 249.259 195.325 248.933 194.799 248.771C194.551 248.689 194.292 248.649 194.031 248.652H145.598C145.258 248.651 144.922 248.717 144.608 248.846C144.294 248.975 144.009 249.165 143.768 249.404C143.528 249.643 143.337 249.927 143.207 250.24C143.076 250.553 143.009 250.888 143.009 251.227ZM163.928 277.461C163.942 275.955 164.551 274.517 165.622 273.457C166.694 272.398 168.141 271.804 169.65 271.804C171.158 271.804 172.606 272.398 173.677 273.457C174.749 274.517 175.358 275.955 175.372 277.461V286.319C175.364 287.828 174.758 289.273 173.686 290.338C172.614 291.402 171.162 292 169.65 292C168.137 292 166.686 291.402 165.614 290.338C164.542 289.273 163.936 287.828 163.928 286.319V277.461Z" fill="#2F2E41"/>
<path d="M142.845 325.134V332.496C142.846 332.877 142.998 333.243 143.267 333.513C143.537 333.784 143.902 333.937 144.285 333.94H195.336C195.719 333.938 196.085 333.785 196.355 333.515C196.625 333.244 196.776 332.878 196.776 332.496V325.134H142.845Z" fill="#3F3D56"/>
<path d="M58.6836 136.2V275.6C58.685 277.377 59.3929 279.08 60.6517 280.336C61.9106 281.592 63.6176 282.299 65.398 282.3H272.424C274.205 282.299 275.912 281.592 277.171 280.336C278.429 279.08 279.137 277.377 279.139 275.6V136.2C279.134 134.425 278.425 132.724 277.167 131.47C275.908 130.216 274.203 129.51 272.424 129.508H65.398C63.6192 129.51 61.9138 130.216 60.6553 131.47C59.3968 132.724 58.6878 134.425 58.6836 136.2Z" fill="#3F3D56"/>
<path d="M63.5405 137.934V273.88C63.5422 274.829 63.9207 275.739 64.5934 276.41C65.266 277.081 66.1778 277.459 67.129 277.46H270.701C271.652 277.459 272.564 277.081 273.237 276.41C273.909 275.739 274.288 274.829 274.29 273.88V137.934C274.29 136.984 273.912 136.072 273.239 135.399C272.566 134.727 271.654 134.348 270.701 134.346H67.129C66.1766 134.348 65.2639 134.727 64.5912 135.399C63.9185 136.072 63.5406 136.984 63.5405 137.934Z" fill="white"/>
<path d="M101.32 333.441C101.527 333.7 101.791 333.909 102.09 334.052C102.39 334.195 102.718 334.269 103.051 334.267H224.163C224.494 334.267 224.821 334.192 225.12 334.05C225.419 333.908 225.682 333.701 225.891 333.444C226.1 333.187 226.248 332.888 226.326 332.566C226.404 332.245 226.409 331.911 226.341 331.587L224.461 322.676C224.384 322.313 224.216 321.975 223.973 321.693C223.731 321.411 223.422 321.193 223.074 321.061C222.822 320.962 222.554 320.912 222.283 320.912H104.923C104.653 320.912 104.384 320.962 104.133 321.061C103.785 321.193 103.475 321.411 103.233 321.693C102.991 321.975 102.823 322.313 102.745 322.676L100.865 331.587C100.798 331.91 100.804 332.244 100.883 332.565C100.962 332.886 101.111 333.185 101.32 333.441Z" fill="#2F2E41"/>
<path d="M264.095 153.073H73.6129C73.4149 153.069 73.2265 152.987 73.0881 152.846C72.9496 152.705 72.8721 152.515 72.8721 152.317C72.8721 152.12 72.9496 151.93 73.0881 151.789C73.2265 151.647 73.4149 151.566 73.6129 151.562H264.095C264.293 151.566 264.481 151.647 264.62 151.789C264.758 151.93 264.836 152.12 264.836 152.317C264.836 152.515 264.758 152.705 264.62 152.846C264.481 152.987 264.293 153.069 264.095 153.073Z" fill="#3F3D56"/>
<path d="M86.5789 147.702C89.0306 147.702 91.0182 145.675 91.0182 143.174C91.0182 140.673 89.0306 138.646 86.5789 138.646C84.1272 138.646 82.1396 140.673 82.1396 143.174C82.1396 145.675 84.1272 147.702 86.5789 147.702Z" fill="#3F3D56"/>
<path d="M101.915 147.702C104.367 147.702 106.354 145.675 106.354 143.174C106.354 140.673 104.367 138.646 101.915 138.646C99.4631 138.646 97.4756 140.673 97.4756 143.174C97.4756 145.675 99.4631 147.702 101.915 147.702Z" fill="#3F3D56"/>
<path d="M117.25 147.702C119.702 147.702 121.69 145.675 121.69 143.174C121.69 140.673 119.702 138.646 117.25 138.646C114.799 138.646 112.811 140.673 112.811 143.174C112.811 145.675 114.799 147.702 117.25 147.702Z" fill="#3F3D56"/>
<path d="M254.86 139.766H243.968C243.752 139.771 243.547 139.859 243.397 140.013C243.246 140.167 243.162 140.373 243.162 140.588C243.162 140.803 243.246 141.009 243.397 141.163C243.547 141.317 243.752 141.406 243.968 141.411H254.86C255.076 141.408 255.283 141.32 255.435 141.166C255.587 141.012 255.673 140.804 255.673 140.588C255.673 140.372 255.587 140.165 255.435 140.011C255.283 139.857 255.076 139.769 254.86 139.766Z" fill="#3F3D56"/>
<path d="M254.86 142.854H243.968C243.752 142.859 243.547 142.948 243.396 143.102C243.246 143.256 243.161 143.462 243.161 143.677C243.161 143.892 243.246 144.099 243.396 144.252C243.547 144.406 243.752 144.495 243.968 144.5H254.86C255.077 144.497 255.284 144.409 255.436 144.255C255.589 144.101 255.674 143.894 255.674 143.677C255.674 143.461 255.589 143.253 255.436 143.099C255.284 142.945 255.077 142.857 254.86 142.854Z" fill="#3F3D56"/>
<path d="M254.86 145.944H243.968C243.752 145.949 243.547 146.038 243.397 146.192C243.246 146.346 243.162 146.552 243.162 146.767C243.162 146.982 243.246 147.188 243.397 147.342C243.547 147.496 243.752 147.584 243.968 147.589H254.86C255.076 147.586 255.283 147.498 255.435 147.345C255.587 147.191 255.673 146.983 255.673 146.767C255.673 146.551 255.587 146.343 255.435 146.189C255.283 146.035 255.076 145.947 254.86 145.944Z" fill="#3F3D56"/>
<path d="M517.451 328.364C517.779 329.319 518.403 330.145 519.232 330.725C520.061 331.304 521.052 331.606 522.064 331.588L541.828 331.081C542.847 331.061 543.832 330.712 544.636 330.088C545.441 329.463 546.021 328.595 546.29 327.614L549.086 297.772C550.079 298.221 551.159 298.442 552.248 298.42C553.194 298.397 554.127 298.187 554.992 297.804C555.857 297.421 556.638 296.871 557.29 296.187C557.942 295.503 558.453 294.697 558.793 293.815C559.134 292.934 559.296 291.994 559.273 291.05C559.249 290.106 559.039 289.176 558.655 288.312C558.271 287.449 557.72 286.67 557.034 286.019C556.348 285.368 555.541 284.858 554.658 284.519C553.774 284.18 552.833 284.017 551.886 284.041C551.451 284.039 551.017 284.084 550.591 284.175C550.128 283.675 549.565 283.278 548.939 283.008C548.313 282.739 547.637 282.603 546.955 282.61L516.553 283.393C516.301 283.402 516.05 283.433 515.803 283.486C515.137 283.61 514.504 283.875 513.949 284.263C513.393 284.652 512.928 285.154 512.583 285.737C512.239 286.32 512.024 286.97 511.952 287.643C511.88 288.316 511.954 288.996 512.168 289.638L517.451 328.364ZM549.66 295.746L551.65 288.635C551.877 287.813 551.882 286.947 551.665 286.123C551.762 286.122 551.847 286.077 551.944 286.076C553.308 286.048 554.628 286.561 555.615 287.503C556.601 288.444 557.172 289.738 557.204 291.099C557.236 292.461 556.726 293.779 555.785 294.766C554.844 295.753 553.549 296.327 552.185 296.362C551.303 296.39 550.43 296.177 549.66 295.746Z" fill="#2F2E41"/>
<path d="M515.804 283.487C516.451 287.182 523.733 289.78 532.49 289.328C540.541 288.958 547.125 286.137 548.331 282.794C547.885 282.662 547.421 282.6 546.955 282.611L516.554 283.394C516.301 283.403 516.051 283.434 515.804 283.487Z" fill="#3F3D56"/>
<path d="M534.094 311.966C534.134 311.956 534.172 311.939 534.207 311.917L538.499 309.114C538.551 309.08 538.593 309.034 538.623 308.979C538.652 308.925 538.668 308.864 538.668 308.802C538.668 308.741 538.652 308.68 538.623 308.625C538.593 308.571 538.551 308.525 538.499 308.491L534.038 305.575C533.997 305.548 533.951 305.53 533.903 305.52C533.855 305.511 533.805 305.511 533.757 305.521C533.709 305.531 533.663 305.55 533.623 305.578C533.582 305.606 533.547 305.641 533.52 305.682C533.493 305.723 533.475 305.769 533.466 305.817C533.457 305.865 533.457 305.914 533.467 305.962C533.477 306.01 533.497 306.056 533.525 306.096C533.552 306.136 533.588 306.171 533.629 306.198L537.614 308.802L533.798 311.294C533.724 311.342 533.67 311.415 533.645 311.499C533.62 311.584 533.625 311.674 533.661 311.755C533.696 311.836 533.759 311.901 533.839 311.94C533.918 311.979 534.008 311.988 534.094 311.966Z" fill="#6C63FF"/>
<path d="M527.315 312.278C527.387 312.26 527.452 312.22 527.501 312.165C527.551 312.11 527.583 312.041 527.593 311.968C527.603 311.894 527.591 311.819 527.558 311.753C527.525 311.686 527.473 311.631 527.409 311.594L523.453 309.331L527.277 306.497C527.316 306.468 527.349 306.431 527.374 306.389C527.399 306.347 527.416 306.301 527.423 306.252C527.43 306.204 527.428 306.155 527.416 306.107C527.404 306.06 527.383 306.015 527.353 305.976C527.324 305.937 527.288 305.904 527.246 305.879C527.204 305.854 527.157 305.837 527.109 305.83C527.06 305.823 527.011 305.826 526.963 305.837C526.916 305.849 526.871 305.87 526.832 305.9L522.551 309.073C522.501 309.11 522.461 309.158 522.435 309.214C522.409 309.27 522.397 309.332 522.401 309.393C522.404 309.455 522.423 309.515 522.456 309.567C522.488 309.62 522.534 309.663 522.587 309.694L527.038 312.24C527.122 312.288 527.221 312.302 527.315 312.278Z" fill="#6C63FF"/>
<path d="M533.667 314.423C533.703 314.414 533.737 314.4 533.769 314.38C533.811 314.355 533.847 314.321 533.876 314.282C533.905 314.242 533.926 314.198 533.938 314.15C533.949 314.103 533.952 314.053 533.944 314.005C533.937 313.957 533.92 313.91 533.894 313.868L527.81 303.887C527.758 303.803 527.675 303.743 527.579 303.719C527.483 303.696 527.382 303.712 527.297 303.763C527.213 303.815 527.152 303.897 527.129 303.993C527.105 304.089 527.121 304.19 527.172 304.275L533.257 314.256C533.298 314.324 533.36 314.377 533.434 314.407C533.508 314.437 533.59 314.443 533.667 314.423Z" fill="#6C63FF"/>
<path d="M191.613 194.165H158.645C157.3 194.165 156.209 195.253 156.209 196.595V199.809C156.209 201.151 157.3 202.239 158.645 202.239H191.613C192.958 202.239 194.048 201.151 194.048 199.809V196.595C194.048 195.253 192.958 194.165 191.613 194.165Z" fill="#6C63FF"/>
<path d="M210.83 210.312H139.428C138.083 210.312 136.993 211.4 136.993 212.742V215.956C136.993 217.298 138.083 218.386 139.428 218.386H210.83C212.175 218.386 213.265 217.298 213.265 215.956V212.742C213.265 211.4 212.175 210.312 210.83 210.312Z" fill="#E6E6E6"/>
<path d="M210.83 226.46H139.428C138.083 226.46 136.993 227.548 136.993 228.89V232.104C136.993 233.446 138.083 234.534 139.428 234.534H210.83C212.175 234.534 213.265 233.446 213.265 232.104V228.89C213.265 227.548 212.175 226.46 210.83 226.46Z" fill="#E6E6E6"/>
<path d="M216.882 280.531L217.044 281.041L217.053 281.058L221.921 295.826L227.521 312.844L238.057 344.825L238.159 349.793V349.81L238.942 389.774L236.772 395.192L239.214 404.074C239.214 404.074 238.091 390.647 232.065 398.358C228.652 402.74 224.661 407.224 221.384 411.427C226.159 413.355 231.01 415.099 235.938 416.659C237.001 416.998 238.074 417.321 239.146 417.644C239.376 417.712 239.606 417.78 239.835 417.847C256.17 422.668 273.057 425.376 290.082 425.906C290.967 425.932 291.835 425.949 292.678 425.966C292.976 425.974 293.265 425.983 293.554 425.983C294.507 425.991 295.452 426 296.405 426C298.329 426 300.244 425.972 302.15 425.915C316.26 425.518 330.288 423.625 343.996 420.268C343.903 414.62 343.648 408.022 343.282 400.974C343.111 397.517 339.29 393.772 339.06 390.155C338.899 387.437 342.328 384.881 342.15 382.121C340.992 365.129 339.545 371.652 338.473 359.618C338.362 358.438 338.26 357.308 338.167 356.23C337.477 348.502 337.001 343.67 337.001 343.67L341.579 314.873L348.771 269.662L348.218 268.753L347.596 268.447L309.665 249.714L307.605 244.448C307.005 242.932 305.964 241.629 304.616 240.707C303.267 239.785 301.674 239.287 300.039 239.277L275.052 239.175C273.755 239.169 272.476 239.472 271.32 240.058C270.164 240.645 269.165 241.497 268.405 242.546L261.64 251.896L216.882 280.531Z" fill="white"/>
<path d="M243.819 337.709L238.159 349.793L234.295 358.048L227.649 392.772L224.321 396.296L221.47 383.82L191.63 390.431C190.651 385.005 191.368 390.615 190.764 384.662C190.934 384.492 191.113 384.322 191.291 384.152C191.768 383.711 192.168 383.295 192.159 382.896C191.819 362.362 192.84 327.417 201.368 306.246C202.703 302.789 204.464 299.512 206.61 296.489C206.781 296.259 206.942 296.03 207.104 295.801C211.036 290.306 213.521 284.897 217.044 281.05V281.041C217.066 281.024 217.086 281.004 217.104 280.982C217.117 280.976 217.128 280.967 217.138 280.956L241.342 268.15L242.38 297.261L243.121 318.186L243.819 337.709Z" fill="#F5F5F5"/>
<path d="M331.094 341.142L338.164 356.235L340.631 361.491L347.276 396.212L350.593 399.727L353.45 387.255L354.793 386.98L379.008 381.975L386.066 404.342C387.657 401.698 388.284 398.586 387.841 395.533C387.397 392.481 385.911 389.674 383.633 387.589C383.151 387.154 382.75 386.73 382.761 386.329C383.163 362.178 381.682 318.078 368.312 299.927C364.066 294.167 361.518 288.43 357.811 284.422C357.8 284.411 357.8 284.399 357.789 284.399L348.768 269.661L348.217 268.756L347.597 268.447L331.094 341.142Z" fill="#F5F5F5"/>
<path d="M288.268 232.079C306.627 232.079 321.51 217.229 321.51 198.909C321.51 180.59 306.627 165.739 288.268 165.739C269.908 165.739 255.025 180.59 255.025 198.909C255.025 217.229 269.908 232.079 288.268 232.079Z" fill="#FFB6B6"/>
<path d="M333.198 175.74C332.941 175.465 332.63 175.245 332.285 175.093C331.941 174.941 331.569 174.86 331.192 174.854L331.691 173.47C331.854 173.033 331.899 172.562 331.819 172.103C331.739 171.644 331.539 171.215 331.238 170.859C330.938 170.503 330.548 170.233 330.108 170.077C329.669 169.921 329.195 169.884 328.737 169.971L326.917 170.321L327.088 169.107C327.154 168.655 327.101 168.194 326.934 167.769C326.767 167.344 326.492 166.969 326.136 166.682C325.78 166.395 325.355 166.206 324.903 166.132C324.451 166.059 323.988 166.104 323.56 166.264C323.169 166.417 322.75 166.481 322.331 166.451C321.913 166.422 321.507 166.299 321.142 166.092C320.776 165.892 320.458 165.614 320.211 165.279C319.964 164.943 319.793 164.558 319.71 164.149L319.076 161.097L319.009 160.933C315.92 155.797 309.982 152.06 302.715 150.69C296.247 149.462 289.615 150.087 283.221 150.675C280.685 150.914 277.82 151.182 275.432 152.641C273.403 153.891 271.687 156.392 272.038 158.916C265.734 156.988 258.975 160.837 255.625 165.69C251.656 171.467 251.007 178.703 250.903 184.36C250.619 197.745 253.387 208.695 259.109 216.914C259.527 217.509 259.631 218.753 260.459 219.169L260.288 218.894C261.213 219.355 262.153 220.1 261.802 220.896C260.795 223.189 267.487 228.259 272.202 229.934C280.804 232.993 292.241 232.733 300.283 231.631L300.567 229.733C303.469 229.338 305.513 228.586 306.087 227.41C307.102 226.547 307.967 225.772 308.721 225.058L308.728 225.05C308.743 225.035 308.773 225.013 308.788 224.998C312.421 221.522 313.264 219.542 313.645 216.527C314.01 213.571 313.361 210.571 312.697 207.869C326.678 210.028 307.191 193.011 320.217 189.72C320.367 189.674 320.519 189.637 320.672 189.609C321.053 189.519 321.433 189.43 321.799 189.326C323.561 188.848 325.248 188.129 326.812 187.189C330.453 184.978 331.654 182.045 333.534 178.74C333.805 178.269 333.919 177.725 333.859 177.185C333.798 176.646 333.567 176.139 333.198 175.74Z" fill="#2F2E41"/>
<path d="M405.841 343.502C405.833 344.805 405.818 346.629 405.759 348.884C405.751 349.197 405.744 349.517 405.736 349.845C405.639 353.991 405.542 357.468 405.386 361.331C405.378 361.599 405.371 361.86 405.356 362.128C405.147 367.517 404.819 373.793 404.252 383.731C403.2 402.088 401.364 386.254 399.522 392.693C399.432 393.014 399.335 393.393 399.246 393.84C398.967 395.46 398.496 397.042 397.843 398.552C396.866 399.133 395.859 399.691 394.866 400.249C392.039 401.82 389.167 403.331 386.272 404.768C384.646 405.572 383.012 406.361 381.371 407.12C381.109 407.239 380.856 407.359 380.602 407.47C372.197 411.349 363.535 414.647 354.677 417.341C352.946 417.862 351.223 418.369 349.477 418.838C347.657 419.344 345.837 419.82 343.994 420.267C330.286 423.625 316.258 425.519 302.148 425.917C300.246 425.977 298.329 425.999 296.404 425.999C295.449 425.999 294.509 425.991 293.554 425.984C293.263 425.984 292.972 425.977 292.681 425.969C291.838 425.947 290.965 425.932 290.085 425.91C273.06 425.38 256.173 422.67 239.839 417.847L239.145 417.646C238.071 417.319 237.004 416.999 235.937 416.656C231.013 415.101 226.162 413.359 221.382 411.431C217.734 409.964 214.128 408.391 210.564 406.711C210.532 406.702 210.502 406.687 210.475 406.666C209.729 406.324 208.975 405.967 208.229 405.602C208.132 405.55 208.028 405.498 207.923 405.445C205.141 404.091 202.388 402.671 199.665 401.187C197.374 395.939 194.152 394.934 192.152 390.319C191.57 388.948 191.15 387.514 190.899 386.046C190.899 386.031 190.891 386.016 190.891 385.994C191.1 388.763 190.004 381.081 190.884 385.964C190.876 385.875 190.869 385.778 190.862 385.666C190.839 385.398 190.809 385.071 190.765 384.661C188.206 359.731 188.37 331.219 187.258 307.725C187.184 306.207 187.106 304.753 187.027 303.363C187.005 302.902 186.975 302.448 186.945 302.001C186.997 301.867 187.057 301.725 187.124 301.591C187.138 301.553 187.156 301.515 187.176 301.48C187.198 301.434 187.223 301.389 187.251 301.346C187.266 301.323 187.288 301.294 187.303 301.271C187.314 301.246 187.326 301.221 187.34 301.197C187.407 301.093 187.482 300.981 187.564 300.877C187.601 300.832 187.631 300.795 187.668 300.758C187.694 300.72 187.724 300.685 187.758 300.653C187.781 300.618 187.809 300.585 187.84 300.557C187.87 300.527 187.9 300.49 187.937 300.452C187.953 300.429 187.973 300.409 187.997 300.393C188.056 300.325 188.121 300.263 188.191 300.207C188.457 299.962 188.741 299.738 189.041 299.537C189.146 299.47 189.258 299.403 189.362 299.328C190.114 298.88 190.906 298.501 191.727 298.197C192.01 298.093 192.294 297.996 192.6 297.892C192.712 297.862 192.816 297.825 192.928 297.787C193.092 297.735 193.256 297.683 193.428 297.646C194.278 297.393 195.196 297.177 196.188 296.976C196.308 296.954 196.434 296.931 196.561 296.902C196.74 296.864 196.927 296.835 197.113 296.805C197.367 296.76 197.628 296.715 197.889 296.671C200.105 296.321 202.619 296.06 205.394 295.889C205.656 295.874 205.917 295.859 206.178 295.845C206.484 295.83 206.79 295.815 207.103 295.8C207.364 295.785 207.633 295.778 207.901 295.77C208.162 295.755 208.431 295.748 208.707 295.74C209.46 295.718 210.236 295.696 211.027 295.681C213.28 295.636 215.652 295.651 218.144 295.703C219.301 295.733 220.479 295.763 221.688 295.815C221.77 295.815 221.845 295.822 221.919 295.822C222.971 295.859 224.031 295.904 225.12 295.964C225.881 296.001 226.649 296.038 227.418 296.083C228.141 296.127 228.872 296.172 229.611 296.224C230.185 296.254 230.76 296.299 231.342 296.336C231.834 296.373 232.326 296.41 232.819 296.44L233.49 296.485C233.856 296.514 234.221 296.537 234.594 296.574C235.415 296.641 236.236 296.708 237.071 296.775C237.899 296.849 238.742 296.924 239.585 296.998C240.428 297.073 241.279 297.155 242.129 297.237C242.219 297.244 242.301 297.251 242.383 297.259C243.159 297.341 243.935 297.415 244.718 297.497C244.897 297.512 245.084 297.527 245.263 297.549C246.01 297.624 246.771 297.712 247.525 297.792C247.756 297.817 247.986 297.841 248.218 297.866C248.809 297.93 249.391 297.986 249.985 298.055C250.769 298.145 251.567 298.227 252.343 298.331C252.947 298.398 253.551 298.465 254.156 298.539C255.103 298.651 256.065 298.77 257.028 298.897C257.393 298.941 257.759 298.986 258.125 299.038C260.87 299.381 263.645 299.76 266.465 300.155C270.74 300.758 275.082 301.413 279.454 302.12C283.833 302.827 288.237 303.574 292.666 304.361C293.785 304.562 294.904 304.763 296.031 304.971C296.538 305.068 297.045 305.165 297.553 305.261C298.418 305.418 299.284 305.581 300.149 305.745C301.014 305.909 301.88 306.073 302.745 306.244C303.775 306.445 304.812 306.646 305.841 306.847C312.623 308.187 319.367 309.616 325.947 311.113C327.029 311.358 328.111 311.611 329.185 311.857C331.334 312.356 333.462 312.862 335.571 313.376C336.153 313.51 336.727 313.651 337.302 313.792C338.734 314.15 340.167 314.507 341.577 314.872L341.823 314.939C342.86 315.192 343.874 315.453 344.889 315.721C347.284 316.346 349.639 316.979 351.954 317.619C353.491 318.043 355.01 318.472 356.512 318.907C358.758 319.554 360.959 320.209 363.1 320.872C363.63 321.036 364.159 321.199 364.682 321.356C366.248 321.84 367.793 322.331 369.292 322.822C370.486 323.209 371.65 323.604 372.798 323.998C373.947 324.393 375.074 324.788 376.178 325.182C376.887 325.435 377.588 325.703 378.289 325.956C379.296 326.328 380.289 326.701 381.259 327.073C381.557 327.185 381.848 327.304 382.139 327.415C382.325 327.497 382.504 327.564 382.684 327.639C383.034 327.78 383.392 327.914 383.735 328.056C384.086 328.189 384.429 328.331 384.772 328.48C385.108 328.614 385.451 328.755 385.78 328.897C386.115 329.031 386.444 329.172 386.772 329.321C387.048 329.433 387.316 329.552 387.578 329.671C388.107 329.902 388.637 330.132 389.152 330.371C389.405 330.49 389.659 330.601 389.913 330.721L390.495 330.989C390.577 331.033 390.659 331.07 390.741 331.108C390.927 331.197 391.121 331.294 391.308 331.383C391.74 331.584 392.166 331.8 392.583 332.001C393.143 332.284 393.688 332.567 394.21 332.842C394.74 333.125 395.254 333.408 395.747 333.683C395.829 333.728 395.903 333.773 395.985 333.817C396.097 333.877 396.209 333.944 396.321 334.003C396.702 334.219 397.067 334.443 397.433 334.659C398.149 335.098 398.828 335.529 399.462 335.961C399.604 336.058 399.738 336.155 399.88 336.244C400.35 336.579 400.797 336.907 401.215 337.242C401.215 337.249 401.215 337.249 401.223 337.249C401.364 337.353 401.499 337.465 401.633 337.569C401.745 337.673 401.864 337.763 401.976 337.867C402.364 338.202 402.722 338.522 403.05 338.85C403.16 338.951 403.265 339.058 403.364 339.17C403.407 339.206 403.447 339.245 403.483 339.289C403.632 339.438 403.767 339.587 403.893 339.735C403.913 339.756 403.931 339.778 403.946 339.802C404.125 340.011 404.289 340.219 404.446 340.428C404.52 340.532 404.602 340.636 404.669 340.74C404.759 340.867 404.848 341.001 404.923 341.128C404.99 341.232 405.05 341.343 405.109 341.448C405.268 341.716 405.403 341.997 405.512 342.289C405.596 342.486 405.664 342.691 405.714 342.899C405.77 343.097 405.813 343.299 405.841 343.502Z" fill="#2F2E41"/>
<path opacity="0.2" d="M405.84 343.502C405.833 344.805 405.818 346.629 405.758 348.885C405.751 349.197 405.736 349.517 405.728 349.845C405.654 353.009 405.542 356.917 405.385 361.331C405.378 361.599 405.37 361.86 405.355 362.128C405.147 367.517 404.818 373.793 404.251 383.731C403.199 402.088 401.364 386.254 399.521 392.694C394.404 389.552 388.793 386.262 382.795 382.882C381.713 382.272 380.622 381.659 379.52 381.043C367.524 374.366 354.125 367.368 340.137 360.438C339.584 360.163 339.025 359.887 338.473 359.619C306.43 343.815 271.456 328.443 243.121 318.185C237.653 316.205 232.431 314.418 227.522 312.847C217.182 309.549 208.244 307.242 201.365 306.244C194.203 305.202 189.257 305.574 187.258 307.726C187.183 306.207 187.106 304.753 187.027 303.363C186.997 302.902 186.967 302.448 186.937 302.001C186.983 301.878 187.043 301.761 187.101 301.644C187.109 301.626 187.115 301.609 187.124 301.592C187.138 301.553 187.155 301.516 187.176 301.48C187.198 301.434 187.223 301.389 187.25 301.346C187.275 301.293 187.305 301.243 187.34 301.197C187.407 301.093 187.482 300.981 187.564 300.877C187.624 300.799 187.689 300.724 187.758 300.654C187.781 300.618 187.808 300.585 187.84 300.557C187.87 300.527 187.899 300.49 187.937 300.453C187.953 300.429 187.973 300.409 187.996 300.393C188.055 300.325 188.12 300.263 188.19 300.207C188.457 299.963 188.741 299.739 189.041 299.537C189.145 299.47 189.257 299.403 189.362 299.328C190.113 298.88 190.905 298.501 191.727 298.197C192.01 298.093 192.294 297.996 192.599 297.892C192.711 297.862 192.816 297.825 192.928 297.788C193.092 297.735 193.256 297.683 193.428 297.646C194.278 297.393 195.196 297.177 196.188 296.976C196.486 296.917 196.8 296.857 197.113 296.805C197.367 296.76 197.628 296.716 197.889 296.671C200.105 296.321 202.619 296.06 205.394 295.889C205.655 295.874 205.916 295.859 206.177 295.845C206.483 295.83 206.789 295.815 207.103 295.8C207.364 295.785 207.632 295.778 207.901 295.77C208.162 295.755 208.43 295.748 208.707 295.74C209.46 295.718 210.236 295.696 211.027 295.681C213.28 295.644 215.652 295.658 218.144 295.711C219.3 295.733 220.479 295.77 221.688 295.822C221.762 295.822 221.844 295.83 221.919 295.83C222.971 295.86 224.038 295.912 225.119 295.964C225.88 296.001 226.649 296.038 227.417 296.083C228.141 296.127 228.872 296.172 229.611 296.224C230.185 296.254 230.759 296.299 231.341 296.336C231.834 296.373 232.326 296.41 232.819 296.44C233.408 296.485 233.997 296.529 234.594 296.574C235.415 296.641 236.235 296.708 237.071 296.775C237.899 296.85 238.742 296.924 239.585 296.998C240.428 297.073 241.279 297.155 242.129 297.237C242.219 297.244 242.301 297.252 242.383 297.259C243.159 297.341 243.935 297.415 244.718 297.497C249.06 297.936 253.529 298.45 258.124 299.038C260.87 299.388 263.65 299.763 266.465 300.162C270.74 300.765 275.082 301.42 279.454 302.12C283.833 302.827 288.237 303.574 292.666 304.361C293.785 304.562 294.904 304.763 296.031 304.971C297.403 305.224 298.776 305.482 300.149 305.745C301.014 305.909 301.88 306.073 302.745 306.244C303.774 306.445 304.811 306.646 305.841 306.847C312.623 308.187 319.367 309.616 325.947 311.113C327.029 311.358 328.11 311.611 329.185 311.857C331.333 312.356 333.462 312.862 335.571 313.376C336.153 313.517 336.727 313.659 337.302 313.8C338.741 314.157 340.166 314.515 341.576 314.872V314.879C341.658 314.894 341.74 314.917 341.823 314.939C342.852 315.2 343.874 315.46 344.889 315.728C347.284 316.353 349.639 316.984 351.954 317.619C353.491 318.051 355.013 318.475 356.512 318.907C358.758 319.562 360.959 320.217 363.1 320.872C363.629 321.036 364.159 321.2 364.681 321.356C366.248 321.847 367.785 322.336 369.292 322.822C370.485 323.209 371.649 323.604 372.798 323.999C373.947 324.393 375.074 324.788 376.178 325.182C376.894 325.435 377.595 325.696 378.289 325.949C379.304 326.321 380.288 326.693 381.258 327.073C381.557 327.185 381.848 327.304 382.139 327.415C382.683 327.624 383.213 327.84 383.735 328.056C384.086 328.19 384.429 328.331 384.772 328.48C385.108 328.614 385.451 328.755 385.779 328.897C386.115 329.031 386.443 329.172 386.772 329.321C387.048 329.433 387.316 329.552 387.577 329.671C388.107 329.902 388.637 330.133 389.151 330.371C389.405 330.49 389.659 330.602 389.912 330.721L390.494 330.989C390.576 331.033 390.658 331.071 390.74 331.108C391.375 331.406 391.986 331.703 392.583 332.001C393.143 332.284 393.687 332.567 394.21 332.842C394.829 333.17 395.418 333.49 395.985 333.817C396.097 333.877 396.209 333.944 396.321 334.004C396.701 334.219 397.067 334.443 397.432 334.659C398.149 335.098 398.828 335.53 399.462 335.961C400.088 336.393 400.67 336.817 401.215 337.242C401.215 337.249 401.215 337.249 401.222 337.249C401.483 337.458 401.737 337.666 401.976 337.867C402.364 338.202 402.722 338.522 403.05 338.85C403.16 338.951 403.265 339.058 403.363 339.17C403.407 339.206 403.447 339.246 403.483 339.289C403.64 339.46 403.796 339.631 403.945 339.803C404.125 340.011 404.289 340.219 404.445 340.428C404.52 340.532 404.602 340.636 404.669 340.741C404.759 340.867 404.848 341.001 404.923 341.128C404.99 341.232 405.05 341.343 405.109 341.448C405.268 341.716 405.402 341.997 405.512 342.289C405.594 342.487 405.661 342.691 405.714 342.899C405.77 343.097 405.812 343.299 405.84 343.502Z" fill="black"/>
</g>
<defs>
<clipPath id="clip0_331_910">
<rect width="587" height="426" fill="white"/>
</clipPath>
</defs>
</svg>
