<svg width="461" height="516" viewBox="0 0 461 516" fill="none" xmlns="http://www.w3.org/2000/svg">
<path d="M348.022 508.233L337.66 508.232L332.73 468.265L348.024 468.266L348.022 508.233Z" fill="#FFB6B6"/>
<path d="M312.52 507.998C312.198 508.542 312.027 510.296 312.027 510.927C312.027 512.87 313.602 514.444 315.544 514.444H347.634C348.959 514.444 350.033 513.37 350.033 512.045V510.709C350.033 510.709 351.62 506.694 348.352 501.745C348.352 501.745 344.29 505.62 338.221 499.55L336.431 496.308L323.474 505.783L316.293 506.667C314.722 506.861 313.328 506.637 312.52 507.998Z" fill="#1E293B"/>
<path d="M457.406 495.271L447.938 499.479L427.197 464.961L441.172 458.749L457.406 495.271Z" fill="#FFB6B6"/>
<path d="M424.871 509.478C424.797 510.106 425.354 511.777 425.611 512.355C426.4 514.13 428.478 514.929 430.253 514.14L459.575 501.103C460.786 500.565 461.331 499.147 460.793 497.936L460.25 496.716C460.25 496.716 460.069 492.402 455.072 489.207C455.072 489.207 452.935 494.398 444.923 491.318L441.97 489.082L433.98 503.004L427.777 506.729C426.42 507.544 425.057 507.906 424.871 509.478Z" fill="#1E293B"/>
<path d="M325.502 258.146L316.289 277.493L331.951 478.331H351.537L359.589 346.589L429.882 478.331H453.907L417.629 384.361L392.755 261.832L325.502 258.146Z" fill="#1E293B"/>
<path d="M374.83 134.073H350.537L341.627 148.053L321.531 157.664L325.9 217.953L323.708 261.911L326.711 261.824C348.151 261.198 369.58 264.685 389.476 272.697C394.58 274.752 399.931 275.898 404.537 274.747C404.537 274.747 402.79 267.757 401.042 266.009C399.295 264.262 398.421 262.817 399.295 261.792C400.169 260.767 401.916 259.893 400.169 258.146C398.421 256.398 398.421 254.197 398.421 254.197L393.179 215.332L403.664 160.286L381.82 148.053L374.83 134.073Z" fill="white"/>
<path d="M416.575 210.291L415.913 261.852L403.083 307.816L392.828 303.99L397.381 261.86L396.783 204.847L416.575 210.291Z" fill="#FFB6B6"/>
<path d="M403.04 315.228C404.243 308.619 402.037 302.681 398.113 301.967C394.189 301.252 390.032 306.031 388.829 312.64C387.625 319.25 389.831 325.187 393.755 325.901C397.68 326.616 401.836 321.837 403.04 315.228Z" fill="#FFB6B6"/>
<path d="M398.532 158.78C398.532 158.78 412.693 160.985 412.878 173.197C413.063 185.409 426.74 205.165 418.192 220.627L395.967 224.062L384 180.255L397.677 157.062" fill="white"/>
<path d="M332.35 201.211L303.503 243.953L267.556 275.338L261.081 266.512L288.006 233.79L318.791 185.799L332.35 201.211Z" fill="#FFB6B6"/>
<path d="M263.452 281.51C268.085 276.645 269.498 270.471 266.61 267.72C263.721 264.97 257.624 266.684 252.991 271.549C248.359 276.414 246.945 282.587 249.833 285.338C252.722 288.089 258.819 286.375 263.452 281.51Z" fill="#FFB6B6"/>
<path d="M346.052 147.253C346.052 147.253 356.923 157.071 350.265 167.559C343.607 178.048 344.266 202.519 328.331 210.873L307.422 201.329C309.183 184.098 310.211 166.233 321.648 157.363L346.281 145.312" fill="white"/>
<path d="M362.821 130.631C374.826 130.631 384.558 120.899 384.558 108.894C384.558 96.8891 374.826 87.1572 362.821 87.1572C350.816 87.1572 341.084 96.8891 341.084 108.894C341.084 120.899 350.816 130.631 362.821 130.631Z" fill="#FFB6B6"/>
<path d="M378.785 126.754C379.983 126.958 381.388 124.056 382.731 121.229C385.543 115.312 387.331 111.551 387.467 106.234C387.583 101.702 386.324 102.892 385.099 92.8172C384.695 89.4943 379.018 89.5007 377.863 87.9228C375.911 85.2576 378.906 84.1584 374.05 82.5573C364.955 79.5585 360.842 84.2171 355.066 84.6184C354.92 84.6286 352.057 87.4289 350.458 87.5737C347.656 87.8274 343.614 87.3909 341.802 83.1221C340.107 79.1306 338.985 90.7944 340.499 92.2379C341.785 93.4635 344.003 96.5395 344.06 96.7632C344.124 97.0164 338.786 91.1034 337.895 93.5402C337.254 95.2938 339.272 104.316 340.903 104.655C342.266 104.939 345.601 100.444 344.849 102.288C343.104 106.563 353.597 109.291 366.158 100.709C366.603 100.405 366.182 100.89 367.736 104.655C369.696 109.404 370.138 109.661 370.104 110.969C370.03 113.8 367.904 114.634 368.525 116.494C369.029 118 370.996 119.166 372.472 118.861C374.137 118.518 374.423 116.457 375.628 116.494C376.661 116.525 377.887 118.081 377.996 119.651C378.226 122.958 373.33 123.868 372.472 128.332C371.987 130.851 377.685 126.566 378.785 126.754Z" fill="#1E293B"/>
<path d="M208.424 515.301H46.764C22.5171 515.301 2.79053 495.574 2.79053 471.327V43.9734C2.79053 19.7265 22.5171 0 46.764 0H208.424C232.67 0 252.397 19.7265 252.397 43.9734C255.406 215.585 260.537 407.764 252.397 471.327C252.397 495.574 232.67 515.301 208.424 515.301Z" fill="white"/>
<path d="M254.651 157.194C253.625 157.194 252.791 158.029 252.791 159.055V218.584C252.791 219.61 253.625 220.444 254.651 220.444C255.677 220.444 256.511 219.61 256.511 218.584V159.055C256.511 158.029 255.677 157.194 254.651 157.194Z" fill="white"/>
<path d="M248.211 43.9742V471.32C248.211 492.425 231.785 509.689 211.015 511.028H211.005C210.699 511.047 210.392 511.065 210.075 511.075C209.527 511.103 208.978 511.112 208.42 511.112C208.42 511.112 206.373 510.963 202.634 510.684C198.858 510.405 193.361 509.986 186.505 509.438C184.45 509.279 182.283 509.103 179.994 508.917C175.437 508.545 170.433 508.135 165.066 507.67C162.926 507.494 160.713 507.298 158.452 507.103C146.9 506.108 133.962 504.945 120.316 503.624C118.01 503.41 115.684 503.187 113.34 502.954C112.726 502.889 6.97656 476.306 6.97656 471.32V43.9742C6.97656 21.9949 24.7889 4.18262 46.7682 4.18262H70.5241C74.3191 4.18262 77.37 7.14048 77.6955 10.9262C77.7234 11.1773 77.7514 11.4284 77.7978 11.6796C78.4861 15.4839 81.9742 18.1348 85.8436 18.1348H169.344C173.214 18.1348 176.702 15.4839 177.39 11.6796C177.437 11.4284 177.464 11.1773 177.492 10.9262C177.818 7.14048 180.869 4.18262 184.664 4.18262H208.42C230.399 4.18262 248.211 21.9949 248.211 43.9742Z" fill="#E4E6F2"/>
<path d="M1.86029 112.548C0.83431 112.548 0 113.382 0 114.408V129.29C0 130.316 0.834321 131.151 1.86029 131.151C2.88625 131.151 3.72058 130.316 3.72058 129.29V114.408C3.72058 113.382 2.88625 112.548 1.86029 112.548Z" fill="white"/>
<path d="M1.86029 157.194C0.83431 157.194 0 158.029 0 159.055V187.889C0 188.915 0.834321 189.749 1.86029 189.749C2.88625 189.749 3.72058 188.915 3.72058 187.889V159.055C3.72058 158.029 2.88625 157.194 1.86029 157.194Z" fill="white"/>
<path d="M1.86029 198.121C0.83431 198.121 0 198.955 0 199.981V228.816C0 229.842 0.834321 230.676 1.86029 230.676C2.88625 230.676 3.72058 229.842 3.72058 228.816V199.981C3.72058 198.955 2.88625 198.121 1.86029 198.121Z" fill="white"/>
<path d="M69.8767 10.6973H34.3003C34.1072 10.6973 33.9507 10.8538 33.9507 11.0469V14.9983C33.9507 15.1915 34.1072 15.348 34.3003 15.348H69.8767C70.0698 15.348 70.2264 15.1915 70.2264 14.9983V11.0469C70.2264 10.8538 70.0698 10.6973 69.8767 10.6973Z" fill="#E6E6E6"/>
<path d="M190.542 15.3474C192.597 15.3474 194.262 13.6817 194.262 11.6268C194.262 9.57201 192.597 7.90625 190.542 7.90625C188.487 7.90625 186.821 9.57201 186.821 11.6268C186.821 13.6817 188.487 15.3474 190.542 15.3474Z" fill="#E6E6E6"/>
<path d="M200.773 15.3474C202.828 15.3474 204.494 13.6817 204.494 11.6268C204.494 9.57201 202.828 7.90625 200.773 7.90625C198.718 7.90625 197.053 9.57201 197.053 11.6268C197.053 13.6817 198.718 15.3474 200.773 15.3474Z" fill="#E6E6E6"/>
<path d="M211.005 15.3474C213.06 15.3474 214.726 13.6817 214.726 11.6268C214.726 9.57201 213.06 7.90625 211.005 7.90625C208.95 7.90625 207.285 9.57201 207.285 11.6268C207.285 13.6817 208.95 15.3474 211.005 15.3474Z" fill="#E6E6E6"/>
<path d="M206.493 146.219V265.696C206.493 276.262 197.898 284.857 187.332 284.857H67.8552C57.2894 284.857 48.6938 276.262 48.6938 265.696V146.219C48.6938 135.653 57.2894 127.058 67.8552 127.058H187.332C197.898 127.058 206.493 135.653 206.493 146.219ZM187.332 282.603C196.669 282.603 204.239 275.033 204.239 265.696V205.46C204.239 163.405 170.146 129.312 128.091 129.312H67.8552C58.5177 129.312 50.9481 136.881 50.9481 146.219V265.696C50.9481 275.033 58.5177 282.603 67.8552 282.603H187.332Z" fill="white"/>
<path d="M122.335 175.854H83.7636C82.7912 175.854 82 175.063 82 174.09C82 173.118 82.7912 172.327 83.7636 172.327H122.335C123.307 172.327 124.098 173.118 124.098 174.09C124.098 175.063 123.307 175.854 122.335 175.854Z" fill="white"/>
<path d="M164.335 213.461H125.764C124.791 213.461 124 212.669 124 211.697C124 210.724 124.791 209.934 125.764 209.934H164.335C165.307 209.934 166.098 210.724 166.098 211.697C166.098 212.669 165.307 213.461 164.335 213.461Z" fill="white"/>
<path d="M124.337 232.589H85.7656C84.7932 232.589 84.002 231.798 84.002 230.826C84.002 229.853 84.7932 229.062 85.7656 229.062H124.337C125.309 229.062 126.1 229.853 126.1 230.826C126.1 231.798 125.309 232.589 124.337 232.589Z" fill="white"/>
<path d="M164.196 194.67H84.229C83.2566 194.67 82.4653 193.878 82.4653 192.906C82.4653 191.933 83.2566 191.143 84.229 191.143H164.196C165.168 191.143 165.959 191.933 165.959 192.906C165.959 193.878 165.168 194.67 164.196 194.67Z" fill="white"/>
</svg>
