<svg width="500" height="324" viewBox="0 0 500 324" fill="none" xmlns="http://www.w3.org/2000/svg">
<g clip-path="url(#clip0_331_1428)">
<path d="M81.2271 150.873C88.5465 150.873 94.4801 144.936 94.4801 137.612C94.4801 130.288 88.5465 124.351 81.2271 124.351C73.9077 124.351 67.9741 130.288 67.9741 137.612C67.9741 144.936 73.9077 150.873 81.2271 150.873Z" fill="#FFB8B8"/>
<path d="M36.4458 296.524L39.8015 302.229L63.3883 291.992L58.4354 283.573L36.4458 296.524Z" fill="#FFB8B8"/>
<path d="M37.4515 293.974L44.0601 305.208C44.6132 306.148 44.976 307.188 45.1274 308.269C45.2788 309.349 45.216 310.449 44.9426 311.505C44.6693 312.561 44.1907 313.553 43.5342 314.424C42.8778 315.295 42.0563 316.028 41.1166 316.581L40.8841 316.718L30.064 298.325L37.4515 293.974Z" fill="#2F2E41"/>
<path d="M75.3273 317.075L81.9427 317.075L85.0896 291.543L75.3262 291.543L75.3273 317.075Z" fill="#FFB8B8"/>
<path d="M73.6401 314.915L86.668 314.914C87.7583 314.914 88.8385 315.129 89.8458 315.546C90.8531 315.964 91.7683 316.576 92.5393 317.347C93.3102 318.119 93.9218 319.034 94.339 320.042C94.7563 321.05 94.971 322.13 94.971 323.221V323.491L73.6405 323.492L73.6401 314.915Z" fill="#2F2E41"/>
<path d="M48.7317 301.606C48.351 301.606 47.9756 301.517 47.6359 301.345C47.2961 301.173 47.0017 300.924 46.7763 300.617L40.3962 291.946C40.2016 291.682 40.0626 291.38 39.9876 291.061C39.9126 290.741 39.9031 290.409 39.9599 290.086C40.0166 289.762 40.1383 289.454 40.3176 289.178C40.4969 288.903 40.73 288.667 41.003 288.485L69.3932 269.511L52.263 224.441L88.8956 227.466L90.1294 266.197C90.2452 269.724 89.4003 273.216 87.6852 276.3C85.97 279.384 83.4491 281.943 80.3924 283.703L49.9449 301.28C49.5763 301.493 49.1578 301.606 48.7317 301.606Z" fill="#2F2E41"/>
<path d="M75.5273 311.892C74.8991 311.891 74.2957 311.646 73.8441 311.209C73.3924 310.772 73.1276 310.177 73.1052 309.549L71.7627 271.818L88.3867 270.941L87.063 308.943C87.0435 309.545 86.8006 310.119 86.3816 310.551C85.9627 310.984 85.3977 311.244 84.7969 311.283L75.6924 311.886C75.6372 311.89 75.5821 311.892 75.5273 311.892Z" fill="#2F2E41"/>
<path d="M93.1351 234.959C88.9055 234.959 74.1324 230.199 69.0038 228.502C68.2365 229.117 64.0216 232.27 59.1016 231.694C56.0659 231.337 53.3933 229.618 51.1583 226.583C46.2226 219.88 52.3187 191.136 58.302 168.203C59.5015 163.568 62.4503 159.578 66.5286 157.073C70.6069 154.568 75.497 153.742 80.171 154.77C83.5586 155.518 86.6705 157.197 89.1572 159.618C91.6439 162.038 93.4067 165.104 94.2477 168.472C95.3742 173.061 94.4051 178.458 93.6976 182.399C93.3649 184.252 93.1021 185.715 93.192 186.435C93.5392 189.214 95.4684 232.81 94.228 234.671C94.0958 234.87 93.7138 234.959 93.1351 234.959Z" fill="white"/>
<path d="M77.6619 235.037C78.3417 234.53 78.9022 233.881 79.3041 233.134C79.7059 232.388 79.9393 231.562 79.9877 230.716C80.0361 229.869 79.8985 229.022 79.5844 228.235C79.2704 227.447 78.7876 226.738 78.17 226.157L78.4319 173.329L65.9971 175.401L69.6497 226.678C68.7436 227.78 68.2732 229.178 68.3277 230.604C68.3822 232.031 68.9578 233.388 69.9454 234.418C70.933 235.448 72.264 236.08 73.6862 236.194C75.1084 236.308 76.523 235.896 77.6619 235.037Z" fill="#FFB8B8"/>
<path d="M80.5383 207.255H67.1446C66.505 207.253 65.8918 207 65.4375 206.549C64.9831 206.099 64.7241 205.488 64.7164 204.848L64.3876 168.515C64.3762 167.259 64.6139 166.013 65.0868 164.849C65.5598 163.685 66.2586 162.627 67.1429 161.735C68.0273 160.843 69.0796 160.136 70.2389 159.653C71.3983 159.171 72.6417 158.923 73.8973 158.925C75.1529 158.926 76.3957 159.177 77.5539 159.662C78.712 160.147 79.7626 160.857 80.6447 161.751C81.5269 162.645 82.2232 163.706 82.6933 164.871C83.1634 166.036 83.398 167.282 83.3835 168.538L82.9663 204.854C82.9568 205.492 82.6971 206.102 82.243 206.551C81.7889 207 81.1768 207.253 80.5383 207.255Z" fill="#FAFAFA"/>
<path d="M77.8525 150.818C71.7846 150.829 66.0601 146.03 65.0086 140.05C64.6322 137.701 64.8019 135.296 65.5047 133.023C66.2677 130.436 67.5762 128.042 69.342 126.004C71.1079 123.965 73.2899 122.329 75.7412 121.206C78.1924 120.083 80.8559 119.498 83.5519 119.492C86.248 119.486 88.914 120.058 91.3703 121.171C92.9936 121.906 94.5925 122.961 95.3357 124.582C96.079 126.202 95.6138 128.466 93.9879 129.196C92.9253 129.672 91.592 129.438 90.6493 130.122C89.2953 131.104 89.6438 133.195 90.2484 134.755C90.853 136.315 91.5369 138.204 90.5234 139.535C89.5789 140.775 87.6912 140.737 86.2042 140.27C84.7173 139.803 83.2497 139.021 81.6994 139.18C79.4383 139.412 77.8134 141.662 77.5126 143.917C77.2118 146.171 77.9199 148.425 78.6189 150.589L77.8525 150.818Z" fill="#2F2E41"/>
<path d="M139.755 324H0.539595C0.396485 324 0.259237 323.943 0.158043 323.842C0.0568496 323.74 0 323.603 0 323.46C0 323.317 0.0568496 323.179 0.158043 323.078C0.259237 322.977 0.396485 322.92 0.539595 322.92H139.755C139.898 322.92 140.035 322.977 140.137 323.078C140.238 323.179 140.295 323.317 140.295 323.46C140.295 323.603 140.238 323.74 140.137 323.842C140.035 323.943 139.898 324 139.755 324Z" fill="#CCCCCC"/>
<path d="M491.097 234.622H145.304C142.943 234.62 140.68 233.68 139.011 232.01C137.342 230.34 136.403 228.076 136.4 225.714V12.3608C136.402 10.6304 137.09 8.97145 138.313 7.74786C139.536 6.52428 141.194 5.83598 142.923 5.83398H493.365C495.124 5.83599 496.81 6.53617 498.054 7.78091C499.298 9.02565 499.998 10.7133 500 12.4736V225.714C499.997 228.076 499.058 230.34 497.389 232.01C495.72 233.68 493.457 234.62 491.097 234.622Z" fill="#F2F2F2"/>
<path d="M479.917 223.375H157.647C152.922 223.375 149.079 219.774 149.079 215.348V29.5572C149.079 26.2744 151.927 23.6035 155.428 23.6035H482.03C485.589 23.6035 488.484 26.3184 488.484 29.6552V215.348C488.484 219.774 484.641 223.375 479.917 223.375Z" fill="white"/>
<path d="M499.876 13.4712H136.275V8.93562C136.279 6.56584 137.222 4.29419 138.897 2.61902C140.572 0.943848 142.843 0.00196498 145.211 0H490.94C493.309 0.001945 495.579 0.94382 497.255 2.61899C498.93 4.29417 499.873 6.56583 499.876 8.93562V13.4712Z" fill="#3F3D56"/>
<path d="M152.515 9.06196C153.791 9.06196 154.826 8.02652 154.826 6.74924C154.826 5.47196 153.791 4.43652 152.515 4.43652C151.238 4.43652 150.204 5.47196 150.204 6.74924C150.204 8.02652 151.238 9.06196 152.515 9.06196Z" fill="white"/>
<path d="M161.288 9.06196C162.564 9.06196 163.599 8.02652 163.599 6.74924C163.599 5.47196 162.564 4.43652 161.288 4.43652C160.011 4.43652 158.977 5.47196 158.977 6.74924C158.977 8.02652 160.011 9.06196 161.288 9.06196Z" fill="white"/>
<path d="M170.061 9.06196C171.338 9.06196 172.373 8.02652 172.373 6.74924C172.373 5.47196 171.338 4.43652 170.061 4.43652C168.785 4.43652 167.75 5.47196 167.75 6.74924C167.75 8.02652 168.785 9.06196 170.061 9.06196Z" fill="white"/>
<path d="M311.136 64.2262H248.107C247.167 64.2262 246.266 63.8527 245.602 63.1878C244.937 62.5229 244.564 61.6212 244.564 60.681C244.564 59.7407 244.937 58.839 245.602 58.1741C246.266 57.5093 247.167 57.1357 248.107 57.1357H311.136C312.076 57.1357 312.977 57.5093 313.641 58.1741C314.306 58.839 314.679 59.7407 314.679 60.681C314.679 61.6212 314.306 62.5229 313.641 63.1878C312.977 63.8527 312.076 64.2262 311.136 64.2262Z" fill="#CCCCCC"/>
<path d="M389.456 64.2262H326.427C325.487 64.2262 324.586 63.8527 323.922 63.1878C323.257 62.5229 322.884 61.6212 322.884 60.681C322.884 59.7407 323.257 58.839 323.922 58.1741C324.586 57.5093 325.487 57.1357 326.427 57.1357H389.456C390.396 57.1357 391.297 57.5093 391.961 58.1741C392.626 58.839 392.999 59.7407 392.999 60.681C392.999 61.6212 392.626 62.5229 391.961 63.1878C391.297 63.8527 390.396 64.2262 389.456 64.2262Z" fill="#CCCCCC"/>
<path d="M389.456 77.6607H279.808C278.868 77.6607 277.967 77.2872 277.302 76.6224C276.638 75.9575 276.265 75.0558 276.265 74.1155C276.265 73.1753 276.638 72.2735 277.302 71.6087C277.967 70.9438 278.868 70.5703 279.808 70.5703H389.456C390.396 70.5703 391.297 70.9438 391.961 71.6087C392.626 72.2735 392.999 73.1753 392.999 74.1155C392.999 75.0558 392.626 75.9575 391.961 76.6224C391.297 77.2872 390.396 77.6607 389.456 77.6607Z" fill="#CCCCCC"/>
<path d="M311.136 50.6051H248.107C247.168 50.6039 246.268 50.2299 245.605 49.5652C244.941 48.9004 244.568 47.9994 244.568 47.0599C244.568 46.1204 244.941 45.2193 245.605 44.5546C246.268 43.8898 247.168 43.5158 248.107 43.5147H311.136C311.602 43.5141 312.063 43.6053 312.493 43.7833C312.924 43.9612 313.315 44.2222 313.644 44.5515C313.974 44.8807 314.235 45.2717 314.413 45.7022C314.592 46.1326 314.684 46.5939 314.684 47.0599C314.684 47.5258 314.592 47.9872 314.413 48.4176C314.235 48.848 313.974 49.239 313.644 49.5683C313.315 49.8975 312.924 50.1586 312.493 50.3365C312.063 50.5144 311.602 50.6056 311.136 50.6051Z" fill="#CCCCCC"/>
<path d="M345.82 50.7916H327.919C326.979 50.7916 326.078 50.4181 325.413 49.7532C324.749 49.0884 324.375 48.1866 324.375 47.2464C324.375 46.3061 324.749 45.4044 325.413 44.7395C326.078 44.0747 326.979 43.7012 327.919 43.7012H345.82C346.76 43.7012 347.661 44.0747 348.326 44.7395C348.99 45.4044 349.363 46.3061 349.363 47.2464C349.363 48.1866 348.99 49.0884 348.326 49.7532C347.661 50.4181 346.76 50.7916 345.82 50.7916Z" fill="#CCCCCC"/>
<path d="M266.009 77.6607H248.107C247.168 77.6596 246.268 77.2856 245.605 76.6208C244.941 75.9561 244.568 75.055 244.568 74.1155C244.568 73.176 244.941 72.275 245.605 71.6102C246.268 70.9455 247.168 70.5715 248.107 70.5703H266.009C266.474 70.5697 266.936 70.661 267.366 70.8389C267.796 71.0168 268.187 71.2779 268.517 71.6071C268.846 71.9364 269.108 72.3274 269.286 72.7578C269.464 73.1882 269.556 73.6496 269.556 74.1155C269.556 74.5815 269.464 75.0428 269.286 75.4732C269.108 75.9036 268.846 76.2946 268.517 76.6239C268.187 76.9532 267.796 77.2142 267.366 77.3921C266.936 77.57 266.474 77.6613 266.009 77.6607Z" fill="#CCCCCC"/>
<path d="M311.136 190.029H248.107C247.167 190.029 246.266 189.655 245.602 188.991C244.937 188.326 244.564 187.424 244.564 186.484C244.564 185.543 244.937 184.642 245.602 183.977C246.266 183.312 247.167 182.938 248.107 182.938H311.136C311.601 182.938 312.062 183.03 312.492 183.208C312.922 183.387 313.312 183.648 313.641 183.977C313.97 184.306 314.231 184.697 314.409 185.127C314.587 185.557 314.679 186.018 314.679 186.484C314.679 186.949 314.587 187.41 314.409 187.84C314.231 188.271 313.97 188.661 313.641 188.991C313.312 189.32 312.922 189.581 312.492 189.759C312.062 189.937 311.601 190.029 311.136 190.029Z" fill="#CCCCCC"/>
<path d="M389.456 190.029H326.427C325.487 190.029 324.586 189.655 323.922 188.991C323.257 188.326 322.884 187.424 322.884 186.484C322.884 185.543 323.257 184.642 323.922 183.977C324.586 183.312 325.487 182.938 326.427 182.938H389.456C389.921 182.938 390.382 183.03 390.812 183.208C391.242 183.387 391.632 183.648 391.961 183.977C392.29 184.306 392.551 184.697 392.729 185.127C392.907 185.557 392.999 186.018 392.999 186.484C392.999 186.949 392.907 187.41 392.729 187.84C392.551 188.271 392.29 188.661 391.961 188.991C391.632 189.32 391.242 189.581 390.812 189.759C390.382 189.937 389.921 190.029 389.456 190.029Z" fill="#CCCCCC"/>
<path d="M389.456 203.463H279.808C278.868 203.463 277.967 203.09 277.302 202.425C276.638 201.76 276.265 200.858 276.265 199.918C276.265 198.978 276.638 198.076 277.302 197.411C277.967 196.747 278.868 196.373 279.808 196.373H389.456C389.921 196.372 390.383 196.464 390.813 196.642C391.243 196.82 391.635 197.081 391.964 197.41C392.293 197.739 392.555 198.13 392.733 198.561C392.911 198.991 393.003 199.452 393.003 199.918C393.003 200.384 392.911 200.846 392.733 201.276C392.555 201.706 392.293 202.097 391.964 202.427C391.635 202.756 391.243 203.017 390.813 203.195C390.383 203.373 389.921 203.464 389.456 203.463Z" fill="#CCCCCC"/>
<path d="M311.136 176.408H248.107C247.167 176.408 246.266 176.034 245.602 175.369C244.937 174.705 244.564 173.803 244.564 172.863C244.564 171.922 244.937 171.021 245.602 170.356C246.266 169.691 247.167 169.317 248.107 169.317H311.136C312.076 169.317 312.977 169.691 313.641 170.356C314.306 171.021 314.679 171.922 314.679 172.863C314.679 173.803 314.306 174.705 313.641 175.369C312.977 176.034 312.076 176.408 311.136 176.408Z" fill="#CCCCCC"/>
<path d="M345.82 176.594H327.919C326.979 176.594 326.078 176.221 325.413 175.556C324.749 174.891 324.375 173.989 324.375 173.049C324.375 172.109 324.749 171.207 325.413 170.542C326.078 169.877 326.979 169.504 327.919 169.504H345.82C346.76 169.504 347.661 169.877 348.326 170.542C348.99 171.207 349.363 172.109 349.363 173.049C349.363 173.989 348.99 174.891 348.326 175.556C347.661 176.221 346.76 176.594 345.82 176.594Z" fill="#CCCCCC"/>
<path d="M266.009 203.463H248.107C247.167 203.463 246.266 203.09 245.602 202.425C244.937 201.76 244.564 200.858 244.564 199.918C244.564 198.978 244.937 198.076 245.602 197.411C246.266 196.747 247.167 196.373 248.107 196.373H266.009C266.474 196.372 266.936 196.464 267.366 196.642C267.796 196.82 268.187 197.081 268.517 197.41C268.846 197.739 269.108 198.13 269.286 198.561C269.464 198.991 269.556 199.452 269.556 199.918C269.556 200.384 269.464 200.846 269.286 201.276C269.108 201.706 268.846 202.097 268.517 202.427C268.187 202.756 267.796 203.017 267.366 203.195C266.936 203.373 266.474 203.464 266.009 203.463Z" fill="#CCCCCC"/>
<path d="M294.675 151.968C293.337 151.971 292.053 151.445 291.101 150.505L267.408 127.094C266.943 126.634 266.573 126.087 266.321 125.483C266.069 124.88 265.939 124.232 265.939 123.578C265.939 122.924 266.069 122.277 266.321 121.673C266.573 121.069 266.943 120.522 267.408 120.062L291.005 96.7462C291.988 95.7795 293.312 95.2398 294.691 95.2442C296.069 95.2485 297.39 95.7966 298.367 96.7694C299.345 97.7501 299.894 99.0789 299.894 100.464C299.894 101.85 299.345 103.178 298.367 104.159L280.832 121.705C280.286 122.253 279.979 122.995 279.979 123.769C279.979 124.543 280.286 125.285 280.832 125.833L298.272 143.284C298.984 143.995 299.469 144.902 299.666 145.889C299.863 146.876 299.762 147.9 299.377 148.83C298.991 149.76 298.339 150.555 297.502 151.113C296.665 151.672 295.681 151.969 294.675 151.968Z" fill="#6C63FF"/>
<path d="M332.428 151.968C331.422 151.969 330.438 151.672 329.601 151.113C328.764 150.555 328.111 149.76 327.726 148.83C327.341 147.9 327.24 146.876 327.437 145.889C327.633 144.902 328.119 143.995 328.831 143.284L346.27 125.833C346.817 125.286 347.123 124.543 347.123 123.769C347.123 122.995 346.817 122.253 346.27 121.705L328.736 104.159C328.251 103.674 327.866 103.098 327.604 102.464C327.341 101.83 327.206 101.15 327.206 100.464C327.206 99.7781 327.341 99.0986 327.604 98.4646C327.866 97.8307 328.251 97.2546 328.736 96.7694C329.713 95.7966 331.034 95.2485 332.412 95.2442C333.79 95.2398 335.115 95.7796 336.098 96.7462L359.695 120.062C360.16 120.522 360.529 121.07 360.781 121.673C361.033 122.277 361.163 122.924 361.163 123.578C361.163 124.232 361.033 124.88 360.781 125.483C360.529 126.087 360.16 126.634 359.695 127.094L336.002 150.505C335.05 151.445 333.765 151.971 332.428 151.968Z" fill="#6C63FF"/>
</g>
<defs>
<clipPath id="clip0_331_1428">
<rect width="500" height="324" fill="white"/>
</clipPath>
</defs>
</svg>
